G04 #@! TF.GenerationSoftware,KiCad,Pcbnew,(6.0.5-0)*
G04 #@! TF.CreationDate,2023-06-15T15:10:14-04:00*
G04 #@! TF.ProjectId,stratoconnect,73747261-746f-4636-9f6e-6e6563742e6b,rev?*
G04 #@! TF.SameCoordinates,Original*
G04 #@! TF.FileFunction,Soldermask,Bot*
G04 #@! TF.FilePolarity,Negative*
%FSLAX46Y46*%
G04 Gerber Fmt 4.6, Leading zero omitted, Abs format (unit mm)*
G04 Created by KiCad (PCBNEW (6.0.5-0)) date 2023-06-15 15:10:14*
%MOMM*%
%LPD*%
G01*
G04 APERTURE LIST*
G04 Aperture macros list*
%AMRoundRect*
0 Rectangle with rounded corners*
0 $1 Rounding radius*
0 $2 $3 $4 $5 $6 $7 $8 $9 X,Y pos of 4 corners*
0 Add a 4 corners polygon primitive as box body*
4,1,4,$2,$3,$4,$5,$6,$7,$8,$9,$2,$3,0*
0 Add four circle primitives for the rounded corners*
1,1,$1+$1,$2,$3*
1,1,$1+$1,$4,$5*
1,1,$1+$1,$6,$7*
1,1,$1+$1,$8,$9*
0 Add four rect primitives between the rounded corners*
20,1,$1+$1,$2,$3,$4,$5,0*
20,1,$1+$1,$4,$5,$6,$7,0*
20,1,$1+$1,$6,$7,$8,$9,0*
20,1,$1+$1,$8,$9,$2,$3,0*%
%AMFreePoly0*
4,1,22,0.500000,-0.750000,0.000000,-0.750000,0.000000,-0.745033,-0.079941,-0.743568,-0.215256,-0.701293,-0.333266,-0.622738,-0.424486,-0.514219,-0.481581,-0.384460,-0.499164,-0.250000,-0.500000,-0.250000,-0.500000,0.250000,-0.499164,0.250000,-0.499963,0.256109,-0.478152,0.396186,-0.417904,0.524511,-0.324060,0.630769,-0.204165,0.706417,-0.067858,0.745374,0.000000,0.744959,0.000000,0.750000,
0.500000,0.750000,0.500000,-0.750000,0.500000,-0.750000,$1*%
%AMFreePoly1*
4,1,20,0.000000,0.744959,0.073905,0.744508,0.209726,0.703889,0.328688,0.626782,0.421226,0.519385,0.479903,0.390333,0.500000,0.250000,0.500000,-0.250000,0.499851,-0.262216,0.476331,-0.402017,0.414519,-0.529596,0.319384,-0.634700,0.198574,-0.708877,0.061801,-0.746166,0.000000,-0.745033,0.000000,-0.750000,-0.500000,-0.750000,-0.500000,0.750000,0.000000,0.750000,0.000000,0.744959,
0.000000,0.744959,$1*%
G04 Aperture macros list end*
%ADD10C,0.800000*%
%ADD11C,6.400000*%
%ADD12RoundRect,0.250000X-0.750000X0.600000X-0.750000X-0.600000X0.750000X-0.600000X0.750000X0.600000X0*%
%ADD13O,2.000000X1.700000*%
%ADD14R,4.190000X2.665000*%
%ADD15R,1.700000X1.700000*%
%ADD16O,1.700000X1.700000*%
%ADD17FreePoly0,180.000000*%
%ADD18FreePoly1,180.000000*%
%ADD19FreePoly0,0.000000*%
%ADD20FreePoly1,0.000000*%
%ADD21FreePoly0,270.000000*%
%ADD22FreePoly1,270.000000*%
G04 APERTURE END LIST*
D10*
X138302944Y-90947056D03*
X141697056Y-90947056D03*
X142400000Y-89250000D03*
X137600000Y-89250000D03*
X140000000Y-91650000D03*
X141697056Y-87552944D03*
X140000000Y-86850000D03*
X138302944Y-87552944D03*
D11*
X140000000Y-89250000D03*
D12*
X201217500Y-58500000D03*
D13*
X201217500Y-61000000D03*
D14*
X142672500Y-59682500D03*
X142672500Y-52697500D03*
D15*
X171225000Y-78475000D03*
D16*
X173765000Y-78475000D03*
X171225000Y-81015000D03*
X173765000Y-81015000D03*
X171225000Y-83555000D03*
X173765000Y-83555000D03*
D10*
X204250000Y-86850000D03*
X205947056Y-90947056D03*
D11*
X204250000Y-89250000D03*
D10*
X201850000Y-89250000D03*
X204250000Y-91650000D03*
X205947056Y-87552944D03*
X202552944Y-87552944D03*
X202552944Y-90947056D03*
X206650000Y-89250000D03*
X205947056Y-52947056D03*
X205947056Y-49552944D03*
X204250000Y-48850000D03*
X202552944Y-52947056D03*
X206650000Y-51250000D03*
X201850000Y-51250000D03*
X202552944Y-49552944D03*
X204250000Y-53650000D03*
D11*
X204250000Y-51250000D03*
D17*
X193150000Y-73500000D03*
D18*
X191850000Y-73500000D03*
D19*
X187850000Y-63000000D03*
D20*
X189150000Y-63000000D03*
D21*
X163800000Y-78750000D03*
D22*
X163800000Y-80050000D03*
D17*
X193150000Y-76000000D03*
D18*
X191850000Y-76000000D03*
M02*
