G04 #@! TF.GenerationSoftware,KiCad,Pcbnew,(6.0.5-0)*
G04 #@! TF.CreationDate,2023-06-15T15:10:14-04:00*
G04 #@! TF.ProjectId,stratoconnect,73747261-746f-4636-9f6e-6e6563742e6b,rev?*
G04 #@! TF.SameCoordinates,Original*
G04 #@! TF.FileFunction,Legend,Bot*
G04 #@! TF.FilePolarity,Positive*
%FSLAX46Y46*%
G04 Gerber Fmt 4.6, Leading zero omitted, Abs format (unit mm)*
G04 Created by KiCad (PCBNEW (6.0.5-0)) date 2023-06-15 15:10:14*
%MOMM*%
%LPD*%
G01*
G04 APERTURE LIST*
G04 Aperture macros list*
%AMRoundRect*
0 Rectangle with rounded corners*
0 $1 Rounding radius*
0 $2 $3 $4 $5 $6 $7 $8 $9 X,Y pos of 4 corners*
0 Add a 4 corners polygon primitive as box body*
4,1,4,$2,$3,$4,$5,$6,$7,$8,$9,$2,$3,0*
0 Add four circle primitives for the rounded corners*
1,1,$1+$1,$2,$3*
1,1,$1+$1,$4,$5*
1,1,$1+$1,$6,$7*
1,1,$1+$1,$8,$9*
0 Add four rect primitives between the rounded corners*
20,1,$1+$1,$2,$3,$4,$5,0*
20,1,$1+$1,$4,$5,$6,$7,0*
20,1,$1+$1,$6,$7,$8,$9,0*
20,1,$1+$1,$8,$9,$2,$3,0*%
%AMFreePoly0*
4,1,22,0.500000,-0.750000,0.000000,-0.750000,0.000000,-0.745033,-0.079941,-0.743568,-0.215256,-0.701293,-0.333266,-0.622738,-0.424486,-0.514219,-0.481581,-0.384460,-0.499164,-0.250000,-0.500000,-0.250000,-0.500000,0.250000,-0.499164,0.250000,-0.499963,0.256109,-0.478152,0.396186,-0.417904,0.524511,-0.324060,0.630769,-0.204165,0.706417,-0.067858,0.745374,0.000000,0.744959,0.000000,0.750000,
0.500000,0.750000,0.500000,-0.750000,0.500000,-0.750000,$1*%
%AMFreePoly1*
4,1,20,0.000000,0.744959,0.073905,0.744508,0.209726,0.703889,0.328688,0.626782,0.421226,0.519385,0.479903,0.390333,0.500000,0.250000,0.500000,-0.250000,0.499851,-0.262216,0.476331,-0.402017,0.414519,-0.529596,0.319384,-0.634700,0.198574,-0.708877,0.061801,-0.746166,0.000000,-0.745033,0.000000,-0.750000,-0.500000,-0.750000,-0.500000,0.750000,0.000000,0.750000,0.000000,0.744959,
0.000000,0.744959,$1*%
G04 Aperture macros list end*
%ADD10C,0.010000*%
%ADD11C,0.120000*%
%ADD12C,0.800000*%
%ADD13C,6.400000*%
%ADD14RoundRect,0.250000X-0.750000X0.600000X-0.750000X-0.600000X0.750000X-0.600000X0.750000X0.600000X0*%
%ADD15O,2.000000X1.700000*%
%ADD16R,4.190000X2.665000*%
%ADD17R,1.700000X1.700000*%
%ADD18O,1.700000X1.700000*%
%ADD19FreePoly0,180.000000*%
%ADD20FreePoly1,180.000000*%
%ADD21FreePoly0,0.000000*%
%ADD22FreePoly1,0.000000*%
%ADD23FreePoly0,270.000000*%
%ADD24FreePoly1,270.000000*%
G04 APERTURE END LIST*
D10*
G36*
X159802747Y-75809097D02*
G01*
X159826520Y-75813766D01*
X159848218Y-75821579D01*
X159867871Y-75832489D01*
X159885480Y-75846527D01*
X159901013Y-75863693D01*
X159914380Y-75883652D01*
X159925473Y-75906097D01*
X159934277Y-75931030D01*
X159940793Y-75958450D01*
X159945035Y-75988342D01*
X159947003Y-76020721D01*
X159605222Y-76020721D01*
X159608456Y-75986679D01*
X159613828Y-75955597D01*
X159621304Y-75927460D01*
X159630917Y-75902298D01*
X159642651Y-75880081D01*
X159656506Y-75860840D01*
X159672284Y-75844543D01*
X159689771Y-75831223D01*
X159708981Y-75820862D01*
X159729916Y-75813461D01*
X159752576Y-75809021D01*
X159776944Y-75807541D01*
X159802747Y-75809097D01*
G37*
X159802747Y-75809097D02*
X159826520Y-75813766D01*
X159848218Y-75821579D01*
X159867871Y-75832489D01*
X159885480Y-75846527D01*
X159901013Y-75863693D01*
X159914380Y-75883652D01*
X159925473Y-75906097D01*
X159934277Y-75931030D01*
X159940793Y-75958450D01*
X159945035Y-75988342D01*
X159947003Y-76020721D01*
X159605222Y-76020721D01*
X159608456Y-75986679D01*
X159613828Y-75955597D01*
X159621304Y-75927460D01*
X159630917Y-75902298D01*
X159642651Y-75880081D01*
X159656506Y-75860840D01*
X159672284Y-75844543D01*
X159689771Y-75831223D01*
X159708981Y-75820862D01*
X159729916Y-75813461D01*
X159752576Y-75809021D01*
X159776944Y-75807541D01*
X159802747Y-75809097D01*
G36*
X193168875Y-70866214D02*
G01*
X193192648Y-70870898D01*
X193214346Y-70878696D01*
X193234000Y-70889621D01*
X193251608Y-70903659D01*
X193267142Y-70920825D01*
X193280508Y-70940784D01*
X193291602Y-70963229D01*
X193300406Y-70988147D01*
X193306937Y-71015567D01*
X193311179Y-71045474D01*
X193313132Y-71077869D01*
X192971350Y-71077869D01*
X192974585Y-71043811D01*
X192979941Y-71012714D01*
X192987418Y-70984592D01*
X192997031Y-70959415D01*
X193008765Y-70937213D01*
X193022620Y-70917957D01*
X193038397Y-70901675D01*
X193055884Y-70888354D01*
X193075110Y-70877979D01*
X193096030Y-70870578D01*
X193118689Y-70866138D01*
X193143057Y-70864658D01*
X193168875Y-70866214D01*
G37*
X193168875Y-70866214D02*
X193192648Y-70870898D01*
X193214346Y-70878696D01*
X193234000Y-70889621D01*
X193251608Y-70903659D01*
X193267142Y-70920825D01*
X193280508Y-70940784D01*
X193291602Y-70963229D01*
X193300406Y-70988147D01*
X193306937Y-71015567D01*
X193311179Y-71045474D01*
X193313132Y-71077869D01*
X192971350Y-71077869D01*
X192974585Y-71043811D01*
X192979941Y-71012714D01*
X192987418Y-70984592D01*
X192997031Y-70959415D01*
X193008765Y-70937213D01*
X193022620Y-70917957D01*
X193038397Y-70901675D01*
X193055884Y-70888354D01*
X193075110Y-70877979D01*
X193096030Y-70870578D01*
X193118689Y-70866138D01*
X193143057Y-70864658D01*
X193168875Y-70866214D01*
G36*
X200505149Y-71439151D02*
G01*
X200191849Y-71439151D01*
X200155069Y-71437991D01*
X200121739Y-71434497D01*
X200091859Y-71428683D01*
X200065449Y-71420535D01*
X200042499Y-71410052D01*
X200022999Y-71397250D01*
X200006719Y-71382114D01*
X199993399Y-71364658D01*
X199983019Y-71344867D01*
X199975619Y-71322742D01*
X199971179Y-71298297D01*
X199969699Y-71271533D01*
X199976129Y-71222293D01*
X199995379Y-71182025D01*
X200027469Y-71150699D01*
X200072409Y-71128314D01*
X200130189Y-71114902D01*
X200200809Y-71110416D01*
X200505149Y-71110416D01*
X200505149Y-71439151D01*
G37*
X200505149Y-71439151D02*
X200191849Y-71439151D01*
X200155069Y-71437991D01*
X200121739Y-71434497D01*
X200091859Y-71428683D01*
X200065449Y-71420535D01*
X200042499Y-71410052D01*
X200022999Y-71397250D01*
X200006719Y-71382114D01*
X199993399Y-71364658D01*
X199983019Y-71344867D01*
X199975619Y-71322742D01*
X199971179Y-71298297D01*
X199969699Y-71271533D01*
X199976129Y-71222293D01*
X199995379Y-71182025D01*
X200027469Y-71150699D01*
X200072409Y-71128314D01*
X200130189Y-71114902D01*
X200200809Y-71110416D01*
X200505149Y-71110416D01*
X200505149Y-71439151D01*
G36*
X200505149Y-70933017D02*
G01*
X200230109Y-70933017D01*
X200197739Y-70932040D01*
X200168489Y-70929095D01*
X200142319Y-70924167D01*
X200119249Y-70917285D01*
X200099299Y-70908435D01*
X200082419Y-70897617D01*
X200068369Y-70884845D01*
X200056879Y-70870090D01*
X200047929Y-70853366D01*
X200041539Y-70834689D01*
X200037709Y-70814044D01*
X200036429Y-70791415D01*
X200037799Y-70766895D01*
X200041909Y-70744861D01*
X200048739Y-70725314D01*
X200058309Y-70708240D01*
X200070619Y-70693668D01*
X200085669Y-70681567D01*
X200103399Y-70671634D01*
X200123769Y-70663486D01*
X200146799Y-70657153D01*
X200172459Y-70652637D01*
X200200779Y-70649921D01*
X200231729Y-70649020D01*
X200505149Y-70649020D01*
X200505149Y-70933017D01*
G37*
X200505149Y-70933017D02*
X200230109Y-70933017D01*
X200197739Y-70932040D01*
X200168489Y-70929095D01*
X200142319Y-70924167D01*
X200119249Y-70917285D01*
X200099299Y-70908435D01*
X200082419Y-70897617D01*
X200068369Y-70884845D01*
X200056879Y-70870090D01*
X200047929Y-70853366D01*
X200041539Y-70834689D01*
X200037709Y-70814044D01*
X200036429Y-70791415D01*
X200037799Y-70766895D01*
X200041909Y-70744861D01*
X200048739Y-70725314D01*
X200058309Y-70708240D01*
X200070619Y-70693668D01*
X200085669Y-70681567D01*
X200103399Y-70671634D01*
X200123769Y-70663486D01*
X200146799Y-70657153D01*
X200172459Y-70652637D01*
X200200779Y-70649921D01*
X200231729Y-70649020D01*
X200505149Y-70649020D01*
X200505149Y-70933017D01*
G36*
X184503581Y-70885013D02*
G01*
X184549350Y-70909427D01*
X184584972Y-70950107D01*
X184610391Y-71007068D01*
X184625652Y-71080310D01*
X184630731Y-71169818D01*
X184625690Y-71257571D01*
X184610570Y-71329395D01*
X184585361Y-71385242D01*
X184550071Y-71425143D01*
X184504711Y-71449084D01*
X184449260Y-71457065D01*
X184420070Y-71454944D01*
X184393241Y-71448611D01*
X184368800Y-71438037D01*
X184346731Y-71423251D01*
X184327030Y-71404224D01*
X184309711Y-71380984D01*
X184294910Y-71353839D01*
X184282810Y-71323154D01*
X184273401Y-71288913D01*
X184266670Y-71251132D01*
X184262641Y-71209796D01*
X184261281Y-71164935D01*
X184262641Y-71121295D01*
X184266670Y-71080981D01*
X184273401Y-71043994D01*
X184282810Y-71010333D01*
X184294910Y-70979984D01*
X184309711Y-70952960D01*
X184326991Y-70929721D01*
X184346551Y-70910693D01*
X184368400Y-70895892D01*
X184392520Y-70885333D01*
X184418941Y-70878986D01*
X184447641Y-70876880D01*
X184503581Y-70885013D01*
G37*
X184503581Y-70885013D02*
X184549350Y-70909427D01*
X184584972Y-70950107D01*
X184610391Y-71007068D01*
X184625652Y-71080310D01*
X184630731Y-71169818D01*
X184625690Y-71257571D01*
X184610570Y-71329395D01*
X184585361Y-71385242D01*
X184550071Y-71425143D01*
X184504711Y-71449084D01*
X184449260Y-71457065D01*
X184420070Y-71454944D01*
X184393241Y-71448611D01*
X184368800Y-71438037D01*
X184346731Y-71423251D01*
X184327030Y-71404224D01*
X184309711Y-71380984D01*
X184294910Y-71353839D01*
X184282810Y-71323154D01*
X184273401Y-71288913D01*
X184266670Y-71251132D01*
X184262641Y-71209796D01*
X184261281Y-71164935D01*
X184262641Y-71121295D01*
X184266670Y-71080981D01*
X184273401Y-71043994D01*
X184282810Y-71010333D01*
X184294910Y-70979984D01*
X184309711Y-70952960D01*
X184326991Y-70929721D01*
X184346551Y-70910693D01*
X184368400Y-70895892D01*
X184392520Y-70885333D01*
X184418941Y-70878986D01*
X184447641Y-70876880D01*
X184503581Y-70885013D01*
G36*
X191358510Y-70866214D02*
G01*
X191382270Y-70870898D01*
X191403982Y-70878696D01*
X191423636Y-70889621D01*
X191441229Y-70903659D01*
X191456778Y-70920825D01*
X191470145Y-70940784D01*
X191481238Y-70963229D01*
X191490042Y-70988147D01*
X191496558Y-71015567D01*
X191500800Y-71045474D01*
X191502768Y-71077869D01*
X191160970Y-71077869D01*
X191164210Y-71043811D01*
X191169580Y-71012714D01*
X191177050Y-70984592D01*
X191186670Y-70959415D01*
X191198400Y-70937213D01*
X191212260Y-70917957D01*
X191228030Y-70901675D01*
X191245520Y-70888354D01*
X191264730Y-70877979D01*
X191285670Y-70870578D01*
X191308310Y-70866138D01*
X191332680Y-70864658D01*
X191358510Y-70866214D01*
G37*
X191358510Y-70866214D02*
X191382270Y-70870898D01*
X191403982Y-70878696D01*
X191423636Y-70889621D01*
X191441229Y-70903659D01*
X191456778Y-70920825D01*
X191470145Y-70940784D01*
X191481238Y-70963229D01*
X191490042Y-70988147D01*
X191496558Y-71015567D01*
X191500800Y-71045474D01*
X191502768Y-71077869D01*
X191160970Y-71077869D01*
X191164210Y-71043811D01*
X191169580Y-71012714D01*
X191177050Y-70984592D01*
X191186670Y-70959415D01*
X191198400Y-70937213D01*
X191212260Y-70917957D01*
X191228030Y-70901675D01*
X191245520Y-70888354D01*
X191264730Y-70877979D01*
X191285670Y-70870578D01*
X191308310Y-70866138D01*
X191332680Y-70864658D01*
X191358510Y-70866214D01*
G36*
X164796919Y-76914108D02*
G01*
X164787759Y-76952240D01*
X164772749Y-76988495D01*
X164752239Y-77021940D01*
X164726769Y-77051770D01*
X164696939Y-77077240D01*
X164663489Y-77097750D01*
X164627239Y-77112760D01*
X164589109Y-77121920D01*
X164549999Y-77125000D01*
X155050001Y-77125000D01*
X155010891Y-77121920D01*
X154972761Y-77112760D01*
X154936511Y-77097750D01*
X154903061Y-77077240D01*
X154873231Y-77051770D01*
X154847761Y-77021940D01*
X154827251Y-76988495D01*
X154812240Y-76952240D01*
X154803081Y-76914108D01*
X154800001Y-76875000D01*
X154800001Y-76229858D01*
X155227321Y-76229858D01*
X155230791Y-76283798D01*
X155241191Y-76333344D01*
X155258541Y-76378464D01*
X155282831Y-76419189D01*
X155314071Y-76455505D01*
X155352231Y-76487411D01*
X155397121Y-76514633D01*
X155448480Y-76536911D01*
X155506341Y-76554245D01*
X155570680Y-76566620D01*
X155641511Y-76574036D01*
X155718820Y-76576508D01*
X155789691Y-76574341D01*
X155855271Y-76567841D01*
X155915540Y-76556992D01*
X155970551Y-76541794D01*
X156020251Y-76522263D01*
X156064661Y-76498398D01*
X156103961Y-76470123D01*
X156138261Y-76437363D01*
X156167600Y-76400131D01*
X156191971Y-76358429D01*
X156211361Y-76312256D01*
X156225781Y-76261597D01*
X156146839Y-76248581D01*
X156291240Y-76248581D01*
X156297201Y-76261597D01*
X156315501Y-76301559D01*
X156343271Y-76349808D01*
X156374541Y-76393326D01*
X156409311Y-76432129D01*
X156447601Y-76466202D01*
X156489381Y-76495544D01*
X156534361Y-76520294D01*
X156582201Y-76540527D01*
X156632921Y-76556274D01*
X156686491Y-76567520D01*
X156742951Y-76574265D01*
X156802270Y-76576508D01*
X156891001Y-76572159D01*
X156972740Y-76559113D01*
X157013587Y-76547226D01*
X157908780Y-76547226D01*
X157937630Y-76555679D01*
X157967820Y-76562592D01*
X157999310Y-76567978D01*
X158032100Y-76571823D01*
X158066221Y-76574127D01*
X158101640Y-76574890D01*
X158133980Y-76573364D01*
X158163750Y-76568787D01*
X158190950Y-76561157D01*
X158215560Y-76550491D01*
X158237590Y-76536758D01*
X158257060Y-76519974D01*
X158273720Y-76500092D01*
X158287350Y-76477066D01*
X158297960Y-76450897D01*
X158305520Y-76421585D01*
X158310070Y-76389145D01*
X158311580Y-76353561D01*
X158311580Y-76267288D01*
X158470560Y-76267288D01*
X158475750Y-76296860D01*
X158483170Y-76325333D01*
X158492840Y-76352737D01*
X158504740Y-76379059D01*
X158518870Y-76404282D01*
X158535260Y-76428421D01*
X158553660Y-76451126D01*
X158573910Y-76472046D01*
X158595990Y-76491180D01*
X158619890Y-76508530D01*
X158645630Y-76524078D01*
X158673200Y-76537857D01*
X158702270Y-76549667D01*
X158732510Y-76559341D01*
X158763930Y-76566849D01*
X158796520Y-76572220D01*
X158830289Y-76575439D01*
X158865231Y-76576508D01*
X158929425Y-76573196D01*
X158988553Y-76563263D01*
X159042630Y-76546707D01*
X159091641Y-76523529D01*
X159135571Y-76493729D01*
X159174451Y-76457306D01*
X159207776Y-76414963D01*
X159235043Y-76367386D01*
X159256238Y-76314590D01*
X159271390Y-76256577D01*
X159280469Y-76193344D01*
X159282061Y-76157440D01*
X159383893Y-76157440D01*
X159383893Y-76163940D01*
X159948621Y-76163940D01*
X159947293Y-76205048D01*
X159943326Y-76242661D01*
X159936719Y-76276749D01*
X159927457Y-76307358D01*
X159915555Y-76334442D01*
X159901013Y-76358032D01*
X159884030Y-76378036D01*
X159864804Y-76394424D01*
X159843335Y-76407150D01*
X159819638Y-76416245D01*
X159793713Y-76421707D01*
X159765530Y-76423523D01*
X159727612Y-76420609D01*
X159694653Y-76411865D01*
X159666669Y-76397278D01*
X159643658Y-76376877D01*
X159625623Y-76350632D01*
X159612561Y-76318558D01*
X159396909Y-76337265D01*
X159433469Y-76410370D01*
X159480725Y-76470184D01*
X159538708Y-76516708D01*
X159607404Y-76549927D01*
X159686810Y-76569870D01*
X159776944Y-76576508D01*
X159840558Y-76573242D01*
X159899075Y-76563446D01*
X159909555Y-76560242D01*
X160333325Y-76560242D01*
X160561169Y-76560242D01*
X160561169Y-76066299D01*
X160565533Y-75995453D01*
X160578625Y-75937469D01*
X160600446Y-75892365D01*
X160630978Y-75860153D01*
X160670239Y-75840836D01*
X160718228Y-75834396D01*
X160745007Y-75836365D01*
X160770001Y-75842300D01*
X160793195Y-75852188D01*
X160814620Y-75866043D01*
X160834240Y-75883835D01*
X160852090Y-75905594D01*
X160867630Y-75930450D01*
X160880350Y-75957535D01*
X160890240Y-75986862D01*
X160897310Y-76018417D01*
X160901530Y-76052231D01*
X160902950Y-76088272D01*
X160902950Y-76560242D01*
X161131620Y-76560242D01*
X161327540Y-76560242D01*
X161555390Y-76560242D01*
X161555390Y-76066299D01*
X161559749Y-75995453D01*
X161572829Y-75937469D01*
X161594650Y-75892365D01*
X161625180Y-75860153D01*
X161664459Y-75840836D01*
X161712449Y-75834396D01*
X161739209Y-75836365D01*
X161764199Y-75842300D01*
X161787410Y-75852188D01*
X161808820Y-75866043D01*
X161828460Y-75883835D01*
X161846299Y-75905594D01*
X161861840Y-75930450D01*
X161874549Y-75957535D01*
X161884439Y-75986862D01*
X161891510Y-76018417D01*
X161895750Y-76052231D01*
X161897150Y-76088272D01*
X161897150Y-76560242D01*
X162125819Y-76560242D01*
X162125819Y-76119202D01*
X162283509Y-76119202D01*
X162286799Y-76187958D01*
X162296700Y-76251602D01*
X162313200Y-76310120D01*
X162336299Y-76363495D01*
X162366009Y-76411743D01*
X162402309Y-76454865D01*
X162444439Y-76492035D01*
X162491639Y-76522446D01*
X162543900Y-76546097D01*
X162601219Y-76563004D01*
X162663599Y-76573135D01*
X162731060Y-76576508D01*
X162797220Y-76573120D01*
X162858459Y-76562958D01*
X162914759Y-76546005D01*
X162966139Y-76522263D01*
X163012599Y-76491745D01*
X163054119Y-76454453D01*
X163089919Y-76411224D01*
X163119209Y-76362946D01*
X163142009Y-76309601D01*
X163158279Y-76251190D01*
X163158680Y-76248581D01*
X163253839Y-76248581D01*
X163278099Y-76301559D01*
X163305869Y-76349808D01*
X163337139Y-76393326D01*
X163371909Y-76432129D01*
X163410199Y-76466202D01*
X163451979Y-76495544D01*
X163496949Y-76520294D01*
X163544799Y-76540527D01*
X163595499Y-76556274D01*
X163649089Y-76567520D01*
X163705549Y-76574265D01*
X163764869Y-76576508D01*
X163853599Y-76572159D01*
X163935349Y-76559113D01*
X164010109Y-76537354D01*
X164077889Y-76506897D01*
X164138679Y-76467728D01*
X164192499Y-76419861D01*
X164238629Y-76364182D01*
X164276359Y-76301559D01*
X164305709Y-76231995D01*
X164326669Y-76155487D01*
X164339259Y-76072052D01*
X164343439Y-75981674D01*
X164339399Y-75891190D01*
X164327269Y-75807983D01*
X164307029Y-75732056D01*
X164278709Y-75663406D01*
X164242309Y-75602036D01*
X164197799Y-75547943D01*
X164145599Y-75501709D01*
X164086119Y-75463867D01*
X164019379Y-75434433D01*
X163945339Y-75413406D01*
X163864039Y-75400803D01*
X163775449Y-75396591D01*
X163710259Y-75398849D01*
X163649229Y-75405594D01*
X163592359Y-75416840D01*
X163539639Y-75432587D01*
X163491089Y-75452820D01*
X163446699Y-75477570D01*
X163406489Y-75506668D01*
X163370479Y-75539993D01*
X163338669Y-75577560D01*
X163311059Y-75619339D01*
X163287669Y-75665344D01*
X163268479Y-75715591D01*
X163480049Y-75773361D01*
X163490439Y-75745590D01*
X163503699Y-75719788D01*
X163519829Y-75695953D01*
X163538829Y-75674088D01*
X163560699Y-75654175D01*
X163585429Y-75636246D01*
X163612389Y-75620712D01*
X163640909Y-75607986D01*
X163670989Y-75598099D01*
X163702619Y-75591034D01*
X163735809Y-75586807D01*
X163770569Y-75585388D01*
X163822629Y-75588196D01*
X163870339Y-75596603D01*
X163913679Y-75610611D01*
X163952659Y-75630234D01*
X163987289Y-75655472D01*
X164017539Y-75686295D01*
X164043269Y-75722534D01*
X164064329Y-75763962D01*
X164080699Y-75810593D01*
X164092399Y-75862427D01*
X164099419Y-75919449D01*
X164101759Y-75981674D01*
X164099349Y-76044983D01*
X164092129Y-76103088D01*
X164088463Y-76119202D01*
X164080089Y-76156006D01*
X164063239Y-76203735D01*
X164041579Y-76246246D01*
X164015089Y-76283569D01*
X163984069Y-76315399D01*
X163948769Y-76341431D01*
X163909209Y-76361694D01*
X163865369Y-76376160D01*
X163817259Y-76384842D01*
X163764869Y-76387726D01*
X163696129Y-76381668D01*
X163634759Y-76363495D01*
X163580759Y-76333206D01*
X163534129Y-76290802D01*
X163494869Y-76236282D01*
X163462979Y-76169647D01*
X163253839Y-76248581D01*
X163158680Y-76248581D01*
X163168039Y-76187729D01*
X163171289Y-76119202D01*
X163168039Y-76050919D01*
X163158279Y-75987701D01*
X163142009Y-75929504D01*
X163119209Y-75876358D01*
X163089919Y-75828232D01*
X163054119Y-75785172D01*
X163012459Y-75747986D01*
X162965599Y-75717575D01*
X162913539Y-75693924D01*
X162856289Y-75677032D01*
X162793839Y-75666885D01*
X162726179Y-75663513D01*
X162657130Y-75666779D01*
X162593760Y-75676575D01*
X162582438Y-75679779D01*
X162536069Y-75692902D01*
X162484050Y-75715775D01*
X162437700Y-75745163D01*
X162397019Y-75781097D01*
X162362329Y-75823151D01*
X162333950Y-75870926D01*
X162311889Y-75924408D01*
X162296109Y-75983627D01*
X162286649Y-76048538D01*
X162283509Y-76119202D01*
X162125819Y-76119202D01*
X162125819Y-75876709D01*
X162125880Y-75853821D01*
X162126050Y-75832352D01*
X162126339Y-75812317D01*
X162126739Y-75793716D01*
X162127239Y-75776520D01*
X162127869Y-75760757D01*
X162128550Y-75745956D01*
X162129999Y-75717926D01*
X162130749Y-75704697D01*
X162131530Y-75691971D01*
X162132339Y-75679779D01*
X161914259Y-75679779D01*
X161913389Y-75686371D01*
X161912440Y-75695831D01*
X161911399Y-75708160D01*
X161910280Y-75723358D01*
X161909050Y-75741440D01*
X161907739Y-75762375D01*
X161906489Y-75783585D01*
X161905479Y-75802475D01*
X161904690Y-75819031D01*
X161904130Y-75833267D01*
X161903790Y-75845169D01*
X161903669Y-75854736D01*
X161900419Y-75854736D01*
X161884300Y-75822647D01*
X161866859Y-75793625D01*
X161848130Y-75767670D01*
X161828079Y-75744797D01*
X161806730Y-75724991D01*
X161784050Y-75708267D01*
X161759979Y-75694351D01*
X161734420Y-75682953D01*
X161707360Y-75674088D01*
X161678809Y-75667755D01*
X161648770Y-75663956D01*
X161617229Y-75662689D01*
X161572379Y-75665085D01*
X161531160Y-75672272D01*
X161507611Y-75679779D01*
X161493540Y-75684265D01*
X161459550Y-75701035D01*
X161429170Y-75722595D01*
X161402400Y-75748947D01*
X161379530Y-75779922D01*
X161360820Y-75815308D01*
X161346250Y-75855148D01*
X161335860Y-75899399D01*
X161329620Y-75948090D01*
X161327540Y-76001205D01*
X161327540Y-76560242D01*
X161131620Y-76560242D01*
X161131620Y-75876709D01*
X161131680Y-75853821D01*
X161131850Y-75832352D01*
X161132140Y-75812317D01*
X161132530Y-75793716D01*
X161133040Y-75776520D01*
X161133660Y-75760757D01*
X161135050Y-75731689D01*
X161135780Y-75717926D01*
X161136550Y-75704697D01*
X161137330Y-75691971D01*
X161138120Y-75679779D01*
X160920060Y-75679779D01*
X160919190Y-75686371D01*
X160918240Y-75695831D01*
X160917200Y-75708160D01*
X160916060Y-75723358D01*
X160914840Y-75741440D01*
X160913530Y-75762375D01*
X160912290Y-75783585D01*
X160911270Y-75802475D01*
X160910490Y-75819031D01*
X160909910Y-75833267D01*
X160909570Y-75845169D01*
X160909470Y-75854736D01*
X160906220Y-75854736D01*
X160890090Y-75822647D01*
X160872660Y-75793625D01*
X160853920Y-75767670D01*
X160833870Y-75744797D01*
X160812510Y-75724991D01*
X160789853Y-75708267D01*
X160765775Y-75694351D01*
X160740216Y-75682953D01*
X160713147Y-75674088D01*
X160684598Y-75667755D01*
X160654553Y-75663956D01*
X160623029Y-75662689D01*
X160578183Y-75665085D01*
X160536954Y-75672272D01*
X160499341Y-75684265D01*
X160465344Y-75701035D01*
X160434964Y-75722595D01*
X160408200Y-75748947D01*
X160385327Y-75779922D01*
X160366605Y-75815308D01*
X160352048Y-75855148D01*
X160341656Y-75899399D01*
X160335416Y-75948090D01*
X160333325Y-76001205D01*
X160333325Y-76560242D01*
X159909555Y-76560242D01*
X159952481Y-76547119D01*
X160000790Y-76524246D01*
X160043988Y-76494858D01*
X160082074Y-76458923D01*
X160114651Y-76416733D01*
X160141309Y-76368561D01*
X160162030Y-76314377D01*
X160176831Y-76254227D01*
X160185712Y-76188065D01*
X160188672Y-76115936D01*
X160185666Y-76046036D01*
X160176648Y-75981766D01*
X160161618Y-75923096D01*
X160140576Y-75870026D01*
X160113522Y-75822556D01*
X160080457Y-75780685D01*
X160041867Y-75744888D01*
X159998257Y-75715591D01*
X159949643Y-75692810D01*
X159896008Y-75676529D01*
X159837338Y-75666763D01*
X159773679Y-75663513D01*
X159712964Y-75667007D01*
X159657224Y-75677475D01*
X159606458Y-75694946D01*
X159560651Y-75719391D01*
X159519833Y-75750824D01*
X159483975Y-75789230D01*
X159453397Y-75834381D01*
X159428372Y-75886017D01*
X159408917Y-75944153D01*
X159395016Y-76008743D01*
X159386670Y-76079849D01*
X159385058Y-76124878D01*
X159383893Y-76157440D01*
X159282061Y-76157440D01*
X159283505Y-76124878D01*
X159280453Y-76054871D01*
X159271298Y-75990234D01*
X159256039Y-75930923D01*
X159234677Y-75876984D01*
X159207211Y-75828400D01*
X159173657Y-75785172D01*
X159134473Y-75747986D01*
X159090192Y-75717575D01*
X159040799Y-75693924D01*
X158986310Y-75677032D01*
X158926694Y-75666885D01*
X158861981Y-75663513D01*
X158811658Y-75665680D01*
X158764320Y-75672195D01*
X158719980Y-75683044D01*
X158678620Y-75698227D01*
X158640240Y-75717758D01*
X158604840Y-75741623D01*
X158573040Y-75769318D01*
X158545440Y-75800308D01*
X158522185Y-75834396D01*
X158522050Y-75834595D01*
X158502850Y-75872192D01*
X158487870Y-75913086D01*
X158477080Y-75957275D01*
X158707360Y-75968658D01*
X158711440Y-75946899D01*
X158717130Y-75926666D01*
X158724450Y-75907928D01*
X158733400Y-75890717D01*
X158743980Y-75875015D01*
X158756190Y-75860840D01*
X158770110Y-75848526D01*
X158785840Y-75838455D01*
X158803387Y-75830627D01*
X158822736Y-75825027D01*
X158843900Y-75821671D01*
X158866864Y-75820557D01*
X158920819Y-75828766D01*
X158964963Y-75853378D01*
X158999295Y-75894409D01*
X159023816Y-75951843D01*
X159038541Y-76025665D01*
X159043439Y-76115936D01*
X159038449Y-76208923D01*
X159023465Y-76285004D01*
X158998486Y-76344193D01*
X158963513Y-76386459D01*
X158918561Y-76411819D01*
X158863614Y-76420273D01*
X158842496Y-76419128D01*
X158822552Y-76415710D01*
X158803799Y-76410004D01*
X158786210Y-76402008D01*
X158769800Y-76391739D01*
X158754560Y-76379181D01*
X158740840Y-76364365D01*
X158728970Y-76347305D01*
X158718960Y-76328018D01*
X158710800Y-76306488D01*
X158704500Y-76282715D01*
X158700040Y-76256714D01*
X158470560Y-76267288D01*
X158311580Y-76267288D01*
X158311580Y-75834396D01*
X158423080Y-75834396D01*
X158423080Y-75679779D01*
X158300180Y-75679779D01*
X158228570Y-75473083D01*
X158085350Y-75473083D01*
X158085350Y-75679779D01*
X157918550Y-75679779D01*
X157918550Y-75834396D01*
X158085350Y-75834396D01*
X158085350Y-76291702D01*
X158084680Y-76312195D01*
X158082640Y-76330811D01*
X158079251Y-76347549D01*
X158074510Y-76362411D01*
X158068401Y-76375397D01*
X158060941Y-76386505D01*
X158052060Y-76395828D01*
X158041681Y-76403458D01*
X158029830Y-76409393D01*
X158016461Y-76413635D01*
X158001611Y-76416168D01*
X157985270Y-76417023D01*
X157975691Y-76416702D01*
X157964840Y-76415756D01*
X157952730Y-76414169D01*
X157939340Y-76411957D01*
X157924690Y-76409119D01*
X157908780Y-76405640D01*
X157908780Y-76547226D01*
X157013587Y-76547226D01*
X157047510Y-76537354D01*
X157115290Y-76506897D01*
X157176080Y-76467728D01*
X157229901Y-76419861D01*
X157276031Y-76364182D01*
X157313761Y-76301559D01*
X157343120Y-76231995D01*
X157364070Y-76155487D01*
X157376661Y-76072052D01*
X157380861Y-75981674D01*
X157376801Y-75891190D01*
X157364671Y-75807983D01*
X157344430Y-75732056D01*
X157316110Y-75663406D01*
X157279711Y-75602036D01*
X157235200Y-75547943D01*
X157183000Y-75501709D01*
X157123531Y-75463867D01*
X157056771Y-75434433D01*
X156982750Y-75413406D01*
X156901440Y-75400803D01*
X156812850Y-75396591D01*
X156747661Y-75398849D01*
X156686631Y-75405594D01*
X156629761Y-75416840D01*
X156577051Y-75432587D01*
X156528501Y-75452820D01*
X156484101Y-75477570D01*
X156443891Y-75506668D01*
X156407881Y-75539993D01*
X156376081Y-75577560D01*
X156348481Y-75619339D01*
X156325071Y-75665344D01*
X156305871Y-75715591D01*
X156517471Y-75773361D01*
X156527841Y-75745590D01*
X156541101Y-75719788D01*
X156557231Y-75695953D01*
X156576231Y-75674088D01*
X156598100Y-75654175D01*
X156622831Y-75636246D01*
X156649791Y-75620712D01*
X156678311Y-75607986D01*
X156708391Y-75598099D01*
X156740021Y-75591034D01*
X156773221Y-75586807D01*
X156807970Y-75585388D01*
X156860040Y-75588196D01*
X156907740Y-75596603D01*
X156951090Y-75610611D01*
X156990060Y-75630234D01*
X157024690Y-75655472D01*
X157054940Y-75686295D01*
X157080671Y-75722534D01*
X157101731Y-75763962D01*
X157118100Y-75810593D01*
X157129800Y-75862427D01*
X157136820Y-75919449D01*
X157139160Y-75981674D01*
X157136750Y-76044983D01*
X157129530Y-76103088D01*
X157117491Y-76156006D01*
X157100641Y-76203735D01*
X157078981Y-76246246D01*
X157052500Y-76283569D01*
X157021470Y-76315399D01*
X156986171Y-76341431D01*
X156946611Y-76361694D01*
X156902770Y-76376160D01*
X156854660Y-76384842D01*
X156802270Y-76387726D01*
X156733531Y-76381668D01*
X156672161Y-76363495D01*
X156618161Y-76333206D01*
X156571531Y-76290802D01*
X156532271Y-76236282D01*
X156500381Y-76169647D01*
X156291240Y-76248581D01*
X156146839Y-76248581D01*
X155993861Y-76223358D01*
X155984751Y-76252350D01*
X155973161Y-76278549D01*
X155959091Y-76301987D01*
X155942521Y-76322632D01*
X155923461Y-76340500D01*
X155901911Y-76355591D01*
X155877671Y-76368149D01*
X155850481Y-76378418D01*
X155820341Y-76386414D01*
X155787261Y-76392120D01*
X155751251Y-76395538D01*
X155712311Y-76396683D01*
X155635481Y-76392426D01*
X155572611Y-76379684D01*
X155523721Y-76358429D01*
X155488801Y-76328690D01*
X155467851Y-76290436D01*
X155460861Y-76243698D01*
X155461672Y-76227890D01*
X155464081Y-76213043D01*
X155468091Y-76199142D01*
X155473711Y-76186188D01*
X155480921Y-76174194D01*
X155489761Y-76163132D01*
X155500041Y-76152847D01*
X155511640Y-76143158D01*
X155524551Y-76134048D01*
X155538751Y-76125519D01*
X155554291Y-76117584D01*
X155571131Y-76110245D01*
X155591310Y-76102936D01*
X155616831Y-76095139D01*
X155647721Y-76086838D01*
X155683971Y-76078049D01*
X155725570Y-76068756D01*
X155772521Y-76058960D01*
X155813211Y-76049255D01*
X155849561Y-76040207D01*
X155881571Y-76031815D01*
X155909240Y-76024063D01*
X155932571Y-76016983D01*
X155951571Y-76010559D01*
X155968111Y-76004272D01*
X155984111Y-75997650D01*
X155999571Y-75990631D01*
X156014491Y-75983261D01*
X156028871Y-75975540D01*
X156042711Y-75967453D01*
X156055921Y-75958893D01*
X156068461Y-75949768D01*
X156080331Y-75940079D01*
X156091521Y-75929825D01*
X156102031Y-75919006D01*
X156111871Y-75907623D01*
X156121011Y-75895630D01*
X156129451Y-75882935D01*
X156137191Y-75869583D01*
X156144241Y-75855545D01*
X156150571Y-75840836D01*
X156156221Y-75825439D01*
X156161051Y-75809326D01*
X156165021Y-75792435D01*
X156168101Y-75774780D01*
X156170321Y-75756363D01*
X156171641Y-75737167D01*
X156172071Y-75717209D01*
X156168841Y-75667419D01*
X156159101Y-75621689D01*
X156142881Y-75579987D01*
X156120181Y-75542343D01*
X156090991Y-75508743D01*
X156055311Y-75479187D01*
X156013421Y-75453949D01*
X155965661Y-75433304D01*
X155911981Y-75417236D01*
X155852411Y-75405777D01*
X155786941Y-75398895D01*
X155715570Y-75396591D01*
X155647461Y-75398453D01*
X155585232Y-75404007D01*
X155528911Y-75413269D01*
X155478501Y-75426254D01*
X155433990Y-75442932D01*
X155395370Y-75463333D01*
X155361810Y-75487991D01*
X155332472Y-75517487D01*
X155307371Y-75551819D01*
X155286501Y-75590988D01*
X155269851Y-75634995D01*
X155257431Y-75683853D01*
X155490171Y-75715591D01*
X155497161Y-75691925D01*
X155506211Y-75670288D01*
X155517320Y-75650696D01*
X155530481Y-75633133D01*
X155545711Y-75617599D01*
X155562991Y-75604111D01*
X155582620Y-75592667D01*
X155604901Y-75583313D01*
X155629822Y-75576035D01*
X155657381Y-75570831D01*
X155687591Y-75567703D01*
X155720442Y-75566666D01*
X155787081Y-75570465D01*
X155841611Y-75581863D01*
X155884011Y-75600845D01*
X155914301Y-75627426D01*
X155932481Y-75661606D01*
X155938531Y-75703369D01*
X155937891Y-75717834D01*
X155935961Y-75731400D01*
X155932741Y-75744064D01*
X155928231Y-75755829D01*
X155922441Y-75766678D01*
X155915341Y-75776627D01*
X155906991Y-75785873D01*
X155897401Y-75794662D01*
X155886561Y-75802963D01*
X155874481Y-75810791D01*
X155861161Y-75818161D01*
X155846591Y-75825043D01*
X155828790Y-75831970D01*
X155805811Y-75839462D01*
X155777621Y-75847519D01*
X155744231Y-75856140D01*
X155705641Y-75865326D01*
X155661861Y-75875076D01*
X155609401Y-75886597D01*
X155562181Y-75897827D01*
X155520171Y-75908752D01*
X155483381Y-75919388D01*
X155451811Y-75929733D01*
X155425471Y-75939774D01*
X155402551Y-75949951D01*
X155381301Y-75960663D01*
X155361690Y-75971909D01*
X155343731Y-75983719D01*
X155327421Y-75996063D01*
X155312771Y-76008926D01*
X155299480Y-76022507D01*
X155287271Y-76036957D01*
X155276151Y-76052261D01*
X155266111Y-76068420D01*
X155257150Y-76085449D01*
X155249301Y-76103333D01*
X155242581Y-76122101D01*
X155237091Y-76141800D01*
X155232820Y-76162430D01*
X155229761Y-76183975D01*
X155227931Y-76206451D01*
X155227321Y-76229858D01*
X154800001Y-76229858D01*
X154800001Y-75125000D01*
X154803081Y-75085892D01*
X154812240Y-75047760D01*
X154827251Y-75011505D01*
X154847761Y-74978060D01*
X154873231Y-74948230D01*
X154903061Y-74922760D01*
X154936511Y-74902250D01*
X154972761Y-74887240D01*
X155010891Y-74878080D01*
X155050001Y-74875000D01*
X164549999Y-74875000D01*
X164589109Y-74878080D01*
X164627239Y-74887240D01*
X164663489Y-74902250D01*
X164696939Y-74922760D01*
X164726769Y-74948230D01*
X164752239Y-74978060D01*
X164772749Y-75011505D01*
X164787759Y-75047760D01*
X164796919Y-75085892D01*
X164799999Y-75125000D01*
X164799999Y-76875000D01*
X164796919Y-76914108D01*
G37*
X164796919Y-76914108D02*
X164787759Y-76952240D01*
X164772749Y-76988495D01*
X164752239Y-77021940D01*
X164726769Y-77051770D01*
X164696939Y-77077240D01*
X164663489Y-77097750D01*
X164627239Y-77112760D01*
X164589109Y-77121920D01*
X164549999Y-77125000D01*
X155050001Y-77125000D01*
X155010891Y-77121920D01*
X154972761Y-77112760D01*
X154936511Y-77097750D01*
X154903061Y-77077240D01*
X154873231Y-77051770D01*
X154847761Y-77021940D01*
X154827251Y-76988495D01*
X154812240Y-76952240D01*
X154803081Y-76914108D01*
X154800001Y-76875000D01*
X154800001Y-76229858D01*
X155227321Y-76229858D01*
X155230791Y-76283798D01*
X155241191Y-76333344D01*
X155258541Y-76378464D01*
X155282831Y-76419189D01*
X155314071Y-76455505D01*
X155352231Y-76487411D01*
X155397121Y-76514633D01*
X155448480Y-76536911D01*
X155506341Y-76554245D01*
X155570680Y-76566620D01*
X155641511Y-76574036D01*
X155718820Y-76576508D01*
X155789691Y-76574341D01*
X155855271Y-76567841D01*
X155915540Y-76556992D01*
X155970551Y-76541794D01*
X156020251Y-76522263D01*
X156064661Y-76498398D01*
X156103961Y-76470123D01*
X156138261Y-76437363D01*
X156167600Y-76400131D01*
X156191971Y-76358429D01*
X156211361Y-76312256D01*
X156225781Y-76261597D01*
X156146839Y-76248581D01*
X156291240Y-76248581D01*
X156297201Y-76261597D01*
X156315501Y-76301559D01*
X156343271Y-76349808D01*
X156374541Y-76393326D01*
X156409311Y-76432129D01*
X156447601Y-76466202D01*
X156489381Y-76495544D01*
X156534361Y-76520294D01*
X156582201Y-76540527D01*
X156632921Y-76556274D01*
X156686491Y-76567520D01*
X156742951Y-76574265D01*
X156802270Y-76576508D01*
X156891001Y-76572159D01*
X156972740Y-76559113D01*
X157013587Y-76547226D01*
X157908780Y-76547226D01*
X157937630Y-76555679D01*
X157967820Y-76562592D01*
X157999310Y-76567978D01*
X158032100Y-76571823D01*
X158066221Y-76574127D01*
X158101640Y-76574890D01*
X158133980Y-76573364D01*
X158163750Y-76568787D01*
X158190950Y-76561157D01*
X158215560Y-76550491D01*
X158237590Y-76536758D01*
X158257060Y-76519974D01*
X158273720Y-76500092D01*
X158287350Y-76477066D01*
X158297960Y-76450897D01*
X158305520Y-76421585D01*
X158310070Y-76389145D01*
X158311580Y-76353561D01*
X158311580Y-76267288D01*
X158470560Y-76267288D01*
X158475750Y-76296860D01*
X158483170Y-76325333D01*
X158492840Y-76352737D01*
X158504740Y-76379059D01*
X158518870Y-76404282D01*
X158535260Y-76428421D01*
X158553660Y-76451126D01*
X158573910Y-76472046D01*
X158595990Y-76491180D01*
X158619890Y-76508530D01*
X158645630Y-76524078D01*
X158673200Y-76537857D01*
X158702270Y-76549667D01*
X158732510Y-76559341D01*
X158763930Y-76566849D01*
X158796520Y-76572220D01*
X158830289Y-76575439D01*
X158865231Y-76576508D01*
X158929425Y-76573196D01*
X158988553Y-76563263D01*
X159042630Y-76546707D01*
X159091641Y-76523529D01*
X159135571Y-76493729D01*
X159174451Y-76457306D01*
X159207776Y-76414963D01*
X159235043Y-76367386D01*
X159256238Y-76314590D01*
X159271390Y-76256577D01*
X159280469Y-76193344D01*
X159282061Y-76157440D01*
X159383893Y-76157440D01*
X159383893Y-76163940D01*
X159948621Y-76163940D01*
X159947293Y-76205048D01*
X159943326Y-76242661D01*
X159936719Y-76276749D01*
X159927457Y-76307358D01*
X159915555Y-76334442D01*
X159901013Y-76358032D01*
X159884030Y-76378036D01*
X159864804Y-76394424D01*
X159843335Y-76407150D01*
X159819638Y-76416245D01*
X159793713Y-76421707D01*
X159765530Y-76423523D01*
X159727612Y-76420609D01*
X159694653Y-76411865D01*
X159666669Y-76397278D01*
X159643658Y-76376877D01*
X159625623Y-76350632D01*
X159612561Y-76318558D01*
X159396909Y-76337265D01*
X159433469Y-76410370D01*
X159480725Y-76470184D01*
X159538708Y-76516708D01*
X159607404Y-76549927D01*
X159686810Y-76569870D01*
X159776944Y-76576508D01*
X159840558Y-76573242D01*
X159899075Y-76563446D01*
X159909555Y-76560242D01*
X160333325Y-76560242D01*
X160561169Y-76560242D01*
X160561169Y-76066299D01*
X160565533Y-75995453D01*
X160578625Y-75937469D01*
X160600446Y-75892365D01*
X160630978Y-75860153D01*
X160670239Y-75840836D01*
X160718228Y-75834396D01*
X160745007Y-75836365D01*
X160770001Y-75842300D01*
X160793195Y-75852188D01*
X160814620Y-75866043D01*
X160834240Y-75883835D01*
X160852090Y-75905594D01*
X160867630Y-75930450D01*
X160880350Y-75957535D01*
X160890240Y-75986862D01*
X160897310Y-76018417D01*
X160901530Y-76052231D01*
X160902950Y-76088272D01*
X160902950Y-76560242D01*
X161131620Y-76560242D01*
X161327540Y-76560242D01*
X161555390Y-76560242D01*
X161555390Y-76066299D01*
X161559749Y-75995453D01*
X161572829Y-75937469D01*
X161594650Y-75892365D01*
X161625180Y-75860153D01*
X161664459Y-75840836D01*
X161712449Y-75834396D01*
X161739209Y-75836365D01*
X161764199Y-75842300D01*
X161787410Y-75852188D01*
X161808820Y-75866043D01*
X161828460Y-75883835D01*
X161846299Y-75905594D01*
X161861840Y-75930450D01*
X161874549Y-75957535D01*
X161884439Y-75986862D01*
X161891510Y-76018417D01*
X161895750Y-76052231D01*
X161897150Y-76088272D01*
X161897150Y-76560242D01*
X162125819Y-76560242D01*
X162125819Y-76119202D01*
X162283509Y-76119202D01*
X162286799Y-76187958D01*
X162296700Y-76251602D01*
X162313200Y-76310120D01*
X162336299Y-76363495D01*
X162366009Y-76411743D01*
X162402309Y-76454865D01*
X162444439Y-76492035D01*
X162491639Y-76522446D01*
X162543900Y-76546097D01*
X162601219Y-76563004D01*
X162663599Y-76573135D01*
X162731060Y-76576508D01*
X162797220Y-76573120D01*
X162858459Y-76562958D01*
X162914759Y-76546005D01*
X162966139Y-76522263D01*
X163012599Y-76491745D01*
X163054119Y-76454453D01*
X163089919Y-76411224D01*
X163119209Y-76362946D01*
X163142009Y-76309601D01*
X163158279Y-76251190D01*
X163158680Y-76248581D01*
X163253839Y-76248581D01*
X163278099Y-76301559D01*
X163305869Y-76349808D01*
X163337139Y-76393326D01*
X163371909Y-76432129D01*
X163410199Y-76466202D01*
X163451979Y-76495544D01*
X163496949Y-76520294D01*
X163544799Y-76540527D01*
X163595499Y-76556274D01*
X163649089Y-76567520D01*
X163705549Y-76574265D01*
X163764869Y-76576508D01*
X163853599Y-76572159D01*
X163935349Y-76559113D01*
X164010109Y-76537354D01*
X164077889Y-76506897D01*
X164138679Y-76467728D01*
X164192499Y-76419861D01*
X164238629Y-76364182D01*
X164276359Y-76301559D01*
X164305709Y-76231995D01*
X164326669Y-76155487D01*
X164339259Y-76072052D01*
X164343439Y-75981674D01*
X164339399Y-75891190D01*
X164327269Y-75807983D01*
X164307029Y-75732056D01*
X164278709Y-75663406D01*
X164242309Y-75602036D01*
X164197799Y-75547943D01*
X164145599Y-75501709D01*
X164086119Y-75463867D01*
X164019379Y-75434433D01*
X163945339Y-75413406D01*
X163864039Y-75400803D01*
X163775449Y-75396591D01*
X163710259Y-75398849D01*
X163649229Y-75405594D01*
X163592359Y-75416840D01*
X163539639Y-75432587D01*
X163491089Y-75452820D01*
X163446699Y-75477570D01*
X163406489Y-75506668D01*
X163370479Y-75539993D01*
X163338669Y-75577560D01*
X163311059Y-75619339D01*
X163287669Y-75665344D01*
X163268479Y-75715591D01*
X163480049Y-75773361D01*
X163490439Y-75745590D01*
X163503699Y-75719788D01*
X163519829Y-75695953D01*
X163538829Y-75674088D01*
X163560699Y-75654175D01*
X163585429Y-75636246D01*
X163612389Y-75620712D01*
X163640909Y-75607986D01*
X163670989Y-75598099D01*
X163702619Y-75591034D01*
X163735809Y-75586807D01*
X163770569Y-75585388D01*
X163822629Y-75588196D01*
X163870339Y-75596603D01*
X163913679Y-75610611D01*
X163952659Y-75630234D01*
X163987289Y-75655472D01*
X164017539Y-75686295D01*
X164043269Y-75722534D01*
X164064329Y-75763962D01*
X164080699Y-75810593D01*
X164092399Y-75862427D01*
X164099419Y-75919449D01*
X164101759Y-75981674D01*
X164099349Y-76044983D01*
X164092129Y-76103088D01*
X164088463Y-76119202D01*
X164080089Y-76156006D01*
X164063239Y-76203735D01*
X164041579Y-76246246D01*
X164015089Y-76283569D01*
X163984069Y-76315399D01*
X163948769Y-76341431D01*
X163909209Y-76361694D01*
X163865369Y-76376160D01*
X163817259Y-76384842D01*
X163764869Y-76387726D01*
X163696129Y-76381668D01*
X163634759Y-76363495D01*
X163580759Y-76333206D01*
X163534129Y-76290802D01*
X163494869Y-76236282D01*
X163462979Y-76169647D01*
X163253839Y-76248581D01*
X163158680Y-76248581D01*
X163168039Y-76187729D01*
X163171289Y-76119202D01*
X163168039Y-76050919D01*
X163158279Y-75987701D01*
X163142009Y-75929504D01*
X163119209Y-75876358D01*
X163089919Y-75828232D01*
X163054119Y-75785172D01*
X163012459Y-75747986D01*
X162965599Y-75717575D01*
X162913539Y-75693924D01*
X162856289Y-75677032D01*
X162793839Y-75666885D01*
X162726179Y-75663513D01*
X162657130Y-75666779D01*
X162593760Y-75676575D01*
X162582438Y-75679779D01*
X162536069Y-75692902D01*
X162484050Y-75715775D01*
X162437700Y-75745163D01*
X162397019Y-75781097D01*
X162362329Y-75823151D01*
X162333950Y-75870926D01*
X162311889Y-75924408D01*
X162296109Y-75983627D01*
X162286649Y-76048538D01*
X162283509Y-76119202D01*
X162125819Y-76119202D01*
X162125819Y-75876709D01*
X162125880Y-75853821D01*
X162126050Y-75832352D01*
X162126339Y-75812317D01*
X162126739Y-75793716D01*
X162127239Y-75776520D01*
X162127869Y-75760757D01*
X162128550Y-75745956D01*
X162129999Y-75717926D01*
X162130749Y-75704697D01*
X162131530Y-75691971D01*
X162132339Y-75679779D01*
X161914259Y-75679779D01*
X161913389Y-75686371D01*
X161912440Y-75695831D01*
X161911399Y-75708160D01*
X161910280Y-75723358D01*
X161909050Y-75741440D01*
X161907739Y-75762375D01*
X161906489Y-75783585D01*
X161905479Y-75802475D01*
X161904690Y-75819031D01*
X161904130Y-75833267D01*
X161903790Y-75845169D01*
X161903669Y-75854736D01*
X161900419Y-75854736D01*
X161884300Y-75822647D01*
X161866859Y-75793625D01*
X161848130Y-75767670D01*
X161828079Y-75744797D01*
X161806730Y-75724991D01*
X161784050Y-75708267D01*
X161759979Y-75694351D01*
X161734420Y-75682953D01*
X161707360Y-75674088D01*
X161678809Y-75667755D01*
X161648770Y-75663956D01*
X161617229Y-75662689D01*
X161572379Y-75665085D01*
X161531160Y-75672272D01*
X161507611Y-75679779D01*
X161493540Y-75684265D01*
X161459550Y-75701035D01*
X161429170Y-75722595D01*
X161402400Y-75748947D01*
X161379530Y-75779922D01*
X161360820Y-75815308D01*
X161346250Y-75855148D01*
X161335860Y-75899399D01*
X161329620Y-75948090D01*
X161327540Y-76001205D01*
X161327540Y-76560242D01*
X161131620Y-76560242D01*
X161131620Y-75876709D01*
X161131680Y-75853821D01*
X161131850Y-75832352D01*
X161132140Y-75812317D01*
X161132530Y-75793716D01*
X161133040Y-75776520D01*
X161133660Y-75760757D01*
X161135050Y-75731689D01*
X161135780Y-75717926D01*
X161136550Y-75704697D01*
X161137330Y-75691971D01*
X161138120Y-75679779D01*
X160920060Y-75679779D01*
X160919190Y-75686371D01*
X160918240Y-75695831D01*
X160917200Y-75708160D01*
X160916060Y-75723358D01*
X160914840Y-75741440D01*
X160913530Y-75762375D01*
X160912290Y-75783585D01*
X160911270Y-75802475D01*
X160910490Y-75819031D01*
X160909910Y-75833267D01*
X160909570Y-75845169D01*
X160909470Y-75854736D01*
X160906220Y-75854736D01*
X160890090Y-75822647D01*
X160872660Y-75793625D01*
X160853920Y-75767670D01*
X160833870Y-75744797D01*
X160812510Y-75724991D01*
X160789853Y-75708267D01*
X160765775Y-75694351D01*
X160740216Y-75682953D01*
X160713147Y-75674088D01*
X160684598Y-75667755D01*
X160654553Y-75663956D01*
X160623029Y-75662689D01*
X160578183Y-75665085D01*
X160536954Y-75672272D01*
X160499341Y-75684265D01*
X160465344Y-75701035D01*
X160434964Y-75722595D01*
X160408200Y-75748947D01*
X160385327Y-75779922D01*
X160366605Y-75815308D01*
X160352048Y-75855148D01*
X160341656Y-75899399D01*
X160335416Y-75948090D01*
X160333325Y-76001205D01*
X160333325Y-76560242D01*
X159909555Y-76560242D01*
X159952481Y-76547119D01*
X160000790Y-76524246D01*
X160043988Y-76494858D01*
X160082074Y-76458923D01*
X160114651Y-76416733D01*
X160141309Y-76368561D01*
X160162030Y-76314377D01*
X160176831Y-76254227D01*
X160185712Y-76188065D01*
X160188672Y-76115936D01*
X160185666Y-76046036D01*
X160176648Y-75981766D01*
X160161618Y-75923096D01*
X160140576Y-75870026D01*
X160113522Y-75822556D01*
X160080457Y-75780685D01*
X160041867Y-75744888D01*
X159998257Y-75715591D01*
X159949643Y-75692810D01*
X159896008Y-75676529D01*
X159837338Y-75666763D01*
X159773679Y-75663513D01*
X159712964Y-75667007D01*
X159657224Y-75677475D01*
X159606458Y-75694946D01*
X159560651Y-75719391D01*
X159519833Y-75750824D01*
X159483975Y-75789230D01*
X159453397Y-75834381D01*
X159428372Y-75886017D01*
X159408917Y-75944153D01*
X159395016Y-76008743D01*
X159386670Y-76079849D01*
X159385058Y-76124878D01*
X159383893Y-76157440D01*
X159282061Y-76157440D01*
X159283505Y-76124878D01*
X159280453Y-76054871D01*
X159271298Y-75990234D01*
X159256039Y-75930923D01*
X159234677Y-75876984D01*
X159207211Y-75828400D01*
X159173657Y-75785172D01*
X159134473Y-75747986D01*
X159090192Y-75717575D01*
X159040799Y-75693924D01*
X158986310Y-75677032D01*
X158926694Y-75666885D01*
X158861981Y-75663513D01*
X158811658Y-75665680D01*
X158764320Y-75672195D01*
X158719980Y-75683044D01*
X158678620Y-75698227D01*
X158640240Y-75717758D01*
X158604840Y-75741623D01*
X158573040Y-75769318D01*
X158545440Y-75800308D01*
X158522185Y-75834396D01*
X158522050Y-75834595D01*
X158502850Y-75872192D01*
X158487870Y-75913086D01*
X158477080Y-75957275D01*
X158707360Y-75968658D01*
X158711440Y-75946899D01*
X158717130Y-75926666D01*
X158724450Y-75907928D01*
X158733400Y-75890717D01*
X158743980Y-75875015D01*
X158756190Y-75860840D01*
X158770110Y-75848526D01*
X158785840Y-75838455D01*
X158803387Y-75830627D01*
X158822736Y-75825027D01*
X158843900Y-75821671D01*
X158866864Y-75820557D01*
X158920819Y-75828766D01*
X158964963Y-75853378D01*
X158999295Y-75894409D01*
X159023816Y-75951843D01*
X159038541Y-76025665D01*
X159043439Y-76115936D01*
X159038449Y-76208923D01*
X159023465Y-76285004D01*
X158998486Y-76344193D01*
X158963513Y-76386459D01*
X158918561Y-76411819D01*
X158863614Y-76420273D01*
X158842496Y-76419128D01*
X158822552Y-76415710D01*
X158803799Y-76410004D01*
X158786210Y-76402008D01*
X158769800Y-76391739D01*
X158754560Y-76379181D01*
X158740840Y-76364365D01*
X158728970Y-76347305D01*
X158718960Y-76328018D01*
X158710800Y-76306488D01*
X158704500Y-76282715D01*
X158700040Y-76256714D01*
X158470560Y-76267288D01*
X158311580Y-76267288D01*
X158311580Y-75834396D01*
X158423080Y-75834396D01*
X158423080Y-75679779D01*
X158300180Y-75679779D01*
X158228570Y-75473083D01*
X158085350Y-75473083D01*
X158085350Y-75679779D01*
X157918550Y-75679779D01*
X157918550Y-75834396D01*
X158085350Y-75834396D01*
X158085350Y-76291702D01*
X158084680Y-76312195D01*
X158082640Y-76330811D01*
X158079251Y-76347549D01*
X158074510Y-76362411D01*
X158068401Y-76375397D01*
X158060941Y-76386505D01*
X158052060Y-76395828D01*
X158041681Y-76403458D01*
X158029830Y-76409393D01*
X158016461Y-76413635D01*
X158001611Y-76416168D01*
X157985270Y-76417023D01*
X157975691Y-76416702D01*
X157964840Y-76415756D01*
X157952730Y-76414169D01*
X157939340Y-76411957D01*
X157924690Y-76409119D01*
X157908780Y-76405640D01*
X157908780Y-76547226D01*
X157013587Y-76547226D01*
X157047510Y-76537354D01*
X157115290Y-76506897D01*
X157176080Y-76467728D01*
X157229901Y-76419861D01*
X157276031Y-76364182D01*
X157313761Y-76301559D01*
X157343120Y-76231995D01*
X157364070Y-76155487D01*
X157376661Y-76072052D01*
X157380861Y-75981674D01*
X157376801Y-75891190D01*
X157364671Y-75807983D01*
X157344430Y-75732056D01*
X157316110Y-75663406D01*
X157279711Y-75602036D01*
X157235200Y-75547943D01*
X157183000Y-75501709D01*
X157123531Y-75463867D01*
X157056771Y-75434433D01*
X156982750Y-75413406D01*
X156901440Y-75400803D01*
X156812850Y-75396591D01*
X156747661Y-75398849D01*
X156686631Y-75405594D01*
X156629761Y-75416840D01*
X156577051Y-75432587D01*
X156528501Y-75452820D01*
X156484101Y-75477570D01*
X156443891Y-75506668D01*
X156407881Y-75539993D01*
X156376081Y-75577560D01*
X156348481Y-75619339D01*
X156325071Y-75665344D01*
X156305871Y-75715591D01*
X156517471Y-75773361D01*
X156527841Y-75745590D01*
X156541101Y-75719788D01*
X156557231Y-75695953D01*
X156576231Y-75674088D01*
X156598100Y-75654175D01*
X156622831Y-75636246D01*
X156649791Y-75620712D01*
X156678311Y-75607986D01*
X156708391Y-75598099D01*
X156740021Y-75591034D01*
X156773221Y-75586807D01*
X156807970Y-75585388D01*
X156860040Y-75588196D01*
X156907740Y-75596603D01*
X156951090Y-75610611D01*
X156990060Y-75630234D01*
X157024690Y-75655472D01*
X157054940Y-75686295D01*
X157080671Y-75722534D01*
X157101731Y-75763962D01*
X157118100Y-75810593D01*
X157129800Y-75862427D01*
X157136820Y-75919449D01*
X157139160Y-75981674D01*
X157136750Y-76044983D01*
X157129530Y-76103088D01*
X157117491Y-76156006D01*
X157100641Y-76203735D01*
X157078981Y-76246246D01*
X157052500Y-76283569D01*
X157021470Y-76315399D01*
X156986171Y-76341431D01*
X156946611Y-76361694D01*
X156902770Y-76376160D01*
X156854660Y-76384842D01*
X156802270Y-76387726D01*
X156733531Y-76381668D01*
X156672161Y-76363495D01*
X156618161Y-76333206D01*
X156571531Y-76290802D01*
X156532271Y-76236282D01*
X156500381Y-76169647D01*
X156291240Y-76248581D01*
X156146839Y-76248581D01*
X155993861Y-76223358D01*
X155984751Y-76252350D01*
X155973161Y-76278549D01*
X155959091Y-76301987D01*
X155942521Y-76322632D01*
X155923461Y-76340500D01*
X155901911Y-76355591D01*
X155877671Y-76368149D01*
X155850481Y-76378418D01*
X155820341Y-76386414D01*
X155787261Y-76392120D01*
X155751251Y-76395538D01*
X155712311Y-76396683D01*
X155635481Y-76392426D01*
X155572611Y-76379684D01*
X155523721Y-76358429D01*
X155488801Y-76328690D01*
X155467851Y-76290436D01*
X155460861Y-76243698D01*
X155461672Y-76227890D01*
X155464081Y-76213043D01*
X155468091Y-76199142D01*
X155473711Y-76186188D01*
X155480921Y-76174194D01*
X155489761Y-76163132D01*
X155500041Y-76152847D01*
X155511640Y-76143158D01*
X155524551Y-76134048D01*
X155538751Y-76125519D01*
X155554291Y-76117584D01*
X155571131Y-76110245D01*
X155591310Y-76102936D01*
X155616831Y-76095139D01*
X155647721Y-76086838D01*
X155683971Y-76078049D01*
X155725570Y-76068756D01*
X155772521Y-76058960D01*
X155813211Y-76049255D01*
X155849561Y-76040207D01*
X155881571Y-76031815D01*
X155909240Y-76024063D01*
X155932571Y-76016983D01*
X155951571Y-76010559D01*
X155968111Y-76004272D01*
X155984111Y-75997650D01*
X155999571Y-75990631D01*
X156014491Y-75983261D01*
X156028871Y-75975540D01*
X156042711Y-75967453D01*
X156055921Y-75958893D01*
X156068461Y-75949768D01*
X156080331Y-75940079D01*
X156091521Y-75929825D01*
X156102031Y-75919006D01*
X156111871Y-75907623D01*
X156121011Y-75895630D01*
X156129451Y-75882935D01*
X156137191Y-75869583D01*
X156144241Y-75855545D01*
X156150571Y-75840836D01*
X156156221Y-75825439D01*
X156161051Y-75809326D01*
X156165021Y-75792435D01*
X156168101Y-75774780D01*
X156170321Y-75756363D01*
X156171641Y-75737167D01*
X156172071Y-75717209D01*
X156168841Y-75667419D01*
X156159101Y-75621689D01*
X156142881Y-75579987D01*
X156120181Y-75542343D01*
X156090991Y-75508743D01*
X156055311Y-75479187D01*
X156013421Y-75453949D01*
X155965661Y-75433304D01*
X155911981Y-75417236D01*
X155852411Y-75405777D01*
X155786941Y-75398895D01*
X155715570Y-75396591D01*
X155647461Y-75398453D01*
X155585232Y-75404007D01*
X155528911Y-75413269D01*
X155478501Y-75426254D01*
X155433990Y-75442932D01*
X155395370Y-75463333D01*
X155361810Y-75487991D01*
X155332472Y-75517487D01*
X155307371Y-75551819D01*
X155286501Y-75590988D01*
X155269851Y-75634995D01*
X155257431Y-75683853D01*
X155490171Y-75715591D01*
X155497161Y-75691925D01*
X155506211Y-75670288D01*
X155517320Y-75650696D01*
X155530481Y-75633133D01*
X155545711Y-75617599D01*
X155562991Y-75604111D01*
X155582620Y-75592667D01*
X155604901Y-75583313D01*
X155629822Y-75576035D01*
X155657381Y-75570831D01*
X155687591Y-75567703D01*
X155720442Y-75566666D01*
X155787081Y-75570465D01*
X155841611Y-75581863D01*
X155884011Y-75600845D01*
X155914301Y-75627426D01*
X155932481Y-75661606D01*
X155938531Y-75703369D01*
X155937891Y-75717834D01*
X155935961Y-75731400D01*
X155932741Y-75744064D01*
X155928231Y-75755829D01*
X155922441Y-75766678D01*
X155915341Y-75776627D01*
X155906991Y-75785873D01*
X155897401Y-75794662D01*
X155886561Y-75802963D01*
X155874481Y-75810791D01*
X155861161Y-75818161D01*
X155846591Y-75825043D01*
X155828790Y-75831970D01*
X155805811Y-75839462D01*
X155777621Y-75847519D01*
X155744231Y-75856140D01*
X155705641Y-75865326D01*
X155661861Y-75875076D01*
X155609401Y-75886597D01*
X155562181Y-75897827D01*
X155520171Y-75908752D01*
X155483381Y-75919388D01*
X155451811Y-75929733D01*
X155425471Y-75939774D01*
X155402551Y-75949951D01*
X155381301Y-75960663D01*
X155361690Y-75971909D01*
X155343731Y-75983719D01*
X155327421Y-75996063D01*
X155312771Y-76008926D01*
X155299480Y-76022507D01*
X155287271Y-76036957D01*
X155276151Y-76052261D01*
X155266111Y-76068420D01*
X155257150Y-76085449D01*
X155249301Y-76103333D01*
X155242581Y-76122101D01*
X155237091Y-76141800D01*
X155232820Y-76162430D01*
X155229761Y-76183975D01*
X155227931Y-76206451D01*
X155227321Y-76229858D01*
X154800001Y-76229858D01*
X154800001Y-75125000D01*
X154803081Y-75085892D01*
X154812240Y-75047760D01*
X154827251Y-75011505D01*
X154847761Y-74978060D01*
X154873231Y-74948230D01*
X154903061Y-74922760D01*
X154936511Y-74902250D01*
X154972761Y-74887240D01*
X155010891Y-74878080D01*
X155050001Y-74875000D01*
X164549999Y-74875000D01*
X164589109Y-74878080D01*
X164627239Y-74887240D01*
X164663489Y-74902250D01*
X164696939Y-74922760D01*
X164726769Y-74948230D01*
X164752239Y-74978060D01*
X164772749Y-75011505D01*
X164787759Y-75047760D01*
X164796919Y-75085892D01*
X164799999Y-75125000D01*
X164799999Y-76875000D01*
X164796919Y-76914108D01*
G36*
X197313179Y-71211307D02*
G01*
X197338459Y-71212695D01*
X197361180Y-71214694D01*
X197381319Y-71217319D01*
X197398889Y-71220538D01*
X197413869Y-71224368D01*
X197426289Y-71228809D01*
X197436959Y-71233966D01*
X197446769Y-71239963D01*
X197455679Y-71246814D01*
X197463719Y-71254489D01*
X197470859Y-71262988D01*
X197477129Y-71272342D01*
X197482489Y-71282657D01*
X197486869Y-71294040D01*
X197490259Y-71306522D01*
X197492699Y-71320071D01*
X197494149Y-71334720D01*
X197494639Y-71350452D01*
X197493839Y-71370441D01*
X197491429Y-71388660D01*
X197487419Y-71405078D01*
X197481799Y-71419711D01*
X197474579Y-71432559D01*
X197465749Y-71443637D01*
X197455589Y-71452960D01*
X197444369Y-71460590D01*
X197432069Y-71466525D01*
X197418739Y-71470752D01*
X197404329Y-71473300D01*
X197388860Y-71474155D01*
X197371209Y-71473331D01*
X197354090Y-71470889D01*
X197337479Y-71466830D01*
X197321400Y-71461124D01*
X197305839Y-71453799D01*
X197290789Y-71444858D01*
X197276540Y-71434467D01*
X197263359Y-71422839D01*
X197251230Y-71409961D01*
X197240159Y-71395847D01*
X197230150Y-71380481D01*
X197221209Y-71363879D01*
X197213509Y-71346484D01*
X197207209Y-71328754D01*
X197202289Y-71310687D01*
X197198799Y-71292270D01*
X197196689Y-71273532D01*
X197195989Y-71254443D01*
X197195989Y-71209674D01*
X197313179Y-71211307D01*
G37*
X197313179Y-71211307D02*
X197338459Y-71212695D01*
X197361180Y-71214694D01*
X197381319Y-71217319D01*
X197398889Y-71220538D01*
X197413869Y-71224368D01*
X197426289Y-71228809D01*
X197436959Y-71233966D01*
X197446769Y-71239963D01*
X197455679Y-71246814D01*
X197463719Y-71254489D01*
X197470859Y-71262988D01*
X197477129Y-71272342D01*
X197482489Y-71282657D01*
X197486869Y-71294040D01*
X197490259Y-71306522D01*
X197492699Y-71320071D01*
X197494149Y-71334720D01*
X197494639Y-71350452D01*
X197493839Y-71370441D01*
X197491429Y-71388660D01*
X197487419Y-71405078D01*
X197481799Y-71419711D01*
X197474579Y-71432559D01*
X197465749Y-71443637D01*
X197455589Y-71452960D01*
X197444369Y-71460590D01*
X197432069Y-71466525D01*
X197418739Y-71470752D01*
X197404329Y-71473300D01*
X197388860Y-71474155D01*
X197371209Y-71473331D01*
X197354090Y-71470889D01*
X197337479Y-71466830D01*
X197321400Y-71461124D01*
X197305839Y-71453799D01*
X197290789Y-71444858D01*
X197276540Y-71434467D01*
X197263359Y-71422839D01*
X197251230Y-71409961D01*
X197240159Y-71395847D01*
X197230150Y-71380481D01*
X197221209Y-71363879D01*
X197213509Y-71346484D01*
X197207209Y-71328754D01*
X197202289Y-71310687D01*
X197198799Y-71292270D01*
X197196689Y-71273532D01*
X197195989Y-71254443D01*
X197195989Y-71209674D01*
X197313179Y-71211307D01*
G36*
X198275529Y-70879092D02*
G01*
X198302359Y-70885730D01*
X198326799Y-70896808D01*
X198348879Y-70912326D01*
X198368579Y-70932254D01*
X198385899Y-70956622D01*
X198400699Y-70984973D01*
X198412799Y-71016833D01*
X198422219Y-71052234D01*
X198428949Y-71091159D01*
X198432989Y-71133609D01*
X198434329Y-71179584D01*
X198432989Y-71225238D01*
X198428949Y-71267322D01*
X198422219Y-71305804D01*
X198412799Y-71340686D01*
X198400699Y-71371982D01*
X198385899Y-71399692D01*
X198368629Y-71423434D01*
X198349069Y-71442859D01*
X198327219Y-71457965D01*
X198303089Y-71468768D01*
X198276679Y-71475238D01*
X198247979Y-71477405D01*
X198192039Y-71468951D01*
X198146259Y-71443576D01*
X198110659Y-71401309D01*
X198085229Y-71342136D01*
X198069969Y-71266055D01*
X198064889Y-71173068D01*
X198069919Y-71082568D01*
X198085039Y-71008517D01*
X198110249Y-70950931D01*
X198145529Y-70909778D01*
X198190889Y-70885104D01*
X198246339Y-70876880D01*
X198275529Y-70879092D01*
G37*
X198275529Y-70879092D02*
X198302359Y-70885730D01*
X198326799Y-70896808D01*
X198348879Y-70912326D01*
X198368579Y-70932254D01*
X198385899Y-70956622D01*
X198400699Y-70984973D01*
X198412799Y-71016833D01*
X198422219Y-71052234D01*
X198428949Y-71091159D01*
X198432989Y-71133609D01*
X198434329Y-71179584D01*
X198432989Y-71225238D01*
X198428949Y-71267322D01*
X198422219Y-71305804D01*
X198412799Y-71340686D01*
X198400699Y-71371982D01*
X198385899Y-71399692D01*
X198368629Y-71423434D01*
X198349069Y-71442859D01*
X198327219Y-71457965D01*
X198303089Y-71468768D01*
X198276679Y-71475238D01*
X198247979Y-71477405D01*
X198192039Y-71468951D01*
X198146259Y-71443576D01*
X198110659Y-71401309D01*
X198085229Y-71342136D01*
X198069969Y-71266055D01*
X198064889Y-71173068D01*
X198069919Y-71082568D01*
X198085039Y-71008517D01*
X198110249Y-70950931D01*
X198145529Y-70909778D01*
X198190889Y-70885104D01*
X198246339Y-70876880D01*
X198275529Y-70879092D01*
G36*
X191646920Y-66514108D02*
G01*
X191637760Y-66552240D01*
X191622750Y-66588495D01*
X191602240Y-66621940D01*
X191576770Y-66651770D01*
X191546940Y-66677240D01*
X191513490Y-66697750D01*
X191477240Y-66712760D01*
X191439110Y-66721920D01*
X191400000Y-66725000D01*
X185400000Y-66725000D01*
X185360890Y-66721920D01*
X185322760Y-66712760D01*
X185286510Y-66697750D01*
X185253060Y-66677240D01*
X185223230Y-66651770D01*
X185197760Y-66621940D01*
X185177250Y-66588495D01*
X185162240Y-66552240D01*
X185153080Y-66514108D01*
X185150000Y-66475000D01*
X185150000Y-65005060D01*
X185558170Y-65005060D01*
X185979700Y-66151620D01*
X186223000Y-66151620D01*
X186364129Y-65769968D01*
X186683080Y-65769968D01*
X186686220Y-65828668D01*
X186695680Y-65883218D01*
X186711460Y-65933633D01*
X186733530Y-65979913D01*
X186761910Y-66022058D01*
X186796590Y-66060068D01*
X186836780Y-66093011D01*
X186881630Y-66119974D01*
X186931170Y-66140939D01*
X186985390Y-66155908D01*
X187044290Y-66164896D01*
X187107860Y-66167886D01*
X187163440Y-66165735D01*
X187215220Y-66159250D01*
X187249133Y-66151620D01*
X188598196Y-66151620D01*
X188879767Y-66151620D01*
X189379385Y-65268701D01*
X189374915Y-65310175D01*
X189371252Y-65348825D01*
X189368414Y-65384668D01*
X189366385Y-65417719D01*
X189365164Y-65447961D01*
X189364752Y-65475412D01*
X189364752Y-66151620D01*
X189577960Y-66151620D01*
X189790110Y-66151620D01*
X190030160Y-66151620D01*
X190030160Y-65005060D01*
X190127050Y-65005060D01*
X190548570Y-66151620D01*
X190791880Y-66151620D01*
X191215860Y-65005060D01*
X190965200Y-65005060D01*
X190729220Y-65741479D01*
X190721460Y-65767389D01*
X190712770Y-65797357D01*
X190703190Y-65831400D01*
X190692690Y-65869516D01*
X190681310Y-65911707D01*
X190669010Y-65957956D01*
X190651920Y-65887964D01*
X190610420Y-65741479D01*
X190375230Y-65005060D01*
X190127050Y-65005060D01*
X190030160Y-65005060D01*
X189790110Y-65005060D01*
X189790110Y-66151620D01*
X189577960Y-66151620D01*
X189577960Y-65005060D01*
X189303717Y-65005060D01*
X188796759Y-65895288D01*
X188801230Y-65854929D01*
X188804892Y-65815805D01*
X188807730Y-65777902D01*
X188809775Y-65741220D01*
X188810995Y-65705759D01*
X188811392Y-65671503D01*
X188811392Y-65005060D01*
X188598196Y-65005060D01*
X188598196Y-66151620D01*
X187249133Y-66151620D01*
X187263170Y-66148462D01*
X187307300Y-66133356D01*
X187347620Y-66113916D01*
X187384120Y-66090173D01*
X187416495Y-66062341D01*
X187444464Y-66030634D01*
X187468039Y-65995065D01*
X187487189Y-65955637D01*
X187501101Y-65914819D01*
X187609152Y-65914819D01*
X188444861Y-65914819D01*
X188444861Y-65734979D01*
X187609152Y-65734979D01*
X187609152Y-65914819D01*
X187501101Y-65914819D01*
X187501944Y-65912347D01*
X187512289Y-65865182D01*
X187283620Y-65846460D01*
X187276880Y-65869760D01*
X187268610Y-65890848D01*
X187258810Y-65909723D01*
X187247460Y-65926385D01*
X187234580Y-65940836D01*
X187220160Y-65953058D01*
X187204310Y-65963266D01*
X187187160Y-65971597D01*
X187168690Y-65978082D01*
X187148900Y-65982721D01*
X187127810Y-65985498D01*
X187105410Y-65986429D01*
X187077890Y-65984918D01*
X187052300Y-65980371D01*
X187028620Y-65972803D01*
X187006860Y-65962198D01*
X186987020Y-65948572D01*
X186969110Y-65931909D01*
X186953570Y-65912393D01*
X186940850Y-65890222D01*
X186930960Y-65865381D01*
X186923910Y-65837869D01*
X186919670Y-65807703D01*
X186918250Y-65774850D01*
X186919590Y-65745752D01*
X186923590Y-65718668D01*
X186930260Y-65693582D01*
X186939600Y-65670511D01*
X186951590Y-65649469D01*
X186966270Y-65630426D01*
X186983330Y-65613886D01*
X187002520Y-65600351D01*
X187023840Y-65589853D01*
X187047280Y-65582330D01*
X187072840Y-65577814D01*
X187100530Y-65576318D01*
X187131290Y-65578378D01*
X187160120Y-65584543D01*
X187186990Y-65594827D01*
X187211920Y-65609201D01*
X187234920Y-65627725D01*
X187255960Y-65650339D01*
X187478918Y-65650339D01*
X187467556Y-65466455D01*
X187609152Y-65466455D01*
X188444861Y-65466455D01*
X188444861Y-65284998D01*
X187609152Y-65284998D01*
X187609152Y-65466455D01*
X187467556Y-65466455D01*
X187439047Y-65005060D01*
X186749790Y-65005060D01*
X186749790Y-65175134D01*
X187231540Y-65175134D01*
X187250250Y-65464822D01*
X187221440Y-65442453D01*
X187190310Y-65424142D01*
X187156880Y-65409891D01*
X187121150Y-65399728D01*
X187083110Y-65393625D01*
X187042750Y-65391595D01*
X186990060Y-65394418D01*
X186940990Y-65402887D01*
X186895570Y-65417017D01*
X186853780Y-65436792D01*
X186815650Y-65462228D01*
X186781130Y-65493311D01*
X186751180Y-65529245D01*
X186726660Y-65569254D01*
X186707590Y-65613321D01*
X186693980Y-65661462D01*
X186685800Y-65713678D01*
X186683080Y-65769968D01*
X186364129Y-65769968D01*
X186646980Y-65005060D01*
X186396320Y-65005060D01*
X186160350Y-65741479D01*
X186152580Y-65767389D01*
X186143900Y-65797357D01*
X186134310Y-65831400D01*
X186123820Y-65869516D01*
X186112430Y-65911707D01*
X186100130Y-65957956D01*
X186083040Y-65887964D01*
X186041540Y-65741479D01*
X185806360Y-65005060D01*
X185558170Y-65005060D01*
X185150000Y-65005060D01*
X185150000Y-64725000D01*
X185153080Y-64685892D01*
X185162240Y-64647760D01*
X185177250Y-64611505D01*
X185197760Y-64578060D01*
X185223230Y-64548230D01*
X185253060Y-64522760D01*
X185286510Y-64502250D01*
X185322760Y-64487240D01*
X185360890Y-64478080D01*
X185400000Y-64475000D01*
X191400000Y-64475000D01*
X191439110Y-64478080D01*
X191477240Y-64487240D01*
X191513490Y-64502250D01*
X191546940Y-64522760D01*
X191576770Y-64548230D01*
X191602240Y-64578060D01*
X191622750Y-64611505D01*
X191637760Y-64647760D01*
X191646920Y-64685892D01*
X191650000Y-64725000D01*
X191650000Y-66475000D01*
X191646920Y-66514108D01*
G37*
X191646920Y-66514108D02*
X191637760Y-66552240D01*
X191622750Y-66588495D01*
X191602240Y-66621940D01*
X191576770Y-66651770D01*
X191546940Y-66677240D01*
X191513490Y-66697750D01*
X191477240Y-66712760D01*
X191439110Y-66721920D01*
X191400000Y-66725000D01*
X185400000Y-66725000D01*
X185360890Y-66721920D01*
X185322760Y-66712760D01*
X185286510Y-66697750D01*
X185253060Y-66677240D01*
X185223230Y-66651770D01*
X185197760Y-66621940D01*
X185177250Y-66588495D01*
X185162240Y-66552240D01*
X185153080Y-66514108D01*
X185150000Y-66475000D01*
X185150000Y-65005060D01*
X185558170Y-65005060D01*
X185979700Y-66151620D01*
X186223000Y-66151620D01*
X186364129Y-65769968D01*
X186683080Y-65769968D01*
X186686220Y-65828668D01*
X186695680Y-65883218D01*
X186711460Y-65933633D01*
X186733530Y-65979913D01*
X186761910Y-66022058D01*
X186796590Y-66060068D01*
X186836780Y-66093011D01*
X186881630Y-66119974D01*
X186931170Y-66140939D01*
X186985390Y-66155908D01*
X187044290Y-66164896D01*
X187107860Y-66167886D01*
X187163440Y-66165735D01*
X187215220Y-66159250D01*
X187249133Y-66151620D01*
X188598196Y-66151620D01*
X188879767Y-66151620D01*
X189379385Y-65268701D01*
X189374915Y-65310175D01*
X189371252Y-65348825D01*
X189368414Y-65384668D01*
X189366385Y-65417719D01*
X189365164Y-65447961D01*
X189364752Y-65475412D01*
X189364752Y-66151620D01*
X189577960Y-66151620D01*
X189790110Y-66151620D01*
X190030160Y-66151620D01*
X190030160Y-65005060D01*
X190127050Y-65005060D01*
X190548570Y-66151620D01*
X190791880Y-66151620D01*
X191215860Y-65005060D01*
X190965200Y-65005060D01*
X190729220Y-65741479D01*
X190721460Y-65767389D01*
X190712770Y-65797357D01*
X190703190Y-65831400D01*
X190692690Y-65869516D01*
X190681310Y-65911707D01*
X190669010Y-65957956D01*
X190651920Y-65887964D01*
X190610420Y-65741479D01*
X190375230Y-65005060D01*
X190127050Y-65005060D01*
X190030160Y-65005060D01*
X189790110Y-65005060D01*
X189790110Y-66151620D01*
X189577960Y-66151620D01*
X189577960Y-65005060D01*
X189303717Y-65005060D01*
X188796759Y-65895288D01*
X188801230Y-65854929D01*
X188804892Y-65815805D01*
X188807730Y-65777902D01*
X188809775Y-65741220D01*
X188810995Y-65705759D01*
X188811392Y-65671503D01*
X188811392Y-65005060D01*
X188598196Y-65005060D01*
X188598196Y-66151620D01*
X187249133Y-66151620D01*
X187263170Y-66148462D01*
X187307300Y-66133356D01*
X187347620Y-66113916D01*
X187384120Y-66090173D01*
X187416495Y-66062341D01*
X187444464Y-66030634D01*
X187468039Y-65995065D01*
X187487189Y-65955637D01*
X187501101Y-65914819D01*
X187609152Y-65914819D01*
X188444861Y-65914819D01*
X188444861Y-65734979D01*
X187609152Y-65734979D01*
X187609152Y-65914819D01*
X187501101Y-65914819D01*
X187501944Y-65912347D01*
X187512289Y-65865182D01*
X187283620Y-65846460D01*
X187276880Y-65869760D01*
X187268610Y-65890848D01*
X187258810Y-65909723D01*
X187247460Y-65926385D01*
X187234580Y-65940836D01*
X187220160Y-65953058D01*
X187204310Y-65963266D01*
X187187160Y-65971597D01*
X187168690Y-65978082D01*
X187148900Y-65982721D01*
X187127810Y-65985498D01*
X187105410Y-65986429D01*
X187077890Y-65984918D01*
X187052300Y-65980371D01*
X187028620Y-65972803D01*
X187006860Y-65962198D01*
X186987020Y-65948572D01*
X186969110Y-65931909D01*
X186953570Y-65912393D01*
X186940850Y-65890222D01*
X186930960Y-65865381D01*
X186923910Y-65837869D01*
X186919670Y-65807703D01*
X186918250Y-65774850D01*
X186919590Y-65745752D01*
X186923590Y-65718668D01*
X186930260Y-65693582D01*
X186939600Y-65670511D01*
X186951590Y-65649469D01*
X186966270Y-65630426D01*
X186983330Y-65613886D01*
X187002520Y-65600351D01*
X187023840Y-65589853D01*
X187047280Y-65582330D01*
X187072840Y-65577814D01*
X187100530Y-65576318D01*
X187131290Y-65578378D01*
X187160120Y-65584543D01*
X187186990Y-65594827D01*
X187211920Y-65609201D01*
X187234920Y-65627725D01*
X187255960Y-65650339D01*
X187478918Y-65650339D01*
X187467556Y-65466455D01*
X187609152Y-65466455D01*
X188444861Y-65466455D01*
X188444861Y-65284998D01*
X187609152Y-65284998D01*
X187609152Y-65466455D01*
X187467556Y-65466455D01*
X187439047Y-65005060D01*
X186749790Y-65005060D01*
X186749790Y-65175134D01*
X187231540Y-65175134D01*
X187250250Y-65464822D01*
X187221440Y-65442453D01*
X187190310Y-65424142D01*
X187156880Y-65409891D01*
X187121150Y-65399728D01*
X187083110Y-65393625D01*
X187042750Y-65391595D01*
X186990060Y-65394418D01*
X186940990Y-65402887D01*
X186895570Y-65417017D01*
X186853780Y-65436792D01*
X186815650Y-65462228D01*
X186781130Y-65493311D01*
X186751180Y-65529245D01*
X186726660Y-65569254D01*
X186707590Y-65613321D01*
X186693980Y-65661462D01*
X186685800Y-65713678D01*
X186683080Y-65769968D01*
X186364129Y-65769968D01*
X186646980Y-65005060D01*
X186396320Y-65005060D01*
X186160350Y-65741479D01*
X186152580Y-65767389D01*
X186143900Y-65797357D01*
X186134310Y-65831400D01*
X186123820Y-65869516D01*
X186112430Y-65911707D01*
X186100130Y-65957956D01*
X186083040Y-65887964D01*
X186041540Y-65741479D01*
X185806360Y-65005060D01*
X185558170Y-65005060D01*
X185150000Y-65005060D01*
X185150000Y-64725000D01*
X185153080Y-64685892D01*
X185162240Y-64647760D01*
X185177250Y-64611505D01*
X185197760Y-64578060D01*
X185223230Y-64548230D01*
X185253060Y-64522760D01*
X185286510Y-64502250D01*
X185322760Y-64487240D01*
X185360890Y-64478080D01*
X185400000Y-64475000D01*
X191400000Y-64475000D01*
X191439110Y-64478080D01*
X191477240Y-64487240D01*
X191513490Y-64502250D01*
X191546940Y-64522760D01*
X191576770Y-64548230D01*
X191602240Y-64578060D01*
X191622750Y-64611505D01*
X191637760Y-64647760D01*
X191646920Y-64685892D01*
X191650000Y-64725000D01*
X191650000Y-66475000D01*
X191646920Y-66514108D01*
G36*
X162786569Y-75828842D02*
G01*
X162838649Y-75853745D01*
X162879159Y-75895218D01*
X162908089Y-75953293D01*
X162925459Y-76027939D01*
X162931239Y-76119202D01*
X162929819Y-76166336D01*
X162925599Y-76209564D01*
X162918529Y-76248886D01*
X162908639Y-76284286D01*
X162895919Y-76315796D01*
X162880379Y-76343384D01*
X162862179Y-76366867D01*
X162841459Y-76386093D01*
X162818229Y-76401047D01*
X162792490Y-76411728D01*
X162764250Y-76418137D01*
X162733500Y-76420273D01*
X162669090Y-76411911D01*
X162616410Y-76386826D01*
X162575419Y-76345001D01*
X162546149Y-76286469D01*
X162528589Y-76211197D01*
X162522729Y-76119202D01*
X162524149Y-76069244D01*
X162528440Y-76024078D01*
X162535549Y-75983719D01*
X162545529Y-75948135D01*
X162558349Y-75917343D01*
X162574019Y-75891357D01*
X162592390Y-75869720D01*
X162613339Y-75852020D01*
X162636869Y-75838257D01*
X162662979Y-75828415D01*
X162691659Y-75822525D01*
X162722909Y-75820557D01*
X162786569Y-75828842D01*
G37*
X162786569Y-75828842D02*
X162838649Y-75853745D01*
X162879159Y-75895218D01*
X162908089Y-75953293D01*
X162925459Y-76027939D01*
X162931239Y-76119202D01*
X162929819Y-76166336D01*
X162925599Y-76209564D01*
X162918529Y-76248886D01*
X162908639Y-76284286D01*
X162895919Y-76315796D01*
X162880379Y-76343384D01*
X162862179Y-76366867D01*
X162841459Y-76386093D01*
X162818229Y-76401047D01*
X162792490Y-76411728D01*
X162764250Y-76418137D01*
X162733500Y-76420273D01*
X162669090Y-76411911D01*
X162616410Y-76386826D01*
X162575419Y-76345001D01*
X162546149Y-76286469D01*
X162528589Y-76211197D01*
X162522729Y-76119202D01*
X162524149Y-76069244D01*
X162528440Y-76024078D01*
X162535549Y-75983719D01*
X162545529Y-75948135D01*
X162558349Y-75917343D01*
X162574019Y-75891357D01*
X162592390Y-75869720D01*
X162613339Y-75852020D01*
X162636869Y-75838257D01*
X162662979Y-75828415D01*
X162691659Y-75822525D01*
X162722909Y-75820557D01*
X162786569Y-75828842D01*
G36*
X201396919Y-72114108D02*
G01*
X201387759Y-72152240D01*
X201372749Y-72188495D01*
X201352239Y-72221940D01*
X201326769Y-72251770D01*
X201296939Y-72277240D01*
X201263489Y-72297750D01*
X201227239Y-72312760D01*
X201189109Y-72321920D01*
X201149999Y-72325000D01*
X183650001Y-72325000D01*
X183610891Y-72321920D01*
X183572761Y-72312760D01*
X183536510Y-72297750D01*
X183503061Y-72277240D01*
X183473232Y-72251770D01*
X183447761Y-72221940D01*
X183427251Y-72188495D01*
X183412242Y-72152240D01*
X183403081Y-72114108D01*
X183400001Y-72075000D01*
X183400001Y-70736911D01*
X184031001Y-70736911D01*
X184032491Y-70766971D01*
X184033710Y-70798572D01*
X184034660Y-70831714D01*
X184035350Y-70866382D01*
X184035741Y-70902591D01*
X184035880Y-70940341D01*
X184035880Y-71590518D01*
X184038841Y-71650623D01*
X184047721Y-71705615D01*
X184062541Y-71755496D01*
X184083261Y-71800281D01*
X184109920Y-71839954D01*
X184142490Y-71874515D01*
X184180721Y-71903857D01*
X184224311Y-71927859D01*
X184273292Y-71946536D01*
X184327661Y-71959872D01*
X184387401Y-71967868D01*
X184452522Y-71970538D01*
X184504482Y-71968829D01*
X184552921Y-71963718D01*
X184597881Y-71955173D01*
X184639320Y-71943225D01*
X184677270Y-71927875D01*
X184711690Y-71909106D01*
X184742290Y-71887164D01*
X184768701Y-71862308D01*
X184790931Y-71834537D01*
X184808980Y-71803851D01*
X184822851Y-71770251D01*
X184832542Y-71733737D01*
X184603870Y-71706882D01*
X184599040Y-71723880D01*
X184592632Y-71739612D01*
X184584651Y-71754077D01*
X184575130Y-71767276D01*
X184564031Y-71779208D01*
X184551381Y-71789874D01*
X184537271Y-71799075D01*
X184521781Y-71806613D01*
X184504901Y-71812457D01*
X184486652Y-71816638D01*
X184467021Y-71819156D01*
X184446010Y-71819980D01*
X184415691Y-71818362D01*
X184388240Y-71813480D01*
X184363611Y-71805331D01*
X184341850Y-71793948D01*
X184322931Y-71779300D01*
X184306861Y-71761386D01*
X184293430Y-71740283D01*
X184282451Y-71716006D01*
X184273902Y-71688571D01*
X184267801Y-71657962D01*
X184264140Y-71624194D01*
X184263915Y-71617374D01*
X185017070Y-71617374D01*
X185244911Y-71617374D01*
X185244911Y-71123431D01*
X185249271Y-71052570D01*
X185262370Y-70994586D01*
X185284171Y-70949496D01*
X185314721Y-70917285D01*
X185353980Y-70897952D01*
X185401970Y-70891513D01*
X185428749Y-70893497D01*
X185453730Y-70899432D01*
X185476930Y-70909320D01*
X185498360Y-70923160D01*
X185517980Y-70940967D01*
X185535830Y-70962726D01*
X185551370Y-70987567D01*
X185564080Y-71014667D01*
X185573970Y-71043994D01*
X185581030Y-71075565D01*
X185585270Y-71109363D01*
X185586689Y-71145404D01*
X185586689Y-71617374D01*
X185815359Y-71617374D01*
X186038889Y-71617374D01*
X186267550Y-71617374D01*
X186267550Y-71604343D01*
X186391290Y-71604343D01*
X186420161Y-71612796D01*
X186440104Y-71617374D01*
X186450341Y-71619724D01*
X186481830Y-71625095D01*
X186514620Y-71628940D01*
X186548729Y-71631244D01*
X186584160Y-71632022D01*
X186616510Y-71630496D01*
X186646260Y-71625919D01*
X186673450Y-71618289D01*
X186698080Y-71607608D01*
X186720110Y-71593875D01*
X186739580Y-71577090D01*
X186756230Y-71557208D01*
X186769870Y-71534183D01*
X186780460Y-71508029D01*
X186788030Y-71478717D01*
X186792580Y-71446262D01*
X186794091Y-71410678D01*
X186794091Y-70891513D01*
X186905580Y-70891513D01*
X186909700Y-70891513D01*
X187083030Y-70891513D01*
X187083030Y-71617374D01*
X187310870Y-71617374D01*
X187575090Y-71617374D01*
X187803780Y-71617374D01*
X187999689Y-71617374D01*
X188227530Y-71617374D01*
X188227530Y-71124255D01*
X188231890Y-71053394D01*
X188244990Y-70995410D01*
X188266790Y-70950305D01*
X188297340Y-70918094D01*
X188336600Y-70898776D01*
X188384590Y-70892337D01*
X188411370Y-70894305D01*
X188436350Y-70900241D01*
X188459560Y-70910129D01*
X188480980Y-70923984D01*
X188500600Y-70941776D01*
X188518450Y-70963535D01*
X188533990Y-70988391D01*
X188546700Y-71015475D01*
X188556589Y-71044803D01*
X188563650Y-71076373D01*
X188567891Y-71110187D01*
X188569310Y-71146228D01*
X188569310Y-71617374D01*
X188797980Y-71617374D01*
X188797980Y-71286990D01*
X188953470Y-71286990D01*
X188956930Y-71340930D01*
X188967340Y-71390460D01*
X188984690Y-71435596D01*
X189008980Y-71476321D01*
X189040210Y-71512637D01*
X189078380Y-71544543D01*
X189123249Y-71571765D01*
X189174630Y-71594043D01*
X189232470Y-71611362D01*
X189263733Y-71617374D01*
X189296820Y-71623737D01*
X189367649Y-71631168D01*
X189444970Y-71633640D01*
X189515829Y-71631473D01*
X189581410Y-71624957D01*
X189623536Y-71617374D01*
X190559320Y-71617374D01*
X190787990Y-71617374D01*
X190787990Y-71221072D01*
X190939640Y-71221072D01*
X191504385Y-71221072D01*
X191503058Y-71262180D01*
X191499091Y-71299777D01*
X191492483Y-71333881D01*
X191483221Y-71364474D01*
X191471320Y-71391574D01*
X191456778Y-71415149D01*
X191439795Y-71435168D01*
X191420569Y-71451541D01*
X191399100Y-71464282D01*
X191375400Y-71473376D01*
X191349460Y-71478839D01*
X191321280Y-71480655D01*
X191283360Y-71477740D01*
X191250400Y-71468982D01*
X191222420Y-71454410D01*
X191199410Y-71433994D01*
X191181370Y-71407764D01*
X191168310Y-71375690D01*
X190952660Y-71394397D01*
X190989200Y-71467502D01*
X191036470Y-71527316D01*
X191094460Y-71573825D01*
X191163150Y-71607059D01*
X191204254Y-71617374D01*
X191242560Y-71626987D01*
X191332680Y-71633640D01*
X191396310Y-71630374D01*
X191454840Y-71620578D01*
X191508246Y-71604236D01*
X191556555Y-71581378D01*
X191599753Y-71551974D01*
X191637839Y-71516055D01*
X191670416Y-71473865D01*
X191697058Y-71425677D01*
X191717795Y-71371509D01*
X191732596Y-71311343D01*
X191741476Y-71245197D01*
X191744437Y-71173068D01*
X191741431Y-71103183D01*
X191732413Y-71038898D01*
X191717383Y-70980212D01*
X191696341Y-70927142D01*
X191669287Y-70879672D01*
X191636206Y-70837817D01*
X191597632Y-70802005D01*
X191554022Y-70772708D01*
X191505408Y-70749927D01*
X191462477Y-70736911D01*
X191795203Y-70736911D01*
X191956038Y-71173068D01*
X192119879Y-71617374D01*
X192393301Y-71617374D01*
X192535038Y-71221072D01*
X192750006Y-71221072D01*
X193314749Y-71221072D01*
X193313422Y-71262180D01*
X193309454Y-71299777D01*
X193302847Y-71333881D01*
X193293585Y-71364474D01*
X193281683Y-71391574D01*
X193267142Y-71415149D01*
X193250159Y-71435168D01*
X193230933Y-71451541D01*
X193209463Y-71464282D01*
X193185767Y-71473376D01*
X193159827Y-71478839D01*
X193131659Y-71480655D01*
X193093726Y-71477740D01*
X193060767Y-71468982D01*
X193032782Y-71454410D01*
X193009772Y-71433994D01*
X192991736Y-71407764D01*
X192978674Y-71375690D01*
X192763022Y-71394397D01*
X192799582Y-71467502D01*
X192846838Y-71527316D01*
X192904822Y-71573825D01*
X192973517Y-71607059D01*
X193052924Y-71626987D01*
X193143057Y-71633640D01*
X193206686Y-71630374D01*
X193265204Y-71620578D01*
X193275678Y-71617374D01*
X193647389Y-71617374D01*
X194502629Y-71617374D01*
X194502629Y-71360217D01*
X195113009Y-71360217D01*
X195115909Y-71401279D01*
X195124619Y-71439288D01*
X195139150Y-71474246D01*
X195159479Y-71506152D01*
X195185630Y-71535007D01*
X195217580Y-71560809D01*
X195254660Y-71583072D01*
X195296189Y-71601276D01*
X195342179Y-71615436D01*
X195351841Y-71617374D01*
X195392609Y-71625552D01*
X195447519Y-71631610D01*
X195506860Y-71633640D01*
X195564979Y-71632053D01*
X195618379Y-71627261D01*
X195667060Y-71619296D01*
X195711019Y-71608142D01*
X195750250Y-71593799D01*
X195784749Y-71576282D01*
X195815100Y-71555377D01*
X195841849Y-71530933D01*
X195865009Y-71502933D01*
X195884570Y-71471393D01*
X195900530Y-71436298D01*
X195912909Y-71397662D01*
X195711920Y-71367557D01*
X195705540Y-71387424D01*
X195697780Y-71405246D01*
X195688639Y-71421054D01*
X195678110Y-71434818D01*
X195666220Y-71446552D01*
X195652929Y-71456241D01*
X195637230Y-71464206D01*
X195618080Y-71470706D01*
X195595449Y-71475772D01*
X195569389Y-71479388D01*
X195539849Y-71481555D01*
X195506860Y-71482288D01*
X195476290Y-71481601D01*
X195448629Y-71479572D01*
X195423849Y-71476184D01*
X195401970Y-71471439D01*
X195382990Y-71465335D01*
X195366890Y-71457874D01*
X195353459Y-71448962D01*
X195342470Y-71438525D01*
X195333929Y-71426547D01*
X195327829Y-71413028D01*
X195324159Y-71397968D01*
X195322940Y-71381381D01*
X195323930Y-71367755D01*
X195325687Y-71360217D01*
X196018189Y-71360217D01*
X196020852Y-71397662D01*
X196021109Y-71401279D01*
X196029819Y-71439288D01*
X196044329Y-71474246D01*
X196064669Y-71506152D01*
X196090810Y-71535007D01*
X196122760Y-71560809D01*
X196159839Y-71583072D01*
X196201380Y-71601276D01*
X196247370Y-71615436D01*
X196297809Y-71625552D01*
X196352699Y-71631610D01*
X196412050Y-71633640D01*
X196470179Y-71632053D01*
X196523579Y-71627261D01*
X196572259Y-71619296D01*
X196616199Y-71608142D01*
X196622126Y-71605975D01*
X196844459Y-71605975D01*
X196851129Y-71607578D01*
X196886499Y-71616245D01*
X196891929Y-71617465D01*
X196897340Y-71618594D01*
X196902779Y-71619632D01*
X196908190Y-71620578D01*
X196913629Y-71621432D01*
X196919100Y-71622226D01*
X196924690Y-71622974D01*
X196930399Y-71623676D01*
X196936220Y-71624332D01*
X196942160Y-71624942D01*
X196948200Y-71625507D01*
X196954470Y-71625995D01*
X196961099Y-71626407D01*
X196968039Y-71626727D01*
X196975329Y-71626956D01*
X196982960Y-71627094D01*
X196990929Y-71627139D01*
X197018420Y-71625964D01*
X197043420Y-71622440D01*
X197065890Y-71616565D01*
X197085870Y-71608325D01*
X197103319Y-71597751D01*
X197118279Y-71584827D01*
X197131060Y-71569614D01*
X197142020Y-71552173D01*
X197151130Y-71532535D01*
X197158419Y-71510669D01*
X197163889Y-71486606D01*
X197167519Y-71460315D01*
X197172379Y-71460315D01*
X197207109Y-71513278D01*
X197247259Y-71556598D01*
X197292819Y-71590305D01*
X197343819Y-71614383D01*
X197400239Y-71628818D01*
X197462089Y-71633640D01*
X197503119Y-71631702D01*
X197541019Y-71625903D01*
X197575809Y-71616245D01*
X197607469Y-71602710D01*
X197636019Y-71585330D01*
X197661459Y-71564059D01*
X197683339Y-71539294D01*
X197701239Y-71511401D01*
X197715169Y-71480350D01*
X197725099Y-71446155D01*
X197731069Y-71408832D01*
X197733069Y-71368350D01*
X197730599Y-71324603D01*
X197723169Y-71284457D01*
X197710789Y-71247928D01*
X197693469Y-71215015D01*
X197671189Y-71185733D01*
X197657752Y-71173068D01*
X197826449Y-71173068D01*
X197828909Y-71243777D01*
X197836259Y-71308917D01*
X197848507Y-71368350D01*
X197848529Y-71368457D01*
X197865699Y-71422427D01*
X197887779Y-71470813D01*
X197914759Y-71513614D01*
X197946199Y-71550296D01*
X197981699Y-71580295D01*
X198021249Y-71603641D01*
X198064839Y-71620303D01*
X198112479Y-71630298D01*
X198164159Y-71633640D01*
X198194419Y-71632526D01*
X198223329Y-71629169D01*
X198250919Y-71623569D01*
X198277179Y-71615741D01*
X198302099Y-71605670D01*
X198325689Y-71593372D01*
X198347719Y-71578952D01*
X198367959Y-71562579D01*
X198386419Y-71544238D01*
X198403079Y-71523929D01*
X198417959Y-71501651D01*
X198431069Y-71477405D01*
X198435949Y-71477405D01*
X198434449Y-71488300D01*
X198433229Y-71504703D01*
X198432289Y-71526630D01*
X198431599Y-71554080D01*
X198431199Y-71587039D01*
X198431069Y-71625507D01*
X198431069Y-71963214D01*
X198659739Y-71963214D01*
X198659739Y-70939532D01*
X198659919Y-70899310D01*
X198660449Y-70861682D01*
X198661369Y-70826617D01*
X198662619Y-70794147D01*
X198664249Y-70764240D01*
X198666239Y-70736911D01*
X198763369Y-70736911D01*
X199111669Y-71663745D01*
X199135139Y-71717273D01*
X199158909Y-71765018D01*
X199182969Y-71806964D01*
X199207329Y-71843127D01*
X199231989Y-71873508D01*
X199256919Y-71898105D01*
X199283219Y-71918002D01*
X199311939Y-71934268D01*
X199343069Y-71946933D01*
X199376619Y-71955981D01*
X199412599Y-71961398D01*
X199450989Y-71963214D01*
X199477839Y-71962909D01*
X199503529Y-71962039D01*
X199528099Y-71960559D01*
X199551549Y-71958514D01*
X199573859Y-71955859D01*
X199595039Y-71952640D01*
X199595039Y-71789874D01*
X199580859Y-71791873D01*
X199567099Y-71793506D01*
X199553729Y-71794772D01*
X199540779Y-71795673D01*
X199528229Y-71796222D01*
X199516099Y-71796390D01*
X199500279Y-71795963D01*
X199485399Y-71794681D01*
X199471439Y-71792529D01*
X199458409Y-71789523D01*
X199446309Y-71785648D01*
X199435139Y-71780933D01*
X199424599Y-71775211D01*
X199414429Y-71768359D01*
X199404619Y-71760379D01*
X199395159Y-71751270D01*
X199386079Y-71741031D01*
X199377359Y-71729663D01*
X199368639Y-71716342D01*
X199359589Y-71700275D01*
X199350199Y-71681445D01*
X199340459Y-71659854D01*
X199330389Y-71635516D01*
X199319979Y-71608417D01*
X199447132Y-71290240D01*
X199728839Y-71290240D01*
X199732089Y-71340350D01*
X199741859Y-71386523D01*
X199758139Y-71428775D01*
X199780919Y-71467090D01*
X199810219Y-71501483D01*
X199846009Y-71531924D01*
X199887609Y-71558032D01*
X199934269Y-71579395D01*
X199985979Y-71596011D01*
X200042759Y-71607867D01*
X200104609Y-71614993D01*
X200171509Y-71617374D01*
X200745209Y-71617374D01*
X200745209Y-70470813D01*
X200220339Y-70470813D01*
X200153199Y-70472827D01*
X200091729Y-70478900D01*
X200035929Y-70489017D01*
X199985799Y-70503177D01*
X199941349Y-70521396D01*
X199902579Y-70543643D01*
X199869639Y-70569858D01*
X199842669Y-70599933D01*
X199821709Y-70633868D01*
X199806739Y-70671680D01*
X199797749Y-70713336D01*
X199796202Y-70736911D01*
X199794759Y-70758884D01*
X199796259Y-70790576D01*
X199800769Y-70820590D01*
X199808279Y-70848895D01*
X199818809Y-70875507D01*
X199832339Y-70900439D01*
X199848869Y-70923663D01*
X199868479Y-70944827D01*
X199891229Y-70963580D01*
X199917119Y-70979907D01*
X199946159Y-70993823D01*
X199978319Y-71005313D01*
X200013649Y-71014392D01*
X199969109Y-71021350D01*
X199928239Y-71031345D01*
X199891069Y-71044406D01*
X199857579Y-71060504D01*
X199827779Y-71079669D01*
X199801669Y-71101871D01*
X199779409Y-71126880D01*
X199761209Y-71154453D01*
X199747049Y-71184573D01*
X199736929Y-71217227D01*
X199730859Y-71252460D01*
X199728839Y-71290240D01*
X199447132Y-71290240D01*
X199668259Y-70736911D01*
X199426599Y-70736911D01*
X199288259Y-71149478D01*
X199276919Y-71181659D01*
X199264649Y-71219073D01*
X199251429Y-71261752D01*
X199237249Y-71309680D01*
X199222129Y-71362842D01*
X199206059Y-71421252D01*
X199185719Y-71343951D01*
X199132819Y-71152728D01*
X199002619Y-70736911D01*
X198763369Y-70736911D01*
X198666239Y-70736911D01*
X198444079Y-70736911D01*
X198442759Y-70742572D01*
X198441499Y-70749835D01*
X198440329Y-70758670D01*
X198439199Y-70769092D01*
X198438149Y-70781100D01*
X198437169Y-70794681D01*
X198436299Y-70809039D01*
X198435599Y-70823352D01*
X198435029Y-70837604D01*
X198434639Y-70851825D01*
X198434409Y-70866000D01*
X198434329Y-70880130D01*
X198431069Y-70880130D01*
X198401769Y-70830646D01*
X198365419Y-70790164D01*
X198322029Y-70758670D01*
X198271569Y-70736179D01*
X198214069Y-70722690D01*
X198149509Y-70718188D01*
X198100159Y-70721469D01*
X198054659Y-70731342D01*
X198013009Y-70747791D01*
X197975199Y-70770816D01*
X197941209Y-70800418D01*
X197911089Y-70836597D01*
X197885229Y-70878833D01*
X197864069Y-70926608D01*
X197847619Y-70979907D01*
X197835869Y-71038760D01*
X197828799Y-71103152D01*
X197826449Y-71173068D01*
X197657752Y-71173068D01*
X197643959Y-71160068D01*
X197612039Y-71138141D01*
X197575639Y-71120090D01*
X197534809Y-71105945D01*
X197489519Y-71095676D01*
X197439779Y-71089297D01*
X197385599Y-71086810D01*
X197195989Y-71083560D01*
X197195989Y-71038806D01*
X197196830Y-71011279D01*
X197199330Y-70986224D01*
X197203510Y-70963641D01*
X197209370Y-70943500D01*
X197216889Y-70925845D01*
X197226099Y-70910648D01*
X197237200Y-70897830D01*
X197250419Y-70887363D01*
X197265769Y-70879199D01*
X197283240Y-70873386D01*
X197302830Y-70869891D01*
X197324560Y-70868732D01*
X197344779Y-70869525D01*
X197363129Y-70871936D01*
X197379599Y-70875949D01*
X197394190Y-70881564D01*
X197406899Y-70888797D01*
X197417749Y-70897617D01*
X197427019Y-70908298D01*
X197435049Y-70921085D01*
X197441839Y-70935962D01*
X197447389Y-70952960D01*
X197451699Y-70972049D01*
X197454759Y-70993243D01*
X197693179Y-70981845D01*
X197683809Y-70940707D01*
X197670359Y-70903049D01*
X197652809Y-70868839D01*
X197631169Y-70838077D01*
X197605429Y-70810794D01*
X197575609Y-70786960D01*
X197541819Y-70766696D01*
X197504139Y-70750110D01*
X197462609Y-70737216D01*
X197417199Y-70728000D01*
X197367939Y-70722476D01*
X197314810Y-70720630D01*
X197261330Y-70722919D01*
X197212089Y-70729770D01*
X197167109Y-70741183D01*
X197126379Y-70757159D01*
X197089899Y-70777713D01*
X197057649Y-70802829D01*
X197030050Y-70832141D01*
X197007480Y-70865298D01*
X196989920Y-70902301D01*
X196977360Y-70943149D01*
X196969839Y-70987842D01*
X196967339Y-71036365D01*
X196967339Y-71356967D01*
X196966860Y-71380374D01*
X196965716Y-71397662D01*
X196965480Y-71401233D01*
X196963159Y-71419528D01*
X196959919Y-71435275D01*
X196955759Y-71448459D01*
X196950660Y-71459094D01*
X196944459Y-71467670D01*
X196937030Y-71474689D01*
X196928369Y-71480151D01*
X196918449Y-71484042D01*
X196907289Y-71486392D01*
X196894900Y-71487170D01*
X196886269Y-71487033D01*
X196877719Y-71486621D01*
X196869270Y-71485950D01*
X196860909Y-71485004D01*
X196852640Y-71483783D01*
X196844459Y-71482288D01*
X196844459Y-71605975D01*
X196622126Y-71605975D01*
X196655430Y-71593799D01*
X196689949Y-71576282D01*
X196720300Y-71555377D01*
X196747050Y-71530933D01*
X196770210Y-71502933D01*
X196789770Y-71471393D01*
X196805729Y-71436298D01*
X196818109Y-71397662D01*
X196617120Y-71367557D01*
X196610740Y-71387424D01*
X196602970Y-71405246D01*
X196593829Y-71421054D01*
X196583300Y-71434818D01*
X196571400Y-71446552D01*
X196558130Y-71456241D01*
X196542429Y-71464206D01*
X196523259Y-71470706D01*
X196500649Y-71475772D01*
X196474570Y-71479388D01*
X196445040Y-71481555D01*
X196412050Y-71482288D01*
X196381490Y-71481601D01*
X196353829Y-71479572D01*
X196329049Y-71476184D01*
X196307170Y-71471439D01*
X196288179Y-71465335D01*
X196272090Y-71457874D01*
X196258659Y-71448962D01*
X196247670Y-71438525D01*
X196239129Y-71426547D01*
X196233020Y-71413028D01*
X196229359Y-71397968D01*
X196228140Y-71381381D01*
X196229119Y-71367755D01*
X196232079Y-71355106D01*
X196236990Y-71343433D01*
X196243870Y-71332736D01*
X196252720Y-71323001D01*
X196263539Y-71314243D01*
X196276709Y-71306186D01*
X196292610Y-71298557D01*
X196311240Y-71291354D01*
X196332620Y-71284595D01*
X196356729Y-71278247D01*
X196383570Y-71272327D01*
X196444630Y-71259723D01*
X196498679Y-71247424D01*
X196545709Y-71235416D01*
X196585749Y-71223697D01*
X196618770Y-71212268D01*
X196644800Y-71201129D01*
X196666399Y-71189624D01*
X196686240Y-71177005D01*
X196704289Y-71163303D01*
X196720559Y-71148532D01*
X196735040Y-71132663D01*
X196747730Y-71115710D01*
X196758540Y-71097552D01*
X196767390Y-71078052D01*
X196774279Y-71057224D01*
X196779199Y-71035052D01*
X196782140Y-71011554D01*
X196783130Y-70986728D01*
X196780420Y-70946231D01*
X196772310Y-70908832D01*
X196758809Y-70874530D01*
X196739900Y-70843326D01*
X196715599Y-70815219D01*
X196685870Y-70790210D01*
X196651210Y-70768695D01*
X196612049Y-70751102D01*
X196568379Y-70737415D01*
X196520220Y-70727634D01*
X196467570Y-70721774D01*
X196410419Y-70719821D01*
X196359779Y-70721515D01*
X196312549Y-70726596D01*
X196268730Y-70735080D01*
X196228320Y-70746951D01*
X196191339Y-70762195D01*
X196157750Y-70780856D01*
X196127889Y-70802707D01*
X196102010Y-70827594D01*
X196080150Y-70855518D01*
X196062280Y-70886462D01*
X196048409Y-70920428D01*
X196038529Y-70957431D01*
X196241159Y-70978580D01*
X196245200Y-70961444D01*
X196250830Y-70945819D01*
X196258050Y-70931705D01*
X196266839Y-70919101D01*
X196277229Y-70908008D01*
X196289180Y-70898441D01*
X196303170Y-70890353D01*
X196319650Y-70883746D01*
X196338610Y-70878604D01*
X196360069Y-70874927D01*
X196383989Y-70872729D01*
X196410419Y-70871997D01*
X196436409Y-70872562D01*
X196460150Y-70874301D01*
X196481630Y-70877185D01*
X196500850Y-70881213D01*
X196517800Y-70886401D01*
X196532490Y-70892734D01*
X196544929Y-70900439D01*
X196555089Y-70909686D01*
X196563010Y-70920505D01*
X196568660Y-70932880D01*
X196572039Y-70946826D01*
X196573170Y-70962314D01*
X196572299Y-70974628D01*
X196569690Y-70986041D01*
X196565339Y-70996585D01*
X196559239Y-71006259D01*
X196551410Y-71015033D01*
X196541849Y-71022937D01*
X196530199Y-71030185D01*
X196516209Y-71037006D01*
X196499820Y-71043384D01*
X196481089Y-71049335D01*
X196459949Y-71054858D01*
X196436449Y-71059955D01*
X196402659Y-71067050D01*
X196370139Y-71074207D01*
X196338920Y-71081424D01*
X196308979Y-71088718D01*
X196280330Y-71096088D01*
X196252970Y-71103503D01*
X196227130Y-71111194D01*
X196203050Y-71119373D01*
X196180750Y-71128009D01*
X196160189Y-71137134D01*
X196141410Y-71146732D01*
X196124379Y-71156802D01*
X196108789Y-71167590D01*
X196094270Y-71179355D01*
X196080849Y-71192096D01*
X196068499Y-71205798D01*
X196057259Y-71220477D01*
X196047079Y-71236133D01*
X196038259Y-71253024D01*
X196031030Y-71271442D01*
X196025410Y-71291354D01*
X196021409Y-71312793D01*
X196018999Y-71335757D01*
X196018189Y-71360217D01*
X195325687Y-71360217D01*
X195326879Y-71355106D01*
X195331790Y-71343433D01*
X195338670Y-71332736D01*
X195347529Y-71323001D01*
X195358339Y-71314243D01*
X195371509Y-71306186D01*
X195387410Y-71298557D01*
X195406059Y-71291354D01*
X195427440Y-71284595D01*
X195451539Y-71278247D01*
X195478380Y-71272327D01*
X195539430Y-71259723D01*
X195593479Y-71247424D01*
X195640519Y-71235416D01*
X195680549Y-71223697D01*
X195713580Y-71212268D01*
X195739600Y-71201129D01*
X195761219Y-71189624D01*
X195781059Y-71177005D01*
X195799089Y-71163303D01*
X195815359Y-71148532D01*
X195829840Y-71132663D01*
X195842540Y-71115710D01*
X195853350Y-71097552D01*
X195862200Y-71078052D01*
X195869089Y-71057224D01*
X195873999Y-71035052D01*
X195876940Y-71011554D01*
X195877940Y-70986728D01*
X195875230Y-70946231D01*
X195867129Y-70908832D01*
X195853629Y-70874530D01*
X195834709Y-70843326D01*
X195810399Y-70815219D01*
X195780690Y-70790210D01*
X195746019Y-70768695D01*
X195706849Y-70751102D01*
X195663199Y-70737415D01*
X195615040Y-70727634D01*
X195562380Y-70721774D01*
X195505219Y-70719821D01*
X195454579Y-70721515D01*
X195407349Y-70726596D01*
X195363530Y-70735080D01*
X195323140Y-70746951D01*
X195286139Y-70762195D01*
X195252570Y-70780856D01*
X195222689Y-70802707D01*
X195196830Y-70827594D01*
X195174949Y-70855518D01*
X195157080Y-70886462D01*
X195143209Y-70920428D01*
X195133349Y-70957431D01*
X195335959Y-70978580D01*
X195340020Y-70961444D01*
X195345650Y-70945819D01*
X195352850Y-70931705D01*
X195361649Y-70919101D01*
X195372029Y-70908008D01*
X195383989Y-70898441D01*
X195397989Y-70890353D01*
X195414470Y-70883746D01*
X195433420Y-70878604D01*
X195454869Y-70874927D01*
X195478809Y-70872729D01*
X195505219Y-70871997D01*
X195531230Y-70872562D01*
X195554950Y-70874301D01*
X195576440Y-70877185D01*
X195595650Y-70881213D01*
X195612599Y-70886401D01*
X195627290Y-70892734D01*
X195639729Y-70900439D01*
X195649910Y-70909686D01*
X195657810Y-70920505D01*
X195663460Y-70932880D01*
X195666849Y-70946826D01*
X195667970Y-70962314D01*
X195667109Y-70974628D01*
X195664499Y-70986041D01*
X195660149Y-70996585D01*
X195654059Y-71006259D01*
X195646230Y-71015033D01*
X195636649Y-71022937D01*
X195625019Y-71030185D01*
X195611009Y-71037006D01*
X195594640Y-71043384D01*
X195575889Y-71049335D01*
X195554769Y-71054858D01*
X195531269Y-71059955D01*
X195497459Y-71067050D01*
X195464939Y-71074207D01*
X195433719Y-71081424D01*
X195403779Y-71088718D01*
X195375130Y-71096088D01*
X195347770Y-71103503D01*
X195321939Y-71111194D01*
X195297860Y-71119373D01*
X195275550Y-71128009D01*
X195254999Y-71137134D01*
X195236210Y-71146732D01*
X195219200Y-71156802D01*
X195203600Y-71167590D01*
X195189079Y-71179355D01*
X195175670Y-71192096D01*
X195163319Y-71205798D01*
X195152059Y-71220477D01*
X195141879Y-71236133D01*
X195133059Y-71253024D01*
X195125850Y-71271442D01*
X195120230Y-71291354D01*
X195116219Y-71312793D01*
X195113809Y-71335757D01*
X195113009Y-71360217D01*
X194502629Y-71360217D01*
X194502629Y-70470813D01*
X194262579Y-70470813D01*
X194262579Y-71431842D01*
X193647389Y-71431842D01*
X193647389Y-71617374D01*
X193275678Y-71617374D01*
X193318625Y-71604236D01*
X193366919Y-71581378D01*
X193410119Y-71551974D01*
X193448220Y-71516055D01*
X193480780Y-71473865D01*
X193507439Y-71425677D01*
X193528159Y-71371509D01*
X193542960Y-71311343D01*
X193551840Y-71245197D01*
X193554819Y-71173068D01*
X193551790Y-71103183D01*
X193542779Y-71038898D01*
X193527749Y-70980212D01*
X193506699Y-70927142D01*
X193479649Y-70879672D01*
X193446589Y-70837817D01*
X193407999Y-70802005D01*
X193364386Y-70772708D01*
X193315771Y-70749927D01*
X193262137Y-70733661D01*
X193203482Y-70723895D01*
X193139807Y-70720630D01*
X193079077Y-70724124D01*
X193023337Y-70734607D01*
X193016636Y-70736911D01*
X192972571Y-70752063D01*
X192926764Y-70776508D01*
X192885947Y-70807941D01*
X192850104Y-70846362D01*
X192819510Y-70891513D01*
X192794485Y-70943149D01*
X192775030Y-71001270D01*
X192761130Y-71065891D01*
X192752783Y-71136996D01*
X192750006Y-71214557D01*
X192750006Y-71221072D01*
X192535038Y-71221072D01*
X192708197Y-70736911D01*
X192466528Y-70736911D01*
X192312750Y-71229205D01*
X192307745Y-71246158D01*
X192300894Y-71269901D01*
X192292197Y-71300418D01*
X192281638Y-71337711D01*
X192254965Y-71432651D01*
X192251776Y-71420123D01*
X192247641Y-71404803D01*
X192242560Y-71386676D01*
X192236517Y-71365741D01*
X192229544Y-71342014D01*
X192221608Y-71315479D01*
X192209402Y-71276111D01*
X192189597Y-71213931D01*
X192162192Y-71128925D01*
X192127203Y-71021091D01*
X192084616Y-70890414D01*
X192034445Y-70736911D01*
X191795203Y-70736911D01*
X191462477Y-70736911D01*
X191451758Y-70733661D01*
X191393100Y-70723895D01*
X191329430Y-70720630D01*
X191268710Y-70724124D01*
X191212970Y-70734607D01*
X191162210Y-70752063D01*
X191116400Y-70776508D01*
X191075580Y-70807941D01*
X191039720Y-70846362D01*
X191009150Y-70891513D01*
X190984120Y-70943149D01*
X190964670Y-71001270D01*
X190950750Y-71065891D01*
X190942420Y-71136996D01*
X190939640Y-71214557D01*
X190939640Y-71221072D01*
X190787990Y-71221072D01*
X190787990Y-70409778D01*
X190559320Y-70409778D01*
X190559320Y-71617374D01*
X189623536Y-71617374D01*
X189641680Y-71614108D01*
X189696690Y-71598926D01*
X189746390Y-71579395D01*
X189790810Y-71555515D01*
X189830099Y-71527240D01*
X189864400Y-71494495D01*
X189893740Y-71457263D01*
X189918110Y-71415561D01*
X189937510Y-71369373D01*
X189951929Y-71318729D01*
X189720010Y-71280475D01*
X189710900Y-71309467D01*
X189699300Y-71335681D01*
X189685230Y-71359103D01*
X189668660Y-71379764D01*
X189649599Y-71397632D01*
X189628060Y-71412723D01*
X189603810Y-71425281D01*
X189576610Y-71435550D01*
X189546481Y-71443530D01*
X189513399Y-71449237D01*
X189477390Y-71452670D01*
X189438450Y-71453815D01*
X189361620Y-71449557D01*
X189298760Y-71436801D01*
X189249870Y-71415561D01*
X189214939Y-71385806D01*
X189193990Y-71347568D01*
X189187000Y-71300815D01*
X189187810Y-71285022D01*
X189190210Y-71270160D01*
X189194220Y-71256259D01*
X189199850Y-71243320D01*
X189207070Y-71231311D01*
X189215900Y-71220264D01*
X189226190Y-71209979D01*
X189237780Y-71200275D01*
X189250680Y-71191180D01*
X189264901Y-71182666D01*
X189280430Y-71174731D01*
X189297280Y-71167377D01*
X189317450Y-71160083D01*
X189342980Y-71152286D01*
X189373860Y-71143985D01*
X189410099Y-71135196D01*
X189451710Y-71125903D01*
X189498659Y-71116107D01*
X189539360Y-71106403D01*
X189575700Y-71097354D01*
X189607720Y-71088947D01*
X189635380Y-71081210D01*
X189658710Y-71074130D01*
X189677710Y-71067691D01*
X189694250Y-71061420D01*
X189710260Y-71054767D01*
X189725710Y-71047763D01*
X189740640Y-71040393D01*
X189755010Y-71032657D01*
X189768850Y-71024570D01*
X189782060Y-71016010D01*
X189794609Y-71006885D01*
X189806480Y-70997195D01*
X189817660Y-70986957D01*
X189828180Y-70976138D01*
X189838020Y-70964755D01*
X189847160Y-70952747D01*
X189855600Y-70940067D01*
X189863330Y-70926715D01*
X189870380Y-70912677D01*
X189876720Y-70897952D01*
X189882360Y-70882556D01*
X189887200Y-70866443D01*
X189891170Y-70849567D01*
X189894250Y-70831912D01*
X189896460Y-70813480D01*
X189897770Y-70794299D01*
X189898210Y-70774341D01*
X189894980Y-70724551D01*
X189885240Y-70678806D01*
X189869020Y-70637119D01*
X189846320Y-70599475D01*
X189817129Y-70565875D01*
X189781450Y-70536319D01*
X189739570Y-70511081D01*
X189691790Y-70490421D01*
X189638131Y-70474368D01*
X189578560Y-70462894D01*
X189513080Y-70456012D01*
X189441719Y-70453723D01*
X189373600Y-70455569D01*
X189311380Y-70461139D01*
X189255061Y-70470401D01*
X189204640Y-70483371D01*
X189160130Y-70500064D01*
X189121510Y-70520450D01*
X189087940Y-70545108D01*
X189058620Y-70574603D01*
X189033511Y-70608936D01*
X189012640Y-70648120D01*
X188995990Y-70692126D01*
X188983570Y-70740970D01*
X189216310Y-70772708D01*
X189223299Y-70749042D01*
X189232350Y-70727420D01*
X189243460Y-70707812D01*
X189256630Y-70690250D01*
X189271860Y-70674731D01*
X189289130Y-70661227D01*
X189308770Y-70649799D01*
X189331050Y-70640430D01*
X189355960Y-70633151D01*
X189383520Y-70627948D01*
X189413730Y-70624835D01*
X189446590Y-70623798D01*
X189513220Y-70627597D01*
X189567740Y-70638980D01*
X189610160Y-70657977D01*
X189640450Y-70684558D01*
X189658620Y-70718723D01*
X189664680Y-70760501D01*
X189664040Y-70774966D01*
X189662100Y-70788531D01*
X189658880Y-70801196D01*
X189654360Y-70812946D01*
X189648580Y-70823795D01*
X189641489Y-70833743D01*
X189633140Y-70843005D01*
X189623540Y-70851779D01*
X189612709Y-70860095D01*
X189600620Y-70867923D01*
X189587300Y-70875278D01*
X189572729Y-70882159D01*
X189554940Y-70889087D01*
X189531940Y-70896579D01*
X189503760Y-70904636D01*
X189470370Y-70913272D01*
X189431780Y-70922458D01*
X189388010Y-70932208D01*
X189335550Y-70943729D01*
X189288320Y-70954944D01*
X189246310Y-70965869D01*
X189209520Y-70976505D01*
X189177950Y-70986850D01*
X189151620Y-70996906D01*
X189128700Y-71007068D01*
X189107439Y-71017780D01*
X189087839Y-71029041D01*
X189069880Y-71040836D01*
X189053560Y-71053180D01*
X189038920Y-71066074D01*
X189025610Y-71079654D01*
X189013399Y-71094104D01*
X189002280Y-71109409D01*
X188992250Y-71125568D01*
X188983300Y-71142581D01*
X188975420Y-71160464D01*
X188968710Y-71179248D01*
X188963220Y-71198947D01*
X188958940Y-71219547D01*
X188955890Y-71241107D01*
X188954060Y-71263583D01*
X188953470Y-71286990D01*
X188797980Y-71286990D01*
X188797980Y-70409778D01*
X188569310Y-70409778D01*
X188569310Y-70739337D01*
X188569480Y-70768802D01*
X188570031Y-70798022D01*
X188570930Y-70827029D01*
X188572200Y-70855807D01*
X188573830Y-70884357D01*
X188575830Y-70912677D01*
X188572580Y-70912677D01*
X188556450Y-70880573D01*
X188539020Y-70851550D01*
X188520290Y-70825610D01*
X188500230Y-70802737D01*
X188478870Y-70782932D01*
X188456200Y-70766208D01*
X188432140Y-70752292D01*
X188406560Y-70740894D01*
X188379509Y-70732028D01*
X188350960Y-70725696D01*
X188320910Y-70721896D01*
X188289390Y-70720630D01*
X188244530Y-70723026D01*
X188203300Y-70730212D01*
X188165690Y-70742206D01*
X188131689Y-70758975D01*
X188101321Y-70780536D01*
X188074561Y-70806888D01*
X188051689Y-70837863D01*
X188032970Y-70873264D01*
X188018410Y-70913089D01*
X188008000Y-70957339D01*
X188001780Y-71006030D01*
X187999689Y-71059161D01*
X187999689Y-71617374D01*
X187803780Y-71617374D01*
X187803780Y-70736911D01*
X187575090Y-70736911D01*
X187575090Y-71617374D01*
X187310870Y-71617374D01*
X187310870Y-70891513D01*
X187439460Y-70891513D01*
X187439460Y-70736911D01*
X187310870Y-70736911D01*
X187310870Y-70644946D01*
X187309121Y-70606799D01*
X187304759Y-70578220D01*
X187575090Y-70578220D01*
X187803780Y-70578220D01*
X187803780Y-70409778D01*
X187575090Y-70409778D01*
X187575090Y-70578220D01*
X187304759Y-70578220D01*
X187303820Y-70572070D01*
X187295000Y-70540790D01*
X187282660Y-70512943D01*
X187266810Y-70488528D01*
X187247410Y-70467548D01*
X187224420Y-70449893D01*
X187197760Y-70435458D01*
X187167460Y-70424213D01*
X187133470Y-70416202D01*
X187095850Y-70411380D01*
X187054540Y-70409778D01*
X187032660Y-70410129D01*
X187009880Y-70411227D01*
X186986201Y-70413028D01*
X186961600Y-70415561D01*
X186936100Y-70418811D01*
X186909700Y-70422794D01*
X186909700Y-70570087D01*
X186920830Y-70567844D01*
X186931940Y-70566013D01*
X186943060Y-70564594D01*
X186954180Y-70563571D01*
X186965309Y-70562961D01*
X186976420Y-70562762D01*
X186994999Y-70563403D01*
X187011650Y-70565341D01*
X187026369Y-70568561D01*
X187039180Y-70573077D01*
X187050070Y-70578876D01*
X187059030Y-70585956D01*
X187066370Y-70594669D01*
X187072359Y-70605350D01*
X187077031Y-70617999D01*
X187080360Y-70632602D01*
X187082360Y-70649188D01*
X187083030Y-70667743D01*
X187083030Y-70736911D01*
X186909700Y-70736911D01*
X186909700Y-70891513D01*
X186905580Y-70891513D01*
X186905580Y-70736911D01*
X186782709Y-70736911D01*
X186711100Y-70530200D01*
X186567880Y-70530200D01*
X186567880Y-70736911D01*
X186401050Y-70736911D01*
X186401050Y-70891513D01*
X186567880Y-70891513D01*
X186567880Y-71348834D01*
X186567190Y-71369327D01*
X186565160Y-71387943D01*
X186561770Y-71404666D01*
X186557030Y-71419528D01*
X186550920Y-71432529D01*
X186543459Y-71443637D01*
X186534581Y-71452960D01*
X186524210Y-71460590D01*
X186512340Y-71466525D01*
X186498980Y-71470752D01*
X186484140Y-71473300D01*
X186467790Y-71474155D01*
X186458210Y-71473834D01*
X186447350Y-71472888D01*
X186435231Y-71471301D01*
X186421851Y-71469089D01*
X186407200Y-71466235D01*
X186391290Y-71462756D01*
X186391290Y-71604343D01*
X186267550Y-71604343D01*
X186267550Y-70736911D01*
X186038889Y-70736911D01*
X186038889Y-71617374D01*
X185815359Y-71617374D01*
X185815359Y-70933826D01*
X185815420Y-70910938D01*
X185815590Y-70889484D01*
X185815860Y-70869449D01*
X185816260Y-70850833D01*
X185816780Y-70833652D01*
X185817390Y-70817889D01*
X185818790Y-70788806D01*
X185819530Y-70775058D01*
X185820290Y-70761813D01*
X185821070Y-70749103D01*
X185821860Y-70736911D01*
X185603780Y-70736911D01*
X185602930Y-70743488D01*
X185601970Y-70752948D01*
X185600930Y-70765277D01*
X185599800Y-70780490D01*
X185598580Y-70798557D01*
X185597269Y-70819507D01*
X185596030Y-70840717D01*
X185595010Y-70859607D01*
X185594210Y-70876163D01*
X185593649Y-70890384D01*
X185593310Y-70902286D01*
X185593211Y-70911868D01*
X185589939Y-70911868D01*
X185573830Y-70879764D01*
X185556401Y-70850742D01*
X185537660Y-70824802D01*
X185517610Y-70801913D01*
X185496250Y-70782123D01*
X185473580Y-70765399D01*
X185449510Y-70751468D01*
X185423940Y-70740070D01*
X185396892Y-70731219D01*
X185368341Y-70724887D01*
X185338291Y-70721088D01*
X185306751Y-70719821D01*
X185261911Y-70722217D01*
X185220682Y-70729404D01*
X185183071Y-70741382D01*
X185149070Y-70758151D01*
X185118701Y-70779712D01*
X185091941Y-70806079D01*
X185069070Y-70837039D01*
X185050342Y-70872440D01*
X185035791Y-70912265D01*
X185025380Y-70956531D01*
X185019142Y-71005222D01*
X185017070Y-71058337D01*
X185017070Y-71617374D01*
X184263915Y-71617374D01*
X184262920Y-71587253D01*
X184262920Y-71540881D01*
X184261281Y-71453815D01*
X184262920Y-71453815D01*
X184291801Y-71503284D01*
X184328010Y-71543765D01*
X184371541Y-71575259D01*
X184422420Y-71597751D01*
X184480602Y-71611240D01*
X184546100Y-71615741D01*
X184595451Y-71612521D01*
X184640951Y-71602893D01*
X184682611Y-71586841D01*
X184720432Y-71564380D01*
X184754402Y-71535495D01*
X184784541Y-71500186D01*
X184810401Y-71458911D01*
X184831550Y-71412128D01*
X184848001Y-71359821D01*
X184859762Y-71301990D01*
X184866811Y-71238651D01*
X184869161Y-71169818D01*
X184866741Y-71100681D01*
X184859491Y-71037006D01*
X184847391Y-70978793D01*
X184830470Y-70926059D01*
X184808690Y-70878787D01*
X184782100Y-70836993D01*
X184750881Y-70801196D01*
X184715282Y-70771899D01*
X184675281Y-70749118D01*
X184630910Y-70732837D01*
X184582160Y-70723071D01*
X184529010Y-70719821D01*
X184468271Y-70724231D01*
X184414081Y-70737445D01*
X184366462Y-70759494D01*
X184325382Y-70790347D01*
X184290870Y-70830005D01*
X184262920Y-70878497D01*
X184258842Y-70878497D01*
X184258731Y-70868442D01*
X184258430Y-70857242D01*
X184257930Y-70844928D01*
X184257211Y-70831485D01*
X184256290Y-70816898D01*
X184255180Y-70801196D01*
X184253940Y-70785846D01*
X184252691Y-70772342D01*
X184251430Y-70760699D01*
X184250110Y-70750919D01*
X184248802Y-70742984D01*
X184247461Y-70736911D01*
X184031001Y-70736911D01*
X183400001Y-70736911D01*
X183400001Y-70578220D01*
X186038889Y-70578220D01*
X186267550Y-70578220D01*
X186267550Y-70409778D01*
X186038889Y-70409778D01*
X186038889Y-70578220D01*
X183400001Y-70578220D01*
X183400001Y-70325000D01*
X183403081Y-70285892D01*
X183412242Y-70247760D01*
X183427251Y-70211505D01*
X183447761Y-70178060D01*
X183473232Y-70148230D01*
X183503061Y-70122760D01*
X183536510Y-70102250D01*
X183572761Y-70087240D01*
X183610891Y-70078080D01*
X183650001Y-70075000D01*
X201149999Y-70075000D01*
X201189109Y-70078080D01*
X201227239Y-70087240D01*
X201263489Y-70102250D01*
X201296939Y-70122760D01*
X201326769Y-70148230D01*
X201352239Y-70178060D01*
X201372749Y-70211505D01*
X201387759Y-70247760D01*
X201396919Y-70285892D01*
X201399999Y-70325000D01*
X201399999Y-72075000D01*
X201396919Y-72114108D01*
G37*
X201396919Y-72114108D02*
X201387759Y-72152240D01*
X201372749Y-72188495D01*
X201352239Y-72221940D01*
X201326769Y-72251770D01*
X201296939Y-72277240D01*
X201263489Y-72297750D01*
X201227239Y-72312760D01*
X201189109Y-72321920D01*
X201149999Y-72325000D01*
X183650001Y-72325000D01*
X183610891Y-72321920D01*
X183572761Y-72312760D01*
X183536510Y-72297750D01*
X183503061Y-72277240D01*
X183473232Y-72251770D01*
X183447761Y-72221940D01*
X183427251Y-72188495D01*
X183412242Y-72152240D01*
X183403081Y-72114108D01*
X183400001Y-72075000D01*
X183400001Y-70736911D01*
X184031001Y-70736911D01*
X184032491Y-70766971D01*
X184033710Y-70798572D01*
X184034660Y-70831714D01*
X184035350Y-70866382D01*
X184035741Y-70902591D01*
X184035880Y-70940341D01*
X184035880Y-71590518D01*
X184038841Y-71650623D01*
X184047721Y-71705615D01*
X184062541Y-71755496D01*
X184083261Y-71800281D01*
X184109920Y-71839954D01*
X184142490Y-71874515D01*
X184180721Y-71903857D01*
X184224311Y-71927859D01*
X184273292Y-71946536D01*
X184327661Y-71959872D01*
X184387401Y-71967868D01*
X184452522Y-71970538D01*
X184504482Y-71968829D01*
X184552921Y-71963718D01*
X184597881Y-71955173D01*
X184639320Y-71943225D01*
X184677270Y-71927875D01*
X184711690Y-71909106D01*
X184742290Y-71887164D01*
X184768701Y-71862308D01*
X184790931Y-71834537D01*
X184808980Y-71803851D01*
X184822851Y-71770251D01*
X184832542Y-71733737D01*
X184603870Y-71706882D01*
X184599040Y-71723880D01*
X184592632Y-71739612D01*
X184584651Y-71754077D01*
X184575130Y-71767276D01*
X184564031Y-71779208D01*
X184551381Y-71789874D01*
X184537271Y-71799075D01*
X184521781Y-71806613D01*
X184504901Y-71812457D01*
X184486652Y-71816638D01*
X184467021Y-71819156D01*
X184446010Y-71819980D01*
X184415691Y-71818362D01*
X184388240Y-71813480D01*
X184363611Y-71805331D01*
X184341850Y-71793948D01*
X184322931Y-71779300D01*
X184306861Y-71761386D01*
X184293430Y-71740283D01*
X184282451Y-71716006D01*
X184273902Y-71688571D01*
X184267801Y-71657962D01*
X184264140Y-71624194D01*
X184263915Y-71617374D01*
X185017070Y-71617374D01*
X185244911Y-71617374D01*
X185244911Y-71123431D01*
X185249271Y-71052570D01*
X185262370Y-70994586D01*
X185284171Y-70949496D01*
X185314721Y-70917285D01*
X185353980Y-70897952D01*
X185401970Y-70891513D01*
X185428749Y-70893497D01*
X185453730Y-70899432D01*
X185476930Y-70909320D01*
X185498360Y-70923160D01*
X185517980Y-70940967D01*
X185535830Y-70962726D01*
X185551370Y-70987567D01*
X185564080Y-71014667D01*
X185573970Y-71043994D01*
X185581030Y-71075565D01*
X185585270Y-71109363D01*
X185586689Y-71145404D01*
X185586689Y-71617374D01*
X185815359Y-71617374D01*
X186038889Y-71617374D01*
X186267550Y-71617374D01*
X186267550Y-71604343D01*
X186391290Y-71604343D01*
X186420161Y-71612796D01*
X186440104Y-71617374D01*
X186450341Y-71619724D01*
X186481830Y-71625095D01*
X186514620Y-71628940D01*
X186548729Y-71631244D01*
X186584160Y-71632022D01*
X186616510Y-71630496D01*
X186646260Y-71625919D01*
X186673450Y-71618289D01*
X186698080Y-71607608D01*
X186720110Y-71593875D01*
X186739580Y-71577090D01*
X186756230Y-71557208D01*
X186769870Y-71534183D01*
X186780460Y-71508029D01*
X186788030Y-71478717D01*
X186792580Y-71446262D01*
X186794091Y-71410678D01*
X186794091Y-70891513D01*
X186905580Y-70891513D01*
X186909700Y-70891513D01*
X187083030Y-70891513D01*
X187083030Y-71617374D01*
X187310870Y-71617374D01*
X187575090Y-71617374D01*
X187803780Y-71617374D01*
X187999689Y-71617374D01*
X188227530Y-71617374D01*
X188227530Y-71124255D01*
X188231890Y-71053394D01*
X188244990Y-70995410D01*
X188266790Y-70950305D01*
X188297340Y-70918094D01*
X188336600Y-70898776D01*
X188384590Y-70892337D01*
X188411370Y-70894305D01*
X188436350Y-70900241D01*
X188459560Y-70910129D01*
X188480980Y-70923984D01*
X188500600Y-70941776D01*
X188518450Y-70963535D01*
X188533990Y-70988391D01*
X188546700Y-71015475D01*
X188556589Y-71044803D01*
X188563650Y-71076373D01*
X188567891Y-71110187D01*
X188569310Y-71146228D01*
X188569310Y-71617374D01*
X188797980Y-71617374D01*
X188797980Y-71286990D01*
X188953470Y-71286990D01*
X188956930Y-71340930D01*
X188967340Y-71390460D01*
X188984690Y-71435596D01*
X189008980Y-71476321D01*
X189040210Y-71512637D01*
X189078380Y-71544543D01*
X189123249Y-71571765D01*
X189174630Y-71594043D01*
X189232470Y-71611362D01*
X189263733Y-71617374D01*
X189296820Y-71623737D01*
X189367649Y-71631168D01*
X189444970Y-71633640D01*
X189515829Y-71631473D01*
X189581410Y-71624957D01*
X189623536Y-71617374D01*
X190559320Y-71617374D01*
X190787990Y-71617374D01*
X190787990Y-71221072D01*
X190939640Y-71221072D01*
X191504385Y-71221072D01*
X191503058Y-71262180D01*
X191499091Y-71299777D01*
X191492483Y-71333881D01*
X191483221Y-71364474D01*
X191471320Y-71391574D01*
X191456778Y-71415149D01*
X191439795Y-71435168D01*
X191420569Y-71451541D01*
X191399100Y-71464282D01*
X191375400Y-71473376D01*
X191349460Y-71478839D01*
X191321280Y-71480655D01*
X191283360Y-71477740D01*
X191250400Y-71468982D01*
X191222420Y-71454410D01*
X191199410Y-71433994D01*
X191181370Y-71407764D01*
X191168310Y-71375690D01*
X190952660Y-71394397D01*
X190989200Y-71467502D01*
X191036470Y-71527316D01*
X191094460Y-71573825D01*
X191163150Y-71607059D01*
X191204254Y-71617374D01*
X191242560Y-71626987D01*
X191332680Y-71633640D01*
X191396310Y-71630374D01*
X191454840Y-71620578D01*
X191508246Y-71604236D01*
X191556555Y-71581378D01*
X191599753Y-71551974D01*
X191637839Y-71516055D01*
X191670416Y-71473865D01*
X191697058Y-71425677D01*
X191717795Y-71371509D01*
X191732596Y-71311343D01*
X191741476Y-71245197D01*
X191744437Y-71173068D01*
X191741431Y-71103183D01*
X191732413Y-71038898D01*
X191717383Y-70980212D01*
X191696341Y-70927142D01*
X191669287Y-70879672D01*
X191636206Y-70837817D01*
X191597632Y-70802005D01*
X191554022Y-70772708D01*
X191505408Y-70749927D01*
X191462477Y-70736911D01*
X191795203Y-70736911D01*
X191956038Y-71173068D01*
X192119879Y-71617374D01*
X192393301Y-71617374D01*
X192535038Y-71221072D01*
X192750006Y-71221072D01*
X193314749Y-71221072D01*
X193313422Y-71262180D01*
X193309454Y-71299777D01*
X193302847Y-71333881D01*
X193293585Y-71364474D01*
X193281683Y-71391574D01*
X193267142Y-71415149D01*
X193250159Y-71435168D01*
X193230933Y-71451541D01*
X193209463Y-71464282D01*
X193185767Y-71473376D01*
X193159827Y-71478839D01*
X193131659Y-71480655D01*
X193093726Y-71477740D01*
X193060767Y-71468982D01*
X193032782Y-71454410D01*
X193009772Y-71433994D01*
X192991736Y-71407764D01*
X192978674Y-71375690D01*
X192763022Y-71394397D01*
X192799582Y-71467502D01*
X192846838Y-71527316D01*
X192904822Y-71573825D01*
X192973517Y-71607059D01*
X193052924Y-71626987D01*
X193143057Y-71633640D01*
X193206686Y-71630374D01*
X193265204Y-71620578D01*
X193275678Y-71617374D01*
X193647389Y-71617374D01*
X194502629Y-71617374D01*
X194502629Y-71360217D01*
X195113009Y-71360217D01*
X195115909Y-71401279D01*
X195124619Y-71439288D01*
X195139150Y-71474246D01*
X195159479Y-71506152D01*
X195185630Y-71535007D01*
X195217580Y-71560809D01*
X195254660Y-71583072D01*
X195296189Y-71601276D01*
X195342179Y-71615436D01*
X195351841Y-71617374D01*
X195392609Y-71625552D01*
X195447519Y-71631610D01*
X195506860Y-71633640D01*
X195564979Y-71632053D01*
X195618379Y-71627261D01*
X195667060Y-71619296D01*
X195711019Y-71608142D01*
X195750250Y-71593799D01*
X195784749Y-71576282D01*
X195815100Y-71555377D01*
X195841849Y-71530933D01*
X195865009Y-71502933D01*
X195884570Y-71471393D01*
X195900530Y-71436298D01*
X195912909Y-71397662D01*
X195711920Y-71367557D01*
X195705540Y-71387424D01*
X195697780Y-71405246D01*
X195688639Y-71421054D01*
X195678110Y-71434818D01*
X195666220Y-71446552D01*
X195652929Y-71456241D01*
X195637230Y-71464206D01*
X195618080Y-71470706D01*
X195595449Y-71475772D01*
X195569389Y-71479388D01*
X195539849Y-71481555D01*
X195506860Y-71482288D01*
X195476290Y-71481601D01*
X195448629Y-71479572D01*
X195423849Y-71476184D01*
X195401970Y-71471439D01*
X195382990Y-71465335D01*
X195366890Y-71457874D01*
X195353459Y-71448962D01*
X195342470Y-71438525D01*
X195333929Y-71426547D01*
X195327829Y-71413028D01*
X195324159Y-71397968D01*
X195322940Y-71381381D01*
X195323930Y-71367755D01*
X195325687Y-71360217D01*
X196018189Y-71360217D01*
X196020852Y-71397662D01*
X196021109Y-71401279D01*
X196029819Y-71439288D01*
X196044329Y-71474246D01*
X196064669Y-71506152D01*
X196090810Y-71535007D01*
X196122760Y-71560809D01*
X196159839Y-71583072D01*
X196201380Y-71601276D01*
X196247370Y-71615436D01*
X196297809Y-71625552D01*
X196352699Y-71631610D01*
X196412050Y-71633640D01*
X196470179Y-71632053D01*
X196523579Y-71627261D01*
X196572259Y-71619296D01*
X196616199Y-71608142D01*
X196622126Y-71605975D01*
X196844459Y-71605975D01*
X196851129Y-71607578D01*
X196886499Y-71616245D01*
X196891929Y-71617465D01*
X196897340Y-71618594D01*
X196902779Y-71619632D01*
X196908190Y-71620578D01*
X196913629Y-71621432D01*
X196919100Y-71622226D01*
X196924690Y-71622974D01*
X196930399Y-71623676D01*
X196936220Y-71624332D01*
X196942160Y-71624942D01*
X196948200Y-71625507D01*
X196954470Y-71625995D01*
X196961099Y-71626407D01*
X196968039Y-71626727D01*
X196975329Y-71626956D01*
X196982960Y-71627094D01*
X196990929Y-71627139D01*
X197018420Y-71625964D01*
X197043420Y-71622440D01*
X197065890Y-71616565D01*
X197085870Y-71608325D01*
X197103319Y-71597751D01*
X197118279Y-71584827D01*
X197131060Y-71569614D01*
X197142020Y-71552173D01*
X197151130Y-71532535D01*
X197158419Y-71510669D01*
X197163889Y-71486606D01*
X197167519Y-71460315D01*
X197172379Y-71460315D01*
X197207109Y-71513278D01*
X197247259Y-71556598D01*
X197292819Y-71590305D01*
X197343819Y-71614383D01*
X197400239Y-71628818D01*
X197462089Y-71633640D01*
X197503119Y-71631702D01*
X197541019Y-71625903D01*
X197575809Y-71616245D01*
X197607469Y-71602710D01*
X197636019Y-71585330D01*
X197661459Y-71564059D01*
X197683339Y-71539294D01*
X197701239Y-71511401D01*
X197715169Y-71480350D01*
X197725099Y-71446155D01*
X197731069Y-71408832D01*
X197733069Y-71368350D01*
X197730599Y-71324603D01*
X197723169Y-71284457D01*
X197710789Y-71247928D01*
X197693469Y-71215015D01*
X197671189Y-71185733D01*
X197657752Y-71173068D01*
X197826449Y-71173068D01*
X197828909Y-71243777D01*
X197836259Y-71308917D01*
X197848507Y-71368350D01*
X197848529Y-71368457D01*
X197865699Y-71422427D01*
X197887779Y-71470813D01*
X197914759Y-71513614D01*
X197946199Y-71550296D01*
X197981699Y-71580295D01*
X198021249Y-71603641D01*
X198064839Y-71620303D01*
X198112479Y-71630298D01*
X198164159Y-71633640D01*
X198194419Y-71632526D01*
X198223329Y-71629169D01*
X198250919Y-71623569D01*
X198277179Y-71615741D01*
X198302099Y-71605670D01*
X198325689Y-71593372D01*
X198347719Y-71578952D01*
X198367959Y-71562579D01*
X198386419Y-71544238D01*
X198403079Y-71523929D01*
X198417959Y-71501651D01*
X198431069Y-71477405D01*
X198435949Y-71477405D01*
X198434449Y-71488300D01*
X198433229Y-71504703D01*
X198432289Y-71526630D01*
X198431599Y-71554080D01*
X198431199Y-71587039D01*
X198431069Y-71625507D01*
X198431069Y-71963214D01*
X198659739Y-71963214D01*
X198659739Y-70939532D01*
X198659919Y-70899310D01*
X198660449Y-70861682D01*
X198661369Y-70826617D01*
X198662619Y-70794147D01*
X198664249Y-70764240D01*
X198666239Y-70736911D01*
X198763369Y-70736911D01*
X199111669Y-71663745D01*
X199135139Y-71717273D01*
X199158909Y-71765018D01*
X199182969Y-71806964D01*
X199207329Y-71843127D01*
X199231989Y-71873508D01*
X199256919Y-71898105D01*
X199283219Y-71918002D01*
X199311939Y-71934268D01*
X199343069Y-71946933D01*
X199376619Y-71955981D01*
X199412599Y-71961398D01*
X199450989Y-71963214D01*
X199477839Y-71962909D01*
X199503529Y-71962039D01*
X199528099Y-71960559D01*
X199551549Y-71958514D01*
X199573859Y-71955859D01*
X199595039Y-71952640D01*
X199595039Y-71789874D01*
X199580859Y-71791873D01*
X199567099Y-71793506D01*
X199553729Y-71794772D01*
X199540779Y-71795673D01*
X199528229Y-71796222D01*
X199516099Y-71796390D01*
X199500279Y-71795963D01*
X199485399Y-71794681D01*
X199471439Y-71792529D01*
X199458409Y-71789523D01*
X199446309Y-71785648D01*
X199435139Y-71780933D01*
X199424599Y-71775211D01*
X199414429Y-71768359D01*
X199404619Y-71760379D01*
X199395159Y-71751270D01*
X199386079Y-71741031D01*
X199377359Y-71729663D01*
X199368639Y-71716342D01*
X199359589Y-71700275D01*
X199350199Y-71681445D01*
X199340459Y-71659854D01*
X199330389Y-71635516D01*
X199319979Y-71608417D01*
X199447132Y-71290240D01*
X199728839Y-71290240D01*
X199732089Y-71340350D01*
X199741859Y-71386523D01*
X199758139Y-71428775D01*
X199780919Y-71467090D01*
X199810219Y-71501483D01*
X199846009Y-71531924D01*
X199887609Y-71558032D01*
X199934269Y-71579395D01*
X199985979Y-71596011D01*
X200042759Y-71607867D01*
X200104609Y-71614993D01*
X200171509Y-71617374D01*
X200745209Y-71617374D01*
X200745209Y-70470813D01*
X200220339Y-70470813D01*
X200153199Y-70472827D01*
X200091729Y-70478900D01*
X200035929Y-70489017D01*
X199985799Y-70503177D01*
X199941349Y-70521396D01*
X199902579Y-70543643D01*
X199869639Y-70569858D01*
X199842669Y-70599933D01*
X199821709Y-70633868D01*
X199806739Y-70671680D01*
X199797749Y-70713336D01*
X199796202Y-70736911D01*
X199794759Y-70758884D01*
X199796259Y-70790576D01*
X199800769Y-70820590D01*
X199808279Y-70848895D01*
X199818809Y-70875507D01*
X199832339Y-70900439D01*
X199848869Y-70923663D01*
X199868479Y-70944827D01*
X199891229Y-70963580D01*
X199917119Y-70979907D01*
X199946159Y-70993823D01*
X199978319Y-71005313D01*
X200013649Y-71014392D01*
X199969109Y-71021350D01*
X199928239Y-71031345D01*
X199891069Y-71044406D01*
X199857579Y-71060504D01*
X199827779Y-71079669D01*
X199801669Y-71101871D01*
X199779409Y-71126880D01*
X199761209Y-71154453D01*
X199747049Y-71184573D01*
X199736929Y-71217227D01*
X199730859Y-71252460D01*
X199728839Y-71290240D01*
X199447132Y-71290240D01*
X199668259Y-70736911D01*
X199426599Y-70736911D01*
X199288259Y-71149478D01*
X199276919Y-71181659D01*
X199264649Y-71219073D01*
X199251429Y-71261752D01*
X199237249Y-71309680D01*
X199222129Y-71362842D01*
X199206059Y-71421252D01*
X199185719Y-71343951D01*
X199132819Y-71152728D01*
X199002619Y-70736911D01*
X198763369Y-70736911D01*
X198666239Y-70736911D01*
X198444079Y-70736911D01*
X198442759Y-70742572D01*
X198441499Y-70749835D01*
X198440329Y-70758670D01*
X198439199Y-70769092D01*
X198438149Y-70781100D01*
X198437169Y-70794681D01*
X198436299Y-70809039D01*
X198435599Y-70823352D01*
X198435029Y-70837604D01*
X198434639Y-70851825D01*
X198434409Y-70866000D01*
X198434329Y-70880130D01*
X198431069Y-70880130D01*
X198401769Y-70830646D01*
X198365419Y-70790164D01*
X198322029Y-70758670D01*
X198271569Y-70736179D01*
X198214069Y-70722690D01*
X198149509Y-70718188D01*
X198100159Y-70721469D01*
X198054659Y-70731342D01*
X198013009Y-70747791D01*
X197975199Y-70770816D01*
X197941209Y-70800418D01*
X197911089Y-70836597D01*
X197885229Y-70878833D01*
X197864069Y-70926608D01*
X197847619Y-70979907D01*
X197835869Y-71038760D01*
X197828799Y-71103152D01*
X197826449Y-71173068D01*
X197657752Y-71173068D01*
X197643959Y-71160068D01*
X197612039Y-71138141D01*
X197575639Y-71120090D01*
X197534809Y-71105945D01*
X197489519Y-71095676D01*
X197439779Y-71089297D01*
X197385599Y-71086810D01*
X197195989Y-71083560D01*
X197195989Y-71038806D01*
X197196830Y-71011279D01*
X197199330Y-70986224D01*
X197203510Y-70963641D01*
X197209370Y-70943500D01*
X197216889Y-70925845D01*
X197226099Y-70910648D01*
X197237200Y-70897830D01*
X197250419Y-70887363D01*
X197265769Y-70879199D01*
X197283240Y-70873386D01*
X197302830Y-70869891D01*
X197324560Y-70868732D01*
X197344779Y-70869525D01*
X197363129Y-70871936D01*
X197379599Y-70875949D01*
X197394190Y-70881564D01*
X197406899Y-70888797D01*
X197417749Y-70897617D01*
X197427019Y-70908298D01*
X197435049Y-70921085D01*
X197441839Y-70935962D01*
X197447389Y-70952960D01*
X197451699Y-70972049D01*
X197454759Y-70993243D01*
X197693179Y-70981845D01*
X197683809Y-70940707D01*
X197670359Y-70903049D01*
X197652809Y-70868839D01*
X197631169Y-70838077D01*
X197605429Y-70810794D01*
X197575609Y-70786960D01*
X197541819Y-70766696D01*
X197504139Y-70750110D01*
X197462609Y-70737216D01*
X197417199Y-70728000D01*
X197367939Y-70722476D01*
X197314810Y-70720630D01*
X197261330Y-70722919D01*
X197212089Y-70729770D01*
X197167109Y-70741183D01*
X197126379Y-70757159D01*
X197089899Y-70777713D01*
X197057649Y-70802829D01*
X197030050Y-70832141D01*
X197007480Y-70865298D01*
X196989920Y-70902301D01*
X196977360Y-70943149D01*
X196969839Y-70987842D01*
X196967339Y-71036365D01*
X196967339Y-71356967D01*
X196966860Y-71380374D01*
X196965716Y-71397662D01*
X196965480Y-71401233D01*
X196963159Y-71419528D01*
X196959919Y-71435275D01*
X196955759Y-71448459D01*
X196950660Y-71459094D01*
X196944459Y-71467670D01*
X196937030Y-71474689D01*
X196928369Y-71480151D01*
X196918449Y-71484042D01*
X196907289Y-71486392D01*
X196894900Y-71487170D01*
X196886269Y-71487033D01*
X196877719Y-71486621D01*
X196869270Y-71485950D01*
X196860909Y-71485004D01*
X196852640Y-71483783D01*
X196844459Y-71482288D01*
X196844459Y-71605975D01*
X196622126Y-71605975D01*
X196655430Y-71593799D01*
X196689949Y-71576282D01*
X196720300Y-71555377D01*
X196747050Y-71530933D01*
X196770210Y-71502933D01*
X196789770Y-71471393D01*
X196805729Y-71436298D01*
X196818109Y-71397662D01*
X196617120Y-71367557D01*
X196610740Y-71387424D01*
X196602970Y-71405246D01*
X196593829Y-71421054D01*
X196583300Y-71434818D01*
X196571400Y-71446552D01*
X196558130Y-71456241D01*
X196542429Y-71464206D01*
X196523259Y-71470706D01*
X196500649Y-71475772D01*
X196474570Y-71479388D01*
X196445040Y-71481555D01*
X196412050Y-71482288D01*
X196381490Y-71481601D01*
X196353829Y-71479572D01*
X196329049Y-71476184D01*
X196307170Y-71471439D01*
X196288179Y-71465335D01*
X196272090Y-71457874D01*
X196258659Y-71448962D01*
X196247670Y-71438525D01*
X196239129Y-71426547D01*
X196233020Y-71413028D01*
X196229359Y-71397968D01*
X196228140Y-71381381D01*
X196229119Y-71367755D01*
X196232079Y-71355106D01*
X196236990Y-71343433D01*
X196243870Y-71332736D01*
X196252720Y-71323001D01*
X196263539Y-71314243D01*
X196276709Y-71306186D01*
X196292610Y-71298557D01*
X196311240Y-71291354D01*
X196332620Y-71284595D01*
X196356729Y-71278247D01*
X196383570Y-71272327D01*
X196444630Y-71259723D01*
X196498679Y-71247424D01*
X196545709Y-71235416D01*
X196585749Y-71223697D01*
X196618770Y-71212268D01*
X196644800Y-71201129D01*
X196666399Y-71189624D01*
X196686240Y-71177005D01*
X196704289Y-71163303D01*
X196720559Y-71148532D01*
X196735040Y-71132663D01*
X196747730Y-71115710D01*
X196758540Y-71097552D01*
X196767390Y-71078052D01*
X196774279Y-71057224D01*
X196779199Y-71035052D01*
X196782140Y-71011554D01*
X196783130Y-70986728D01*
X196780420Y-70946231D01*
X196772310Y-70908832D01*
X196758809Y-70874530D01*
X196739900Y-70843326D01*
X196715599Y-70815219D01*
X196685870Y-70790210D01*
X196651210Y-70768695D01*
X196612049Y-70751102D01*
X196568379Y-70737415D01*
X196520220Y-70727634D01*
X196467570Y-70721774D01*
X196410419Y-70719821D01*
X196359779Y-70721515D01*
X196312549Y-70726596D01*
X196268730Y-70735080D01*
X196228320Y-70746951D01*
X196191339Y-70762195D01*
X196157750Y-70780856D01*
X196127889Y-70802707D01*
X196102010Y-70827594D01*
X196080150Y-70855518D01*
X196062280Y-70886462D01*
X196048409Y-70920428D01*
X196038529Y-70957431D01*
X196241159Y-70978580D01*
X196245200Y-70961444D01*
X196250830Y-70945819D01*
X196258050Y-70931705D01*
X196266839Y-70919101D01*
X196277229Y-70908008D01*
X196289180Y-70898441D01*
X196303170Y-70890353D01*
X196319650Y-70883746D01*
X196338610Y-70878604D01*
X196360069Y-70874927D01*
X196383989Y-70872729D01*
X196410419Y-70871997D01*
X196436409Y-70872562D01*
X196460150Y-70874301D01*
X196481630Y-70877185D01*
X196500850Y-70881213D01*
X196517800Y-70886401D01*
X196532490Y-70892734D01*
X196544929Y-70900439D01*
X196555089Y-70909686D01*
X196563010Y-70920505D01*
X196568660Y-70932880D01*
X196572039Y-70946826D01*
X196573170Y-70962314D01*
X196572299Y-70974628D01*
X196569690Y-70986041D01*
X196565339Y-70996585D01*
X196559239Y-71006259D01*
X196551410Y-71015033D01*
X196541849Y-71022937D01*
X196530199Y-71030185D01*
X196516209Y-71037006D01*
X196499820Y-71043384D01*
X196481089Y-71049335D01*
X196459949Y-71054858D01*
X196436449Y-71059955D01*
X196402659Y-71067050D01*
X196370139Y-71074207D01*
X196338920Y-71081424D01*
X196308979Y-71088718D01*
X196280330Y-71096088D01*
X196252970Y-71103503D01*
X196227130Y-71111194D01*
X196203050Y-71119373D01*
X196180750Y-71128009D01*
X196160189Y-71137134D01*
X196141410Y-71146732D01*
X196124379Y-71156802D01*
X196108789Y-71167590D01*
X196094270Y-71179355D01*
X196080849Y-71192096D01*
X196068499Y-71205798D01*
X196057259Y-71220477D01*
X196047079Y-71236133D01*
X196038259Y-71253024D01*
X196031030Y-71271442D01*
X196025410Y-71291354D01*
X196021409Y-71312793D01*
X196018999Y-71335757D01*
X196018189Y-71360217D01*
X195325687Y-71360217D01*
X195326879Y-71355106D01*
X195331790Y-71343433D01*
X195338670Y-71332736D01*
X195347529Y-71323001D01*
X195358339Y-71314243D01*
X195371509Y-71306186D01*
X195387410Y-71298557D01*
X195406059Y-71291354D01*
X195427440Y-71284595D01*
X195451539Y-71278247D01*
X195478380Y-71272327D01*
X195539430Y-71259723D01*
X195593479Y-71247424D01*
X195640519Y-71235416D01*
X195680549Y-71223697D01*
X195713580Y-71212268D01*
X195739600Y-71201129D01*
X195761219Y-71189624D01*
X195781059Y-71177005D01*
X195799089Y-71163303D01*
X195815359Y-71148532D01*
X195829840Y-71132663D01*
X195842540Y-71115710D01*
X195853350Y-71097552D01*
X195862200Y-71078052D01*
X195869089Y-71057224D01*
X195873999Y-71035052D01*
X195876940Y-71011554D01*
X195877940Y-70986728D01*
X195875230Y-70946231D01*
X195867129Y-70908832D01*
X195853629Y-70874530D01*
X195834709Y-70843326D01*
X195810399Y-70815219D01*
X195780690Y-70790210D01*
X195746019Y-70768695D01*
X195706849Y-70751102D01*
X195663199Y-70737415D01*
X195615040Y-70727634D01*
X195562380Y-70721774D01*
X195505219Y-70719821D01*
X195454579Y-70721515D01*
X195407349Y-70726596D01*
X195363530Y-70735080D01*
X195323140Y-70746951D01*
X195286139Y-70762195D01*
X195252570Y-70780856D01*
X195222689Y-70802707D01*
X195196830Y-70827594D01*
X195174949Y-70855518D01*
X195157080Y-70886462D01*
X195143209Y-70920428D01*
X195133349Y-70957431D01*
X195335959Y-70978580D01*
X195340020Y-70961444D01*
X195345650Y-70945819D01*
X195352850Y-70931705D01*
X195361649Y-70919101D01*
X195372029Y-70908008D01*
X195383989Y-70898441D01*
X195397989Y-70890353D01*
X195414470Y-70883746D01*
X195433420Y-70878604D01*
X195454869Y-70874927D01*
X195478809Y-70872729D01*
X195505219Y-70871997D01*
X195531230Y-70872562D01*
X195554950Y-70874301D01*
X195576440Y-70877185D01*
X195595650Y-70881213D01*
X195612599Y-70886401D01*
X195627290Y-70892734D01*
X195639729Y-70900439D01*
X195649910Y-70909686D01*
X195657810Y-70920505D01*
X195663460Y-70932880D01*
X195666849Y-70946826D01*
X195667970Y-70962314D01*
X195667109Y-70974628D01*
X195664499Y-70986041D01*
X195660149Y-70996585D01*
X195654059Y-71006259D01*
X195646230Y-71015033D01*
X195636649Y-71022937D01*
X195625019Y-71030185D01*
X195611009Y-71037006D01*
X195594640Y-71043384D01*
X195575889Y-71049335D01*
X195554769Y-71054858D01*
X195531269Y-71059955D01*
X195497459Y-71067050D01*
X195464939Y-71074207D01*
X195433719Y-71081424D01*
X195403779Y-71088718D01*
X195375130Y-71096088D01*
X195347770Y-71103503D01*
X195321939Y-71111194D01*
X195297860Y-71119373D01*
X195275550Y-71128009D01*
X195254999Y-71137134D01*
X195236210Y-71146732D01*
X195219200Y-71156802D01*
X195203600Y-71167590D01*
X195189079Y-71179355D01*
X195175670Y-71192096D01*
X195163319Y-71205798D01*
X195152059Y-71220477D01*
X195141879Y-71236133D01*
X195133059Y-71253024D01*
X195125850Y-71271442D01*
X195120230Y-71291354D01*
X195116219Y-71312793D01*
X195113809Y-71335757D01*
X195113009Y-71360217D01*
X194502629Y-71360217D01*
X194502629Y-70470813D01*
X194262579Y-70470813D01*
X194262579Y-71431842D01*
X193647389Y-71431842D01*
X193647389Y-71617374D01*
X193275678Y-71617374D01*
X193318625Y-71604236D01*
X193366919Y-71581378D01*
X193410119Y-71551974D01*
X193448220Y-71516055D01*
X193480780Y-71473865D01*
X193507439Y-71425677D01*
X193528159Y-71371509D01*
X193542960Y-71311343D01*
X193551840Y-71245197D01*
X193554819Y-71173068D01*
X193551790Y-71103183D01*
X193542779Y-71038898D01*
X193527749Y-70980212D01*
X193506699Y-70927142D01*
X193479649Y-70879672D01*
X193446589Y-70837817D01*
X193407999Y-70802005D01*
X193364386Y-70772708D01*
X193315771Y-70749927D01*
X193262137Y-70733661D01*
X193203482Y-70723895D01*
X193139807Y-70720630D01*
X193079077Y-70724124D01*
X193023337Y-70734607D01*
X193016636Y-70736911D01*
X192972571Y-70752063D01*
X192926764Y-70776508D01*
X192885947Y-70807941D01*
X192850104Y-70846362D01*
X192819510Y-70891513D01*
X192794485Y-70943149D01*
X192775030Y-71001270D01*
X192761130Y-71065891D01*
X192752783Y-71136996D01*
X192750006Y-71214557D01*
X192750006Y-71221072D01*
X192535038Y-71221072D01*
X192708197Y-70736911D01*
X192466528Y-70736911D01*
X192312750Y-71229205D01*
X192307745Y-71246158D01*
X192300894Y-71269901D01*
X192292197Y-71300418D01*
X192281638Y-71337711D01*
X192254965Y-71432651D01*
X192251776Y-71420123D01*
X192247641Y-71404803D01*
X192242560Y-71386676D01*
X192236517Y-71365741D01*
X192229544Y-71342014D01*
X192221608Y-71315479D01*
X192209402Y-71276111D01*
X192189597Y-71213931D01*
X192162192Y-71128925D01*
X192127203Y-71021091D01*
X192084616Y-70890414D01*
X192034445Y-70736911D01*
X191795203Y-70736911D01*
X191462477Y-70736911D01*
X191451758Y-70733661D01*
X191393100Y-70723895D01*
X191329430Y-70720630D01*
X191268710Y-70724124D01*
X191212970Y-70734607D01*
X191162210Y-70752063D01*
X191116400Y-70776508D01*
X191075580Y-70807941D01*
X191039720Y-70846362D01*
X191009150Y-70891513D01*
X190984120Y-70943149D01*
X190964670Y-71001270D01*
X190950750Y-71065891D01*
X190942420Y-71136996D01*
X190939640Y-71214557D01*
X190939640Y-71221072D01*
X190787990Y-71221072D01*
X190787990Y-70409778D01*
X190559320Y-70409778D01*
X190559320Y-71617374D01*
X189623536Y-71617374D01*
X189641680Y-71614108D01*
X189696690Y-71598926D01*
X189746390Y-71579395D01*
X189790810Y-71555515D01*
X189830099Y-71527240D01*
X189864400Y-71494495D01*
X189893740Y-71457263D01*
X189918110Y-71415561D01*
X189937510Y-71369373D01*
X189951929Y-71318729D01*
X189720010Y-71280475D01*
X189710900Y-71309467D01*
X189699300Y-71335681D01*
X189685230Y-71359103D01*
X189668660Y-71379764D01*
X189649599Y-71397632D01*
X189628060Y-71412723D01*
X189603810Y-71425281D01*
X189576610Y-71435550D01*
X189546481Y-71443530D01*
X189513399Y-71449237D01*
X189477390Y-71452670D01*
X189438450Y-71453815D01*
X189361620Y-71449557D01*
X189298760Y-71436801D01*
X189249870Y-71415561D01*
X189214939Y-71385806D01*
X189193990Y-71347568D01*
X189187000Y-71300815D01*
X189187810Y-71285022D01*
X189190210Y-71270160D01*
X189194220Y-71256259D01*
X189199850Y-71243320D01*
X189207070Y-71231311D01*
X189215900Y-71220264D01*
X189226190Y-71209979D01*
X189237780Y-71200275D01*
X189250680Y-71191180D01*
X189264901Y-71182666D01*
X189280430Y-71174731D01*
X189297280Y-71167377D01*
X189317450Y-71160083D01*
X189342980Y-71152286D01*
X189373860Y-71143985D01*
X189410099Y-71135196D01*
X189451710Y-71125903D01*
X189498659Y-71116107D01*
X189539360Y-71106403D01*
X189575700Y-71097354D01*
X189607720Y-71088947D01*
X189635380Y-71081210D01*
X189658710Y-71074130D01*
X189677710Y-71067691D01*
X189694250Y-71061420D01*
X189710260Y-71054767D01*
X189725710Y-71047763D01*
X189740640Y-71040393D01*
X189755010Y-71032657D01*
X189768850Y-71024570D01*
X189782060Y-71016010D01*
X189794609Y-71006885D01*
X189806480Y-70997195D01*
X189817660Y-70986957D01*
X189828180Y-70976138D01*
X189838020Y-70964755D01*
X189847160Y-70952747D01*
X189855600Y-70940067D01*
X189863330Y-70926715D01*
X189870380Y-70912677D01*
X189876720Y-70897952D01*
X189882360Y-70882556D01*
X189887200Y-70866443D01*
X189891170Y-70849567D01*
X189894250Y-70831912D01*
X189896460Y-70813480D01*
X189897770Y-70794299D01*
X189898210Y-70774341D01*
X189894980Y-70724551D01*
X189885240Y-70678806D01*
X189869020Y-70637119D01*
X189846320Y-70599475D01*
X189817129Y-70565875D01*
X189781450Y-70536319D01*
X189739570Y-70511081D01*
X189691790Y-70490421D01*
X189638131Y-70474368D01*
X189578560Y-70462894D01*
X189513080Y-70456012D01*
X189441719Y-70453723D01*
X189373600Y-70455569D01*
X189311380Y-70461139D01*
X189255061Y-70470401D01*
X189204640Y-70483371D01*
X189160130Y-70500064D01*
X189121510Y-70520450D01*
X189087940Y-70545108D01*
X189058620Y-70574603D01*
X189033511Y-70608936D01*
X189012640Y-70648120D01*
X188995990Y-70692126D01*
X188983570Y-70740970D01*
X189216310Y-70772708D01*
X189223299Y-70749042D01*
X189232350Y-70727420D01*
X189243460Y-70707812D01*
X189256630Y-70690250D01*
X189271860Y-70674731D01*
X189289130Y-70661227D01*
X189308770Y-70649799D01*
X189331050Y-70640430D01*
X189355960Y-70633151D01*
X189383520Y-70627948D01*
X189413730Y-70624835D01*
X189446590Y-70623798D01*
X189513220Y-70627597D01*
X189567740Y-70638980D01*
X189610160Y-70657977D01*
X189640450Y-70684558D01*
X189658620Y-70718723D01*
X189664680Y-70760501D01*
X189664040Y-70774966D01*
X189662100Y-70788531D01*
X189658880Y-70801196D01*
X189654360Y-70812946D01*
X189648580Y-70823795D01*
X189641489Y-70833743D01*
X189633140Y-70843005D01*
X189623540Y-70851779D01*
X189612709Y-70860095D01*
X189600620Y-70867923D01*
X189587300Y-70875278D01*
X189572729Y-70882159D01*
X189554940Y-70889087D01*
X189531940Y-70896579D01*
X189503760Y-70904636D01*
X189470370Y-70913272D01*
X189431780Y-70922458D01*
X189388010Y-70932208D01*
X189335550Y-70943729D01*
X189288320Y-70954944D01*
X189246310Y-70965869D01*
X189209520Y-70976505D01*
X189177950Y-70986850D01*
X189151620Y-70996906D01*
X189128700Y-71007068D01*
X189107439Y-71017780D01*
X189087839Y-71029041D01*
X189069880Y-71040836D01*
X189053560Y-71053180D01*
X189038920Y-71066074D01*
X189025610Y-71079654D01*
X189013399Y-71094104D01*
X189002280Y-71109409D01*
X188992250Y-71125568D01*
X188983300Y-71142581D01*
X188975420Y-71160464D01*
X188968710Y-71179248D01*
X188963220Y-71198947D01*
X188958940Y-71219547D01*
X188955890Y-71241107D01*
X188954060Y-71263583D01*
X188953470Y-71286990D01*
X188797980Y-71286990D01*
X188797980Y-70409778D01*
X188569310Y-70409778D01*
X188569310Y-70739337D01*
X188569480Y-70768802D01*
X188570031Y-70798022D01*
X188570930Y-70827029D01*
X188572200Y-70855807D01*
X188573830Y-70884357D01*
X188575830Y-70912677D01*
X188572580Y-70912677D01*
X188556450Y-70880573D01*
X188539020Y-70851550D01*
X188520290Y-70825610D01*
X188500230Y-70802737D01*
X188478870Y-70782932D01*
X188456200Y-70766208D01*
X188432140Y-70752292D01*
X188406560Y-70740894D01*
X188379509Y-70732028D01*
X188350960Y-70725696D01*
X188320910Y-70721896D01*
X188289390Y-70720630D01*
X188244530Y-70723026D01*
X188203300Y-70730212D01*
X188165690Y-70742206D01*
X188131689Y-70758975D01*
X188101321Y-70780536D01*
X188074561Y-70806888D01*
X188051689Y-70837863D01*
X188032970Y-70873264D01*
X188018410Y-70913089D01*
X188008000Y-70957339D01*
X188001780Y-71006030D01*
X187999689Y-71059161D01*
X187999689Y-71617374D01*
X187803780Y-71617374D01*
X187803780Y-70736911D01*
X187575090Y-70736911D01*
X187575090Y-71617374D01*
X187310870Y-71617374D01*
X187310870Y-70891513D01*
X187439460Y-70891513D01*
X187439460Y-70736911D01*
X187310870Y-70736911D01*
X187310870Y-70644946D01*
X187309121Y-70606799D01*
X187304759Y-70578220D01*
X187575090Y-70578220D01*
X187803780Y-70578220D01*
X187803780Y-70409778D01*
X187575090Y-70409778D01*
X187575090Y-70578220D01*
X187304759Y-70578220D01*
X187303820Y-70572070D01*
X187295000Y-70540790D01*
X187282660Y-70512943D01*
X187266810Y-70488528D01*
X187247410Y-70467548D01*
X187224420Y-70449893D01*
X187197760Y-70435458D01*
X187167460Y-70424213D01*
X187133470Y-70416202D01*
X187095850Y-70411380D01*
X187054540Y-70409778D01*
X187032660Y-70410129D01*
X187009880Y-70411227D01*
X186986201Y-70413028D01*
X186961600Y-70415561D01*
X186936100Y-70418811D01*
X186909700Y-70422794D01*
X186909700Y-70570087D01*
X186920830Y-70567844D01*
X186931940Y-70566013D01*
X186943060Y-70564594D01*
X186954180Y-70563571D01*
X186965309Y-70562961D01*
X186976420Y-70562762D01*
X186994999Y-70563403D01*
X187011650Y-70565341D01*
X187026369Y-70568561D01*
X187039180Y-70573077D01*
X187050070Y-70578876D01*
X187059030Y-70585956D01*
X187066370Y-70594669D01*
X187072359Y-70605350D01*
X187077031Y-70617999D01*
X187080360Y-70632602D01*
X187082360Y-70649188D01*
X187083030Y-70667743D01*
X187083030Y-70736911D01*
X186909700Y-70736911D01*
X186909700Y-70891513D01*
X186905580Y-70891513D01*
X186905580Y-70736911D01*
X186782709Y-70736911D01*
X186711100Y-70530200D01*
X186567880Y-70530200D01*
X186567880Y-70736911D01*
X186401050Y-70736911D01*
X186401050Y-70891513D01*
X186567880Y-70891513D01*
X186567880Y-71348834D01*
X186567190Y-71369327D01*
X186565160Y-71387943D01*
X186561770Y-71404666D01*
X186557030Y-71419528D01*
X186550920Y-71432529D01*
X186543459Y-71443637D01*
X186534581Y-71452960D01*
X186524210Y-71460590D01*
X186512340Y-71466525D01*
X186498980Y-71470752D01*
X186484140Y-71473300D01*
X186467790Y-71474155D01*
X186458210Y-71473834D01*
X186447350Y-71472888D01*
X186435231Y-71471301D01*
X186421851Y-71469089D01*
X186407200Y-71466235D01*
X186391290Y-71462756D01*
X186391290Y-71604343D01*
X186267550Y-71604343D01*
X186267550Y-70736911D01*
X186038889Y-70736911D01*
X186038889Y-71617374D01*
X185815359Y-71617374D01*
X185815359Y-70933826D01*
X185815420Y-70910938D01*
X185815590Y-70889484D01*
X185815860Y-70869449D01*
X185816260Y-70850833D01*
X185816780Y-70833652D01*
X185817390Y-70817889D01*
X185818790Y-70788806D01*
X185819530Y-70775058D01*
X185820290Y-70761813D01*
X185821070Y-70749103D01*
X185821860Y-70736911D01*
X185603780Y-70736911D01*
X185602930Y-70743488D01*
X185601970Y-70752948D01*
X185600930Y-70765277D01*
X185599800Y-70780490D01*
X185598580Y-70798557D01*
X185597269Y-70819507D01*
X185596030Y-70840717D01*
X185595010Y-70859607D01*
X185594210Y-70876163D01*
X185593649Y-70890384D01*
X185593310Y-70902286D01*
X185593211Y-70911868D01*
X185589939Y-70911868D01*
X185573830Y-70879764D01*
X185556401Y-70850742D01*
X185537660Y-70824802D01*
X185517610Y-70801913D01*
X185496250Y-70782123D01*
X185473580Y-70765399D01*
X185449510Y-70751468D01*
X185423940Y-70740070D01*
X185396892Y-70731219D01*
X185368341Y-70724887D01*
X185338291Y-70721088D01*
X185306751Y-70719821D01*
X185261911Y-70722217D01*
X185220682Y-70729404D01*
X185183071Y-70741382D01*
X185149070Y-70758151D01*
X185118701Y-70779712D01*
X185091941Y-70806079D01*
X185069070Y-70837039D01*
X185050342Y-70872440D01*
X185035791Y-70912265D01*
X185025380Y-70956531D01*
X185019142Y-71005222D01*
X185017070Y-71058337D01*
X185017070Y-71617374D01*
X184263915Y-71617374D01*
X184262920Y-71587253D01*
X184262920Y-71540881D01*
X184261281Y-71453815D01*
X184262920Y-71453815D01*
X184291801Y-71503284D01*
X184328010Y-71543765D01*
X184371541Y-71575259D01*
X184422420Y-71597751D01*
X184480602Y-71611240D01*
X184546100Y-71615741D01*
X184595451Y-71612521D01*
X184640951Y-71602893D01*
X184682611Y-71586841D01*
X184720432Y-71564380D01*
X184754402Y-71535495D01*
X184784541Y-71500186D01*
X184810401Y-71458911D01*
X184831550Y-71412128D01*
X184848001Y-71359821D01*
X184859762Y-71301990D01*
X184866811Y-71238651D01*
X184869161Y-71169818D01*
X184866741Y-71100681D01*
X184859491Y-71037006D01*
X184847391Y-70978793D01*
X184830470Y-70926059D01*
X184808690Y-70878787D01*
X184782100Y-70836993D01*
X184750881Y-70801196D01*
X184715282Y-70771899D01*
X184675281Y-70749118D01*
X184630910Y-70732837D01*
X184582160Y-70723071D01*
X184529010Y-70719821D01*
X184468271Y-70724231D01*
X184414081Y-70737445D01*
X184366462Y-70759494D01*
X184325382Y-70790347D01*
X184290870Y-70830005D01*
X184262920Y-70878497D01*
X184258842Y-70878497D01*
X184258731Y-70868442D01*
X184258430Y-70857242D01*
X184257930Y-70844928D01*
X184257211Y-70831485D01*
X184256290Y-70816898D01*
X184255180Y-70801196D01*
X184253940Y-70785846D01*
X184252691Y-70772342D01*
X184251430Y-70760699D01*
X184250110Y-70750919D01*
X184248802Y-70742984D01*
X184247461Y-70736911D01*
X184031001Y-70736911D01*
X183400001Y-70736911D01*
X183400001Y-70578220D01*
X186038889Y-70578220D01*
X186267550Y-70578220D01*
X186267550Y-70409778D01*
X186038889Y-70409778D01*
X186038889Y-70578220D01*
X183400001Y-70578220D01*
X183400001Y-70325000D01*
X183403081Y-70285892D01*
X183412242Y-70247760D01*
X183427251Y-70211505D01*
X183447761Y-70178060D01*
X183473232Y-70148230D01*
X183503061Y-70122760D01*
X183536510Y-70102250D01*
X183572761Y-70087240D01*
X183610891Y-70078080D01*
X183650001Y-70075000D01*
X201149999Y-70075000D01*
X201189109Y-70078080D01*
X201227239Y-70087240D01*
X201263489Y-70102250D01*
X201296939Y-70122760D01*
X201326769Y-70148230D01*
X201352239Y-70178060D01*
X201372749Y-70211505D01*
X201387759Y-70247760D01*
X201396919Y-70285892D01*
X201399999Y-70325000D01*
X201399999Y-72075000D01*
X201396919Y-72114108D01*
D11*
X191800000Y-74500000D02*
X193200000Y-74500000D01*
X191100000Y-73200000D02*
X191100000Y-73800000D01*
X193900000Y-73800000D02*
X193900000Y-73200000D01*
X193200000Y-72500000D02*
X191800000Y-72500000D01*
X193200000Y-74500000D02*
G75*
G03*
X193900000Y-73800000I1J699999D01*
G01*
X191100000Y-73800000D02*
G75*
G03*
X191800000Y-74500000I700000J0D01*
G01*
X193900000Y-73200000D02*
G75*
G03*
X193200000Y-72500000I-699999J1D01*
G01*
X191800000Y-72500000D02*
G75*
G03*
X191100000Y-73200000I0J-700000D01*
G01*
X189900000Y-63300000D02*
X189900000Y-62700000D01*
X189200000Y-62000000D02*
X187800000Y-62000000D01*
X187800000Y-64000000D02*
X189200000Y-64000000D01*
X187100000Y-62700000D02*
X187100000Y-63300000D01*
X189900000Y-62700000D02*
G75*
G03*
X189200000Y-62000000I-700000J0D01*
G01*
X187800000Y-62000000D02*
G75*
G03*
X187100000Y-62700000I-1J-699999D01*
G01*
X189200000Y-64000000D02*
G75*
G03*
X189900000Y-63300000I0J700000D01*
G01*
X187100000Y-63300000D02*
G75*
G03*
X187800000Y-64000000I699999J-1D01*
G01*
X163500000Y-80800000D02*
X164100000Y-80800000D01*
X164100000Y-78000000D02*
X163500000Y-78000000D01*
X164800000Y-80100000D02*
X164800000Y-78700000D01*
X162800000Y-78700000D02*
X162800000Y-80100000D01*
X164100000Y-80800000D02*
G75*
G03*
X164800000Y-80100000I0J700000D01*
G01*
X162800000Y-80100000D02*
G75*
G03*
X163500000Y-80800000I700000J0D01*
G01*
X163500000Y-78000000D02*
G75*
G03*
X162800000Y-78700000I-1J-699999D01*
G01*
X164800000Y-78700000D02*
G75*
G03*
X164100000Y-78000000I-699999J1D01*
G01*
X193900000Y-76300000D02*
X193900000Y-75700000D01*
X191800000Y-77000000D02*
X193200000Y-77000000D01*
X191100000Y-75700000D02*
X191100000Y-76300000D01*
X193200000Y-75000000D02*
X191800000Y-75000000D01*
X193200000Y-77000000D02*
G75*
G03*
X193900000Y-76300000I1J699999D01*
G01*
X191100000Y-76300000D02*
G75*
G03*
X191800000Y-77000000I700000J0D01*
G01*
X191800000Y-75000000D02*
G75*
G03*
X191100000Y-75700000I0J-700000D01*
G01*
X193900000Y-75700000D02*
G75*
G03*
X193200000Y-75000000I-699999J1D01*
G01*
%LPC*%
D12*
X138302944Y-90947056D03*
X141697056Y-90947056D03*
X142400000Y-89250000D03*
X137600000Y-89250000D03*
X140000000Y-91650000D03*
X141697056Y-87552944D03*
X140000000Y-86850000D03*
X138302944Y-87552944D03*
D13*
X140000000Y-89250000D03*
D14*
X201217500Y-58500000D03*
D15*
X201217500Y-61000000D03*
D16*
X142672500Y-59682500D03*
X142672500Y-52697500D03*
D17*
X171225000Y-78475000D03*
D18*
X173765000Y-78475000D03*
X171225000Y-81015000D03*
X173765000Y-81015000D03*
X171225000Y-83555000D03*
X173765000Y-83555000D03*
D12*
X204250000Y-86850000D03*
X205947056Y-90947056D03*
D13*
X204250000Y-89250000D03*
D12*
X201850000Y-89250000D03*
X204250000Y-91650000D03*
X205947056Y-87552944D03*
X202552944Y-87552944D03*
X202552944Y-90947056D03*
X206650000Y-89250000D03*
X205947056Y-52947056D03*
X205947056Y-49552944D03*
X204250000Y-48850000D03*
X202552944Y-52947056D03*
X206650000Y-51250000D03*
X201850000Y-51250000D03*
X202552944Y-49552944D03*
X204250000Y-53650000D03*
D13*
X204250000Y-51250000D03*
D19*
X193150000Y-73500000D03*
D20*
X191850000Y-73500000D03*
D21*
X187850000Y-63000000D03*
D22*
X189150000Y-63000000D03*
D23*
X163800000Y-78750000D03*
D24*
X163800000Y-80050000D03*
D19*
X193150000Y-76000000D03*
D20*
X191850000Y-76000000D03*
M02*
