G04 #@! TF.GenerationSoftware,KiCad,Pcbnew,7.0.5-0*
G04 #@! TF.CreationDate,2023-07-15T01:20:54-04:00*
G04 #@! TF.ProjectId,programmer,70726f67-7261-46d6-9d65-722e6b696361,rev?*
G04 #@! TF.SameCoordinates,Original*
G04 #@! TF.FileFunction,Legend,Bot*
G04 #@! TF.FilePolarity,Positive*
%FSLAX46Y46*%
G04 Gerber Fmt 4.6, Leading zero omitted, Abs format (unit mm)*
G04 Created by KiCad (PCBNEW 7.0.5-0) date 2023-07-15 01:20:54*
%MOMM*%
%LPD*%
G01*
G04 APERTURE LIST*
%ADD10C,0.120000*%
%ADD11C,0.800000*%
%ADD12C,6.000000*%
%ADD13R,1.700000X1.700000*%
%ADD14O,1.700000X1.700000*%
G04 APERTURE END LIST*
D10*
X138490000Y-59750000D02*
X135830000Y-59750000D01*
X138490000Y-49530000D02*
X138490000Y-59750000D01*
X138490000Y-49530000D02*
X135830000Y-49530000D01*
X138490000Y-48260000D02*
X138490000Y-46930000D01*
X138490000Y-46930000D02*
X137160000Y-46930000D01*
X135830000Y-49530000D02*
X135830000Y-59750000D01*
X146110000Y-57210000D02*
X140910000Y-57210000D01*
X146110000Y-52070000D02*
X146110000Y-57210000D01*
X146110000Y-52070000D02*
X143510000Y-52070000D01*
X146110000Y-50800000D02*
X146110000Y-49470000D01*
X146110000Y-49470000D02*
X144780000Y-49470000D01*
X143510000Y-52070000D02*
X143510000Y-49470000D01*
X143510000Y-49470000D02*
X140910000Y-49470000D01*
X140910000Y-49470000D02*
X140910000Y-57210000D01*
%LPC*%
D11*
X134910000Y-64449010D03*
X135569010Y-62858020D03*
X135569010Y-66040000D03*
X137160000Y-62199010D03*
D12*
X137160000Y-64449010D03*
D11*
X137160000Y-66699010D03*
X138750990Y-62858020D03*
X138750990Y-66040000D03*
X139410000Y-64449010D03*
X134910000Y-42230990D03*
X135569010Y-40640000D03*
X135569010Y-43821980D03*
X137160000Y-39980990D03*
D12*
X137160000Y-42230990D03*
D11*
X137160000Y-44480990D03*
X138750990Y-40640000D03*
X138750990Y-43821980D03*
X139410000Y-42230990D03*
D13*
X137160000Y-48260000D03*
D14*
X137160000Y-50800000D03*
X137160000Y-53340000D03*
X137160000Y-55880000D03*
X137160000Y-58420000D03*
D13*
X144780000Y-50800000D03*
D14*
X142240000Y-50800000D03*
X144780000Y-53340000D03*
X142240000Y-53340000D03*
X144780000Y-55880000D03*
X142240000Y-55880000D03*
%LPD*%
M02*
