%TF.GenerationSoftware,KiCad,Pcbnew,7.0.5-0*%
%TF.CreationDate,2023-07-15T01:19:17-04:00*%
%TF.ProjectId,programmer,70726f67-7261-46d6-9d65-722e6b696361,rev?*%
%TF.SameCoordinates,Original*%
%TF.FileFunction,Copper,L1,Top*%
%TF.FilePolarity,Positive*%
%FSLAX46Y46*%
G04 Gerber Fmt 4.6, Leading zero omitted, Abs format (unit mm)*
G04 Created by KiCad (PCBNEW 7.0.5-0) date 2023-07-15 01:19:17*
%MOMM*%
%LPD*%
G01*
G04 APERTURE LIST*
%TA.AperFunction,ComponentPad*%
%ADD10C,0.800000*%
%TD*%
%TA.AperFunction,ComponentPad*%
%ADD11C,6.000000*%
%TD*%
%TA.AperFunction,ComponentPad*%
%ADD12R,1.700000X1.700000*%
%TD*%
%TA.AperFunction,ComponentPad*%
%ADD13O,1.700000X1.700000*%
%TD*%
%TA.AperFunction,Conductor*%
%ADD14C,0.250000*%
%TD*%
G04 APERTURE END LIST*
D10*
%TO.P,H1,1,1*%
%TO.N,GND*%
X134910000Y-64449010D03*
X135569010Y-62858020D03*
X135569010Y-66040000D03*
X137160000Y-62199010D03*
D11*
X137160000Y-64449010D03*
D10*
X137160000Y-66699010D03*
X138750990Y-62858020D03*
X138750990Y-66040000D03*
X139410000Y-64449010D03*
%TD*%
%TO.P,H2,1,1*%
%TO.N,GND*%
X134910000Y-42230990D03*
X135569010Y-40640000D03*
X135569010Y-43821980D03*
X137160000Y-39980990D03*
D11*
X137160000Y-42230990D03*
D10*
X137160000Y-44480990D03*
X138750990Y-40640000D03*
X138750990Y-43821980D03*
X139410000Y-42230990D03*
%TD*%
D12*
%TO.P,J1,1,Pin_1*%
%TO.N,MISO*%
X137160000Y-48260000D03*
D13*
%TO.P,J1,2,Pin_2*%
%TO.N,SCK*%
X137160000Y-50800000D03*
%TO.P,J1,3,Pin_3*%
%TO.N,RST*%
X137160000Y-53340000D03*
%TO.P,J1,4,Pin_4*%
%TO.N,MOSI*%
X137160000Y-55880000D03*
%TO.P,J1,5,Pin_5*%
%TO.N,GND*%
X137160000Y-58420000D03*
%TD*%
D12*
%TO.P,J2,1,Pin_1*%
%TO.N,MISO*%
X144780000Y-50800000D03*
D13*
%TO.P,J2,2,Pin_2*%
%TO.N,unconnected-(J2-Pin_2-Pad2)*%
X142240000Y-50800000D03*
%TO.P,J2,3,Pin_3*%
%TO.N,SCK*%
X144780000Y-53340000D03*
%TO.P,J2,4,Pin_4*%
%TO.N,MOSI*%
X142240000Y-53340000D03*
%TO.P,J2,5,Pin_5*%
%TO.N,RST*%
X144780000Y-55880000D03*
%TO.P,J2,6,Pin_6*%
%TO.N,GND*%
X142240000Y-55880000D03*
%TD*%
D14*
%TO.N,MISO*%
X137160000Y-48260000D02*
X142240000Y-48260000D01*
X142240000Y-48260000D02*
X144780000Y-50800000D01*
%TO.N,SCK*%
X137160000Y-50800000D02*
X138430000Y-50800000D01*
X139700000Y-52070000D02*
X143510000Y-52070000D01*
X143510000Y-52070000D02*
X144780000Y-53340000D01*
X138430000Y-50800000D02*
X139700000Y-52070000D01*
%TO.N,MOSI*%
X140970000Y-53340000D02*
X142240000Y-53340000D01*
X137160000Y-55880000D02*
X138430000Y-55880000D01*
X138430000Y-55880000D02*
X140970000Y-53340000D01*
%TD*%
M02*
