<?xml version="1.0" standalone="no"?>
<!DOCTYPE svg PUBLIC "-//W3C//DTD SVG 1.1//EN" "http://www.w3.org/Graphics/SVG/1.1/DTD/svg11.dtd">
<svg width="18mm" height="4mm" viewBox="-9 -2 18 4" xmlns="http://www.w3.org/2000/svg" version="1.1">
<title>OpenSCAD Model</title>
<path d="
M 8.78911,1.12192 L 8.82724,1.11276 L 8.86349,1.09775 L 8.89694,1.07724 L 8.92677,1.05177 L 8.95224,1.02194
 L 8.97275,0.988495 L 8.98776,0.95224 L 8.99692,0.914108 L 9,0.875 L 9,-0.875 L 8.99692,-0.914108
 L 8.98776,-0.95224 L 8.97275,-0.988495 L 8.95224,-1.02194 L 8.92677,-1.05177 L 8.89694,-1.07724 L 8.86349,-1.09775
 L 8.82724,-1.11276 L 8.78911,-1.12192 L 8.75,-1.125 L -8.75,-1.125 L -8.78911,-1.12192 L -8.82724,-1.11276
 L -8.86349,-1.09775 L -8.89694,-1.07724 L -8.92677,-1.05177 L -8.95224,-1.02194 L -8.97275,-0.988495 L -8.98776,-0.95224
 L -8.99692,-0.914108 L -9,-0.875 L -9,0.875 L -8.99692,0.914108 L -8.98776,0.95224 L -8.97275,0.988495
 L -8.95224,1.02194 L -8.92677,1.05177 L -8.89694,1.07724 L -8.86349,1.09775 L -8.82724,1.11276 L -8.78911,1.12192
 L -8.75,1.125 L 8.75,1.125 z
M 6.13245,-0.62178 L 6.13245,-0.790222 L 6.36111,-0.790222 L 6.36111,-0.62178 z
M 5.08913,0.417374 L 5.08913,-0.308487 L 4.96054,-0.308487 L 4.96054,-0.463089 L 5.08913,-0.463089 L 5.08913,-0.555054
 L 5.09088,-0.593201 L 5.09618,-0.62793 L 5.105,-0.65921 L 5.11734,-0.687057 L 5.13319,-0.711472 L 5.15259,-0.732452
 L 5.17558,-0.750107 L 5.20224,-0.764542 L 5.23254,-0.775787 L 5.26653,-0.783798 L 5.30415,-0.78862 L 5.34546,-0.790222
 L 5.36734,-0.789871 L 5.39012,-0.788773 L 5.4138,-0.786972 L 5.4384,-0.784439 L 5.4639,-0.781189 L 5.4903,-0.777206
 L 5.4903,-0.629913 L 5.47917,-0.632156 L 5.46806,-0.633987 L 5.45694,-0.635406 L 5.44582,-0.636429 L 5.43469,-0.637039
 L 5.42358,-0.637238 L 5.405,-0.636597 L 5.38835,-0.634659 L 5.37363,-0.631439 L 5.36082,-0.626923 L 5.34993,-0.621124
 L 5.34097,-0.614044 L 5.33363,-0.605331 L 5.32764,-0.59465 L 5.32297,-0.582001 L 5.31964,-0.567398 L 5.31764,-0.550812
 L 5.31697,-0.532257 L 5.31697,-0.463089 L 5.4903,-0.463089 L 5.4903,-0.308487 L 5.31697,-0.308487 L 5.31697,0.417374
 z
M 4.59622,-0.62178 L 4.59622,-0.790222 L 4.82491,-0.790222 L 4.82491,-0.62178 z
M 3.60202,0.417374 L 3.60202,-0.790222 L 3.83069,-0.790222 L 3.83069,-0.460663 L 3.83052,-0.431198 L 3.82997,-0.401978
 L 3.82907,-0.372971 L 3.8278,-0.344193 L 3.82617,-0.315643 L 3.82417,-0.287323 L 3.82742,-0.287323 L 3.84355,-0.319427
 L 3.86098,-0.34845 L 3.87971,-0.37439 L 3.89977,-0.397263 L 3.92113,-0.417068 L 3.9438,-0.433792 L 3.96786,-0.447708
 L 3.99344,-0.459106 L 4.02049,-0.467972 L 4.04904,-0.474304 L 4.07909,-0.478104 L 4.11061,-0.47937 L 4.15547,-0.476974
 L 4.1967,-0.469788 L 4.23431,-0.457794 L 4.26831,-0.441025 L 4.29868,-0.419464 L 4.32544,-0.393112 L 4.34831,-0.362137
 L 4.36703,-0.326736 L 4.38159,-0.286911 L 4.392,-0.242661 L 4.39822,-0.19397 L 4.40031,-0.140839 L 4.40031,0.417374
 L 4.17247,0.417374 L 4.17247,-0.0757446 L 4.16811,-0.146606 L 4.15501,-0.20459 L 4.13321,-0.249695 L 4.10266,-0.281906
 L 4.0634,-0.301224 L 4.01541,-0.307663 L 3.98863,-0.305695 L 3.96365,-0.299759 L 3.94044,-0.289871 L 3.91902,-0.276016
 L 3.8994,-0.258224 L 3.88155,-0.236465 L 3.86601,-0.211609 L 3.8533,-0.184525 L 3.84341,-0.155197 L 3.83635,-0.123627
 L 3.83211,-0.0898132 L 3.83069,-0.053772 L 3.83069,0.417374 z
M 1.61201,0.417374 L 1.61201,-0.790222 L 1.84068,-0.790222 L 1.84068,0.417374 z
M 2.88417,0.431473 L 2.81859,0.424957 L 2.75832,0.414108 L 2.70331,0.398926 L 2.65361,0.379395 L 2.60919,0.355515
 L 2.5699,0.32724 L 2.5356,0.294495 L 2.50626,0.257263 L 2.48189,0.215561 L 2.46249,0.169373 L 2.44807,0.118729
 L 2.67999,0.0804749 L 2.6891,0.109467 L 2.7007,0.135681 L 2.71477,0.159103 L 2.73134,0.179764 L 2.7504,0.197632
 L 2.77194,0.212723 L 2.79619,0.225281 L 2.82339,0.23555 L 2.85352,0.24353 L 2.8866,0.249237 L 2.92261,0.25267
 L 2.96155,0.253815 L 3.03838,0.249557 L 3.10124,0.236801 L 3.15013,0.215561 L 3.18506,0.185806 L 3.20601,0.147568
 L 3.213,0.100815 L 3.21219,0.085022 L 3.20979,0.0701599 L 3.20578,0.0562592 L 3.20015,0.0433197 L 3.19293,0.031311
 L 3.1841,0.0202637 L 3.17381,0.00997925 L 3.16222,0.000274658 L 3.14932,-0.00881958 L 3.1351,-0.017334 L 3.11957,-0.0252686
 L 3.10272,-0.0326233 L 3.08255,-0.039917 L 3.05702,-0.0477142 L 3.02614,-0.056015 L 2.9899,-0.0648041 L 2.94829,-0.0740967
 L 2.90134,-0.0838928 L 2.86064,-0.0935974 L 2.8243,-0.102646 L 2.79228,-0.111053 L 2.76462,-0.11879 L 2.74129,-0.12587
 L 2.72229,-0.132309 L 2.70575,-0.13858 L 2.68974,-0.145233 L 2.67429,-0.152237 L 2.65936,-0.159607 L 2.64499,-0.167343
 L 2.63115,-0.17543 L 2.61794,-0.18399 L 2.60539,-0.193115 L 2.59352,-0.202805 L 2.58234,-0.213043 L 2.57182,-0.223862
 L 2.56198,-0.235245 L 2.55284,-0.247253 L 2.5444,-0.259933 L 2.53667,-0.273285 L 2.52962,-0.287323 L 2.52328,-0.302048
 L 2.51764,-0.317444 L 2.5128,-0.333557 L 2.50883,-0.350433 L 2.50575,-0.368088 L 2.50354,-0.38652 L 2.50223,-0.405701
 L 2.50179,-0.425659 L 2.50502,-0.475449 L 2.51476,-0.521194 L 2.53098,-0.562881 L 2.55368,-0.600525 L 2.58287,-0.634125
 L 2.61855,-0.663681 L 2.66043,-0.688919 L 2.70821,-0.709579 L 2.76187,-0.725632 L 2.82144,-0.737106 L 2.88692,-0.743988
 L 2.95828,-0.746277 L 3.0264,-0.744431 L 3.08862,-0.738861 L 3.14494,-0.729599 L 3.19536,-0.716629 L 3.23987,-0.699936
 L 3.27849,-0.67955 L 3.31206,-0.654892 L 3.34138,-0.625397 L 3.36649,-0.591064 L 3.38736,-0.55188 L 3.40401,-0.507874
 L 3.41643,-0.45903 L 3.18369,-0.427292 L 3.1767,-0.450958 L 3.16765,-0.47258 L 3.15654,-0.492188 L 3.14337,-0.50975
 L 3.12814,-0.525269 L 3.11087,-0.538773 L 3.09123,-0.550201 L 3.06895,-0.55957 L 3.04404,-0.566849 L 3.01648,-0.572052
 L 2.98627,-0.575165 L 2.95341,-0.576202 L 2.88678,-0.572403 L 2.83226,-0.56102 L 2.78984,-0.542023 L 2.75955,-0.515442
 L 2.74138,-0.481277 L 2.73532,-0.439499 L 2.73596,-0.425034 L 2.7379,-0.411469 L 2.74112,-0.398804 L 2.74564,-0.387054
 L 2.75142,-0.376205 L 2.75851,-0.366257 L 2.76686,-0.356995 L 2.77646,-0.348221 L 2.78729,-0.339905 L 2.79938,-0.332077
 L 2.8127,-0.324722 L 2.82727,-0.317841 L 2.84506,-0.310913 L 2.86806,-0.303421 L 2.89624,-0.295364 L 2.92963,-0.286728
 L 2.96822,-0.277542 L 3.01199,-0.267792 L 3.06445,-0.256271 L 3.11168,-0.245056 L 3.15369,-0.234131 L 3.19048,-0.223495
 L 3.22205,-0.21315 L 3.24838,-0.203094 L 3.2713,-0.192932 L 3.29256,-0.18222 L 3.31216,-0.170959 L 3.33012,-0.159164
 L 3.34644,-0.14682 L 3.36108,-0.133926 L 3.37439,-0.120346 L 3.3866,-0.105896 L 3.39772,-0.0905914 L 3.40775,-0.0744324
 L 3.4167,-0.0574188 L 3.42458,-0.0395355 L 3.43129,-0.020752 L 3.43678,-0.00105286 L 3.44106,0.0195465 L 3.44411,0.0411072
 L 3.44594,0.0635834 L 3.44653,0.0869904 L 3.44307,0.14093 L 3.43266,0.19046 L 3.41531,0.235596 L 3.39102,0.276321
 L 3.35979,0.312637 L 3.32162,0.344543 L 3.27675,0.371765 L 3.22537,0.394043 L 3.16753,0.411362 L 3.10318,0.423737
 L 3.03235,0.431168 L 2.95503,0.43364 z
M -8.34521,0.417374 L -8.34521,-0.729187 L -7.82034,-0.729187 L -7.7532,-0.727173 L -7.69173,-0.7211 L -7.63593,-0.710983
 L -7.5858,-0.696823 L -7.54135,-0.678604 L -7.50258,-0.656357 L -7.46964,-0.630142 L -7.44267,-0.600067 L -7.42171,-0.566132
 L -7.40674,-0.52832 L -7.39775,-0.486664 L -7.39476,-0.441116 L -7.39626,-0.409424 L -7.40077,-0.37941 L -7.40828,-0.351105
 L -7.41881,-0.324493 L -7.43234,-0.299561 L -7.44887,-0.276337 L -7.46848,-0.255173 L -7.49123,-0.23642 L -7.51712,-0.220093
 L -7.54616,-0.206177 L -7.57832,-0.194687 L -7.61365,-0.185608 L -7.56911,-0.17865 L -7.52824,-0.168655 L -7.49107,-0.155594
 L -7.45758,-0.139496 L -7.42778,-0.120331 L -7.40167,-0.0981293 L -7.37941,-0.0731201 L -7.36121,-0.0455475 L -7.34705,-0.0154266
 L -7.33693,0.0172272 L -7.33086,0.0524597 L -7.32884,0.0902405 L -7.33209,0.14035 L -7.34186,0.186523 L -7.35814,0.228775
 L -7.38092,0.26709 L -7.41022,0.301483 L -7.44601,0.331924 L -7.48761,0.358032 L -7.53427,0.379395 L -7.58598,0.396011
 L -7.64276,0.407867 L -7.70461,0.414993 L -7.77151,0.417374 z
M -7.79774,-0.26796 L -7.76849,-0.270905 L -7.74232,-0.275833 L -7.71925,-0.282715 L -7.6993,-0.291565 L -7.68242,-0.302383
 L -7.66837,-0.315155 L -7.65688,-0.32991 L -7.64793,-0.346634 L -7.64154,-0.365311 L -7.63771,-0.385956 L -7.63643,-0.408585
 L -7.6378,-0.433105 L -7.64191,-0.455139 L -7.64874,-0.474686 L -7.65831,-0.49176 L -7.67062,-0.506332 L -7.68567,-0.518433
 L -7.7034,-0.528366 L -7.72377,-0.536514 L -7.7468,-0.542847 L -7.77246,-0.547363 L -7.80078,-0.550079 L -7.83173,-0.55098
 L -8.10515,-0.55098 L -8.10515,-0.266983 L -7.83011,-0.266983 z
M -7.75507,0.237991 L -7.72174,0.234497 L -7.69186,0.228683 L -7.66545,0.220535 L -7.6425,0.210052 L -7.623,0.19725
 L -7.60672,0.182114 L -7.5934,0.164658 L -7.58302,0.144867 L -7.57562,0.122742 L -7.57118,0.0982971 L -7.5697,0.0715332
 L -7.57613,0.0222931 L -7.59538,-0.0179749 L -7.62747,-0.0493011 L -7.67241,-0.0716858 L -7.73019,-0.0850983 L -7.80081,-0.0895844
 L -8.10515,-0.0895844 L -8.10515,0.239151 L -7.79185,0.239151 z
M -2.10263,0.417374 L -2.10263,-0.729187 L -1.86258,-0.729187 L -1.86258,0.231842 L -1.24739,0.231842 L -1.24739,0.417374
 z
M 5.78349,0.430496 L 5.75374,0.425919 L 5.72655,0.418289 L 5.70192,0.407608 L 5.67989,0.393875 L 5.66042,0.37709
 L 5.64377,0.357208 L 5.63013,0.334183 L 5.61954,0.308029 L 5.61197,0.278717 L 5.60742,0.246262 L 5.60591,0.210678
 L 5.60591,-0.308487 L 5.49442,-0.308487 L 5.49442,-0.463089 L 5.61729,-0.463089 L 5.6889,-0.6698 L 5.83212,-0.6698
 L 5.83212,-0.463089 L 5.99895,-0.463089 L 5.99895,-0.308487 L 5.83212,-0.308487 L 5.83212,0.148834 L 5.83281,0.169327
 L 5.83484,0.187943 L 5.83823,0.204666 L 5.84297,0.219528 L 5.84908,0.232529 L 5.85654,0.243637 L 5.86542,0.25296
 L 5.87579,0.26059 L 5.88766,0.266525 L 5.90102,0.270752 L 5.91586,0.2733 L 5.93221,0.274155 L 5.94179,0.273834
 L 5.95265,0.272888 L 5.96477,0.271301 L 5.97815,0.269089 L 5.9928,0.266235 L 6.00871,0.262756 L 6.00871,0.404343
 L 5.97984,0.412796 L 5.94966,0.419724 L 5.91817,0.425095 L 5.88538,0.42894 L 5.85127,0.431244 L 5.81584,0.432022
 z
M -6.25974,0.763214 L -6.25974,-0.260468 L -6.25992,-0.30069 L -6.26045,-0.338318 L -6.26137,-0.373383 L -6.26262,-0.405853
 L -6.26425,-0.43576 L -6.26624,-0.463089 L -6.04408,-0.463089 L -6.04276,-0.457428 L -6.0415,-0.450165 L -6.04033,-0.44133
 L -6.0392,-0.430908 L -6.03815,-0.4189 L -6.03717,-0.405319 L -6.0363,-0.390961 L -6.0356,-0.376648 L -6.03503,-0.362396
 L -6.03464,-0.348175 L -6.03441,-0.334 L -6.03433,-0.31987 L -6.03107,-0.31987 L -6.00177,-0.369354 L -5.96542,-0.409836
 L -5.92203,-0.44133 L -5.87157,-0.463821 L -5.81407,-0.47731 L -5.74951,-0.481812 L -5.70016,-0.478531 L -5.65466,-0.468658
 L -5.61301,-0.452209 L -5.5752,-0.429184 L -5.54121,-0.399582 L -5.51109,-0.363403 L -5.48523,-0.321167 L -5.46407,-0.273392
 L -5.44762,-0.220093 L -5.43587,-0.16124 L -5.4288,-0.0968475 L -5.42645,-0.0269318 L -5.42891,0.0437775 L -5.43626,0.108917
 L -5.44853,0.168457 L -5.4657,0.222427 L -5.48778,0.270813 L -5.51476,0.313614 L -5.5462,0.350296 L -5.5817,0.380295
 L -5.62125,0.403641 L -5.66484,0.420303 L -5.71248,0.430298 L -5.76416,0.43364 L -5.79442,0.432526 L -5.82333,0.429169
 L -5.85092,0.423569 L -5.87718,0.415741 L -5.9021,0.40567 L -5.92569,0.393372 L -5.94772,0.378952 L -5.96796,0.362579
 L -5.98642,0.344238 L -6.00308,0.323929 L -6.01796,0.301651 L -6.03107,0.277405 L -6.03595,0.277405 L -6.03445,0.2883
 L -6.03323,0.304703 L -6.03229,0.32663 L -6.0316,0.35408 L -6.0312,0.387039 L -6.03107,0.425507 L -6.03107,0.763214
 z
M -5.79204,0.268951 L -5.74626,0.243576 L -5.71066,0.201309 L -5.68523,0.142136 L -5.66997,0.0660553 L -5.66489,-0.0269318
 L -5.66992,-0.117432 L -5.68504,-0.191483 L -5.71025,-0.249069 L -5.74553,-0.290222 L -5.79089,-0.314896 L -5.84634,-0.32312
 L -5.87553,-0.320908 L -5.90236,-0.31427 L -5.9268,-0.303192 L -5.94888,-0.287674 L -5.96858,-0.267746 L -5.9859,-0.243378
 L -6.0007,-0.215027 L -6.0128,-0.183167 L -6.02222,-0.147766 L -6.02895,-0.108841 L -6.03299,-0.066391 L -6.03433,-0.0204163
 L -6.03299,0.025238 L -6.02895,0.0673218 L -6.02222,0.105804 L -6.0128,0.140686 L -6.0007,0.171982 L -5.9859,0.199692
 L -5.96863,0.223434 L -5.94907,0.242859 L -5.92722,0.257965 L -5.90309,0.268768 L -5.87668,0.275238 L -5.84798,0.277405
 z
M -3.16498,0.432053 L -3.21838,0.427261 L -3.26706,0.419296 L -3.31102,0.408142 L -3.35025,0.393799 L -3.38475,0.376282
 L -3.4151,0.355377 L -3.44185,0.330933 L -3.46501,0.302933 L -3.48457,0.271393 L -3.50053,0.236298 L -3.51291,0.197662
 L -3.31192,0.167557 L -3.30554,0.187424 L -3.29778,0.205246 L -3.28864,0.221054 L -3.27811,0.234818 L -3.26622,0.246552
 L -3.25293,0.256241 L -3.23723,0.264206 L -3.21808,0.270706 L -3.19545,0.275772 L -3.16939,0.279388 L -3.13985,0.281555
 L -3.10686,0.282288 L -3.07629,0.281601 L -3.04863,0.279572 L -3.02385,0.276184 L -3.00197,0.271439 L -2.98299,0.265335
 L -2.96689,0.257874 L -2.95346,0.248962 L -2.94247,0.238525 L -2.93393,0.226547 L -2.92783,0.213028 L -2.92416,0.197968
 L -2.92294,0.181381 L -2.92393,0.167755 L -2.92688,0.155106 L -2.93179,0.143433 L -2.93867,0.132736 L -2.94753,0.123001
 L -2.95834,0.114243 L -2.97151,0.106186 L -2.98741,0.0985565 L -3.00606,0.0913544 L -3.02744,0.0845947 L -3.05154,0.0782471
 L -3.07838,0.0723267 L -3.13943,0.0597229 L -3.19348,0.0474243 L -3.24052,0.0354156 L -3.28055,0.0236969 L -3.31358,0.0122681
 L -3.3396,0.00112915 L -3.36122,-0.010376 L -3.38106,-0.022995 L -3.39909,-0.0366974 L -3.41536,-0.0514679 L -3.42984,-0.067337
 L -3.44254,-0.0842896 L -3.45335,-0.102448 L -3.4622,-0.121948 L -3.46909,-0.142776 L -3.474,-0.164948 L -3.47694,-0.188446
 L -3.47794,-0.213272 L -3.47523,-0.253769 L -3.46713,-0.291168 L -3.45363,-0.32547 L -3.43471,-0.356674 L -3.4104,-0.384781
 L -3.38069,-0.40979 L -3.34602,-0.431305 L -3.30685,-0.448898 L -3.2632,-0.462585 L -3.21504,-0.472366 L -3.16238,-0.478226
 L -3.10522,-0.480179 L -3.05458,-0.478485 L -3.00735,-0.473404 L -2.96353,-0.46492 L -2.92314,-0.453049 L -2.88614,-0.437805
 L -2.85257,-0.419144 L -2.82269,-0.397293 L -2.79683,-0.372406 L -2.77495,-0.344482 L -2.75708,-0.313538 L -2.74321,-0.279572
 L -2.73335,-0.242569 L -2.93596,-0.22142 L -2.94002,-0.238556 L -2.94565,-0.254181 L -2.95285,-0.268295 L -2.96165,-0.280899
 L -2.97203,-0.291992 L -2.98399,-0.301559 L -2.99799,-0.309647 L -3.01447,-0.316254 L -3.03342,-0.321396 L -3.05487,-0.325073
 L -3.07881,-0.327271 L -3.10522,-0.328003 L -3.13123,-0.327438 L -3.15495,-0.325699 L -3.17644,-0.322815 L -3.19565,-0.318787
 L -3.2126,-0.313599 L -3.22729,-0.307266 L -3.23973,-0.299561 L -3.24991,-0.290314 L -3.25781,-0.279495 L -3.26346,-0.26712
 L -3.26685,-0.253174 L -3.26797,-0.237686 L -3.26711,-0.225372 L -3.2645,-0.213959 L -3.26015,-0.203415 L -3.25406,-0.193741
 L -3.24623,-0.184967 L -3.23665,-0.177063 L -3.22502,-0.169815 L -3.21101,-0.162994 L -3.19464,-0.156616 L -3.17589,-0.150665
 L -3.15477,-0.145142 L -3.13127,-0.140045 L -3.09746,-0.13295 L -3.06494,-0.125793 L -3.03372,-0.118576 L -3.00378,-0.111282
 L -2.97513,-0.103912 L -2.94777,-0.0964966 L -2.92194,-0.0888062 L -2.89786,-0.0806274 L -2.87555,-0.071991 L -2.855,-0.0628662
 L -2.83621,-0.0532684 L -2.8192,-0.0431976 L -2.8036,-0.0324097 L -2.78908,-0.0206451 L -2.77567,-0.00790405 L -2.76332,0.00579834
 L -2.75206,0.0204773 L -2.74188,0.0361328 L -2.73306,0.0530243 L -2.72585,0.0714417 L -2.72023,0.0913544 L -2.71622,0.112793
 L -2.71381,0.135757 L -2.71301,0.160217 L -2.71591,0.201279 L -2.72462,0.239288 L -2.73915,0.274246 L -2.75948,0.306152
 L -2.78563,0.335007 L -2.81758,0.360809 L -2.85466,0.383072 L -2.89619,0.401276 L -2.94218,0.415436 L -2.99261,0.425552
 L -3.04752,0.43161 L -3.10686,0.43364 z
M -4.07018,0.432053 L -4.12358,0.427261 L -4.17226,0.419296 L -4.2162,0.408142 L -4.25543,0.393799 L -4.28995,0.376282
 L -4.3203,0.355377 L -4.34705,0.330933 L -4.37021,0.302933 L -4.38977,0.271393 L -4.40573,0.236298 L -4.41811,0.197662
 L -4.21712,0.167557 L -4.21074,0.187424 L -4.20297,0.205246 L -4.19383,0.221054 L -4.1833,0.234818 L -4.1714,0.246552
 L -4.15813,0.256241 L -4.14243,0.264206 L -4.12326,0.270706 L -4.10065,0.275772 L -4.07457,0.279388 L -4.04504,0.281555
 L -4.01205,0.282288 L -3.98149,0.281601 L -3.95383,0.279572 L -3.92905,0.276184 L -3.90717,0.271439 L -3.88818,0.265335
 L -3.87209,0.257874 L -3.85866,0.248962 L -3.84767,0.238525 L -3.83913,0.226547 L -3.83302,0.213028 L -3.82936,0.197968
 L -3.82814,0.181381 L -3.82912,0.167755 L -3.83208,0.155106 L -3.83699,0.143433 L -3.84387,0.132736 L -3.85272,0.123001
 L -3.86354,0.114243 L -3.87671,0.106186 L -3.89261,0.0985565 L -3.91124,0.0913544 L -3.93262,0.0845947 L -3.95673,0.0782471
 L -3.98357,0.0723267 L -4.04463,0.0597229 L -4.09868,0.0474243 L -4.14571,0.0354156 L -4.18575,0.0236969 L -4.21877,0.0122681
 L -4.2448,0.00112915 L -4.2664,-0.010376 L -4.28624,-0.022995 L -4.30429,-0.0366974 L -4.32056,-0.0514679 L -4.33504,-0.067337
 L -4.34773,-0.0842896 L -4.35854,-0.102448 L -4.36739,-0.121948 L -4.37428,-0.142776 L -4.3792,-0.164948 L -4.38214,-0.188446
 L -4.38313,-0.213272 L -4.38042,-0.253769 L -4.37231,-0.291168 L -4.35881,-0.32547 L -4.3399,-0.356674 L -4.3156,-0.384781
 L -4.28587,-0.40979 L -4.25121,-0.431305 L -4.21205,-0.448898 L -4.16838,-0.462585 L -4.12022,-0.472366 L -4.06757,-0.478226
 L -4.01042,-0.480179 L -3.95978,-0.478485 L -3.91255,-0.473404 L -3.86873,-0.46492 L -3.82832,-0.453049 L -3.79134,-0.437805
 L -3.75775,-0.419144 L -3.72789,-0.397293 L -3.70201,-0.372406 L -3.68015,-0.344482 L -3.66228,-0.313538 L -3.64841,-0.279572
 L -3.63853,-0.242569 L -3.84116,-0.22142 L -3.8452,-0.238556 L -3.85083,-0.254181 L -3.85805,-0.268295 L -3.86684,-0.280899
 L -3.87723,-0.291992 L -3.88918,-0.301559 L -3.90317,-0.309647 L -3.91965,-0.316254 L -3.93861,-0.321396 L -3.96007,-0.325073
 L -3.98399,-0.327271 L -4.01042,-0.328003 L -4.03641,-0.327438 L -4.06015,-0.325699 L -4.08163,-0.322815 L -4.10085,-0.318787
 L -4.1178,-0.313599 L -4.13249,-0.307266 L -4.14493,-0.299561 L -4.15509,-0.290314 L -4.16301,-0.279495 L -4.16866,-0.26712
 L -4.17204,-0.253174 L -4.17317,-0.237686 L -4.1723,-0.225372 L -4.16969,-0.213959 L -4.16534,-0.203415 L -4.15924,-0.193741
 L -4.15141,-0.184967 L -4.14185,-0.177063 L -4.1302,-0.169815 L -4.11621,-0.162994 L -4.09982,-0.156616 L -4.08109,-0.150665
 L -4.05995,-0.145142 L -4.03645,-0.140045 L -4.00266,-0.13295 L -3.97014,-0.125793 L -3.93892,-0.118576 L -3.90898,-0.111282
 L -3.88033,-0.103912 L -3.85297,-0.0964966 L -3.82713,-0.0888062 L -3.80305,-0.0806274 L -3.78075,-0.071991 L -3.76019,-0.0628662
 L -3.74141,-0.0532684 L -3.72438,-0.0431976 L -3.70879,-0.0324097 L -3.69427,-0.0206451 L -3.68085,-0.00790405 L -3.6685,0.00579834
 L -3.65726,0.0204773 L -3.64708,0.0361328 L -3.63826,0.0530243 L -3.63103,0.0714417 L -3.62541,0.0913544 L -3.62141,0.112793
 L -3.619,0.135757 L -3.61819,0.160217 L -3.62111,0.201279 L -3.62982,0.239288 L -3.64433,0.274246 L -3.66467,0.306152
 L -3.69081,0.335007 L -3.72276,0.360809 L -3.75984,0.383072 L -3.80138,0.401276 L -3.84737,0.415436 L -3.89781,0.425552
 L -3.9527,0.43161 L -4.01205,0.43364 z
M 6.58464,0.417374 L 6.58464,-0.266174 L 6.58458,-0.289062 L 6.58441,-0.310516 L 6.58414,-0.330551 L 6.58374,-0.349167
 L 6.58322,-0.366348 L 6.58261,-0.382111 L 6.58121,-0.411194 L 6.58047,-0.424942 L 6.57971,-0.438187 L 6.57893,-0.450897
 L 6.57814,-0.463089 L 6.79622,-0.463089 L 6.79707,-0.456512 L 6.79803,-0.447052 L 6.79907,-0.434723 L 6.8002,-0.41951
 L 6.80142,-0.401443 L 6.80273,-0.380493 L 6.80397,-0.359283 L 6.80499,-0.340393 L 6.80579,-0.323837 L 6.80635,-0.309616
 L 6.80669,-0.297714 L 6.80679,-0.288132 L 6.81006,-0.288132 L 6.82617,-0.320236 L 6.8436,-0.349258 L 6.86234,-0.375198
 L 6.88239,-0.398087 L 6.90375,-0.417877 L 6.92642,-0.434601 L 6.95049,-0.448532 L 6.97606,-0.45993 L 7.00311,-0.468781
 L 7.03166,-0.475113 L 7.06171,-0.478912 L 7.09325,-0.480179 L 7.13809,-0.477783 L 7.17932,-0.470596 L 7.21693,-0.458618
 L 7.25093,-0.441849 L 7.2813,-0.420288 L 7.30806,-0.393921 L 7.33093,-0.362961 L 7.34966,-0.32756 L 7.36421,-0.287735
 L 7.37462,-0.243469 L 7.38086,-0.194778 L 7.38293,-0.141663 L 7.38293,0.417374 L 7.15509,0.417374 L 7.15509,-0.0765686
 L 7.15073,-0.14743 L 7.13763,-0.205414 L 7.11583,-0.250504 L 7.08528,-0.282715 L 7.04602,-0.302048 L 6.99803,-0.308487
 L 6.97125,-0.306503 L 6.94627,-0.300568 L 6.92307,-0.29068 L 6.90164,-0.27684 L 6.88202,-0.259033 L 6.86417,-0.237274
 L 6.84863,-0.212433 L 6.83592,-0.185333 L 6.82603,-0.156006 L 6.81897,-0.124435 L 6.81473,-0.0906372 L 6.81331,-0.0545959
 L 6.81331,0.417374 z
M 7.89552,0.768829 L 7.84708,0.763718 L 7.80212,0.755173 L 7.76068,0.743225 L 7.72273,0.727875 L 7.68831,0.709106
 L 7.65771,0.687164 L 7.6313,0.662308 L 7.60907,0.634537 L 7.59102,0.603851 L 7.57715,0.570251 L 7.56746,0.533737
 L 7.79613,0.506882 L 7.80096,0.52388 L 7.80737,0.539612 L 7.81535,0.554077 L 7.82487,0.567276 L 7.83597,0.579208
 L 7.84862,0.589874 L 7.86273,0.599075 L 7.87822,0.606613 L 7.8951,0.612457 L 7.91335,0.616638 L 7.93298,0.619156
 L 7.95399,0.61998 L 7.98431,0.618362 L 8.01176,0.61348 L 8.03639,0.605331 L 8.05815,0.593948 L 8.07707,0.5793
 L 8.09314,0.561386 L 8.10657,0.540283 L 8.11755,0.516006 L 8.1261,0.488571 L 8.1322,0.457962 L 8.13586,0.424194
 L 8.13708,0.387253 L 8.13708,0.340881 L 8.13872,0.253815 L 8.13708,0.253815 L 8.1082,0.303284 L 8.07199,0.343765
 L 8.02846,0.375259 L 7.97758,0.397751 L 7.9194,0.41124 L 7.8539,0.415741 L 7.80455,0.412521 L 7.75905,0.402893
 L 7.71739,0.386841 L 7.67957,0.36438 L 7.6456,0.335495 L 7.61546,0.300186 L 7.5896,0.258911 L 7.56845,0.212128
 L 7.552,0.159821 L 7.54024,0.10199 L 7.53319,0.0386505 L 7.53084,-0.0301819 L 7.53326,-0.0993195 L 7.54051,-0.162994
 L 7.55261,-0.221207 L 7.56953,-0.273941 L 7.59131,-0.321213 L 7.6179,-0.363007 L 7.64912,-0.398804 L 7.68472,-0.428101
 L 7.72472,-0.450882 L 7.76909,-0.467163 L 7.81784,-0.476929 L 7.87099,-0.480179 L 7.93173,-0.475769 L 7.98592,-0.462555
 L 8.03354,-0.440506 L 8.07462,-0.409653 L 8.10913,-0.369995 L 8.13708,-0.321503 L 8.14116,-0.321503 L 8.14127,-0.331558
 L 8.14157,-0.342758 L 8.14207,-0.355072 L 8.14279,-0.368515 L 8.14371,-0.383102 L 8.14482,-0.398804 L 8.14606,-0.414154
 L 8.14731,-0.427658 L 8.14857,-0.439301 L 8.14989,-0.449081 L 8.1512,-0.457016 L 8.15254,-0.463089 L 8.369,-0.463089
 L 8.36751,-0.433029 L 8.36629,-0.401428 L 8.36534,-0.368286 L 8.36465,-0.333618 L 8.36426,-0.297409 L 8.36412,-0.259659
 L 8.36412,0.390518 L 8.36116,0.450623 L 8.35228,0.505615 L 8.33746,0.555496 L 8.31674,0.600281 L 8.29008,0.639954
 L 8.25751,0.674515 L 8.21928,0.703857 L 8.17569,0.727859 L 8.12671,0.746536 L 8.07234,0.759872 L 8.0126,0.767868
 L 7.94748,0.770538 z
M 7.97993,0.254944 L 8.00676,0.248611 L 8.0312,0.238037 L 8.05327,0.223251 L 8.07297,0.204224 L 8.09029,0.180984
 L 8.10509,0.153839 L 8.11719,0.123154 L 8.1266,0.088913 L 8.13333,0.0511322 L 8.13736,0.00979614 L 8.13872,-0.0350647
 L 8.13736,-0.0787048 L 8.13333,-0.119019 L 8.1266,-0.156006 L 8.11719,-0.189667 L 8.10509,-0.220016 L 8.09029,-0.24704
 L 8.07301,-0.270279 L 8.05345,-0.289307 L 8.0316,-0.304108 L 8.00748,-0.314667 L 7.98106,-0.321014 L 7.95236,-0.32312
 L 7.89642,-0.314987 L 7.85065,-0.290573 L 7.81503,-0.249893 L 7.78961,-0.192932 L 7.77435,-0.11969 L 7.76927,-0.0301819
 L 7.77431,0.0575714 L 7.78943,0.129395 L 7.81464,0.185242 L 7.84993,0.225143 L 7.89529,0.249084 L 7.95074,0.257065
 z
M -0.806686,0.430374 L -0.865204,0.420578 L -0.918625,0.404236 L -0.966919,0.381378 L -1.01012,0.351974 L -1.04822,0.316055
 L -1.08078,0.273865 L -1.10744,0.225677 L -1.12816,0.171509 L -1.14296,0.111343 L -1.15184,0.0451965 L -1.15482,-0.0269318
 L -1.15179,-0.096817 L -1.14278,-0.161102 L -1.12775,-0.219788 L -1.1067,-0.272858 L -1.07965,-0.320328 L -1.04659,-0.362183
 L -1.008,-0.397995 L -0.964386,-0.427292 L -0.915771,-0.450073 L -0.862137,-0.466339 L -0.803482,-0.476105 L -0.739807,-0.47937
 L -0.679077,-0.475876 L -0.623337,-0.465393 L -0.572571,-0.447937 L -0.526764,-0.423492 L -0.485947,-0.392059 L -0.450104,-0.353638
 L -0.41951,-0.308487 L -0.394485,-0.256851 L -0.375031,-0.19873 L -0.36113,-0.134109 L -0.352783,-0.0630035 L -0.350006,0.0145569
 L -0.350006,0.0210724 L -0.914749,0.0210724 L -0.913422,0.0621796 L -0.909454,0.0997772 L -0.902847,0.133881 L -0.893585,0.164474
 L -0.881683,0.191574 L -0.867142,0.215149 L -0.850159,0.235168 L -0.830933,0.251541 L -0.809464,0.264282 L -0.785767,0.273376
 L -0.759827,0.278839 L -0.731659,0.280655 L -0.693726,0.27774 L -0.660767,0.268982 L -0.632782,0.25441 L -0.609772,0.233994
 L -0.591736,0.207764 L -0.578674,0.17569 L -0.363022,0.194397 L -0.399582,0.267502 L -0.446838,0.327316 L -0.504822,0.373825
 L -0.573517,0.407059 L -0.652924,0.426987 L -0.743057,0.43364 z
M -0.574585,-0.156189 L -0.579941,-0.187286 L -0.587418,-0.215408 L -0.597031,-0.240585 L -0.608765,-0.262787 L -0.62262,-0.282043
 L -0.638397,-0.298325 L -0.655884,-0.311646 L -0.67511,-0.322021 L -0.69603,-0.329422 L -0.718689,-0.333862 L -0.743057,-0.335342
 L -0.768875,-0.333786 L -0.792648,-0.329102 L -0.814346,-0.321304 L -0.834,-0.310379 L -0.851608,-0.296341 L -0.867142,-0.279175
 L -0.880508,-0.259216 L -0.891602,-0.236771 L -0.900406,-0.211853 L -0.906937,-0.184433 L -0.911179,-0.154526 L -0.913132,-0.122131
 L -0.57135,-0.122131 z
M 1.00369,0.430374 L 0.94516,0.420578 L 0.891754,0.404236 L 0.843445,0.381378 L 0.800247,0.351974 L 0.762161,0.316055
 L 0.729584,0.273865 L 0.702942,0.225677 L 0.682205,0.171509 L 0.667404,0.111343 L 0.658524,0.0451965 L 0.655563,-0.0269318
 L 0.658569,-0.096817 L 0.667587,-0.161102 L 0.682617,-0.219788 L 0.703659,-0.272858 L 0.730713,-0.320328 L 0.763794,-0.362183
 L 0.802368,-0.397995 L 0.845978,-0.427292 L 0.894592,-0.450073 L 0.948242,-0.466339 L 1.0069,-0.476105 L 1.07057,-0.47937
 L 1.13129,-0.475876 L 1.18703,-0.465393 L 1.23779,-0.447937 L 1.2836,-0.423492 L 1.32442,-0.392059 L 1.36028,-0.353638
 L 1.39085,-0.308487 L 1.41588,-0.256851 L 1.43533,-0.19873 L 1.44925,-0.134109 L 1.45758,-0.0630035 L 1.46036,0.0145569
 L 1.46036,0.0210724 L 0.895615,0.0210724 L 0.896942,0.0621796 L 0.900909,0.0997772 L 0.907516,0.133881 L 0.916779,0.164474
 L 0.92868,0.191574 L 0.943222,0.215149 L 0.960205,0.235168 L 0.979431,0.251541 L 1.0009,0.264282 L 1.0246,0.273376
 L 1.05054,0.278839 L 1.07872,0.280655 L 1.11664,0.27774 L 1.1496,0.268982 L 1.17758,0.25441 L 1.20059,0.233994
 L 1.21863,0.207764 L 1.23169,0.17569 L 1.44734,0.194397 L 1.4108,0.267502 L 1.36353,0.327316 L 1.30554,0.373825
 L 1.23685,0.407059 L 1.15744,0.426987 L 1.06732,0.43364 z
M 1.23579,-0.156189 L 1.23042,-0.187286 L 1.22295,-0.215408 L 1.21333,-0.240585 L 1.2016,-0.262787 L 1.18774,-0.282043
 L 1.17197,-0.298325 L 1.15448,-0.311646 L 1.13527,-0.322021 L 1.11433,-0.329422 L 1.09169,-0.333862 L 1.06732,-0.335342
 L 1.04149,-0.333786 L 1.01773,-0.329102 L 0.996017,-0.321304 L 0.976364,-0.310379 L 0.958771,-0.296341 L 0.943222,-0.279175
 L 0.929855,-0.259216 L 0.918762,-0.236771 L 0.909958,-0.211853 L 0.903442,-0.184433 L 0.8992,-0.154526 L 0.897232,-0.122131
 L 1.23903,-0.122131 z
M -5.10312,0.431702 L -5.14102,0.425903 L -5.17581,0.416245 L -5.20747,0.40271 L -5.23602,0.38533 L -5.26146,0.364059
 L -5.28334,0.339294 L -5.30124,0.311401 L -5.31517,0.28035 L -5.3251,0.246155 L -5.33107,0.208832 L -5.33307,0.16835
 L -5.3306,0.124603 L -5.32317,0.0844574 L -5.31079,0.0479279 L -5.29347,0.0150146 L -5.27119,-0.014267 L -5.24396,-0.0399323
 L -5.21204,-0.0618591 L -5.17564,-0.0799103 L -5.13481,-0.0940552 L -5.08952,-0.104324 L -5.03978,-0.110703 L -4.9856,-0.11319
 L -4.79599,-0.11644 L -4.79599,-0.161194 L -4.79683,-0.188721 L -4.79933,-0.213776 L -4.80351,-0.236359 L -4.80937,-0.2565
 L -4.81689,-0.274155 L -4.8261,-0.289352 L -4.8372,-0.30217 L -4.85042,-0.312637 L -4.86577,-0.320801 L -4.88324,-0.326614
 L -4.90283,-0.330109 L -4.92456,-0.331268 L -4.94478,-0.330475 L -4.96313,-0.328064 L -4.9796,-0.324051 L -4.99419,-0.318436
 L -5.0069,-0.311203 L -5.01775,-0.302383 L -5.02702,-0.291702 L -5.03505,-0.278915 L -5.04184,-0.264038 L -5.04739,-0.24704
 L -5.0517,-0.227951 L -5.05476,-0.206757 L -5.29318,-0.218155 L -5.28381,-0.259293 L -5.27036,-0.296951 L -5.25281,-0.331161
 L -5.23117,-0.361923 L -5.20543,-0.389206 L -5.17561,-0.41304 L -5.14182,-0.433304 L -5.10414,-0.44989 L -5.06261,-0.462784
 L -5.0172,-0.472 L -4.96794,-0.477524 L -4.91481,-0.47937 L -4.86133,-0.477081 L -4.81209,-0.47023 L -4.76711,-0.458817
 L -4.72638,-0.442841 L -4.6899,-0.422287 L -4.65765,-0.397171 L -4.63005,-0.367859 L -4.60748,-0.334702 L -4.58992,-0.297699
 L -4.57736,-0.256851 L -4.56984,-0.212158 L -4.56734,-0.163635 L -4.56734,0.156967 L -4.56686,0.180374 L -4.56548,0.201233
 L -4.56316,0.219528 L -4.55992,0.235275 L -4.55576,0.248459 L -4.55066,0.259094 L -4.54446,0.26767 L -4.53703,0.274689
 L -4.52837,0.280151 L -4.51845,0.284042 L -4.50729,0.286392 L -4.4949,0.28717 L -4.48627,0.287033 L -4.47772,0.286621
 L -4.46927,0.28595 L -4.46091,0.285004 L -4.45264,0.283783 L -4.44446,0.282288 L -4.44446,0.405975 L -4.45113,0.407578
 L -4.4865,0.416245 L -4.49193,0.417465 L -4.49734,0.418594 L -4.50278,0.419632 L -4.50819,0.420578 L -4.51363,0.421432
 L -4.5191,0.422226 L -4.52469,0.422974 L -4.5304,0.423676 L -4.53622,0.424332 L -4.54216,0.424942 L -4.5482,0.425507
 L -4.55447,0.425995 L -4.5611,0.426407 L -4.56804,0.426727 L -4.57533,0.426956 L -4.58296,0.427094 L -4.59093,0.427139
 L -4.61842,0.425964 L -4.64342,0.42244 L -4.66589,0.416565 L -4.68587,0.408325 L -4.70332,0.397751 L -4.71828,0.384827
 L -4.73106,0.369614 L -4.74202,0.352173 L -4.75113,0.332535 L -4.75842,0.310669 L -4.76389,0.286606 L -4.76752,0.260315
 L -4.77238,0.260315 L -4.80711,0.313278 L -4.84726,0.356598 L -4.89282,0.390305 L -4.94382,0.414383 L -5.00024,0.428818
 L -5.06209,0.43364 z
M -4.97121,0.273331 L -4.95409,0.270889 L -4.93748,0.26683 L -4.9214,0.261124 L -4.90584,0.253799 L -4.89079,0.244858
 L -4.87654,0.234467 L -4.86336,0.222839 L -4.85123,0.209961 L -4.84016,0.195847 L -4.83015,0.180481 L -4.82121,0.163879
 L -4.81351,0.146484 L -4.80721,0.128754 L -4.80229,0.110687 L -4.7988,0.0922699 L -4.79669,0.0735321 L -4.79599,0.0544434
 L -4.79599,0.00967407 L -4.91318,0.0113068 L -4.93846,0.0126953 L -4.96118,0.0146942 L -4.98132,0.0173187 L -4.99889,0.0205383
 L -5.01387,0.0243683 L -5.02629,0.0288086 L -5.03696,0.0339661 L -5.04677,0.0399628 L -5.05568,0.046814 L -5.06372,0.0544891
 L -5.07086,0.0629883 L -5.07713,0.0723419 L -5.08249,0.0826569 L -5.08687,0.0940399 L -5.09026,0.106522 L -5.0927,0.120071
 L -5.09415,0.13472 L -5.09464,0.150452 L -5.09384,0.170441 L -5.09143,0.18866 L -5.08742,0.205078 L -5.0818,0.219711
 L -5.07458,0.232559 L -5.06575,0.243637 L -5.05559,0.25296 L -5.04437,0.26059 L -5.03207,0.266525 L -5.01874,0.270752
 L -5.00433,0.2733 L -4.98886,0.274155 z
M -7.07784,0.762909 L -7.10353,0.762039 L -7.1281,0.760559 L -7.15155,0.758514 L -7.17386,0.755859 L -7.19504,0.75264
 L -7.19504,0.589874 L -7.18086,0.591873 L -7.1671,0.593506 L -7.15373,0.594772 L -7.14078,0.595673 L -7.12823,0.596222
 L -7.1161,0.59639 L -7.10028,0.595963 L -7.0854,0.594681 L -7.07144,0.592529 L -7.05841,0.589523 L -7.04631,0.585648
 L -7.03514,0.580933 L -7.0246,0.575211 L -7.01443,0.568359 L -7.00462,0.560379 L -6.99516,0.55127 L -6.98608,0.541031
 L -6.97736,0.529663 L -6.96864,0.516342 L -6.95959,0.500275 L -6.9502,0.481445 L -6.94046,0.459854 L -6.93039,0.435516
 L -6.91998,0.408417 L -7.26826,-0.463089 L -7.0266,-0.463089 L -6.88826,-0.0505219 L -6.87692,-0.0183411 L -6.86465,0.0190735
 L -6.85143,0.0617523 L -6.83725,0.10968 L -6.82213,0.162842 L -6.80606,0.221252 L -6.78572,0.143951 L -6.73282,-0.0472717
 L -6.60262,-0.463089 L -6.36337,-0.463089 L -6.71167,0.463745 L -6.73514,0.517273 L -6.75891,0.565018 L -6.78297,0.606964
 L -6.80733,0.643127 L -6.83199,0.673508 L -6.85692,0.698105 L -6.88322,0.718002 L -6.91194,0.734268 L -6.94307,0.746933
 L -6.97662,0.755981 L -7.0126,0.761398 L -7.05099,0.763214 z
M 4.59622,0.417374 L 4.59622,-0.463089 L 4.82491,-0.463089 L 4.82491,0.417374 z
M 6.13245,0.417374 L 6.13245,-0.463089 L 6.36111,-0.463089 L 6.36111,0.417374 z
M 0.00669861,0.417374 L -0.308197,-0.463089 L -0.0665283,-0.463089 L 0.0872498,0.0292053 L 0.0922546,0.0461578 L 0.0991058,0.0699005
 L 0.107803,0.100418 L 0.118362,0.137711 L 0.145035,0.232651 L 0.148224,0.220123 L 0.152359,0.204803 L 0.15744,0.186676
 L 0.163483,0.165741 L 0.170456,0.142014 L 0.178391,0.115479 L 0.190598,0.0761108 L 0.210403,0.0139313 L 0.237808,-0.0710754
 L 0.272797,-0.178909 L 0.315384,-0.309586 L 0.365555,-0.463089 L 0.604797,-0.463089 L 0.280121,0.417374 z
" stroke="black" fill="lightgray" stroke-width="0.5"/>
</svg>
