<?xml version="1.0" standalone="no"?>
<!DOCTYPE svg PUBLIC "-//W3C//DTD SVG 1.1//EN" "http://www.w3.org/Graphics/SVG/1.1/DTD/svg11.dtd">
<svg width="10mm" height="4mm" viewBox="-5 -2 10 4" xmlns="http://www.w3.org/2000/svg" version="1.1">
<title>OpenSCAD Model</title>
<path d="
M 4.78911,1.12192 L 4.82724,1.11276 L 4.86349,1.09775 L 4.89694,1.07724 L 4.92677,1.05177 L 4.95224,1.02194
 L 4.97275,0.988495 L 4.98776,0.95224 L 4.99692,0.914108 L 5,0.875 L 5,-0.875 L 4.99692,-0.914108
 L 4.98776,-0.95224 L 4.97275,-0.988495 L 4.95224,-1.02194 L 4.92677,-1.05177 L 4.89694,-1.07724 L 4.86349,-1.09775
 L 4.82724,-1.11276 L 4.78911,-1.12192 L 4.75,-1.125 L -4.75,-1.125 L -4.78911,-1.12192 L -4.82724,-1.11276
 L -4.86349,-1.09775 L -4.89694,-1.07724 L -4.92677,-1.05177 L -4.95224,-1.02194 L -4.97275,-0.988495 L -4.98776,-0.95224
 L -4.99692,-0.914108 L -5,-0.875 L -5,0.875 L -4.99692,0.914108 L -4.98776,0.95224 L -4.97275,0.988495
 L -4.95224,1.02194 L -4.92677,1.05177 L -4.89694,1.07724 L -4.86349,1.09775 L -4.82724,1.11276 L -4.78911,1.12192
 L -4.75,1.125 L 4.75,1.125 z
M -4.0536,0.572159 L -4.13535,0.559113 L -4.21011,0.537354 L -4.27789,0.506897 L -4.33868,0.467728 L -4.3925,0.419861
 L -4.43863,0.364182 L -4.47636,0.301559 L -4.50571,0.231995 L -4.52667,0.155487 L -4.53926,0.072052 L -4.54344,-0.0183258
 L -4.5394,-0.10881 L -4.52727,-0.192017 L -4.50703,-0.267944 L -4.47871,-0.336594 L -4.44231,-0.397964 L -4.3978,-0.452057
 L -4.3456,-0.498291 L -4.28612,-0.536133 L -4.21938,-0.565567 L -4.14534,-0.586594 L -4.06404,-0.599197 L -3.97545,-0.603409
 L -3.91026,-0.601151 L -3.84923,-0.594406 L -3.79236,-0.58316 L -3.73964,-0.567413 L -3.69109,-0.54718 L -3.6467,-0.52243
 L -3.60649,-0.493332 L -3.57048,-0.460007 L -3.53867,-0.42244 L -3.51106,-0.380661 L -3.48767,-0.334656 L -3.46848,-0.284409
 L -3.68005,-0.226639 L -3.69044,-0.25441 L -3.7037,-0.280212 L -3.71983,-0.304047 L -3.73883,-0.325912 L -3.7607,-0.345825
 L -3.78543,-0.363754 L -3.81239,-0.379288 L -3.84091,-0.392014 L -3.87099,-0.401901 L -3.90262,-0.408966 L -3.93581,-0.413193
 L -3.97057,-0.414612 L -4.02263,-0.411804 L -4.07034,-0.403397 L -4.11368,-0.389389 L -4.15266,-0.369766 L -4.18729,-0.344528
 L -4.21754,-0.313705 L -4.24327,-0.277466 L -4.26433,-0.236038 L -4.2807,-0.189407 L -4.2924,-0.137573 L -4.29942,-0.0805511
 L -4.30176,-0.0183258 L -4.29935,0.0449829 L -4.29213,0.103088 L -4.28009,0.156006 L -4.26324,0.203735 L -4.24158,0.246246
 L -4.21509,0.283569 L -4.18407,0.315399 L -4.14877,0.341431 L -4.10921,0.361694 L -4.06537,0.37616 L -4.01726,0.384842
 L -3.96487,0.387726 L -3.89613,0.381668 L -3.83476,0.363495 L -3.78076,0.333206 L -3.73413,0.290802 L -3.69487,0.236282
 L -3.66298,0.169647 L -3.45384,0.248581 L -3.4781,0.301559 L -3.50587,0.349808 L -3.53714,0.393326 L -3.57191,0.432129
 L -3.6102,0.466202 L -3.65198,0.495544 L -3.69695,0.520294 L -3.7448,0.540527 L -3.7955,0.556274 L -3.84909,0.56752
 L -3.90555,0.574265 L -3.96487,0.576508 z
M 2.909,0.572159 L 2.82726,0.559113 L 2.75249,0.537354 L 2.68471,0.506897 L 2.62392,0.467728 L 2.5701,0.419861
 L 2.52397,0.364182 L 2.48624,0.301559 L 2.45688,0.231995 L 2.43593,0.155487 L 2.42334,0.072052 L 2.41914,-0.0183258
 L 2.4232,-0.10881 L 2.43533,-0.192017 L 2.45557,-0.267944 L 2.48389,-0.336594 L 2.52029,-0.397964 L 2.5648,-0.452057
 L 2.617,-0.498291 L 2.67647,-0.536133 L 2.74323,-0.565567 L 2.81725,-0.586594 L 2.89856,-0.599197 L 2.98715,-0.603409
 L 3.05234,-0.601151 L 3.11337,-0.594406 L 3.17024,-0.58316 L 3.22295,-0.567413 L 3.2715,-0.54718 L 3.3159,-0.52243
 L 3.35611,-0.493332 L 3.39212,-0.460007 L 3.42392,-0.42244 L 3.45152,-0.380661 L 3.47493,-0.334656 L 3.49413,-0.284409
 L 3.28253,-0.226639 L 3.27216,-0.25441 L 3.2589,-0.280212 L 3.24277,-0.304047 L 3.22377,-0.325912 L 3.2019,-0.345825
 L 3.17717,-0.363754 L 3.15021,-0.379288 L 3.12169,-0.392014 L 3.09161,-0.401901 L 3.05998,-0.408966 L 3.02678,-0.413193
 L 2.99203,-0.414612 L 2.93996,-0.411804 L 2.89226,-0.403397 L 2.84891,-0.389389 L 2.80994,-0.369766 L 2.77531,-0.344528
 L 2.74506,-0.313705 L 2.71933,-0.277466 L 2.69827,-0.236038 L 2.6819,-0.189407 L 2.6702,-0.137573 L 2.66318,-0.0805511
 L 2.66084,-0.0183258 L 2.66325,0.0449829 L 2.67047,0.103088 L 2.68251,0.156006 L 2.69936,0.203735 L 2.72102,0.246246
 L 2.7475,0.283569 L 2.77853,0.315399 L 2.81383,0.341431 L 2.85339,0.361694 L 2.89723,0.37616 L 2.94534,0.384842
 L 2.99773,0.387726 L 3.06647,0.381668 L 3.12784,0.363495 L 3.18184,0.333206 L 3.22847,0.290802 L 3.26773,0.236282
 L 3.29962,0.169647 L 3.50876,0.248581 L 3.4845,0.301559 L 3.45673,0.349808 L 3.42546,0.393326 L 3.39069,0.432129
 L 3.3524,0.466202 L 3.31062,0.495544 L 3.26564,0.520294 L 3.2178,0.540527 L 3.16708,0.556274 L 3.11351,0.56752
 L 3.05705,0.574265 L 2.99773,0.576508 z
M 4.01031,0.574341 L 3.94473,0.567841 L 3.88446,0.556992 L 3.82945,0.541794 L 3.77975,0.522263 L 3.73534,0.498398
 L 3.69604,0.470123 L 3.66174,0.437363 L 3.6324,0.400131 L 3.60803,0.358429 L 3.58864,0.312256 L 3.57422,0.261597
 L 3.80614,0.223358 L 3.81525,0.25235 L 3.82684,0.278549 L 3.84091,0.301987 L 3.85748,0.322632 L 3.87654,0.3405
 L 3.89809,0.355591 L 3.92233,0.368149 L 3.94952,0.378418 L 3.97966,0.386414 L 4.01274,0.39212 L 4.04875,0.395538
 L 4.08769,0.396683 L 4.16452,0.392426 L 4.22739,0.379684 L 4.27628,0.358429 L 4.3112,0.32869 L 4.33215,0.290436
 L 4.33914,0.243698 L 4.33833,0.22789 L 4.33592,0.213043 L 4.33191,0.199142 L 4.32629,0.186188 L 4.31908,0.174194
 L 4.31024,0.163132 L 4.29996,0.152847 L 4.28836,0.143158 L 4.27545,0.134048 L 4.26125,0.125519 L 4.24571,0.117584
 L 4.22887,0.110245 L 4.20869,0.102936 L 4.18317,0.0951385 L 4.15228,0.0868378 L 4.11603,0.0780487 L 4.07443,0.0687561
 L 4.02748,0.05896 L 3.98679,0.0492554 L 3.95044,0.0402069 L 3.91843,0.0318146 L 3.89076,0.0240631 L 3.86743,0.016983
 L 3.84843,0.0105591 L 3.83189,0.00427246 L 3.81589,-0.00234985 L 3.80043,-0.0093689 L 3.78551,-0.0167389 L 3.77113,-0.0244598
 L 3.75729,-0.032547 L 3.74408,-0.0411072 L 3.73154,-0.0502319 L 3.71967,-0.0599213 L 3.70848,-0.0701752 L 3.69797,-0.0809937
 L 3.68813,-0.0923767 L 3.67899,-0.10437 L 3.67055,-0.117065 L 3.66281,-0.130417 L 3.65576,-0.144455 L 3.64943,-0.159164
 L 3.64378,-0.174561 L 3.63895,-0.190674 L 3.63498,-0.207565 L 3.6319,-0.22522 L 3.62968,-0.243637 L 3.62836,-0.262833
 L 3.62793,-0.282791 L 3.63116,-0.332581 L 3.6409,-0.378311 L 3.65712,-0.420013 L 3.67982,-0.457657 L 3.70901,-0.491257
 L 3.74469,-0.520813 L 3.78658,-0.546051 L 3.83434,-0.566696 L 3.88802,-0.582764 L 3.94759,-0.594223 L 4.01306,-0.601105
 L 4.08443,-0.603409 L 4.15254,-0.601547 L 4.21477,-0.595993 L 4.27109,-0.586731 L 4.3215,-0.573746 L 4.36601,-0.557068
 L 4.40463,-0.536667 L 4.43819,-0.512009 L 4.46753,-0.482513 L 4.49263,-0.448181 L 4.5135,-0.409012 L 4.53015,-0.365005
 L 4.54257,-0.316147 L 4.30983,-0.284409 L 4.30284,-0.308075 L 4.29379,-0.329712 L 4.28268,-0.349304 L 4.26952,-0.366867
 L 4.25429,-0.382401 L 4.23701,-0.395889 L 4.21738,-0.407333 L 4.1951,-0.416687 L 4.17018,-0.423965 L 4.14262,-0.429169
 L 4.11241,-0.432297 L 4.07956,-0.433334 L 4.01292,-0.429535 L 3.95839,-0.418137 L 3.91599,-0.399155 L 3.8857,-0.372574
 L 3.86752,-0.338394 L 3.86147,-0.296631 L 3.86211,-0.282166 L 3.86404,-0.2686 L 3.86726,-0.255936 L 3.87177,-0.244171
 L 3.87756,-0.233322 L 3.88466,-0.223373 L 3.89301,-0.214127 L 3.9026,-0.205338 L 3.91344,-0.197037 L 3.92552,-0.189209
 L 3.93884,-0.181839 L 3.95341,-0.174957 L 3.97121,-0.16803 L 3.99419,-0.160538 L 4.02238,-0.152481 L 4.05577,-0.14386
 L 4.09436,-0.134674 L 4.13814,-0.124924 L 4.1906,-0.113403 L 4.23782,-0.102173 L 4.27983,-0.0912476 L 4.31662,-0.0806122
 L 4.34819,-0.0702667 L 4.37453,-0.0602264 L 4.39745,-0.0500488 L 4.4187,-0.0393372 L 4.43831,-0.0280914 L 4.45627,-0.0162811
 L 4.47258,-0.00393677 L 4.48723,0.00892639 L 4.50052,0.0225067 L 4.51273,0.0369568 L 4.52385,0.0522614 L 4.53389,0.0684204
 L 4.54285,0.0854492 L 4.5507,0.103333 L 4.55742,0.122101 L 4.56291,0.1418 L 4.56718,0.16243 L 4.57024,0.183975
 L 4.57207,0.206451 L 4.57268,0.229858 L 4.56921,0.283798 L 4.55881,0.333344 L 4.54146,0.378464 L 4.51717,0.419189
 L 4.48593,0.455505 L 4.44777,0.487411 L 4.40288,0.514633 L 4.35152,0.536911 L 4.29366,0.554245 L 4.22932,0.56662
 L 4.15849,0.574036 L 4.08118,0.576508 z
M 1.66602,0.573364 L 1.63625,0.568787 L 1.60905,0.561157 L 1.58444,0.550491 L 1.56241,0.536758 L 1.54294,0.519974
 L 1.52628,0.500092 L 1.51265,0.477066 L 1.50204,0.450897 L 1.49448,0.421585 L 1.48993,0.389145 L 1.48842,0.353561
 L 1.48842,-0.165604 L 1.37692,-0.165604 L 1.37692,-0.320221 L 1.49982,-0.320221 L 1.57143,-0.526917 L 1.71465,-0.526917
 L 1.71465,-0.320221 L 1.88145,-0.320221 L 1.88145,-0.165604 L 1.71465,-0.165604 L 1.71465,0.291702 L 1.71532,0.312195
 L 1.71736,0.330811 L 1.72075,0.347549 L 1.72549,0.362411 L 1.7316,0.375397 L 1.73906,0.386505 L 1.74794,0.395828
 L 1.75832,0.403458 L 1.77017,0.409393 L 1.78354,0.413635 L 1.79839,0.416168 L 1.81473,0.417023 L 1.82431,0.416702
 L 1.83516,0.415756 L 1.84727,0.414169 L 1.86066,0.411957 L 1.87531,0.409119 L 1.89122,0.40564 L 1.89122,0.547226
 L 1.86237,0.555679 L 1.83218,0.562592 L 1.80069,0.567978 L 1.7679,0.571823 L 1.73378,0.574127 L 1.69836,0.57489
 z
M -2.32582,0.560242 L -2.32582,-0.123291 L -2.32588,-0.146179 L -2.32605,-0.167648 L -2.32634,-0.187683 L -2.32674,-0.206284
 L -2.32724,-0.22348 L -2.32787,-0.239243 L -2.32855,-0.254044 L -2.33,-0.282074 L -2.33075,-0.295303 L -2.33153,-0.308029
 L -2.33234,-0.320221 L -2.11426,-0.320221 L -2.11339,-0.313629 L -2.11244,-0.304169 L -2.1114,-0.29184 L -2.11028,-0.276642
 L -2.10905,-0.25856 L -2.10774,-0.237625 L -2.10649,-0.216415 L -2.10548,-0.197525 L -2.10469,-0.180969 L -2.10413,-0.166733
 L -2.10379,-0.154831 L -2.10367,-0.145264 L -2.10042,-0.145264 L -2.0843,-0.177353 L -2.06686,-0.206375 L -2.04813,-0.23233
 L -2.02808,-0.255203 L -2.00673,-0.275009 L -1.98405,-0.291733 L -1.95998,-0.305649 L -1.93442,-0.317047 L -1.90736,-0.325912
 L -1.87881,-0.332245 L -1.84877,-0.336044 L -1.81723,-0.337311 L -1.77238,-0.334915 L -1.73116,-0.327728 L -1.69354,-0.315735
 L -1.65955,-0.298965 L -1.62917,-0.277405 L -1.6024,-0.251053 L -1.57953,-0.220078 L -1.56082,-0.184692 L -1.54625,-0.144852
 L -1.53586,-0.100601 L -1.52962,-0.0519104 L -1.52754,0.00120544 L -1.52754,0.560242 L -1.75539,0.560242 L -1.75539,0.0662994
 L -1.75975,-0.00454712 L -1.77283,-0.0625305 L -1.79465,-0.107635 L -1.82518,-0.139847 L -1.86446,-0.159164 L -1.91245,-0.165604
 L -1.93921,-0.163635 L -1.9642,-0.1577 L -1.98741,-0.147812 L -2.00882,-0.133957 L -2.02846,-0.116165 L -2.0463,-0.0944061
 L -2.06184,-0.0695496 L -2.07455,-0.0424652 L -2.08444,-0.0131378 L -2.09151,0.0184174 L -2.09575,0.0522308 L -2.09715,0.0882721
 L -2.09715,0.560242 z
M -1.33162,0.560242 L -1.33162,-0.123291 L -1.33168,-0.146179 L -1.33185,-0.167648 L -1.33214,-0.187683 L -1.33253,-0.206284
 L -1.33304,-0.22348 L -1.33366,-0.239243 L -1.33505,-0.268311 L -1.33578,-0.282074 L -1.33655,-0.295303 L -1.33733,-0.308029
 L -1.33812,-0.320221 L -1.12006,-0.320221 L -1.11919,-0.313629 L -1.11824,-0.304169 L -1.1172,-0.29184 L -1.11606,-0.276642
 L -1.11484,-0.25856 L -1.11353,-0.237625 L -1.11229,-0.216415 L -1.11127,-0.197525 L -1.11049,-0.180969 L -1.10991,-0.166733
 L -1.10957,-0.154831 L -1.10947,-0.145264 L -1.10622,-0.145264 L -1.09009,-0.177353 L -1.07266,-0.206375 L -1.05392,-0.23233
 L -1.03387,-0.255203 L -1.01251,-0.275009 L -0.989853,-0.291733 L -0.965775,-0.305649 L -0.940216,-0.317047 L -0.913147,-0.325912
 L -0.884598,-0.332245 L -0.854553,-0.336044 L -0.823029,-0.337311 L -0.778183,-0.334915 L -0.736954,-0.327728 L -0.699341,-0.315735
 L -0.665344,-0.298965 L -0.634964,-0.277405 L -0.6082,-0.251053 L -0.585327,-0.220078 L -0.566605,-0.184692 L -0.552048,-0.144852
 L -0.541656,-0.100601 L -0.535416,-0.0519104 L -0.533325,0.00120544 L -0.533325,0.560242 L -0.761169,0.560242 L -0.761169,0.0662994
 L -0.765533,-0.00454712 L -0.778625,-0.0625305 L -0.800446,-0.107635 L -0.830978,-0.139847 L -0.870239,-0.159164 L -0.918228,-0.165604
 L -0.945007,-0.163635 L -0.970001,-0.1577 L -0.993195,-0.147812 L -1.01462,-0.133957 L -1.03424,-0.116165 L -1.05209,-0.0944061
 L -1.06763,-0.0695496 L -1.08035,-0.0424652 L -1.09024,-0.0131378 L -1.09731,0.0184174 L -1.10153,0.0522308 L -1.10295,0.0882721
 L -1.10295,0.560242 z
M -2.99722,0.57312 L -3.05846,0.562958 L -3.11476,0.546005 L -3.16614,0.522263 L -3.2126,0.491745 L -3.25412,0.454453
 L -3.28992,0.411224 L -3.31921,0.362946 L -3.34201,0.309601 L -3.35828,0.25119 L -3.36804,0.187729 L -3.37129,0.119202
 L -3.36804,0.0509186 L -3.35828,-0.0122986 L -3.34201,-0.0704956 L -3.31921,-0.123642 L -3.28992,-0.171768 L -3.25412,-0.214828
 L -3.21246,-0.252014 L -3.1656,-0.282425 L -3.11354,-0.306076 L -3.05629,-0.322968 L -2.99384,-0.333115 L -2.92618,-0.336487
 L -2.85713,-0.333221 L -2.79376,-0.323425 L -2.73607,-0.307098 L -2.68405,-0.284225 L -2.6377,-0.254837 L -2.59702,-0.218903
 L -2.56233,-0.176849 L -2.53395,-0.129074 L -2.51189,-0.075592 L -2.49611,-0.0163727 L -2.48665,0.0485382 L -2.48351,0.119202
 L -2.4868,0.187958 L -2.4967,0.251602 L -2.5132,0.31012 L -2.5363,0.363495 L -2.56601,0.411743 L -2.60231,0.454865
 L -2.64444,0.492035 L -2.69164,0.522446 L -2.7439,0.546097 L -2.80122,0.563004 L -2.8636,0.573135 L -2.93106,0.576508
 z
M -2.86909,0.411911 L -2.81641,0.386826 L -2.77542,0.345001 L -2.74615,0.286469 L -2.72859,0.211197 L -2.72273,0.119202
 L -2.72415,0.0692444 L -2.72844,0.0240784 L -2.73555,-0.0162811 L -2.74553,-0.0518646 L -2.75835,-0.0826569 L -2.77402,-0.108643
 L -2.79239,-0.13028 L -2.81334,-0.14798 L -2.83687,-0.161743 L -2.86298,-0.171585 L -2.89166,-0.177475 L -2.92291,-0.179443
 L -2.98657,-0.171158 L -3.03865,-0.146255 L -3.07916,-0.104782 L -3.10809,-0.0467072 L -3.12546,0.0279388 L -3.13124,0.119202
 L -3.12982,0.166336 L -3.1256,0.209564 L -3.11853,0.248886 L -3.10864,0.284286 L -3.09592,0.315796 L -3.08038,0.343384
 L -3.06218,0.366867 L -3.04146,0.386093 L -3.01823,0.401047 L -2.99249,0.411728 L -2.96425,0.418137 L -2.9335,0.420273
 z
M -0.0405579,0.573242 L -0.0990753,0.563446 L -0.152481,0.547119 L -0.20079,0.524246 L -0.243988,0.494858 L -0.282074,0.458923
 L -0.314651,0.416733 L -0.341309,0.368561 L -0.36203,0.314377 L -0.376831,0.254227 L -0.385712,0.188065 L -0.388672,0.115936
 L -0.385666,0.0460358 L -0.376648,-0.0182343 L -0.361618,-0.0769043 L -0.340576,-0.129974 L -0.313522,-0.177444 L -0.280457,-0.219315
 L -0.241867,-0.255112 L -0.198257,-0.284409 L -0.149643,-0.30719 L -0.0960083,-0.323471 L -0.0373383,-0.333237 L 0.0263214,-0.336487
 L 0.0870361,-0.332993 L 0.142776,-0.322525 L 0.193542,-0.305054 L 0.239349,-0.280609 L 0.280167,-0.249176 L 0.316025,-0.21077
 L 0.346603,-0.165619 L 0.371628,-0.113983 L 0.391083,-0.0558472 L 0.404984,0.00874329 L 0.41333,0.0798492 L 0.416107,0.15744
 L 0.416107,0.16394 L -0.148621,0.16394 L -0.147293,0.205048 L -0.143326,0.242661 L -0.136719,0.276749 L -0.127457,0.307358
 L -0.115555,0.334442 L -0.101013,0.358032 L -0.0840302,0.378036 L -0.0648041,0.394424 L -0.043335,0.40715 L -0.0196381,0.416245
 L 0.00628662,0.421707 L 0.0344696,0.423523 L 0.0723877,0.420609 L 0.105347,0.411865 L 0.133331,0.397278 L 0.156342,0.376877
 L 0.174377,0.350632 L 0.187439,0.318558 L 0.403091,0.337265 L 0.366531,0.41037 L 0.319275,0.470184 L 0.261292,0.516708
 L 0.192596,0.549927 L 0.11319,0.56987 L 0.023056,0.576508 z
M 0.191544,-0.0133209 L 0.186172,-0.0444031 L 0.178696,-0.0725403 L 0.169083,-0.097702 L 0.157349,-0.119919 L 0.143494,-0.13916
 L 0.127716,-0.155457 L 0.110229,-0.168777 L 0.0910187,-0.179138 L 0.0700836,-0.186539 L 0.0474243,-0.190979 L 0.023056,-0.192459
 L -0.00274658,-0.190903 L -0.0265198,-0.186234 L -0.0482178,-0.178421 L -0.0678711,-0.167511 L -0.0854797,-0.153473 L -0.101013,-0.136307
 L -0.11438,-0.116348 L -0.125473,-0.0939026 L -0.134277,-0.0689697 L -0.140793,-0.0415497 L -0.145035,-0.0116577 L -0.147003,0.0207214
 L 0.194778,0.0207214 z
M 0.870575,0.573196 L 0.811447,0.563263 L 0.75737,0.546707 L 0.708359,0.523529 L 0.664429,0.493729 L 0.625549,0.457306
 L 0.592224,0.414963 L 0.564957,0.367386 L 0.543762,0.31459 L 0.52861,0.256577 L 0.519531,0.193344 L 0.516495,0.124878
 L 0.519547,0.0548706 L 0.528702,-0.00976562 L 0.543961,-0.0690765 L 0.565323,-0.123016 L 0.592789,-0.1716 L 0.626343,-0.214828
 L 0.665527,-0.252014 L 0.709808,-0.282425 L 0.759201,-0.306076 L 0.81369,-0.322968 L 0.873306,-0.333115 L 0.938019,-0.336487
 L 0.988342,-0.33432 L 1.03568,-0.327805 L 1.08002,-0.316956 L 1.12138,-0.301773 L 1.15976,-0.282242 L 1.19516,-0.258377
 L 1.22696,-0.230682 L 1.25456,-0.199692 L 1.27795,-0.165405 L 1.29715,-0.127808 L 1.31213,-0.0869141 L 1.32292,-0.0427246
 L 1.09264,-0.0313416 L 1.08856,-0.0531006 L 1.08287,-0.0733337 L 1.07555,-0.0920715 L 1.0666,-0.109283 L 1.05602,-0.124985
 L 1.04381,-0.13916 L 1.02989,-0.151474 L 1.01416,-0.161545 L 0.996613,-0.169373 L 0.977264,-0.174973 L 0.9561,-0.178329
 L 0.933136,-0.179443 L 0.879181,-0.171234 L 0.835037,-0.146622 L 0.800705,-0.105591 L 0.776184,-0.0481567 L 0.761459,0.0256653
 L 0.756561,0.115936 L 0.761551,0.208923 L 0.776535,0.285004 L 0.801514,0.344193 L 0.836487,0.386459 L 0.881439,0.411819
 L 0.936386,0.420273 L 0.957504,0.419128 L 0.977448,0.41571 L 0.996201,0.410004 L 1.01379,0.402008 L 1.0302,0.391739
 L 1.04544,0.379181 L 1.05916,0.364365 L 1.07103,0.347305 L 1.08104,0.328018 L 1.0892,0.306488 L 1.0955,0.282715
 L 1.09996,0.256714 L 1.32944,0.267288 L 1.32425,0.29686 L 1.31683,0.325333 L 1.30716,0.352737 L 1.29526,0.379059
 L 1.28113,0.404282 L 1.26474,0.428421 L 1.24634,0.451126 L 1.22609,0.472046 L 1.20401,0.49118 L 1.18011,0.50853
 L 1.15437,0.524078 L 1.1268,0.537857 L 1.09773,0.549667 L 1.06749,0.559341 L 1.03607,0.566849 L 1.00348,0.57222
 L 0.969711,0.575439 L 0.934769,0.576508 z
" stroke="black" fill="lightgray" stroke-width="0.5"/>
</svg>
