<?xml version="1.0" standalone="no"?>
<!DOCTYPE svg PUBLIC "-//W3C//DTD SVG 1.1//EN" "http://www.w3.org/Graphics/SVG/1.1/DTD/svg11.dtd">
<svg width="6mm" height="8mm" viewBox="-3 -4 6 8" xmlns="http://www.w3.org/2000/svg" version="1.1">
<title>OpenSCAD Model</title>
<path d="
M 1.91411,3.24692 L 1.95224,3.23776 L 1.98849,3.22275 L 2.02194,3.20224 L 2.05177,3.17677 L 2.07724,3.14694
 L 2.09775,3.11349 L 2.11276,3.07724 L 2.12192,3.03911 L 2.125,3 L 2.125,-3 L 2.12192,-3.03911
 L 2.11276,-3.07724 L 2.09775,-3.11349 L 2.07724,-3.14694 L 2.05177,-3.17677 L 2.02194,-3.20224 L 1.98849,-3.22275
 L 1.95224,-3.23776 L 1.91411,-3.24692 L 1.875,-3.25 L -1.875,-3.25 L -1.91411,-3.24692 L -1.95224,-3.23776
 L -1.98849,-3.22275 L -2.02194,-3.20224 L -2.05177,-3.17677 L -2.07724,-3.14694 L -2.09775,-3.11349 L -2.11276,-3.07724
 L -2.12192,-3.03911 L -2.125,-3 L -2.125,3 L -2.12192,3.03911 L -2.11276,3.07724 L -2.09775,3.11349
 L -2.07724,3.14694 L -2.05177,3.17677 L -2.02194,3.20224 L -1.98849,3.22275 L -1.95224,3.23776 L -1.91411,3.24692
 L -1.875,3.25 L 1.875,3.25 z
M -1.31535,-1.9278 L -1.39789,-1.9407 L -1.47322,-1.96223 L -1.54137,-1.99239 L -1.60234,-2.03114 L -1.65611,-2.07851
 L -1.70212,-2.13377 L -1.73975,-2.19627 L -1.76903,-2.26598 L -1.78993,-2.34288 L -1.80247,-2.427 L -1.80666,-2.51833
 L -1.80244,-2.60904 L -1.78984,-2.69241 L -1.76881,-2.76845 L -1.73938,-2.83713 L -1.70155,-2.89845 L -1.6553,-2.95245
 L -1.60117,-2.99857 L -1.53966,-3.03632 L -1.47078,-3.06567 L -1.39453,-3.08664 L -1.31091,-3.09921 L -1.21994,-3.10341
 L -1.09357,-3.09511 L -0.983505,-3.07022 L -0.889755,-3.02875 L -0.812332,-2.97067 L -0.751236,-2.89601 L -0.706467,-2.80476
 L -0.927795,-2.73804 L -0.940872,-2.76588 L -0.956192,-2.79138 L -0.973785,-2.81451 L -0.993622,-2.83531 L -1.01573,-2.85376
 L -1.0401,-2.86986 L -1.06635,-2.88353 L -1.09409,-2.89471 L -1.12331,-2.90343 L -1.15402,-2.90964 L -1.18623,-2.91336
 L -1.21994,-2.91461 L -1.27409,-2.91176 L -1.32375,-2.90321 L -1.36885,-2.88898 L -1.40945,-2.86905 L -1.44553,-2.84341
 L -1.47708,-2.81209 L -1.50394,-2.77544 L -1.52591,-2.73387 L -1.543,-2.68738 L -1.55521,-2.63596 L -1.56252,-2.57961
 L -1.56496,-2.51833 L -1.56244,-2.45596 L -1.55489,-2.3985 L -1.54228,-2.34593 L -1.52464,-2.29826 L -1.50195,-2.25551
 L -1.47423,-2.21765 L -1.44194,-2.18521 L -1.40556,-2.15866 L -1.36508,-2.138 L -1.32053,-2.12326 L -1.27187,-2.11441
 L -1.21912,-2.11145 L -1.1881,-2.11221 L -1.15738,-2.11449 L -1.12697,-2.11827 L -1.09688,-2.12357 L -1.06711,-2.13039
 L -1.03766,-2.13872 L -1.00948,-2.14822 L -0.983505,-2.15857 L -0.959747,-2.16974 L -0.938202,-2.18176 L -0.918869,-2.19461
 L -0.901764,-2.2083 L -0.901764,-2.36699 L -1.1817,-2.36699 L -1.1817,-2.54436 L -0.682053,-2.54436 L -0.682053,-2.12285
 L -0.713959,-2.09279 L -0.748917,-2.06499 L -0.786926,-2.03944 L -0.827988,-2.01616 L -0.872101,-1.99513 L -0.919266,-1.97636
 L -0.968353,-1.96021 L -1.01822,-1.94699 L -1.06889,-1.93671 L -1.12035,-1.92937 L -1.17259,-1.92496 L -1.22565,-1.92349
 z
M 0.677872,-1.93976 L 0.677872,-3.08632 L 1.0929,-3.08632 L 1.18582,-3.08226 L 1.27147,-3.07008 L 1.34984,-3.0498
 L 1.42093,-3.02139 L 1.48473,-2.98488 L 1.54126,-2.94025 L 1.58975,-2.88805 L 1.62943,-2.82881 L 1.66028,-2.76254
 L 1.68231,-2.68925 L 1.69554,-2.60893 L 1.69995,-2.52158 L 1.69801,-2.46371 L 1.69221,-2.40834 L 1.68256,-2.35548
 L 1.66902,-2.30513 L 1.65163,-2.25729 L 1.63037,-2.21196 L 1.60558,-2.1696 L 1.57758,-2.13072 L 1.54636,-2.09529
 L 1.51193,-2.06331 L 1.47429,-2.03481 L 1.43344,-2.00974 L 1.38997,-1.98836 L 1.34444,-1.97086 L 1.29684,-1.95726
 L 1.24719,-1.94754 L 1.19548,-1.9417 L 1.14171,-1.93976 z
M 1.17114,-2.12825 L 1.21739,-2.13713 L 1.26012,-2.15193 L 1.29932,-2.17267 L 1.33499,-2.19931 L 1.36713,-2.23189
 L 1.39497,-2.26955 L 1.41777,-2.31146 L 1.43549,-2.35762 L 1.44815,-2.40802 L 1.45573,-2.46268 L 1.45827,-2.52158
 L 1.4556,-2.58072 L 1.4476,-2.63499 L 1.43427,-2.68442 L 1.41559,-2.72899 L 1.39159,-2.76869 L 1.36224,-2.80354
 L 1.32796,-2.83325 L 1.28909,-2.85756 L 1.24568,-2.87648 L 1.19769,-2.88998 L 1.14513,-2.89809 L 1.08801,-2.90079
 L 0.917938,-2.90079 L 0.917938,-2.12529 L 1.12137,-2.12529 z
M -0.497528,-1.93976 L -0.497528,-3.08632 L -0.223297,-3.08632 L 0.283676,-2.19609 L 0.279205,-2.23643 L 0.275543,-2.27557
 L 0.27269,-2.31348 L 0.27066,-2.35016 L 0.26944,-2.38562 L 0.269028,-2.41986 L 0.269028,-3.08632 L 0.482239,-3.08632
 L 0.482239,-1.93976 L 0.200668,-1.93976 L -0.298965,-2.82266 L -0.294495,-2.7812 L -0.290833,-2.74255 L -0.287979,-2.7067
 L -0.28595,-2.67366 L -0.284729,-2.6434 L -0.284317,-2.61597 L -0.284317,-1.93976 z
M -0.225723,-0.69014 L -0.225723,-1.8367 L 0.0485077,-1.8367 L 0.555481,-0.946472 L 0.55101,-0.986816 L 0.547348,-1.02594
 L 0.544495,-1.06384 L 0.542465,-1.10054 L 0.541245,-1.136 L 0.540833,-1.17024 L 0.540833,-1.8367 L 0.754044,-1.8367
 L 0.754044,-0.69014 L 0.472473,-0.69014 L -0.0271606,-1.57304 L -0.0226898,-1.53159 L -0.0190277,-1.49294 L -0.0161743,-1.45708
 L -0.0141449,-1.42403 L -0.0129242,-1.39378 L -0.0125122,-1.36635 L -0.0125122,-0.69014 z
M -0.677933,-0.69014 L -0.677933,-1.8367 L -0.437866,-1.8367 L -0.437866,-0.69014 z
M -1.43965,-0.69014 L -1.86362,-1.8367 L -1.61298,-1.8367 L -1.377,-1.10027 L -1.36922,-1.07436 L -1.36053,-1.04439
 L -1.35095,-1.01035 L -1.34047,-0.972229 L -1.32907,-0.930054 L -1.31677,-0.883804 L -1.2997,-0.953781 L -1.25818,-1.10027
 L -1.02301,-1.8367 L -0.774811,-1.8367 L -1.19633,-0.69014 z
M -1.3909,0.574341 L -1.45647,0.567841 L -1.51675,0.556992 L -1.57175,0.541794 L -1.62146,0.522263 L -1.66588,0.498398
 L -1.70515,0.470123 L -1.73947,0.437363 L -1.76881,0.400131 L -1.79318,0.358429 L -1.81258,0.312256 L -1.827,0.261597
 L -1.59508,0.223358 L -1.58597,0.25235 L -1.57437,0.278549 L -1.56029,0.301987 L -1.54372,0.322632 L -1.52467,0.3405
 L -1.50313,0.355591 L -1.47887,0.368149 L -1.45168,0.378418 L -1.42154,0.386414 L -1.38847,0.39212 L -1.35246,0.395538
 L -1.31352,0.396683 L -1.23668,0.392426 L -1.17383,0.379684 L -1.12492,0.358429 L -1.09001,0.32869 L -1.06905,0.290436
 L -1.06207,0.243698 L -1.06287,0.22789 L -1.06528,0.213043 L -1.06929,0.199142 L -1.07491,0.186188 L -1.08214,0.174194
 L -1.09096,0.163132 L -1.10124,0.152847 L -1.11284,0.143158 L -1.12575,0.134048 L -1.13997,0.125519 L -1.1555,0.117584
 L -1.17233,0.110245 L -1.1925,0.102936 L -1.21805,0.0951385 L -1.24893,0.0868378 L -1.28517,0.0780487 L -1.32677,0.0687561
 L -1.37373,0.05896 L -1.41443,0.0492554 L -1.45078,0.0402069 L -1.48279,0.0318146 L -1.51045,0.0240631 L -1.53378,0.016983
 L -1.55276,0.0105591 L -1.56932,0.00427246 L -1.58533,-0.00234985 L -1.60078,-0.0093689 L -1.61569,-0.0167389 L -1.63008,-0.0244598
 L -1.64391,-0.032547 L -1.65714,-0.0411072 L -1.66968,-0.0502319 L -1.68155,-0.0599213 L -1.69273,-0.0701752 L -1.70325,-0.0809937
 L -1.71307,-0.0923767 L -1.72221,-0.10437 L -1.73067,-0.117065 L -1.7384,-0.130417 L -1.74544,-0.144455 L -1.75179,-0.159164
 L -1.75742,-0.174561 L -1.76227,-0.190674 L -1.76624,-0.207565 L -1.76932,-0.22522 L -1.77151,-0.243637 L -1.77284,-0.262833
 L -1.77328,-0.282791 L -1.77003,-0.332581 L -1.76031,-0.378311 L -1.74409,-0.420013 L -1.72139,-0.457657 L -1.69218,-0.491257
 L -1.65651,-0.520813 L -1.61464,-0.546051 L -1.56686,-0.566696 L -1.5132,-0.582764 L -1.45363,-0.594223 L -1.38815,-0.601105
 L -1.31677,-0.603409 L -1.24866,-0.601547 L -1.18645,-0.595993 L -1.13013,-0.586731 L -1.07971,-0.573746 L -1.03519,-0.557068
 L -0.996567,-0.536667 L -0.963013,-0.512009 L -0.933685,-0.482513 L -0.908585,-0.448181 L -0.887695,-0.409012 L -0.871048,-0.365005
 L -0.858627,-0.316147 L -1.09137,-0.284409 L -1.09836,-0.308075 L -1.10742,-0.329712 L -1.11853,-0.349304 L -1.1317,-0.366867
 L -1.14691,-0.382401 L -1.1642,-0.395889 L -1.18382,-0.407333 L -1.2061,-0.416687 L -1.23102,-0.423965 L -1.25859,-0.429169
 L -1.2888,-0.432297 L -1.32166,-0.433334 L -1.38829,-0.429535 L -1.44281,-0.418137 L -1.48521,-0.399155 L -1.5155,-0.372574
 L -1.53368,-0.338394 L -1.53973,-0.296631 L -1.53909,-0.282166 L -1.53717,-0.2686 L -1.53395,-0.255936 L -1.52943,-0.244171
 L -1.52364,-0.233322 L -1.51656,-0.223373 L -1.50821,-0.214127 L -1.49861,-0.205338 L -1.48776,-0.197037 L -1.47569,-0.189209
 L -1.46236,-0.181839 L -1.4478,-0.174957 L -1.43001,-0.16803 L -1.40701,-0.160538 L -1.37883,-0.152481 L -1.34544,-0.14386
 L -1.30685,-0.134674 L -1.26306,-0.124924 L -1.21062,-0.113403 L -1.16339,-0.102173 L -1.12137,-0.0912476 L -1.08459,-0.0806122
 L -1.05302,-0.0702667 L -1.02667,-0.0602264 L -1.00377,-0.0500488 L -0.982513,-0.0393372 L -0.962906,-0.0280914 L -0.944946,-0.0162811
 L -0.928635,-0.00393677 L -0.913971,0.00892639 L -0.900681,0.0225067 L -0.888474,0.0369568 L -0.87735,0.0522614 L -0.86731,0.0684204
 L -0.858368,0.0854492 L -0.850494,0.103333 L -0.843781,0.122101 L -0.838287,0.1418 L -0.834015,0.16243 L -0.830963,0.183975
 L -0.829132,0.206451 L -0.828522,0.229858 L -0.832001,0.283798 L -0.842407,0.333344 L -0.859756,0.378464 L -0.884048,0.419189
 L -0.915268,0.455505 L -0.953445,0.487411 L -0.998322,0.514633 L -1.0497,0.536911 L -1.10754,0.554245 L -1.17189,0.56662
 L -1.24272,0.574036 L -1.32004,0.576508 z
M -0.677933,0.560242 L -0.677933,-0.586319 L -0.262909,-0.586319 L -0.169983,-0.58226 L -0.0843353,-0.570084 L -0.00596619,-0.549805
 L 0.0651245,-0.521393 L 0.128937,-0.484879 L 0.185455,-0.440247 L 0.233948,-0.388046 L 0.273621,-0.328812 L 0.304474,-0.262543
 L 0.326523,-0.189255 L 0.339737,-0.108932 L 0.344147,-0.0215759 L 0.342224,0.0362854 L 0.336426,0.0916595 L 0.326752,0.144516
 L 0.313232,0.19487 L 0.295837,0.242706 L 0.274567,0.28804 L 0.249771,0.330399 L 0.221771,0.369278 L 0.190552,0.404709
 L 0.156128,0.436691 L 0.118484,0.465195 L 0.0776367,0.490265 L 0.0341644,0.511642 L -0.0113678,0.529144 L -0.05896,0.54274
 L -0.108612,0.55246 L -0.160324,0.558304 L -0.214096,0.560242 z
M -0.184647,0.37175 L -0.138397,0.362869 L -0.0956726,0.348068 L -0.056488,0.327332 L -0.020813,0.30069 L 0.0113373,0.268112
 L 0.0391846,0.230453 L 0.0619659,0.188538 L 0.0796814,0.14238 L 0.0923462,0.09198 L 0.0999451,0.037323 L 0.102463,-0.0215759
 L 0.0998077,-0.080719 L 0.0917969,-0.134995 L 0.0784607,-0.184418 L 0.0597992,-0.228989 L 0.0357819,-0.268692 L 0.00643921,-0.303543
 L -0.0278473,-0.333252 L -0.0666962,-0.357559 L -0.110123,-0.37648 L -0.158112,-0.389984 L -0.210663,-0.398087 L -0.267792,-0.400787
 L -0.437866,-0.400787 L -0.437866,0.37471 L -0.234436,0.37471 z
M 0.42749,0.560242 L 0.845764,-0.586319 L 1.12895,-0.586319 L 1.54559,0.560242 L 1.30798,0.560242 L 1.20625,0.267288
 L 0.769272,0.267288 L 0.667557,0.560242 z
M 1.03943,-0.24292 L 1.00446,-0.353577 L 0.98735,-0.409744 L 0.982483,-0.39183 L 0.979675,-0.381836 L 0.973526,-0.360504
 L 0.970169,-0.349152 L 0.962952,-0.325104 L 0.955887,-0.303268 L 0.942337,-0.262711 L 0.922256,-0.203445 L 0.895676,-0.125458
 L 0.862579,-0.0287628 L 0.822983,0.0866394 L 1.15254,0.0866394 z
M -0.231201,1.82216 L -0.312958,1.80911 L -0.387711,1.78735 L -0.455505,1.7569 L -0.516296,1.71773 L -0.570099,1.66986
 L -0.616226,1.61418 L -0.653961,1.55156 L -0.683319,1.48199 L -0.704285,1.40549 L -0.716858,1.32205 L -0.721054,1.23167
 L -0.71701,1.14119 L -0.704865,1.05798 L -0.684647,0.982056 L -0.656311,0.913406 L -0.619904,0.852036 L -0.575394,0.797943
 L -0.523209,0.751709 L -0.46373,0.713867 L -0.396973,0.684433 L -0.322952,0.663406 L -0.241638,0.650803 L -0.153061,0.646591
 L -0.0878601,0.648849 L -0.0268402,0.655594 L 0.0300446,0.66684 L 0.0827484,0.682587 L 0.131302,0.70282 L 0.17569,0.72757
 L 0.215912,0.756668 L 0.251923,0.789993 L 0.283722,0.82756 L 0.311325,0.869339 L 0.334717,0.915344 L 0.353912,0.965591
 L 0.142334,1.02336 L 0.131943,0.99559 L 0.118698,0.969788 L 0.10257,0.945953 L 0.0835724,0.924088 L 0.0617065,0.904175
 L 0.0369568,0.886246 L 0.0100098,0.870712 L -0.0185089,0.857986 L -0.048584,0.848099 L -0.0802155,0.841034 L -0.113419,0.836807
 L -0.148178,0.835388 L -0.200241,0.838196 L -0.24794,0.846603 L -0.29129,0.860611 L -0.330276,0.880234 L -0.364883,0.905472
 L -0.395142,0.936295 L -0.420883,0.972534 L -0.44194,1.01396 L -0.458313,1.06059 L -0.470001,1.11243 L -0.47702,1.16945
 L -0.479355,1.23167 L -0.476959,1.29498 L -0.469727,1.35309 L -0.457703,1.40601 L -0.440842,1.45374 L -0.419174,1.49625
 L -0.3927,1.53357 L -0.361679,1.5654 L -0.326385,1.59143 L -0.286804,1.61169 L -0.242966,1.62616 L -0.194855,1.63484
 L -0.142471,1.63773 L -0.0737305,1.63167 L -0.0123596,1.61349 L 0.0416412,1.58321 L 0.0882721,1.5408 L 0.127533,1.48628
 L 0.159424,1.41965 L 0.368561,1.49858 L 0.344299,1.55156 L 0.316528,1.59981 L 0.285248,1.64333 L 0.250473,1.68213
 L 0.212204,1.7162 L 0.17041,1.74554 L 0.125443,1.77029 L 0.0776062,1.79053 L 0.026886,1.80627 L -0.0267029,1.81752
 L -0.0831451,1.82426 L -0.142471,1.82651 z
M -1.3909,1.82434 L -1.45647,1.81784 L -1.51675,1.80699 L -1.57175,1.79179 L -1.62146,1.77226 L -1.66588,1.7484
 L -1.70515,1.72012 L -1.73947,1.68736 L -1.76881,1.65013 L -1.79318,1.60843 L -1.81258,1.56226 L -1.827,1.5116
 L -1.59508,1.47336 L -1.58597,1.50235 L -1.57437,1.52855 L -1.56029,1.55199 L -1.54372,1.57263 L -1.52467,1.5905
 L -1.50313,1.60559 L -1.47887,1.61815 L -1.45168,1.62842 L -1.42154,1.63641 L -1.38847,1.64212 L -1.35246,1.64554
 L -1.31352,1.64668 L -1.23668,1.64243 L -1.17383,1.62968 L -1.12492,1.60843 L -1.09001,1.57869 L -1.06905,1.54044
 L -1.06207,1.4937 L -1.06287,1.47789 L -1.06528,1.46304 L -1.06929,1.44914 L -1.07491,1.43619 L -1.08214,1.42419
 L -1.09096,1.41313 L -1.10124,1.40285 L -1.11284,1.39316 L -1.12575,1.38405 L -1.13997,1.37552 L -1.1555,1.36758
 L -1.17233,1.36024 L -1.1925,1.35294 L -1.21805,1.34514 L -1.24893,1.33684 L -1.28517,1.32805 L -1.32677,1.31876
 L -1.37373,1.30896 L -1.41443,1.29926 L -1.45078,1.29021 L -1.48279,1.28181 L -1.51045,1.27406 L -1.53378,1.26698
 L -1.55276,1.26056 L -1.56932,1.25427 L -1.58533,1.24765 L -1.60078,1.24063 L -1.61569,1.23326 L -1.63008,1.22554
 L -1.64391,1.21745 L -1.65714,1.20889 L -1.66968,1.19977 L -1.68155,1.19008 L -1.69273,1.17982 L -1.70325,1.16901
 L -1.71307,1.15762 L -1.72221,1.14563 L -1.73067,1.13293 L -1.7384,1.11958 L -1.74544,1.10555 L -1.75179,1.09084
 L -1.75742,1.07544 L -1.76227,1.05933 L -1.76624,1.04243 L -1.76932,1.02478 L -1.77151,1.00636 L -1.77284,0.987167
 L -1.77328,0.967209 L -1.77003,0.917419 L -1.76031,0.871689 L -1.74409,0.829987 L -1.72139,0.792343 L -1.69218,0.758743
 L -1.65651,0.729187 L -1.61464,0.703949 L -1.56686,0.683304 L -1.5132,0.667236 L -1.45363,0.655777 L -1.38815,0.648895
 L -1.31677,0.646591 L -1.24866,0.648453 L -1.18645,0.654007 L -1.13013,0.663269 L -1.07971,0.676254 L -1.03519,0.692932
 L -0.996567,0.713333 L -0.963013,0.737991 L -0.933685,0.767487 L -0.908585,0.801819 L -0.887695,0.840988 L -0.871048,0.884995
 L -0.858627,0.933853 L -1.09137,0.965591 L -1.09836,0.941925 L -1.10742,0.920288 L -1.11853,0.900696 L -1.1317,0.883133
 L -1.14691,0.867599 L -1.1642,0.854111 L -1.18382,0.842667 L -1.2061,0.833313 L -1.23102,0.826035 L -1.25859,0.820831
 L -1.2888,0.817703 L -1.32166,0.816666 L -1.38829,0.820465 L -1.44281,0.831863 L -1.48521,0.850845 L -1.5155,0.877426
 L -1.53368,0.911606 L -1.53973,0.953369 L -1.53909,0.967834 L -1.53717,0.9814 L -1.53395,0.994064 L -1.52943,1.00583
 L -1.52364,1.01668 L -1.51656,1.02663 L -1.50821,1.03587 L -1.49861,1.04466 L -1.48776,1.05296 L -1.47569,1.06079
 L -1.46236,1.06816 L -1.4478,1.07504 L -1.43001,1.08197 L -1.40701,1.08946 L -1.37883,1.09752 L -1.34544,1.10614
 L -1.30685,1.11533 L -1.26306,1.12508 L -1.21062,1.1366 L -1.16339,1.14783 L -1.12137,1.15875 L -1.08459,1.16939
 L -1.05302,1.17973 L -1.02667,1.18977 L -1.00377,1.19995 L -0.982513,1.21066 L -0.962906,1.22191 L -0.944946,1.23372
 L -0.928635,1.24606 L -0.913971,1.25893 L -0.900681,1.27251 L -0.888474,1.28696 L -0.87735,1.30226 L -0.86731,1.31842
 L -0.858368,1.33545 L -0.850494,1.35333 L -0.843781,1.3721 L -0.838287,1.3918 L -0.834015,1.41243 L -0.830963,1.43398
 L -0.829132,1.45645 L -0.828522,1.47986 L -0.832001,1.5338 L -0.842407,1.58334 L -0.859756,1.62846 L -0.884048,1.66919
 L -0.915268,1.70551 L -0.953445,1.73741 L -0.998322,1.76463 L -1.0497,1.78691 L -1.10754,1.80424 L -1.17189,1.81662
 L -1.24272,1.82404 L -1.32004,1.82651 z
M 0.497482,1.81024 L 0.497482,0.663681 L 0.737534,0.663681 L 0.737534,1.62471 L 1.35272,1.62471 L 1.35272,1.81024
 z
M 0.141571,3.05986 L 0.141571,2.09883 L -0.228683,2.09883 L -0.228683,1.9133 L 0.752701,1.9133 L 0.752701,2.09883
 L 0.381622,2.09883 L 0.381622,3.05986 z
M -1.31133,3.05986 L -1.31133,1.9133 L -1.03709,1.9133 L -0.530121,2.80353 L -0.534592,2.76318 L -0.538254,2.72406
 L -0.541107,2.68616 L -0.543137,2.64946 L -0.544357,2.614 L -0.544769,2.57976 L -0.544769,1.9133 L -0.331558,1.9133
 L -0.331558,3.05986 L -0.613129,3.05986 L -1.11276,2.17696 L -1.10829,2.21841 L -1.10463,2.25706 L -1.10178,2.29292
 L -1.09975,2.32597 L -1.09853,2.35622 L -1.09811,2.38365 L -1.09811,3.05986 z
M -1.76353,3.05986 L -1.76353,1.9133 L -1.52347,1.9133 L -1.52347,3.05986 z
" stroke="black" fill="lightgray" stroke-width="0.5"/>
</svg>
