<?xml version="1.0" standalone="no"?>
<!DOCTYPE svg PUBLIC "-//W3C//DTD SVG 1.1//EN" "http://www.w3.org/Graphics/SVG/1.1/DTD/svg11.dtd">
<svg width="6mm" height="6mm" viewBox="-3 -3 6 6" xmlns="http://www.w3.org/2000/svg" version="1.1">
<title>OpenSCAD Model</title>
<path d="
M 1.91411,2.24692 L 1.95224,2.23776 L 1.98849,2.22275 L 2.02194,2.20224 L 2.05177,2.17677 L 2.07724,2.14694
 L 2.09775,2.11349 L 2.11276,2.07724 L 2.12192,2.03911 L 2.125,2 L 2.125,-2 L 2.12192,-2.03911
 L 2.11276,-2.07724 L 2.09775,-2.11349 L 2.07724,-2.14694 L 2.05177,-2.17677 L 2.02194,-2.20224 L 1.98849,-2.22275
 L 1.95224,-2.23776 L 1.91411,-2.24692 L 1.875,-2.25 L -1.875,-2.25 L -1.91411,-2.24692 L -1.95224,-2.23776
 L -1.98849,-2.22275 L -2.02194,-2.20224 L -2.05177,-2.17677 L -2.07724,-2.14694 L -2.09775,-2.11349 L -2.11276,-2.07724
 L -2.12192,-2.03911 L -2.125,-2 L -2.125,2 L -2.12192,2.03911 L -2.11276,2.07724 L -2.09775,2.11349
 L -2.07724,2.14694 L -2.05177,2.17677 L -2.02194,2.20224 L -1.98849,2.22275 L -1.95224,2.23776 L -1.91411,2.24692
 L -1.875,2.25 L 1.875,2.25 z
M -1.31535,-0.697784 L -1.39789,-0.710693 L -1.47322,-0.732224 L -1.54137,-0.762375 L -1.60234,-0.801132 L -1.65611,-0.848495
 L -1.70212,-0.903763 L -1.73975,-0.966263 L -1.76903,-1.03596 L -1.78993,-1.11287 L -1.80247,-1.19699 L -1.80666,-1.28831
 L -1.80244,-1.37903 L -1.78984,-1.4624 L -1.76881,-1.53844 L -1.73938,-1.60712 L -1.70155,-1.66844 L -1.6553,-1.72244
 L -1.60117,-1.76855 L -1.53966,-1.8063 L -1.47078,-1.83566 L -1.39453,-1.85663 L -1.31091,-1.8692 L -1.21994,-1.8734
 L -1.09357,-1.8651 L -0.983505,-1.84021 L -0.889755,-1.79874 L -0.812332,-1.74066 L -0.751236,-1.666 L -0.706467,-1.57475
 L -0.927795,-1.50803 L -0.940872,-1.53587 L -0.956192,-1.56137 L -0.973785,-1.5845 L -0.993622,-1.6053 L -1.01573,-1.62375
 L -1.0401,-1.63985 L -1.06635,-1.65352 L -1.09409,-1.6647 L -1.12331,-1.67342 L -1.15402,-1.67963 L -1.18623,-1.68335
 L -1.21994,-1.6846 L -1.27409,-1.68175 L -1.32375,-1.6732 L -1.36885,-1.65897 L -1.40945,-1.63904 L -1.44553,-1.6134
 L -1.47708,-1.58208 L -1.50394,-1.54543 L -1.52591,-1.50386 L -1.543,-1.45737 L -1.55521,-1.40594 L -1.56252,-1.34959
 L -1.56496,-1.28831 L -1.56244,-1.22595 L -1.55489,-1.16849 L -1.54228,-1.11592 L -1.52464,-1.06825 L -1.50195,-1.0255
 L -1.47423,-0.98764 L -1.44194,-0.9552 L -1.40556,-0.92865 L -1.36508,-0.90799 L -1.32053,-0.89325 L -1.27187,-0.884399
 L -1.21912,-0.881439 L -1.1881,-0.882202 L -1.15738,-0.884476 L -1.12697,-0.88826 L -1.09688,-0.893555 L -1.06711,-0.900375
 L -1.03766,-0.908707 L -1.00948,-0.918213 L -0.983505,-0.928558 L -0.959747,-0.939728 L -0.938202,-0.951752 L -0.918869,-0.9646
 L -0.901764,-0.978287 L -0.901764,-1.13698 L -1.1817,-1.13698 L -1.1817,-1.31435 L -0.682053,-1.31435 L -0.682053,-0.892838
 L -0.713959,-0.862778 L -0.748917,-0.834976 L -0.786926,-0.809433 L -0.827988,-0.786148 L -0.872101,-0.765121 L -0.919266,-0.746353
 L -0.968353,-0.730194 L -1.01822,-0.71698 L -1.06889,-0.706696 L -1.12035,-0.699356 L -1.17259,-0.694946 L -1.22565,-0.693481
 z
M -0.497528,-0.709747 L -0.497528,-1.85631 L -0.223297,-1.85631 L 0.283676,-0.96608 L 0.279205,-1.00642 L 0.275543,-1.04556
 L 0.27269,-1.08347 L 0.27066,-1.12015 L 0.26944,-1.15561 L 0.269028,-1.18985 L 0.269028,-1.85631 L 0.482239,-1.85631
 L 0.482239,-0.709747 L 0.200668,-0.709747 L -0.298965,-1.59265 L -0.294495,-1.55119 L -0.290833,-1.51254 L -0.287979,-1.47668
 L -0.28595,-1.44365 L -0.284729,-1.41339 L -0.284317,-1.38596 L -0.284317,-0.709747 z
M 0.677872,-0.709747 L 0.677872,-1.85631 L 1.0929,-1.85631 L 1.18582,-1.85225 L 1.27147,-1.84007 L 1.34984,-1.81979
 L 1.42093,-1.79138 L 1.48473,-1.75487 L 1.54126,-1.71024 L 1.58975,-1.65804 L 1.62943,-1.5988 L 1.66028,-1.53253
 L 1.68231,-1.45924 L 1.69554,-1.37892 L 1.69995,-1.29156 L 1.69801,-1.2337 L 1.69221,-1.17833 L 1.68256,-1.12547
 L 1.66902,-1.07512 L 1.65163,-1.02728 L 1.63037,-0.981949 L 1.60558,-0.93959 L 1.57758,-0.900711 L 1.54636,-0.86528
 L 1.51193,-0.833298 L 1.47429,-0.804794 L 1.43344,-0.779724 L 1.38997,-0.758347 L 1.34444,-0.740845 L 1.29684,-0.727249
 L 1.24719,-0.717529 L 1.19548,-0.711685 L 1.14171,-0.709747 z
M 1.17114,-0.898239 L 1.21739,-0.90712 L 1.26012,-0.921921 L 1.29932,-0.942657 L 1.33499,-0.969299 L 1.36713,-1.00188
 L 1.39497,-1.03954 L 1.41777,-1.08145 L 1.43549,-1.12761 L 1.44815,-1.17801 L 1.45573,-1.23267 L 1.45827,-1.29156
 L 1.4556,-1.35071 L 1.4476,-1.40498 L 1.43427,-1.45441 L 1.41559,-1.49898 L 1.39159,-1.53868 L 1.36224,-1.57353
 L 1.32796,-1.60324 L 1.28909,-1.62755 L 1.24568,-1.64647 L 1.19769,-1.65997 L 1.14513,-1.66808 L 1.08801,-1.67078
 L 0.917938,-1.67078 L 0.917938,-0.895279 L 1.12137,-0.895279 z
M -1.43965,1.82985 L -1.86362,0.683289 L -1.61298,0.683289 L -1.377,1.41972 L -1.36922,1.44563 L -1.36053,1.4756
 L -1.35095,1.50964 L -1.34047,1.54776 L -1.32907,1.58994 L -1.31677,1.63618 L -1.2997,1.56621 L -1.25818,1.41972
 L -1.02301,0.683289 L -0.774811,0.683289 L -1.19633,1.82985 z
M -0.677933,1.82985 L -0.677933,0.683289 L -0.437866,0.683289 L -0.437866,1.82985 z
M -0.225723,1.82985 L -0.225723,0.683289 L 0.0485077,0.683289 L 0.555481,1.57352 L 0.55101,1.53317 L 0.547348,1.49405
 L 0.544495,1.45615 L 0.542465,1.41945 L 0.541245,1.38399 L 0.540833,1.34975 L 0.540833,0.683289 L 0.754044,0.683289
 L 0.754044,1.82985 L 0.472473,1.82985 L -0.0271606,0.946945 L -0.0226898,0.988403 L -0.0190277,1.02705 L -0.0161743,1.06291
 L -0.0141449,1.09596 L -0.0129242,1.12621 L -0.0125122,1.15364 L -0.0125122,1.82985 z
" stroke="black" fill="lightgray" stroke-width="0.5"/>
</svg>
