<?xml version="1.0" standalone="no"?>
<!DOCTYPE svg PUBLIC "-//W3C//DTD SVG 1.1//EN" "http://www.w3.org/Graphics/SVG/1.1/DTD/svg11.dtd">
<svg width="6mm" height="4mm" viewBox="-3 -2 6 4" xmlns="http://www.w3.org/2000/svg" version="1.1">
<title>OpenSCAD Model</title>
<path d="
M 2.53911,1.12192 L 2.57724,1.11276 L 2.61349,1.09775 L 2.64694,1.07724 L 2.67677,1.05177 L 2.70224,1.02194
 L 2.72275,0.988495 L 2.73776,0.95224 L 2.74692,0.914108 L 2.75,0.875 L 2.75,-0.875 L 2.74692,-0.914108
 L 2.73776,-0.95224 L 2.72275,-0.988495 L 2.70224,-1.02194 L 2.67677,-1.05177 L 2.64694,-1.07724 L 2.61349,-1.09775
 L 2.57724,-1.11276 L 2.53911,-1.12192 L 2.5,-1.125 L -2.5,-1.125 L -2.53911,-1.12192 L -2.57724,-1.11276
 L -2.61349,-1.09775 L -2.64694,-1.07724 L -2.67677,-1.05177 L -2.70224,-1.02194 L -2.72275,-0.988495 L -2.73776,-0.95224
 L -2.74692,-0.914108 L -2.75,-0.875 L -2.75,0.875 L -2.74692,0.914108 L -2.73776,0.95224 L -2.72275,0.988495
 L -2.70224,1.02194 L -2.67677,1.05177 L -2.64694,1.07724 L -2.61349,1.09775 L -2.57724,1.11276 L -2.53911,1.12192
 L -2.5,1.125 L 2.5,1.125 z
M -2.0601,0.55162 L -2.0601,-0.59494 L -1.48723,-0.59494 L -1.42146,-0.592484 L -1.36092,-0.585129 L -1.30556,-0.572876
 L -1.25539,-0.555695 L -1.21043,-0.53363 L -1.17067,-0.506653 L -1.13661,-0.475082 L -1.10873,-0.43924 L -1.08705,-0.399139
 L -1.07156,-0.354752 L -1.06229,-0.306107 L -1.05919,-0.253174 L -1.06108,-0.213943 L -1.06677,-0.176544 L -1.07628,-0.140976
 L -1.08957,-0.107224 L -1.10666,-0.0753174 L -1.12755,-0.0452423 L -1.15166,-0.017746 L -1.17845,0.00640869 L -1.2079,0.0272522
 L -1.24002,0.0447845 L -1.27481,0.0589905 L -1.31226,0.06987 L -1.00221,0.55162 L -1.27238,0.55162 L -1.53848,0.116257
 L -1.82004,0.116257 L -1.82004,0.55162 z
M -1.47365,-0.0713348 L -1.44409,-0.0751343 L -1.41724,-0.0814667 L -1.3931,-0.090332 L -1.37167,-0.101715 L -1.35295,-0.115646
 L -1.33704,-0.131851 L -1.32402,-0.150085 L -1.31389,-0.170364 L -1.30666,-0.192673 L -1.30232,-0.217026 L -1.30087,-0.243408
 L -1.30675,-0.293884 L -1.32439,-0.335175 L -1.35376,-0.367294 L -1.39491,-0.390244 L -1.4478,-0.404007 L -1.51245,-0.4086
 L -1.82004,-0.4086 L -1.82004,-0.0700684 L -1.50594,-0.0700684 z
M 1.37137,0.55162 L 1.37137,0.381546 L 1.65536,0.381546 L 1.65536,-0.400467 L 1.38033,-0.228745 L 1.38033,-0.4086
 L 1.66757,-0.59494 L 1.88403,-0.59494 L 1.88403,0.381546 L 2.14687,0.381546 L 2.14687,0.55162 z
M -0.582947,0.564621 L -0.641479,0.554825 L -0.694885,0.538498 L -0.743195,0.515625 L -0.786392,0.486237 L -0.824478,0.450302
 L -0.857056,0.408112 L -0.883698,0.359924 L -0.904434,0.305756 L -0.919235,0.24559 L -0.928116,0.179443 L -0.931076,0.1073
 L -0.92807,0.0374146 L -0.919052,-0.0268555 L -0.904022,-0.0855255 L -0.88298,-0.138611 L -0.855927,-0.186066 L -0.822845,-0.227936
 L -0.784271,-0.263733 L -0.740662,-0.29303 L -0.692047,-0.315826 L -0.638397,-0.332092 L -0.579742,-0.341858 L -0.516068,-0.345108
 L -0.455353,-0.341629 L -0.399612,-0.331146 L -0.348846,-0.31369 L -0.30304,-0.289246 L -0.262222,-0.257812 L -0.226364,-0.219391
 L -0.195786,-0.17424 L -0.170761,-0.122604 L -0.151306,-0.0644684 L -0.13739,0.00012207 L -0.129059,0.071228 L -0.126282,0.148819
 L -0.126282,0.155319 L -0.691025,0.155319 L -0.689697,0.196426 L -0.68573,0.234024 L -0.679123,0.268127 L -0.669861,0.298721
 L -0.657959,0.325821 L -0.643417,0.349411 L -0.626434,0.369415 L -0.607208,0.385788 L -0.585739,0.398529 L -0.562042,0.407623
 L -0.536102,0.413086 L -0.507919,0.414902 L -0.470001,0.411987 L -0.437042,0.403244 L -0.409058,0.388657 L -0.386047,0.368256
 L -0.368011,0.34201 L -0.35495,0.309937 L -0.139297,0.328644 L -0.175842,0.401749 L -0.223114,0.461563 L -0.281097,0.508072
 L -0.349792,0.541306 L -0.429199,0.561249 L -0.519318,0.567886 z
M -0.350845,-0.0219421 L -0.356216,-0.0530243 L -0.363693,-0.0811615 L -0.373306,-0.106323 L -0.38504,-0.12854 L -0.398895,-0.147781
 L -0.414673,-0.164078 L -0.432159,-0.177399 L -0.45137,-0.187759 L -0.472305,-0.195175 L -0.494949,-0.199615 L -0.519318,-0.201096
 L -0.545151,-0.199524 L -0.568909,-0.194855 L -0.590622,-0.187057 L -0.610275,-0.176132 L -0.627869,-0.162094 L -0.643417,-0.144928
 L -0.656784,-0.124969 L -0.667877,-0.102524 L -0.676682,-0.0775909 L -0.683197,-0.0501862 L -0.687439,-0.0202789 L -0.689407,0.0121002
 L -0.34761,0.0121002 z
M 0.230423,0.55162 L -0.0844727,-0.328842 L 0.157196,-0.328842 L 0.310989,0.163452 L 0.315979,0.180405 L 0.32283,0.204147
 L 0.331543,0.234665 L 0.354507,0.31604 L 0.368759,0.366898 L 0.371948,0.35437 L 0.376083,0.33905 L 0.38118,0.320923
 L 0.387207,0.299988 L 0.394196,0.27626 L 0.40213,0.249725 L 0.414337,0.210373 L 0.434143,0.148178 L 0.461533,0.0631714
 L 0.496521,-0.0446625 L 0.539108,-0.175339 L 0.589294,-0.328842 L 0.828537,-0.328842 L 0.503845,0.55162 z
" stroke="black" fill="lightgray" stroke-width="0.5"/>
</svg>
