<?xml version="1.0" standalone="no"?>
<!DOCTYPE svg PUBLIC "-//W3C//DTD SVG 1.1//EN" "http://www.w3.org/Graphics/SVG/1.1/DTD/svg11.dtd">
<svg width="4mm" height="4mm" viewBox="-2 -2 4 4" xmlns="http://www.w3.org/2000/svg" version="1.1">
<title>OpenSCAD Model</title>
<path d="
M 1.78911,1.12192 L 1.82724,1.11276 L 1.86349,1.09775 L 1.89694,1.07724 L 1.92677,1.05177 L 1.95224,1.02194
 L 1.97275,0.988495 L 1.98776,0.95224 L 1.99692,0.914108 L 2,0.875 L 2,-0.875 L 1.99692,-0.914108
 L 1.98776,-0.95224 L 1.97275,-0.988495 L 1.95224,-1.02194 L 1.92677,-1.05177 L 1.89694,-1.07724 L 1.86349,-1.09775
 L 1.82724,-1.11276 L 1.78911,-1.12192 L 1.75,-1.125 L -1.75,-1.125 L -1.78911,-1.12192 L -1.82724,-1.11276
 L -1.86349,-1.09775 L -1.89694,-1.07724 L -1.92677,-1.05177 L -1.95224,-1.02194 L -1.97275,-0.988495 L -1.98776,-0.95224
 L -1.99692,-0.914108 L -2,-0.875 L -2,0.875 L -1.99692,0.914108 L -1.98776,0.95224 L -1.97275,0.988495
 L -1.95224,1.02194 L -1.92677,1.05177 L -1.89694,1.07724 L -1.86349,1.09775 L -1.82724,1.11276 L -1.78911,1.12192
 L -1.75,1.125 L 1.75,1.125 z
M 0.0319061,0.574341 L -0.0336609,0.567841 L -0.0939484,0.556992 L -0.148941,0.541794 L -0.198639,0.522263 L -0.243057,0.498398
 L -0.282349,0.470123 L -0.316666,0.437363 L -0.345993,0.400131 L -0.370361,0.358429 L -0.389755,0.312256 L -0.40419,0.261597
 L -0.172256,0.223358 L -0.163147,0.25235 L -0.151566,0.278549 L -0.137482,0.301987 L -0.120911,0.322632 L -0.101852,0.3405
 L -0.0803223,0.355591 L -0.0560608,0.368149 L -0.0288696,0.378418 L 0.00125122,0.386414 L 0.0343323,0.39212 L 0.0703278,0.395538
 L 0.109283,0.396683 L 0.186111,0.392426 L 0.248978,0.379684 L 0.297867,0.358429 L 0.332794,0.32869 L 0.353745,0.290436
 L 0.360733,0.243698 L 0.359924,0.22789 L 0.357513,0.213043 L 0.3535,0.199142 L 0.347885,0.186188 L 0.340668,0.174194
 L 0.331833,0.163132 L 0.321548,0.152847 L 0.309952,0.143158 L 0.297043,0.134048 L 0.282837,0.125519 L 0.267303,0.117584
 L 0.250458,0.110245 L 0.230286,0.102936 L 0.204758,0.0951385 L 0.173874,0.0868378 L 0.137619,0.0780487 L 0.0960236,0.0687561
 L 0.0490723,0.05896 L 0.00837708,0.0492554 L -0.0279541,0.0402069 L -0.059967,0.0318146 L -0.0876465,0.0240631 L -0.110962,0.016983
 L -0.129959,0.0105591 L -0.1465,0.00427246 L -0.162506,-0.00234985 L -0.177963,-0.0093689 L -0.192886,-0.0167389 L -0.20726,-0.0244598
 L -0.2211,-0.032547 L -0.234314,-0.0411072 L -0.246872,-0.0502319 L -0.258728,-0.0599213 L -0.269928,-0.0701752 L -0.280426,-0.0809937
 L -0.290268,-0.0923767 L -0.299408,-0.10437 L -0.307846,-0.117065 L -0.315598,-0.130417 L -0.322632,-0.144455 L -0.328964,-0.159164
 L -0.33461,-0.174561 L -0.339462,-0.190674 L -0.343414,-0.207565 L -0.346512,-0.22522 L -0.348709,-0.243637 L -0.350037,-0.262833
 L -0.350464,-0.282791 L -0.347229,-0.332581 L -0.337494,-0.378311 L -0.321274,-0.420013 L -0.298569,-0.457657 L -0.269379,-0.491257
 L -0.233704,-0.520813 L -0.191818,-0.546051 L -0.144058,-0.566696 L -0.0903778,-0.582764 L -0.0308075,-0.594223 L 0.0346527,-0.601105
 L 0.106018,-0.603409 L 0.174133,-0.601547 L 0.236359,-0.595993 L 0.292679,-0.586731 L 0.343094,-0.573746 L 0.387604,-0.557068
 L 0.426224,-0.536667 L 0.459778,-0.512009 L 0.48912,-0.482513 L 0.514221,-0.448181 L 0.535095,-0.409012 L 0.551743,-0.365005
 L 0.564163,-0.316147 L 0.331421,-0.284409 L 0.324432,-0.308075 L 0.315384,-0.329712 L 0.304276,-0.349304 L 0.291107,-0.366867
 L 0.275879,-0.382401 L 0.258591,-0.395889 L 0.238968,-0.407333 L 0.21669,-0.416687 L 0.191772,-0.423965 L 0.164215,-0.429169
 L 0.134003,-0.432297 L 0.101151,-0.433334 L 0.0345001,-0.429535 L -0.0200043,-0.418137 L -0.0624084,-0.399155 L -0.0926971,-0.372574
 L -0.11087,-0.338394 L -0.116928,-0.296631 L -0.116287,-0.282166 L -0.114349,-0.2686 L -0.11113,-0.255936 L -0.106628,-0.244171
 L -0.10083,-0.233322 L -0.09375,-0.223373 L -0.0853882,-0.214127 L -0.0757904,-0.205338 L -0.0649567,-0.197037 L -0.0528717,-0.189209
 L -0.0395508,-0.181839 L -0.0249786,-0.174957 L -0.00718689,-0.16803 L 0.0157776,-0.160538 L 0.0439758,-0.152481 L 0.0773621,-0.14386
 L 0.115952,-0.134674 L 0.159729,-0.124924 L 0.212189,-0.113403 L 0.259415,-0.102173 L 0.301422,-0.0912476 L 0.338211,-0.0806122
 L 0.369781,-0.0702667 L 0.396118,-0.0602264 L 0.419022,-0.0500488 L 0.440292,-0.0393372 L 0.4599,-0.0280914 L 0.477859,-0.0162811
 L 0.494171,-0.00393677 L 0.50882,0.00892639 L 0.52211,0.0225067 L 0.534317,0.0369568 L 0.545441,0.0522614 L 0.555481,0.0684204
 L 0.564438,0.0854492 L 0.572296,0.103333 L 0.57901,0.122101 L 0.584503,0.1418 L 0.588776,0.16243 L 0.591827,0.183975
 L 0.593658,0.206451 L 0.594269,0.229858 L 0.590805,0.283798 L 0.580399,0.333344 L 0.563049,0.378464 L 0.538757,0.419189
 L 0.507523,0.455505 L 0.46936,0.487411 L 0.424469,0.514633 L 0.373108,0.536911 L 0.315247,0.554245 L 0.250916,0.56662
 L 0.180084,0.574036 L 0.102768,0.576508 z
M -1.51611,0.560242 L -1.51611,-0.586319 L -0.943237,-0.586319 L -0.877487,-0.583862 L -0.816925,-0.576508 L -0.761566,-0.56424
 L -0.711411,-0.547073 L -0.666443,-0.525009 L -0.626694,-0.498016 L -0.592621,-0.466461 L -0.564743,-0.430618 L -0.543076,-0.390518
 L -0.527588,-0.34613 L -0.518295,-0.29747 L -0.515198,-0.244553 L -0.51709,-0.205307 L -0.522797,-0.167908 L -0.532288,-0.132339
 L -0.545578,-0.0986023 L -0.562668,-0.0666962 L -0.583557,-0.0366211 L -0.607681,-0.00912476 L -0.63446,0.0150299 L -0.66391,0.0358887
 L -0.69603,0.0534058 L -0.73082,0.0676117 L -0.76828,0.0785065 L -0.458237,0.560242 L -0.728409,0.560242 L -0.994507,0.124878
 L -1.27606,0.124878 L -1.27606,0.560242 z
M -0.929672,-0.0627136 L -0.900101,-0.0665131 L -0.87326,-0.0728455 L -0.849121,-0.0816956 L -0.827682,-0.0930939 L -0.808975,-0.10701
 L -0.79306,-0.12323 L -0.780029,-0.141464 L -0.769913,-0.161743 L -0.76268,-0.184052 L -0.758331,-0.208405 L -0.756897,-0.234772
 L -0.762772,-0.285248 L -0.780396,-0.326553 L -0.809784,-0.358673 L -0.850922,-0.381622 L -0.903809,-0.395386 L -0.96846,-0.399963
 L -1.27606,-0.399963 L -1.27606,-0.0614471 L -0.961945,-0.0614471 z
M 1.02235,0.560242 L 1.02235,-0.400787 L 0.652115,-0.400787 L 0.652115,-0.586319 L 1.6335,-0.586319 L 1.6335,-0.400787
 L 1.26242,-0.400787 L 1.26242,0.560242 z
" stroke="black" fill="lightgray" stroke-width="0.5"/>
</svg>
