<?xml version="1.0" standalone="no"?>
<!DOCTYPE svg PUBLIC "-//W3C//DTD SVG 1.1//EN" "http://www.w3.org/Graphics/SVG/1.1/DTD/svg11.dtd">
<svg width="12mm" height="4mm" viewBox="-6 -2 12 4" xmlns="http://www.w3.org/2000/svg" version="1.1">
<title>OpenSCAD Model</title>
<path d="
M 5.78911,1.12192 L 5.82724,1.11276 L 5.86349,1.09775 L 5.89694,1.07724 L 5.92677,1.05177 L 5.95224,1.02194
 L 5.97275,0.988495 L 5.98776,0.95224 L 5.99692,0.914108 L 6,0.875 L 6,-0.875 L 5.99692,-0.914108
 L 5.98776,-0.95224 L 5.97275,-0.988495 L 5.95224,-1.02194 L 5.92677,-1.05177 L 5.89694,-1.07724 L 5.86349,-1.09775
 L 5.82724,-1.11276 L 5.78911,-1.12192 L 5.75,-1.125 L -5.75,-1.125 L -5.78911,-1.12192 L -5.82724,-1.11276
 L -5.86349,-1.09775 L -5.89694,-1.07724 L -5.92677,-1.05177 L -5.95224,-1.02194 L -5.97275,-0.988495 L -5.98776,-0.95224
 L -5.99692,-0.914108 L -6,-0.875 L -6,0.875 L -5.99692,0.914108 L -5.98776,0.95224 L -5.97275,0.988495
 L -5.95224,1.02194 L -5.92677,1.05177 L -5.89694,1.07724 L -5.86349,1.09775 L -5.82724,1.11276 L -5.78911,1.12192
 L -5.75,1.125 L 5.75,1.125 z
M -0.345795,0.572159 L -0.427536,0.559113 L -0.502304,0.537354 L -0.570084,0.506897 L -0.63089,0.467728 L -0.684692,0.419861
 L -0.73082,0.364182 L -0.768555,0.301559 L -0.797913,0.231995 L -0.818863,0.155487 L -0.831451,0.072052 L -0.835648,-0.0183258
 L -0.831589,-0.10881 L -0.819458,-0.192017 L -0.799225,-0.267944 L -0.770905,-0.336594 L -0.734497,-0.397964 L -0.689987,-0.452057
 L -0.637787,-0.498291 L -0.578323,-0.536133 L -0.511566,-0.565567 L -0.437546,-0.586594 L -0.356232,-0.599197 L -0.267639,-0.603409
 L -0.202454,-0.601151 L -0.141418,-0.594406 L -0.084549,-0.58316 L -0.0318451,-0.567413 L 0.0166931,-0.54718 L 0.0610962,-0.52243
 L 0.101303,-0.493332 L 0.137314,-0.460007 L 0.169113,-0.42244 L 0.196716,-0.380661 L 0.220123,-0.334656 L 0.239319,-0.284409
 L 0.0277252,-0.226639 L 0.0173492,-0.25441 L 0.00408936,-0.280212 L -0.0120239,-0.304047 L -0.0310211,-0.325912 L -0.052887,-0.345825
 L -0.0776215,-0.363754 L -0.104584,-0.379288 L -0.133102,-0.392014 L -0.163177,-0.401901 L -0.194809,-0.408966 L -0.228012,-0.413193
 L -0.262756,-0.414612 L -0.314835,-0.411804 L -0.362534,-0.403397 L -0.405884,-0.389389 L -0.444855,-0.369766 L -0.479477,-0.344528
 L -0.509735,-0.313705 L -0.535461,-0.277466 L -0.556519,-0.236038 L -0.572891,-0.189407 L -0.584595,-0.137573 L -0.591614,-0.0805511
 L -0.593948,-0.0183258 L -0.591537,0.0449829 L -0.58432,0.103088 L -0.572281,0.156006 L -0.555435,0.203735 L -0.533768,0.246246
 L -0.507294,0.283569 L -0.476257,0.315399 L -0.440964,0.341431 L -0.401398,0.361694 L -0.357559,0.37616 L -0.309448,0.384842
 L -0.257065,0.387726 L -0.188324,0.381668 L -0.126953,0.363495 L -0.0729523,0.333206 L -0.0263214,0.290802 L 0.0129242,0.236282
 L 0.0448151,0.169647 L 0.253952,0.248581 L 0.229691,0.301559 L 0.20192,0.349808 L 0.170654,0.393326 L 0.13588,0.432129
 L 0.0975952,0.466202 L 0.0558167,0.495544 L 0.0108337,0.520294 L -0.0369873,0.540527 L -0.0877075,0.556274 L -0.141281,0.56752
 L -0.197739,0.574265 L -0.257065,0.576508 z
M -5.12228,0.574341 L -5.18787,0.567841 L -5.24815,0.556992 L -5.30315,0.541794 L -5.35284,0.522263 L -5.39726,0.498398
 L -5.43655,0.470123 L -5.47086,0.437363 L -5.5002,0.400131 L -5.52457,0.358429 L -5.54396,0.312256 L -5.5584,0.261597
 L -5.32646,0.223358 L -5.31735,0.25235 L -5.30576,0.278549 L -5.29169,0.301987 L -5.27512,0.322632 L -5.25606,0.3405
 L -5.23453,0.355591 L -5.21027,0.368149 L -5.18307,0.378418 L -5.15294,0.386414 L -5.11986,0.39212 L -5.08386,0.395538
 L -5.04491,0.396683 L -4.96808,0.392426 L -4.90521,0.379684 L -4.85632,0.358429 L -4.8214,0.32869 L -4.80045,0.290436
 L -4.79346,0.243698 L -4.79427,0.22789 L -4.79668,0.213043 L -4.80069,0.199142 L -4.8063,0.186188 L -4.81352,0.174194
 L -4.82236,0.163132 L -4.83264,0.152847 L -4.84424,0.143158 L -4.85715,0.134048 L -4.87135,0.125519 L -4.88689,0.117584
 L -4.90373,0.110245 L -4.9239,0.102936 L -4.94943,0.0951385 L -4.98032,0.0868378 L -5.01657,0.0780487 L -5.05817,0.0687561
 L -5.10512,0.05896 L -5.14581,0.0492554 L -5.18216,0.0402069 L -5.21417,0.0318146 L -5.24185,0.0240631 L -5.26517,0.016983
 L -5.28416,0.0105591 L -5.3007,0.00427246 L -5.31671,-0.00234985 L -5.33217,-0.0093689 L -5.34709,-0.0167389 L -5.36147,-0.0244598
 L -5.37531,-0.032547 L -5.38852,-0.0411072 L -5.40108,-0.0502319 L -5.41293,-0.0599213 L -5.42413,-0.0701752 L -5.43463,-0.0809937
 L -5.44447,-0.0923767 L -5.45361,-0.10437 L -5.46205,-0.117065 L -5.4698,-0.130417 L -5.47684,-0.144455 L -5.48317,-0.159164
 L -5.48882,-0.174561 L -5.49365,-0.190674 L -5.49762,-0.207565 L -5.50072,-0.22522 L -5.50291,-0.243637 L -5.50424,-0.262833
 L -5.50467,-0.282791 L -5.50143,-0.332581 L -5.4917,-0.378311 L -5.47548,-0.420013 L -5.45277,-0.457657 L -5.42358,-0.491257
 L -5.38791,-0.520813 L -5.34602,-0.546051 L -5.29826,-0.566696 L -5.24458,-0.582764 L -5.18501,-0.594223 L -5.11954,-0.601105
 L -5.04817,-0.603409 L -4.98006,-0.601547 L -4.91783,-0.595993 L -4.86151,-0.586731 L -4.8111,-0.573746 L -4.76659,-0.557068
 L -4.72797,-0.536667 L -4.69441,-0.512009 L -4.66507,-0.482513 L -4.63997,-0.448181 L -4.61909,-0.409012 L -4.60245,-0.365005
 L -4.59003,-0.316147 L -4.82277,-0.284409 L -4.82976,-0.308075 L -4.83881,-0.329712 L -4.84991,-0.349304 L -4.86308,-0.366867
 L -4.87831,-0.382401 L -4.8956,-0.395889 L -4.91522,-0.407333 L -4.9375,-0.416687 L -4.96242,-0.423965 L -4.98997,-0.429169
 L -5.02019,-0.432297 L -5.05304,-0.433334 L -5.11969,-0.429535 L -5.17421,-0.418137 L -5.21661,-0.399155 L -5.2469,-0.372574
 L -5.26508,-0.338394 L -5.27113,-0.296631 L -5.27049,-0.282166 L -5.26855,-0.2686 L -5.26534,-0.255936 L -5.26083,-0.244171
 L -5.25504,-0.233322 L -5.24796,-0.223373 L -5.23959,-0.214127 L -5.23,-0.205338 L -5.21916,-0.197037 L -5.20708,-0.189209
 L -5.19376,-0.181839 L -5.17918,-0.174957 L -5.16139,-0.16803 L -5.13841,-0.160538 L -5.11021,-0.152481 L -5.07683,-0.14386
 L -5.03824,-0.134674 L -4.99446,-0.124924 L -4.942,-0.113403 L -4.89478,-0.102173 L -4.85277,-0.0912476 L -4.81598,-0.0806122
 L -4.78441,-0.0702667 L -4.75807,-0.0602264 L -4.73517,-0.0500488 L -4.7139,-0.0393372 L -4.69429,-0.0280914 L -4.67633,-0.0162811
 L -4.66002,-0.00393677 L -4.64537,0.00892639 L -4.63208,0.0225067 L -4.61987,0.0369568 L -4.60875,0.0522614 L -4.59871,0.0684204
 L -4.58975,0.0854492 L -4.58189,0.103333 L -4.57518,0.122101 L -4.56969,0.1418 L -4.56541,0.16243 L -4.56236,0.183975
 L -4.56053,0.206451 L -4.55992,0.229858 L -4.56339,0.283798 L -4.57379,0.333344 L -4.59114,0.378464 L -4.61543,0.419189
 L -4.64667,0.455505 L -4.68483,0.487411 L -4.72972,0.514633 L -4.78108,0.536911 L -4.83894,0.554245 L -4.90327,0.56662
 L -4.97411,0.574036 L -5.05142,0.576508 z
M -4.21136,0.573364 L -4.24113,0.568787 L -4.26833,0.561157 L -4.29295,0.550491 L -4.31499,0.536758 L -4.33446,0.519974
 L -4.3511,0.500092 L -4.36473,0.477066 L -4.37534,0.450897 L -4.3829,0.421585 L -4.38745,0.389145 L -4.38896,0.353561
 L -4.38896,-0.165604 L -4.50046,-0.165604 L -4.50046,-0.320221 L -4.37758,-0.320221 L -4.30597,-0.526917 L -4.16275,-0.526917
 L -4.16275,-0.320221 L -3.99593,-0.320221 L -3.99593,-0.165604 L -4.16275,-0.165604 L -4.16275,0.291702 L -4.16206,0.312195
 L -4.16003,0.330811 L -4.15665,0.347549 L -4.1519,0.362411 L -4.1458,0.375397 L -4.13834,0.386505 L -4.12946,0.395828
 L -4.11908,0.403458 L -4.10721,0.409393 L -4.09386,0.413635 L -4.07901,0.416168 L -4.06267,0.417023 L -4.05309,0.416702
 L -4.04222,0.415756 L -4.03011,0.414169 L -4.01672,0.411957 L -4.00208,0.409119 L -3.98616,0.40564 L -3.98616,0.547226
 L -4.01503,0.555679 L -4.04521,0.562592 L -4.07669,0.567978 L -4.1095,0.571823 L -4.1436,0.574127 L -4.17903,0.57489
 z
M 5.37383,0.573364 L 5.34406,0.568787 L 5.31686,0.561157 L 5.29225,0.550491 L 5.2702,0.536758 L 5.25075,0.519974
 L 5.23409,0.500092 L 5.22046,0.477066 L 5.20985,0.450897 L 5.20229,0.421585 L 5.19774,0.389145 L 5.19623,0.353561
 L 5.19623,-0.165604 L 5.08473,-0.165604 L 5.08473,-0.320221 L 5.20761,-0.320221 L 5.27924,-0.526917 L 5.42245,-0.526917
 L 5.42245,-0.320221 L 5.58926,-0.320221 L 5.58926,-0.165604 L 5.42245,-0.165604 L 5.42245,0.291702 L 5.42313,0.312195
 L 5.42517,0.330811 L 5.42856,0.347549 L 5.4333,0.362411 L 5.43941,0.375397 L 5.44685,0.386505 L 5.45575,0.395828
 L 5.46611,0.403458 L 5.47798,0.409393 L 5.49135,0.413635 L 5.5062,0.416168 L 5.52254,0.417023 L 5.53212,0.416702
 L 5.54297,0.415756 L 5.55508,0.414169 L 5.56847,0.411957 L 5.58311,0.409119 L 5.59903,0.40564 L 5.59903,0.547226
 L 5.57016,0.555679 L 5.53999,0.562592 L 5.5085,0.567978 L 5.47569,0.571823 L 5.44159,0.574127 L 5.40617,0.57489
 z
M -2.13078,0.573364 L -2.16054,0.568787 L -2.18774,0.561157 L -2.21236,0.550491 L -2.23439,0.536758 L -2.25386,0.519974
 L -2.27051,0.500092 L -2.28415,0.477066 L -2.29474,0.450897 L -2.30232,0.421585 L -2.30685,0.389145 L -2.30838,0.353561
 L -2.30838,-0.165604 L -2.41986,-0.165604 L -2.41986,-0.320221 L -2.29698,-0.320221 L -2.22537,-0.526917 L -2.08215,-0.526917
 L -2.08215,-0.320221 L -1.91534,-0.320221 L -1.91534,-0.165604 L -2.08215,-0.165604 L -2.08215,0.291702 L -2.08147,0.312195
 L -2.07944,0.330811 L -2.07605,0.347549 L -2.0713,0.362411 L -2.0652,0.375397 L -2.05774,0.386505 L -2.04886,0.395828
 L -2.03848,0.403458 L -2.02663,0.409393 L -2.01326,0.413635 L -1.99841,0.416168 L -1.98207,0.417023 L -1.97249,0.416702
 L -1.96164,0.415756 L -1.94951,0.414169 L -1.93613,0.411957 L -1.92148,0.409119 L -1.90556,0.40564 L -1.90556,0.547226
 L -1.93443,0.555679 L -1.96461,0.562592 L -1.99611,0.567978 L -2.0289,0.571823 L -2.06302,0.574127 L -2.09843,0.57489
 z
M 2.37617,0.560242 L 2.37617,-0.123291 L 2.37611,-0.146179 L 2.37595,-0.167648 L 2.37566,-0.187683 L 2.37526,-0.206284
 L 2.37476,-0.22348 L 2.37413,-0.239243 L 2.37344,-0.254044 L 2.37199,-0.282074 L 2.37125,-0.295303 L 2.37047,-0.308029
 L 2.36966,-0.320221 L 2.58774,-0.320221 L 2.58861,-0.313629 L 2.58955,-0.304169 L 2.59059,-0.29184 L 2.59172,-0.276642
 L 2.59294,-0.25856 L 2.59425,-0.237625 L 2.5955,-0.216415 L 2.59651,-0.197525 L 2.59731,-0.180969 L 2.59787,-0.166733
 L 2.59822,-0.154831 L 2.59833,-0.145264 L 2.60158,-0.145264 L 2.61769,-0.177353 L 2.63513,-0.206375 L 2.65387,-0.23233
 L 2.67392,-0.255203 L 2.69527,-0.275009 L 2.71794,-0.291733 L 2.74202,-0.305649 L 2.76758,-0.317047 L 2.79465,-0.325912
 L 2.8232,-0.332245 L 2.85323,-0.336044 L 2.88477,-0.337311 L 2.92961,-0.334915 L 2.97084,-0.327728 L 3.00845,-0.315735
 L 3.04245,-0.298965 L 3.07283,-0.277405 L 3.09959,-0.251053 L 3.12247,-0.220078 L 3.14119,-0.184692 L 3.15575,-0.144852
 L 3.16614,-0.100601 L 3.17238,-0.0519104 L 3.17445,0.00120544 L 3.17445,0.560242 L 2.94661,0.560242 L 2.94661,0.0662994
 L 2.94225,-0.00454712 L 2.92917,-0.0625305 L 2.90735,-0.107635 L 2.87682,-0.139847 L 2.83755,-0.159164 L 2.78957,-0.165604
 L 2.76279,-0.163635 L 2.73779,-0.1577 L 2.71458,-0.147812 L 2.69318,-0.133957 L 2.67354,-0.116165 L 2.6557,-0.0944061
 L 2.64015,-0.0695496 L 2.62744,-0.0424652 L 2.61755,-0.0131378 L 2.61049,0.0184174 L 2.60626,0.0522308 L 2.60484,0.0882721
 L 2.60484,0.560242 z
M -3.86243,0.560242 L -3.86243,-0.113525 L -3.86249,-0.137009 L -3.86266,-0.159149 L -3.86295,-0.179947 L -3.86334,-0.199417
 L -3.86385,-0.21756 L -3.86447,-0.234375 L -3.86516,-0.250198 L -3.86588,-0.265427 L -3.86661,-0.280045 L -3.86736,-0.294052
 L -3.86813,-0.307434 L -3.86894,-0.320221 L -3.65086,-0.320221 L -3.64999,-0.313675 L -3.64905,-0.303818 L -3.64801,-0.290619
 L -3.64688,-0.274109 L -3.64566,-0.254272 L -3.64435,-0.231125 L -3.6431,-0.207687 L -3.64209,-0.187042 L -3.6413,-0.169174
 L -3.64073,-0.154083 L -3.64038,-0.141769 L -3.64027,-0.132233 L -3.63702,-0.132233 L -3.6261,-0.161636 L -3.61559,-0.187988
 L -3.60548,-0.211273 L -3.59578,-0.231522 L -3.5865,-0.248703 L -3.57761,-0.262848 L -3.56866,-0.274918 L -3.55917,-0.285904
 L -3.54913,-0.295807 L -3.53856,-0.304626 L -3.52744,-0.312347 L -3.51578,-0.319 L -3.50334,-0.324585 L -3.48991,-0.329163
 L -3.47549,-0.332733 L -3.46007,-0.335266 L -3.44366,-0.336792 L -3.42625,-0.337311 L -3.41208,-0.33696 L -3.39886,-0.335953
 L -3.38658,-0.334259 L -3.37526,-0.331879 L -3.36488,-0.328827 L -3.35547,-0.325104 L -3.35547,-0.133865 L -3.37355,-0.137604
 L -3.39091,-0.140656 L -3.40755,-0.143021 L -3.42346,-0.144714 L -3.43864,-0.145737 L -3.45311,-0.146072 L -3.48055,-0.14415
 L -3.50587,-0.138382 L -3.5291,-0.128784 L -3.55022,-0.115326 L -3.56923,-0.0980377 L -3.58615,-0.0769043 L -3.60071,-0.052002
 L -3.61259,-0.0233765 L -3.62186,0.00892639 L -3.62846,0.0449677 L -3.63243,0.0847015 L -3.63376,0.128143 L -3.63376,0.560242
 z
M 1.38196,0.560242 L 1.38196,-0.123291 L 1.38191,-0.146179 L 1.38174,-0.167648 L 1.38145,-0.187683 L 1.38106,-0.206284
 L 1.38055,-0.22348 L 1.37993,-0.239243 L 1.37924,-0.254044 L 1.37779,-0.282074 L 1.37704,-0.295303 L 1.37627,-0.308029
 L 1.37546,-0.320221 L 1.59354,-0.320221 L 1.59439,-0.313629 L 1.59535,-0.304169 L 1.59639,-0.29184 L 1.59752,-0.276642
 L 1.59874,-0.25856 L 1.60005,-0.237625 L 1.60129,-0.216415 L 1.60231,-0.197525 L 1.6031,-0.180969 L 1.60367,-0.166733
 L 1.604,-0.154831 L 1.60413,-0.145264 L 1.60738,-0.145264 L 1.62349,-0.177353 L 1.64091,-0.206375 L 1.65965,-0.23233
 L 1.6797,-0.255203 L 1.70107,-0.275009 L 1.72374,-0.291733 L 1.7478,-0.305649 L 1.77338,-0.317047 L 1.80043,-0.325912
 L 1.82898,-0.332245 L 1.85902,-0.336044 L 1.89056,-0.337311 L 1.93541,-0.334915 L 1.97664,-0.327728 L 2.01425,-0.315735
 L 2.04825,-0.298965 L 2.07863,-0.277405 L 2.10538,-0.251053 L 2.12827,-0.220078 L 2.14697,-0.184692 L 2.16153,-0.144852
 L 2.17194,-0.100601 L 2.17818,-0.0519104 L 2.18025,0.00120544 L 2.18025,0.560242 L 1.95241,0.560242 L 1.95241,0.0662994
 L 1.94804,-0.00454712 L 1.93495,-0.0625305 L 1.91315,-0.107635 L 1.8826,-0.139847 L 1.84334,-0.159164 L 1.79535,-0.165604
 L 1.76857,-0.163635 L 1.74359,-0.1577 L 1.72038,-0.147812 L 1.69897,-0.133957 L 1.67934,-0.116165 L 1.6615,-0.0944061
 L 1.64595,-0.0695496 L 1.63324,-0.0424652 L 1.62335,-0.0131378 L 1.61629,0.0184174 L 1.61205,0.0522308 L 1.61064,0.0882721
 L 1.61064,0.560242 z
M 0.710571,0.57312 L 0.649338,0.562958 L 0.593033,0.546005 L 0.541641,0.522263 L 0.495193,0.491745 L 0.453674,0.454453
 L 0.417862,0.411224 L 0.38858,0.362946 L 0.365784,0.309601 L 0.349518,0.25119 L 0.339752,0.187729 L 0.336487,0.119202
 L 0.339752,0.0509186 L 0.349518,-0.0122986 L 0.365784,-0.0704956 L 0.38858,-0.123642 L 0.417862,-0.171768 L 0.453674,-0.214828
 L 0.495331,-0.252014 L 0.542191,-0.282425 L 0.594254,-0.306076 L 0.651505,-0.322968 L 0.713959,-0.333115 L 0.781616,-0.336487
 L 0.850662,-0.333221 L 0.914032,-0.323425 L 0.971725,-0.307098 L 1.02374,-0.284225 L 1.0701,-0.254837 L 1.11076,-0.218903
 L 1.14546,-0.176849 L 1.17383,-0.129074 L 1.19591,-0.075592 L 1.21167,-0.0163727 L 1.22113,0.0485382 L 1.22429,0.119202
 L 1.22099,0.187958 L 1.21109,0.251602 L 1.19458,0.31012 L 1.17148,0.363495 L 1.14178,0.411743 L 1.10548,0.454865
 L 1.06334,0.492035 L 1.01614,0.522446 L 0.963898,0.546097 L 0.90657,0.563004 L 0.844193,0.573135 L 0.776733,0.576508
 z
M 0.838684,0.411911 L 0.891388,0.386826 L 0.932358,0.345001 L 0.961639,0.286469 L 0.979202,0.211197 L 0.985062,0.119202
 L 0.983627,0.0692444 L 0.979355,0.0240784 L 0.972244,-0.0162811 L 0.962265,-0.0518646 L 0.949448,-0.0826569 L 0.933777,-0.108643
 L 0.915405,-0.13028 L 0.894455,-0.14798 L 0.870926,-0.161743 L 0.844818,-0.171585 L 0.816132,-0.177475 L 0.784866,-0.179443
 L 0.721222,-0.171158 L 0.669144,-0.146255 L 0.628632,-0.104782 L 0.599701,-0.0467072 L 0.582336,0.0279388 L 0.576553,0.119202
 L 0.577972,0.166336 L 0.582199,0.209564 L 0.589264,0.248886 L 0.599152,0.284286 L 0.611862,0.315796 L 0.627411,0.343384
 L 0.645615,0.366867 L 0.666336,0.386093 L 0.68956,0.401047 L 0.715286,0.411728 L 0.74353,0.418137 L 0.774292,0.420273
 z
M 3.66724,0.573242 L 3.60872,0.563446 L 3.5553,0.547119 L 3.507,0.524246 L 3.46381,0.494858 L 3.4257,0.458923
 L 3.39314,0.416733 L 3.36649,0.368561 L 3.34576,0.314377 L 3.33096,0.254227 L 3.32207,0.188065 L 3.31911,0.115936
 L 3.32211,0.0460358 L 3.33115,-0.0182343 L 3.34618,-0.0769043 L 3.36722,-0.129974 L 3.39427,-0.177444 L 3.42734,-0.219315
 L 3.46593,-0.255112 L 3.50954,-0.284409 L 3.55815,-0.30719 L 3.61179,-0.323471 L 3.67044,-0.333237 L 3.73412,-0.336487
 L 3.79485,-0.332993 L 3.85059,-0.322525 L 3.90135,-0.305054 L 3.94716,-0.280609 L 3.98798,-0.249176 L 4.02382,-0.21077
 L 4.05441,-0.165619 L 4.07944,-0.113983 L 4.09889,-0.0558472 L 4.11279,0.00874329 L 4.12114,0.0798492 L 4.12392,0.15744
 L 4.12392,0.16394 L 3.55917,0.16394 L 3.5605,0.205048 L 3.56447,0.242661 L 3.57108,0.276749 L 3.58034,0.307358
 L 3.59224,0.334442 L 3.60678,0.358032 L 3.62376,0.378036 L 3.64299,0.394424 L 3.66446,0.40715 L 3.68816,0.416245
 L 3.7141,0.421707 L 3.74226,0.423523 L 3.7802,0.420609 L 3.81316,0.411865 L 3.84114,0.397278 L 3.86415,0.376877
 L 3.88219,0.350632 L 3.89525,0.318558 L 4.1109,0.337265 L 4.07434,0.41037 L 4.02708,0.470184 L 3.9691,0.516708
 L 3.90041,0.549927 L 3.821,0.56987 L 3.73087,0.576508 z
M 3.89934,-0.0133209 L 3.89398,-0.0444031 L 3.88651,-0.0725403 L 3.87689,-0.097702 L 3.86516,-0.119919 L 3.8513,-0.13916
 L 3.83553,-0.155457 L 3.81804,-0.168777 L 3.79881,-0.179138 L 3.77789,-0.186539 L 3.75523,-0.190979 L 3.73087,-0.192459
 L 3.70505,-0.190903 L 3.68127,-0.186234 L 3.65958,-0.178421 L 3.63991,-0.167511 L 3.62231,-0.153473 L 3.60678,-0.136307
 L 3.59341,-0.116348 L 3.58232,-0.0939026 L 3.57352,-0.0689697 L 3.56699,-0.0415497 L 3.56274,-0.0116577 L 3.56079,0.0207214
 L 3.90257,0.0207214 z
M -1.45901,0.57312 L -1.52026,0.562958 L -1.57657,0.546005 L -1.62794,0.522263 L -1.67439,0.491745 L -1.71593,0.454453
 L -1.75172,0.411224 L -1.78102,0.362946 L -1.8038,0.309601 L -1.82008,0.25119 L -1.82985,0.187729 L -1.8331,0.119202
 L -1.82985,0.0509186 L -1.82008,-0.0122986 L -1.8038,-0.0704956 L -1.78102,-0.123642 L -1.75172,-0.171768 L -1.71593,-0.214828
 L -1.67426,-0.252014 L -1.62741,-0.282425 L -1.57535,-0.306076 L -1.5181,-0.322968 L -1.45564,-0.333115 L -1.38799,-0.336487
 L -1.31894,-0.333221 L -1.25557,-0.323425 L -1.19788,-0.307098 L -1.14584,-0.284225 L -1.0995,-0.254837 L -1.05882,-0.218903
 L -1.02414,-0.176849 L -0.995758,-0.129074 L -0.973679,-0.075592 L -0.957916,-0.0163727 L -0.948456,0.0485382 L -0.945312,0.119202
 L -0.948608,0.187958 L -0.958511,0.251602 L -0.975006,0.31012 L -0.998108,0.363495 L -1.02782,0.411743 L -1.06412,0.454865
 L -1.10625,0.492035 L -1.15344,0.522446 L -1.2057,0.546097 L -1.26303,0.563004 L -1.32541,0.573135 L -1.39285,0.576508
 z
M -1.3309,0.411911 L -1.27821,0.386826 L -1.23723,0.345001 L -1.20796,0.286469 L -1.1904,0.211197 L -1.18454,0.119202
 L -1.18596,0.0692444 L -1.19023,0.0240784 L -1.19736,-0.0162811 L -1.20732,-0.0518646 L -1.22014,-0.0826569 L -1.23581,-0.108643
 L -1.2542,-0.13028 L -1.27515,-0.14798 L -1.29868,-0.161743 L -1.32478,-0.171585 L -1.35345,-0.177475 L -1.38472,-0.179443
 L -1.44838,-0.171158 L -1.50046,-0.146255 L -1.54095,-0.104782 L -1.5699,-0.0467072 L -1.58725,0.0279388 L -1.59305,0.119202
 L -1.59163,0.166336 L -1.58739,0.209564 L -1.58032,0.248886 L -1.57043,0.284286 L -1.55772,0.315796 L -1.54219,0.343384
 L -1.52397,0.366867 L -1.50327,0.386093 L -1.48004,0.401047 L -1.4543,0.411728 L -1.42606,0.418137 L -1.39531,0.420273
 z
M 4.57838,0.573196 L 4.51924,0.563263 L 4.46518,0.546707 L 4.41617,0.523529 L 4.37222,0.493729 L 4.33334,0.457306
 L 4.30003,0.414963 L 4.27277,0.367386 L 4.25157,0.31459 L 4.23642,0.256577 L 4.22734,0.193344 L 4.2243,0.124878
 L 4.22736,0.0548706 L 4.23651,-0.00976562 L 4.25177,-0.0690765 L 4.27313,-0.123016 L 4.30058,-0.1716 L 4.33415,-0.214828
 L 4.37332,-0.252014 L 4.41762,-0.282425 L 4.467,-0.306076 L 4.5215,-0.322968 L 4.58112,-0.333115 L 4.64583,-0.336487
 L 4.69615,-0.33432 L 4.74348,-0.327805 L 4.78783,-0.316956 L 4.82919,-0.301773 L 4.86757,-0.282242 L 4.90297,-0.258377
 L 4.93477,-0.230682 L 4.96237,-0.199692 L 4.98576,-0.165405 L 5.00496,-0.127808 L 5.01994,-0.0869141 L 5.03073,-0.0427246
 L 4.80043,-0.0313416 L 4.79637,-0.0531006 L 4.79068,-0.0733337 L 4.78336,-0.0920715 L 4.7744,-0.109283 L 4.76382,-0.124985
 L 4.75162,-0.13916 L 4.7377,-0.151474 L 4.72197,-0.161545 L 4.70442,-0.169373 L 4.68507,-0.174973 L 4.66391,-0.178329
 L 4.64095,-0.179443 L 4.58699,-0.171234 L 4.54285,-0.146622 L 4.50851,-0.105591 L 4.48398,-0.0481567 L 4.46927,0.0256653
 L 4.46437,0.115936 L 4.46936,0.208923 L 4.48434,0.285004 L 4.50932,0.344193 L 4.5443,0.386459 L 4.58925,0.411819
 L 4.6442,0.420273 L 4.66531,0.419128 L 4.68524,0.41571 L 4.70401,0.410004 L 4.72159,0.402008 L 4.73801,0.391739
 L 4.75323,0.379181 L 4.76697,0.364365 L 4.77882,0.347305 L 4.78885,0.328018 L 4.79701,0.306488 L 4.80331,0.282715
 L 4.80777,0.256714 L 5.03725,0.267288 L 5.03206,0.29686 L 5.02463,0.325333 L 5.01497,0.352737 L 5.00307,0.379059
 L 4.98894,0.404282 L 4.97255,0.428421 L 4.95415,0.451126 L 4.9339,0.472046 L 4.91182,0.49118 L 4.88792,0.50853
 L 4.86218,0.524078 L 4.83461,0.537857 L 4.80554,0.549667 L 4.7753,0.559341 L 4.74388,0.566849 L 4.71129,0.57222
 L 4.67752,0.575439 L 4.64258,0.576508 z
M -3.06662,0.574585 L -3.10452,0.568787 L -3.13931,0.559128 L -3.17099,0.545593 L -3.19954,0.528198 L -3.22496,0.506943
 L -3.24684,0.482178 L -3.26474,0.454269 L -3.27867,0.423218 L -3.28862,0.389038 L -3.29459,0.3517 L -3.29657,0.311234
 L -3.2941,0.267471 L -3.28667,0.227325 L -3.27429,0.190796 L -3.25697,0.157898 L -3.2347,0.128601 L -3.20747,0.102921
 L -3.17554,0.0809937 L -3.13916,0.0629578 L -3.09831,0.0487976 L -3.05302,0.0385437 L -3.0033,0.0321655 L -2.9491,0.0296783
 L -2.75949,0.0264282 L -2.75949,-0.0183258 L -2.76033,-0.0458374 L -2.76285,-0.0708923 L -2.76703,-0.0934906 L -2.77287,-0.113617
 L -2.78041,-0.131287 L -2.78961,-0.146484 L -2.8007,-0.159286 L -2.81392,-0.169769 L -2.82927,-0.177917 L -2.84674,-0.183746
 L -2.86635,-0.187241 L -2.88806,-0.1884 L -2.90828,-0.187592 L -2.92664,-0.185181 L -2.9431,-0.181168 L -2.95769,-0.175552
 L -2.97041,-0.168335 L -2.98125,-0.1595 L -2.99052,-0.148819 L -2.99855,-0.136047 L -3.00536,-0.121155 L -3.01089,-0.104172
 L -3.0152,-0.085083 L -3.01826,-0.0638885 L -3.2567,-0.0752869 L -3.24733,-0.116409 L -3.23386,-0.154083 L -3.21631,-0.188293
 L -3.19467,-0.21904 L -3.16895,-0.246338 L -3.13911,-0.270172 L -3.10532,-0.290436 L -3.06764,-0.307007 L -3.02611,-0.319916
 L -2.98071,-0.329117 L -2.93144,-0.334641 L -2.87831,-0.336487 L -2.82483,-0.334213 L -2.77559,-0.327362 L -2.73061,-0.315948
 L -2.68988,-0.299957 L -2.6534,-0.279419 L -2.62115,-0.254303 L -2.59357,-0.224991 L -2.57098,-0.191818 L -2.55342,-0.154816
 L -2.54088,-0.113983 L -2.53334,-0.0692902 L -2.53084,-0.020752 L -2.53084,0.299835 L -2.53038,0.323242 L -2.52898,0.344101
 L -2.52667,0.362396 L -2.52342,0.378143 L -2.51926,0.391342 L -2.51416,0.401978 L -2.50797,0.410553 L -2.50055,0.417572
 L -2.49187,0.423019 L -2.48196,0.426926 L -2.47081,0.42926 L -2.4584,0.430038 L -2.44977,0.429901 L -2.44122,0.429504
 L -2.43277,0.428818 L -2.42441,0.427872 L -2.41614,0.426651 L -2.40796,0.425156 L -2.40796,0.548859 L -2.41463,0.550461
 L -2.45001,0.559113 L -2.45543,0.560333 L -2.46085,0.561462 L -2.46628,0.5625 L -2.47169,0.563446 L -2.47713,0.564316
 L -2.4826,0.565109 L -2.4882,0.565857 L -2.49391,0.566559 L -2.49973,0.5672 L -2.50566,0.56781 L -2.5117,0.568375
 L -2.51797,0.568878 L -2.5246,0.56929 L -2.53154,0.569595 L -2.53883,0.569824 L -2.54646,0.569962 L -2.55443,0.570007
 L -2.58192,0.568832 L -2.60692,0.565308 L -2.62939,0.559433 L -2.64937,0.551208 L -2.66682,0.540634 L -2.68178,0.527695
 L -2.69456,0.512482 L -2.70552,0.495056 L -2.71463,0.475403 L -2.72192,0.453552 L -2.72739,0.429474 L -2.73102,0.403183
 L -2.73589,0.403183 L -2.77061,0.456146 L -2.81076,0.499481 L -2.85632,0.533188 L -2.90733,0.557251 L -2.96375,0.571701
 L -3.0256,0.576508 z
M -2.93472,0.416214 L -2.91759,0.413773 L -2.90099,0.409698 L -2.8849,0.404007 L -2.86934,0.396683 L -2.85429,0.387726
 L -2.84004,0.377335 L -2.82686,0.365707 L -2.81473,0.352829 L -2.80367,0.338715 L -2.79366,0.323364 L -2.78471,0.306747
 L -2.77701,0.289368 L -2.77071,0.271622 L -2.76581,0.253555 L -2.7623,0.235153 L -2.76019,0.2164 L -2.75949,0.197311
 L -2.75949,0.152557 L -2.87668,0.15419 L -2.90198,0.155579 L -2.92468,0.157578 L -2.94482,0.160187 L -2.96239,0.163406
 L -2.97739,0.167236 L -2.98979,0.171677 L -3.00047,0.176849 L -3.01027,0.182846 L -3.01918,0.189682 L -3.02722,0.197357
 L -3.03438,0.205872 L -3.04065,0.215225 L -3.04599,0.225525 L -3.05037,0.236923 L -3.05377,0.24939 L -3.0562,0.262955
 L -3.05765,0.277603 L -3.05814,0.29332 L -3.05734,0.313324 L -3.05493,0.331528 L -3.05092,0.347946 L -3.0453,0.362595
 L -3.03809,0.375443 L -3.02925,0.386505 L -3.01909,0.395828 L -3.00787,0.403458 L -2.99559,0.409393 L -2.98224,0.413635
 L -2.96783,0.416168 L -2.95236,0.417023 z
" stroke="black" fill="lightgray" stroke-width="0.5"/>
</svg>
