<?xml version="1.0" standalone="no"?>
<!DOCTYPE svg PUBLIC "-//W3C//DTD SVG 1.1//EN" "http://www.w3.org/Graphics/SVG/1.1/DTD/svg11.dtd">
<svg width="6mm" height="4mm" viewBox="-3 -2 6 4" xmlns="http://www.w3.org/2000/svg" version="1.1">
<title>OpenSCAD Model</title>
<path d="
M 2.28911,1.12192 L 2.32724,1.11276 L 2.36349,1.09775 L 2.39694,1.07724 L 2.42677,1.05177 L 2.45224,1.02194
 L 2.47275,0.988495 L 2.48776,0.95224 L 2.49692,0.914108 L 2.5,0.875 L 2.5,-0.875 L 2.49692,-0.914108
 L 2.48776,-0.95224 L 2.47275,-0.988495 L 2.45224,-1.02194 L 2.42677,-1.05177 L 2.39694,-1.07724 L 2.36349,-1.09775
 L 2.32724,-1.11276 L 2.28911,-1.12192 L 2.25,-1.125 L -2.25,-1.125 L -2.28911,-1.12192 L -2.32724,-1.11276
 L -2.36349,-1.09775 L -2.39694,-1.07724 L -2.42677,-1.05177 L -2.45224,-1.02194 L -2.47275,-0.988495 L -2.48776,-0.95224
 L -2.49692,-0.914108 L -2.5,-0.875 L -2.5,0.875 L -2.49692,0.914108 L -2.48776,0.95224 L -2.47275,0.988495
 L -2.45224,1.02194 L -2.42677,1.05177 L -2.39694,1.07724 L -2.36349,1.09775 L -2.32724,1.11276 L -2.28911,1.12192
 L -2.25,1.125 L 2.25,1.125 z
M 1.23755,0.572205 L 1.15503,0.559296 L 1.07968,0.537766 L 1.01154,0.507614 L 0.950562,0.468857 L 0.89679,0.421494
 L 0.8508,0.366226 L 0.813156,0.303726 L 0.78389,0.234024 L 0.76297,0.15712 L 0.750427,0.072998 L 0.746246,-0.0183258
 L 0.750458,-0.109039 L 0.763062,-0.192413 L 0.784088,-0.268448 L 0.813522,-0.337128 L 0.851364,-0.398453 L 0.897614,-0.452454
 L 0.951752,-0.498566 L 1.01326,-0.536316 L 1.08214,-0.565674 L 1.15837,-0.586639 L 1.24199,-0.599213 L 1.33296,-0.603409
 L 1.45935,-0.595108 L 1.56941,-0.570221 L 1.66315,-0.528748 L 1.74057,-0.470673 L 1.80167,-0.396011 L 1.84645,-0.304764
 L 1.62511,-0.238037 L 1.61205,-0.265884 L 1.59671,-0.291382 L 1.57913,-0.314514 L 1.55928,-0.335312 L 1.53717,-0.35376
 L 1.5128,-0.369858 L 1.48656,-0.38353 L 1.45882,-0.394714 L 1.4296,-0.403427 L 1.39888,-0.409637 L 1.36667,-0.413361
 L 1.33296,-0.414612 L 1.27881,-0.411758 L 1.22917,-0.403214 L 1.18405,-0.388977 L 1.14345,-0.369049 L 1.10738,-0.343414
 L 1.07582,-0.312088 L 1.04897,-0.275436 L 1.02699,-0.233871 L 1.00992,-0.187378 L 0.997711,-0.135956 L 0.990387,-0.0796051
 L 0.987946,-0.0183258 L 0.990463,0.0440369 L 0.998016,0.101501 L 1.01062,0.154068 L 1.02827,0.201736 L 1.05095,0.244492
 L 1.07867,0.282349 L 1.11096,0.314789 L 1.14734,0.341339 L 1.18782,0.362 L 1.23238,0.37674 L 1.28104,0.38559
 L 1.33379,0.38855 L 1.36482,0.387787 L 1.39554,0.385513 L 1.42593,0.381729 L 1.45602,0.376434 L 1.48579,0.369614
 L 1.51524,0.361282 L 1.54344,0.351776 L 1.56941,0.341431 L 1.59317,0.330261 L 1.61472,0.318237 L 1.63403,0.305389
 L 1.65115,0.291702 L 1.65115,0.133011 L 1.37122,0.133011 L 1.37122,-0.0443573 L 1.87085,-0.0443573 L 1.87085,0.377151
 L 1.83894,0.407211 L 1.80399,0.435013 L 1.76598,0.460556 L 1.72491,0.483841 L 1.6808,0.504868 L 1.63364,0.523636
 L 1.58455,0.539795 L 1.53468,0.553009 L 1.48401,0.563293 L 1.43256,0.570633 L 1.38031,0.575043 L 1.32727,0.576508
 z
M -1.55493,0.560242 L -1.55493,-0.400787 L -1.92519,-0.400787 L -1.92519,-0.586319 L -0.943802,-0.586319 L -0.943802,-0.400787
 L -1.31487,-0.400787 L -1.31487,0.560242 z
M -0.838211,0.560242 L -0.838211,-0.586319 L -0.265335,-0.586319 L -0.19957,-0.583862 L -0.139023,-0.576508 L -0.0836639,-0.56424
 L -0.0335083,-0.547073 L 0.0114441,-0.525009 L 0.0512085,-0.498016 L 0.0852661,-0.466461 L 0.113144,-0.430618 L 0.134827,-0.390518
 L 0.150299,-0.34613 L 0.159592,-0.29747 L 0.162689,-0.244553 L 0.160797,-0.205307 L 0.15509,-0.167908 L 0.145599,-0.132339
 L 0.132309,-0.0986023 L 0.115219,-0.0666962 L 0.0943298,-0.0366211 L 0.0702057,-0.00912476 L 0.0434265,0.0150299 L 0.0139771,0.0358887
 L -0.0181274,0.0534058 L -0.0529175,0.0676117 L -0.0903778,0.0785065 L 0.21965,0.560242 L -0.0504913,0.560242 L -0.316589,0.124878
 L -0.598145,0.124878 L -0.598145,0.560242 z
M -0.25177,-0.0627136 L -0.222198,-0.0665131 L -0.195343,-0.0728455 L -0.171204,-0.0816956 L -0.14978,-0.0930939 L -0.131058,-0.10701
 L -0.115143,-0.12323 L -0.102127,-0.141464 L -0.0920105,-0.161743 L -0.0847778,-0.184052 L -0.0804291,-0.208405 L -0.0789795,-0.234772
 L -0.0848541,-0.285248 L -0.102493,-0.326553 L -0.131882,-0.358673 L -0.173019,-0.381622 L -0.225906,-0.395386 L -0.290558,-0.399963
 L -0.598145,-0.399963 L -0.598145,-0.0614471 L -0.284042,-0.0614471 z
M 0.337173,0.560242 L 0.337173,-0.586319 L 0.57724,-0.586319 L 0.57724,0.560242 z
" stroke="black" fill="lightgray" stroke-width="0.5"/>
</svg>
