<?xml version="1.0" standalone="no"?>
<!DOCTYPE svg PUBLIC "-//W3C//DTD SVG 1.1//EN" "http://www.w3.org/Graphics/SVG/1.1/DTD/svg11.dtd">
<svg width="4mm" height="4mm" viewBox="-2 -2 4 4" xmlns="http://www.w3.org/2000/svg" version="1.1">
<title>OpenSCAD Model</title>
<path d="
M 1.28911,1.87192 L 1.32724,1.86276 L 1.36349,1.84775 L 1.39694,1.82724 L 1.42677,1.80177 L 1.45224,1.77194
 L 1.47275,1.73849 L 1.48776,1.70224 L 1.49692,1.66411 L 1.5,1.625 L 1.5,-1.625 L 1.49692,-1.66411
 L 1.48776,-1.70224 L 1.47275,-1.73849 L 1.45224,-1.77194 L 1.42677,-1.80177 L 1.39694,-1.82724 L 1.36349,-1.84775
 L 1.32724,-1.86276 L 1.28911,-1.87192 L 1.25,-1.875 L -1.25,-1.875 L -1.28911,-1.87192 L -1.32724,-1.86276
 L -1.36349,-1.84775 L -1.39694,-1.82724 L -1.42677,-1.80177 L -1.45224,-1.77194 L -1.47275,-1.73849 L -1.48776,-1.70224
 L -1.49692,-1.66411 L -1.5,-1.625 L -1.5,1.625 L -1.49692,1.66411 L -1.48776,1.70224 L -1.47275,1.73849
 L -1.45224,1.77194 L -1.42677,1.80177 L -1.39694,1.82724 L -1.36349,1.84775 L -1.32724,1.86276 L -1.28911,1.87192
 L -1.25,1.875 L 1.25,1.875 z
M -0.861038,-0.44014 L -0.861038,-1.40117 L -1.23129,-1.40117 L -1.23129,-1.5867 L -0.249908,-1.5867 L -0.249908,-1.40117
 L -0.620987,-1.40117 L -0.620987,-0.44014 z
M -0.24115,-0.44014 L 0.15596,-1.04311 L -0.207794,-1.5867 L 0.0460968,-1.5867 L 0.300812,-1.18144 L 0.555511,-1.5867
 L 0.80777,-1.5867 L 0.459488,-1.04311 L 0.841125,-0.44014 L 0.588867,-0.44014 L 0.300812,-0.896652 L 0.0127411,-0.44014
 z
M -1.13853,1.55986 L -1.13853,0.4133 L -0.565643,0.4133 L -0.499893,0.415756 L -0.439331,0.423111 L -0.383972,0.435379
 L -0.333817,0.452545 L -0.288864,0.474625 L -0.2491,0.501602 L -0.215027,0.533173 L -0.187164,0.569 L -0.165482,0.609116
 L -0.149994,0.653503 L -0.140701,0.702148 L -0.137604,0.755081 L -0.139511,0.794312 L -0.145203,0.831711 L -0.154694,0.867279
 L -0.167984,0.901016 L -0.185089,0.932922 L -0.205978,0.962997 L -0.230087,0.990494 L -0.256882,1.01465 L -0.286331,1.03551
 L -0.318451,1.05304 L -0.353226,1.06725 L -0.390686,1.07812 L -0.0806427,1.55986 L -0.350815,1.55986 L -0.616913,1.12451
 L -0.898468,1.12451 L -0.898468,1.55986 z
M -0.552078,0.936905 L -0.522522,0.933105 L -0.495667,0.926788 L -0.471527,0.917923 L -0.450089,0.90654 L -0.431381,0.892609
 L -0.415466,0.876404 L -0.402451,0.858154 L -0.392319,0.837875 L -0.385086,0.815567 L -0.380753,0.791229 L -0.379303,0.764847
 L -0.385178,0.714371 L -0.402802,0.67308 L -0.43219,0.640945 L -0.473328,0.618011 L -0.52623,0.604248 L -0.590866,0.599655
 L -0.898468,0.599655 L -0.898468,0.938171 L -0.584351,0.938171 z
M -0.0599518,1.55986 L 0.337158,0.956894 L -0.0265961,0.4133 L 0.227295,0.4133 L 0.48201,0.818558 L 0.73671,0.4133
 L 0.988968,0.4133 L 0.640686,0.956894 L 1.02232,1.55986 L 0.770065,1.55986 L 0.48201,1.10335 L 0.193924,1.55986
 z
" stroke="black" fill="lightgray" stroke-width="0.5"/>
</svg>
