<?xml version="1.0" standalone="no"?>
<!DOCTYPE svg PUBLIC "-//W3C//DTD SVG 1.1//EN" "http://www.w3.org/Graphics/SVG/1.1/DTD/svg11.dtd">
<svg width="6mm" height="6mm" viewBox="-3 -3 6 6" xmlns="http://www.w3.org/2000/svg" version="1.1">
<title>OpenSCAD Model</title>
<path d="
M 1.91411,2.24692 L 1.95224,2.23776 L 1.98849,2.22275 L 2.02194,2.20224 L 2.05177,2.17677 L 2.07724,2.14694
 L 2.09775,2.11349 L 2.11276,2.07724 L 2.12192,2.03911 L 2.125,2 L 2.125,-2 L 2.12192,-2.03911
 L 2.11276,-2.07724 L 2.09775,-2.11349 L 2.07724,-2.14694 L 2.05177,-2.17677 L 2.02194,-2.20224 L 1.98849,-2.22275
 L 1.95224,-2.23776 L 1.91411,-2.24692 L 1.875,-2.25 L -1.875,-2.25 L -1.91411,-2.24692 L -1.95224,-2.23776
 L -1.98849,-2.22275 L -2.02194,-2.20224 L -2.05177,-2.17677 L -2.07724,-2.14694 L -2.09775,-2.11349 L -2.11276,-2.07724
 L -2.12192,-2.03911 L -2.125,-2 L -2.125,2 L -2.12192,2.03911 L -2.11276,2.07724 L -2.09775,2.11349
 L -2.07724,2.14694 L -2.05177,2.17677 L -2.02194,2.20224 L -1.98849,2.22275 L -1.95224,2.23776 L -1.91411,2.24692
 L -1.875,2.25 L 1.875,2.25 z
M -1.48604,-0.69014 L -1.48604,-1.65117 L -1.85629,-1.65117 L -1.85629,-1.8367 L -0.874908,-1.8367 L -0.874908,-1.65117
 L -1.24599,-1.65117 L -1.24599,-0.69014 z
M -0.86615,-0.69014 L -0.46904,-1.29311 L -0.832794,-1.8367 L -0.578903,-1.8367 L -0.324188,-1.43144 L -0.0694885,-1.8367
 L 0.18277,-1.8367 L -0.165512,-1.29311 L 0.216125,-0.69014 L -0.0361328,-0.69014 L -0.324188,-1.14665 L -0.612259,-0.69014
 z
M -1.31535,0.572205 L -1.39789,0.559296 L -1.47322,0.537766 L -1.54137,0.507614 L -1.60234,0.468857 L -1.65611,0.421494
 L -1.70212,0.366226 L -1.73975,0.303726 L -1.76903,0.234024 L -1.78993,0.15712 L -1.80247,0.072998 L -1.80666,-0.0183258
 L -1.80244,-0.109039 L -1.78984,-0.192413 L -1.76881,-0.268448 L -1.73938,-0.337128 L -1.70155,-0.398453 L -1.6553,-0.452454
 L -1.60117,-0.498566 L -1.53966,-0.536316 L -1.47078,-0.565674 L -1.39453,-0.586639 L -1.31091,-0.599213 L -1.21994,-0.603409
 L -1.09357,-0.595108 L -0.983505,-0.570221 L -0.889755,-0.528748 L -0.812332,-0.470673 L -0.751236,-0.396011 L -0.706467,-0.304764
 L -0.927795,-0.238037 L -0.940872,-0.265884 L -0.956192,-0.291382 L -0.973785,-0.314514 L -0.993622,-0.335312 L -1.01573,-0.35376
 L -1.0401,-0.369858 L -1.06635,-0.38353 L -1.09409,-0.394714 L -1.12331,-0.403427 L -1.15402,-0.409637 L -1.18623,-0.413361
 L -1.21994,-0.414612 L -1.27409,-0.411758 L -1.32375,-0.403214 L -1.36885,-0.388977 L -1.40945,-0.369049 L -1.44553,-0.343414
 L -1.47708,-0.312088 L -1.50394,-0.275436 L -1.52591,-0.233871 L -1.543,-0.187378 L -1.55521,-0.135956 L -1.56252,-0.0796051
 L -1.56496,-0.0183258 L -1.56244,0.0440369 L -1.55489,0.101501 L -1.54228,0.154068 L -1.52464,0.201736 L -1.50195,0.244492
 L -1.47423,0.282349 L -1.44194,0.314789 L -1.40556,0.341339 L -1.36508,0.362 L -1.32053,0.37674 L -1.27187,0.38559
 L -1.21912,0.38855 L -1.1881,0.387787 L -1.15738,0.385513 L -1.12697,0.381729 L -1.09688,0.376434 L -1.06711,0.369614
 L -1.03766,0.361282 L -1.00948,0.351776 L -0.983505,0.341431 L -0.959747,0.330261 L -0.938202,0.318237 L -0.918869,0.305389
 L -0.901764,0.291702 L -0.901764,0.133011 L -1.1817,0.133011 L -1.1817,-0.0443573 L -0.682053,-0.0443573 L -0.682053,0.377151
 L -0.713959,0.407211 L -0.748917,0.435013 L -0.786926,0.460556 L -0.827988,0.483841 L -0.872101,0.504868 L -0.919266,0.523636
 L -0.968353,0.539795 L -1.01822,0.553009 L -1.06889,0.563293 L -1.12035,0.570633 L -1.17259,0.575043 L -1.22565,0.576508
 z
M -0.497528,0.560242 L -0.497528,-0.586319 L -0.223297,-0.586319 L 0.283676,0.303909 L 0.279205,0.263565 L 0.275543,0.224426
 L 0.27269,0.186523 L 0.27066,0.149841 L 0.26944,0.11438 L 0.269028,0.0801392 L 0.269028,-0.586319 L 0.482239,-0.586319
 L 0.482239,0.560242 L 0.200668,0.560242 L -0.298965,-0.322662 L -0.294495,-0.281204 L -0.290833,-0.242554 L -0.287979,-0.206696
 L -0.28595,-0.17366 L -0.284729,-0.143402 L -0.284317,-0.115967 L -0.284317,0.560242 z
M 0.677872,0.560242 L 0.677872,-0.586319 L 1.0929,-0.586319 L 1.18582,-0.58226 L 1.27147,-0.570084 L 1.34984,-0.549805
 L 1.42093,-0.521393 L 1.48473,-0.484879 L 1.54126,-0.440247 L 1.58975,-0.388046 L 1.62943,-0.328812 L 1.66028,-0.262543
 L 1.68231,-0.189255 L 1.69554,-0.108932 L 1.69995,-0.0215759 L 1.69801,0.0362854 L 1.69221,0.0916595 L 1.68256,0.144516
 L 1.66902,0.19487 L 1.65163,0.242706 L 1.63037,0.28804 L 1.60558,0.330399 L 1.57758,0.369278 L 1.54636,0.404709
 L 1.51193,0.436691 L 1.47429,0.465195 L 1.43344,0.490265 L 1.38997,0.511642 L 1.34444,0.529144 L 1.29684,0.54274
 L 1.24719,0.55246 L 1.19548,0.558304 L 1.14171,0.560242 z
M 1.17114,0.37175 L 1.21739,0.362869 L 1.26012,0.348068 L 1.29932,0.327332 L 1.33499,0.30069 L 1.36713,0.268112
 L 1.39497,0.230453 L 1.41777,0.188538 L 1.43549,0.14238 L 1.44815,0.09198 L 1.45573,0.037323 L 1.45827,-0.0215759
 L 1.4556,-0.080719 L 1.4476,-0.134995 L 1.43427,-0.184418 L 1.41559,-0.228989 L 1.39159,-0.268692 L 1.36224,-0.303543
 L 1.32796,-0.333252 L 1.28909,-0.357559 L 1.24568,-0.37648 L 1.19769,-0.389984 L 1.14513,-0.398087 L 1.08801,-0.400787
 L 0.917938,-0.400787 L 0.917938,0.37471 L 1.12137,0.37471 z
M -1.76353,1.80986 L -1.76353,0.6633 L -1.19064,0.6633 L -1.12489,0.665756 L -1.06433,0.673111 L -1.00897,0.685379
 L -0.958817,0.702545 L -0.913864,0.724625 L -0.8741,0.751602 L -0.840027,0.783173 L -0.812164,0.819 L -0.790482,0.859116
 L -0.774994,0.903503 L -0.765701,0.952148 L -0.762604,1.00508 L -0.764511,1.04431 L -0.770203,1.08171 L -0.779694,1.11728
 L -0.792984,1.15102 L -0.810089,1.18292 L -0.830978,1.213 L -0.855087,1.24049 L -0.881882,1.26465 L -0.911331,1.28551
 L -0.943451,1.30304 L -0.978226,1.31725 L -1.01569,1.32812 L -0.705643,1.80986 L -0.975815,1.80986 L -1.24191,1.37451
 L -1.52347,1.37451 L -1.52347,1.80986 z
M -1.17708,1.1869 L -1.14752,1.18311 L -1.12067,1.17679 L -1.09653,1.16792 L -1.07509,1.15654 L -1.05638,1.14261
 L -1.04047,1.1264 L -1.02745,1.10815 L -1.01732,1.08788 L -1.01009,1.06557 L -1.00575,1.04123 L -1.0043,1.01485
 L -1.01018,0.964371 L -1.0278,0.92308 L -1.05719,0.890945 L -1.09833,0.868011 L -1.15123,0.854248 L -1.21587,0.849655
 L -1.52347,0.849655 L -1.52347,1.18817 L -1.20935,1.18817 z
M -0.684952,1.80986 L -0.287842,1.20689 L -0.651596,0.6633 L -0.397705,0.6633 L -0.14299,1.06856 L 0.11171,0.6633
 L 0.363968,0.6633 L 0.015686,1.20689 L 0.397324,1.80986 L 0.145065,1.80986 L -0.14299,1.35335 L -0.431076,1.80986
 z
" stroke="black" fill="lightgray" stroke-width="0.5"/>
</svg>
