<?xml version="1.0" standalone="no"?>
<!DOCTYPE svg PUBLIC "-//W3C//DTD SVG 1.1//EN" "http://www.w3.org/Graphics/SVG/1.1/DTD/svg11.dtd">
<svg width="8mm" height="4mm" viewBox="-4 -2 8 4" xmlns="http://www.w3.org/2000/svg" version="1.1">
<title>OpenSCAD Model</title>
<path d="
M 3.03911,1.12192 L 3.07724,1.11276 L 3.11349,1.09775 L 3.14694,1.07724 L 3.17677,1.05177 L 3.20224,1.02194
 L 3.22275,0.988495 L 3.23776,0.95224 L 3.24692,0.914108 L 3.25,0.875 L 3.25,-0.875 L 3.24692,-0.914108
 L 3.23776,-0.95224 L 3.22275,-0.988495 L 3.20224,-1.02194 L 3.17677,-1.05177 L 3.14694,-1.07724 L 3.11349,-1.09775
 L 3.07724,-1.11276 L 3.03911,-1.12192 L 3,-1.125 L -3,-1.125 L -3.03911,-1.12192 L -3.07724,-1.11276
 L -3.11349,-1.09775 L -3.14694,-1.07724 L -3.17677,-1.05177 L -3.20224,-1.02194 L -3.22275,-0.988495 L -3.23776,-0.95224
 L -3.24692,-0.914108 L -3.25,-0.875 L -3.25,0.875 L -3.24692,0.914108 L -3.23776,0.95224 L -3.22275,0.988495
 L -3.20224,1.02194 L -3.17677,1.05177 L -3.14694,1.07724 L -3.11349,1.09775 L -3.07724,1.11276 L -3.03911,1.12192
 L -3,1.125 L 3,1.125 z
M -2.39188,0.55162 L -2.81586,-0.59494 L -2.5652,-0.59494 L -2.32922,0.141479 L -2.32146,0.167389 L -2.31277,0.197357
 L -2.30319,0.2314 L -2.29269,0.269516 L -2.28131,0.311707 L -2.26901,0.357956 L -2.25192,0.287964 L -2.21042,0.141479
 L -1.97523,-0.59494 L -1.72705,-0.59494 L -2.14857,0.55162 z
M -1.63016,0.55162 L -1.63016,-0.59494 L -1.39011,-0.59494 L -1.39011,0.55162 z
M -1.17796,0.55162 L -1.17796,-0.59494 L -0.903717,-0.59494 L -0.396759,0.295288 L -0.40123,0.254929 L -0.404892,0.215805
 L -0.40773,0.177902 L -0.409775,0.14122 L -0.410995,0.105759 L -0.411392,0.0715027 L -0.411392,-0.59494 L -0.198196,-0.59494
 L -0.198196,0.55162 L -0.479767,0.55162 L -0.979385,-0.331299 L -0.974915,-0.289825 L -0.971252,-0.251175 L -0.968414,-0.215332
 L -0.966385,-0.182281 L -0.965164,-0.152039 L -0.964752,-0.124588 L -0.964752,0.55162 z
M 1.23656,0.565735 L 1.18478,0.55925 L 1.13683,0.548462 L 1.0927,0.533356 L 1.05238,0.513916 L 1.01588,0.490173
 L 0.983505,0.462341 L 0.955536,0.430634 L 0.931961,0.395065 L 0.912811,0.355637 L 0.898056,0.312347 L 0.887711,0.265182
 L 1.11638,0.24646 L 1.12312,0.26976 L 1.13139,0.290848 L 1.14119,0.309723 L 1.15254,0.326385 L 1.16542,0.340836
 L 1.17984,0.353058 L 1.19569,0.363266 L 1.21284,0.371597 L 1.23131,0.378082 L 1.2511,0.382721 L 1.27219,0.385498
 L 1.29459,0.386429 L 1.32211,0.384918 L 1.3477,0.380371 L 1.37138,0.372803 L 1.39314,0.362198 L 1.41298,0.348572
 L 1.43089,0.331909 L 1.44643,0.312393 L 1.45915,0.290222 L 1.46904,0.265381 L 1.47609,0.237869 L 1.48033,0.207703
 L 1.48175,0.17485 L 1.48041,0.145752 L 1.47641,0.118668 L 1.46974,0.0935822 L 1.4604,0.0705109 L 1.44841,0.049469
 L 1.43373,0.030426 L 1.41667,0.0138855 L 1.39748,0.000350952 L 1.37616,-0.0101471 L 1.35272,-0.0176697 L 1.32716,-0.0221863
 L 1.29947,-0.0236816 L 1.26871,-0.0216217 L 1.23988,-0.0154572 L 1.21301,-0.00517273 L 1.18808,0.00920105 L 1.16508,0.0277252
 L 1.14404,0.0503387 L 0.921082,0.0503387 L 0.960953,-0.59494 L 1.65021,-0.59494 L 1.65021,-0.424866 L 1.16846,-0.424866
 L 1.14975,-0.135178 L 1.17856,-0.157547 L 1.20969,-0.175858 L 1.24312,-0.190109 L 1.27885,-0.200272 L 1.31689,-0.206375
 L 1.35725,-0.208405 L 1.40994,-0.205582 L 1.45901,-0.197113 L 1.50443,-0.182983 L 1.54622,-0.163208 L 1.58435,-0.137772
 L 1.61887,-0.106689 L 1.64882,-0.070755 L 1.67334,-0.0307465 L 1.69241,0.0133209 L 1.70602,0.0614624 L 1.7142,0.113678
 L 1.71692,0.169968 L 1.71378,0.228668 L 1.70432,0.283218 L 1.68854,0.333633 L 1.66647,0.379913 L 1.63809,0.422058
 L 1.60341,0.460068 L 1.56322,0.493011 L 1.51837,0.519974 L 1.46883,0.540939 L 1.41461,0.555908 L 1.35571,0.564896
 L 1.29214,0.567886 z
M 2.177,0.55162 L 1.75302,-0.59494 L 2.00368,-0.59494 L 2.23965,0.141479 L 2.24742,0.167389 L 2.2561,0.197357
 L 2.26569,0.2314 L 2.27618,0.269516 L 2.28757,0.311707 L 2.29987,0.357956 L 2.31696,0.287964 L 2.35846,0.141479
 L 2.59364,-0.59494 L 2.84183,-0.59494 L 2.4203,0.55162 z
M -0.0448608,-0.133545 L -0.0448608,-0.315002 L 0.790848,-0.315002 L 0.790848,-0.133545 z
M -0.0448608,0.314819 L -0.0448608,0.134979 L 0.790848,0.134979 L 0.790848,0.314819 z
" stroke="black" fill="lightgray" stroke-width="0.5"/>
</svg>
