G04 #@! TF.GenerationSoftware,KiCad,Pcbnew,7.0.7*
G04 #@! TF.CreationDate,2023-08-28T17:40:55-04:00*
G04 #@! TF.ProjectId,programmer,70726f67-7261-46d6-9d65-722e6b696361,rev?*
G04 #@! TF.SameCoordinates,Original*
G04 #@! TF.FileFunction,Legend,Top*
G04 #@! TF.FilePolarity,Positive*
%FSLAX46Y46*%
G04 Gerber Fmt 4.6, Leading zero omitted, Abs format (unit mm)*
G04 Created by KiCad (PCBNEW 7.0.7) date 2023-08-28 17:40:55*
%MOMM*%
%LPD*%
G01*
G04 APERTURE LIST*
%ADD10C,0.120000*%
%ADD11C,0.800000*%
%ADD12C,6.000000*%
%ADD13R,1.700000X1.700000*%
%ADD14O,1.700000X1.700000*%
G04 APERTURE END LIST*
D10*
X140910000Y-49470000D02*
X142240000Y-49470000D01*
X140910000Y-50800000D02*
X140910000Y-49470000D01*
X140910000Y-52070000D02*
X140910000Y-57210000D01*
X140910000Y-52070000D02*
X143510000Y-52070000D01*
X140910000Y-57210000D02*
X146110000Y-57210000D01*
X143510000Y-49470000D02*
X146110000Y-49470000D01*
X143510000Y-52070000D02*
X143510000Y-49470000D01*
X146110000Y-49470000D02*
X146110000Y-57210000D01*
G36*
X137801350Y-61687075D02*
G01*
X137802937Y-61741050D01*
X137784681Y-61881544D01*
X137729912Y-61991875D01*
X137636250Y-62063312D01*
X137501313Y-62087125D01*
X137280650Y-61998225D01*
X137222309Y-61881544D01*
X137202863Y-61709300D01*
X137202863Y-61623575D01*
X137793413Y-61623575D01*
X137801350Y-61687075D01*
G37*
G36*
X138826346Y-61233050D02*
G01*
X138826346Y-67290950D01*
X138826346Y-67952408D01*
X135493654Y-67952408D01*
X135493654Y-67290950D01*
X136155113Y-67290950D01*
X136478962Y-67290950D01*
X136478962Y-66446400D01*
X136583738Y-66479738D01*
X136696450Y-66560700D01*
X136804400Y-66662300D01*
X136894887Y-66757550D01*
X137053638Y-66919475D01*
X137225088Y-67062350D01*
X137407650Y-67163950D01*
X137602913Y-67202050D01*
X137848975Y-67151250D01*
X138025188Y-67014725D01*
X138129963Y-66817875D01*
X138164887Y-66586100D01*
X138149012Y-66420603D01*
X138101387Y-66254313D01*
X138020425Y-66097547D01*
X137904538Y-65960625D01*
X137631488Y-66154300D01*
X137780713Y-66354325D01*
X137825163Y-66548000D01*
X137760075Y-66732150D01*
X137574337Y-66805175D01*
X137406062Y-66746438D01*
X137234613Y-66597213D01*
X137143728Y-66503550D01*
X137048875Y-66403538D01*
X136948069Y-66303525D01*
X136839325Y-66209862D01*
X136721453Y-66127313D01*
X136593263Y-66060637D01*
X136453563Y-66016584D01*
X136301162Y-66001900D01*
X136234488Y-66000313D01*
X136155113Y-66008250D01*
X136155113Y-67290950D01*
X135493654Y-67290950D01*
X135493654Y-64827150D01*
X136155113Y-64827150D01*
X136155113Y-65230375D01*
X136324269Y-65291053D01*
X136497307Y-65350319D01*
X136674225Y-65408175D01*
X136852025Y-65463738D01*
X137027708Y-65516125D01*
X137201275Y-65565337D01*
X137454084Y-65632806D01*
X137694988Y-65692337D01*
X137918825Y-65743534D01*
X138120438Y-65786000D01*
X138120438Y-65376425D01*
X137955338Y-65347850D01*
X137764838Y-65312925D01*
X137558859Y-65273237D01*
X137347325Y-65230375D01*
X137134600Y-65184338D01*
X136925050Y-65135125D01*
X136728597Y-65084325D01*
X136555163Y-65033525D01*
X136730978Y-64982328D01*
X136928225Y-64930337D01*
X137137775Y-64879538D01*
X137350500Y-64831912D01*
X137561637Y-64787859D01*
X137766425Y-64747775D01*
X137955734Y-64714437D01*
X138120438Y-64690625D01*
X138120438Y-64277875D01*
X137942638Y-64314388D01*
X137720388Y-64366775D01*
X137554053Y-64408756D01*
X137381015Y-64454264D01*
X137201275Y-64503300D01*
X137018007Y-64555158D01*
X136834386Y-64609133D01*
X136650412Y-64665225D01*
X136388475Y-64748569D01*
X136155113Y-64827150D01*
X135493654Y-64827150D01*
X135493654Y-62849125D01*
X136155113Y-62849125D01*
X136155113Y-64109600D01*
X136478962Y-64109600D01*
X136478962Y-63239650D01*
X137031413Y-63239650D01*
X137031413Y-63934975D01*
X137355263Y-63934975D01*
X137355263Y-63239650D01*
X137796588Y-63239650D01*
X137796588Y-64039750D01*
X138120438Y-64039750D01*
X138120438Y-62849125D01*
X136155113Y-62849125D01*
X135493654Y-62849125D01*
X135493654Y-62614175D01*
X136155113Y-62614175D01*
X136363075Y-62523687D01*
X136582150Y-62414150D01*
X136791700Y-62296675D01*
X136974262Y-62182375D01*
X137063956Y-62321281D01*
X137186988Y-62414150D01*
X137334625Y-62466537D01*
X137498138Y-62484000D01*
X137652522Y-62470903D01*
X137785475Y-62431612D01*
X137987088Y-62280800D01*
X138056144Y-62172850D01*
X138104563Y-62045850D01*
X138133138Y-61901387D01*
X138142663Y-61741050D01*
X138139488Y-61629925D01*
X138131550Y-61496575D01*
X138115675Y-61358462D01*
X138091863Y-61233050D01*
X136155113Y-61233050D01*
X136155113Y-61623575D01*
X136879013Y-61623575D01*
X136879013Y-61826775D01*
X136699228Y-61934328D01*
X136521825Y-62034738D01*
X136342041Y-62125622D01*
X136155113Y-62204600D01*
X136155113Y-62614175D01*
X135493654Y-62614175D01*
X135493654Y-61233050D01*
X135493654Y-60571592D01*
X138826346Y-60571592D01*
X138826346Y-61233050D01*
G37*
%LPC*%
D11*
X134910000Y-72051000D03*
X135569010Y-70460010D03*
X135569010Y-73641990D03*
X137160000Y-69801000D03*
D12*
X137160000Y-72051000D03*
D11*
X137160000Y-74301000D03*
X138750990Y-70460010D03*
X138750990Y-73641990D03*
X139410000Y-72051000D03*
D13*
X142240000Y-50800000D03*
D14*
X144780000Y-50800000D03*
X142240000Y-53340000D03*
X144780000Y-53340000D03*
X142240000Y-55880000D03*
X144780000Y-55880000D03*
D11*
X134910000Y-41571000D03*
X135569010Y-39980010D03*
X135569010Y-43161990D03*
X137160000Y-39321000D03*
D12*
X137160000Y-41571000D03*
D11*
X137160000Y-43821000D03*
X138750990Y-39980010D03*
X138750990Y-43161990D03*
X139410000Y-41571000D03*
D13*
X137160000Y-48260000D03*
D14*
X137160000Y-50800000D03*
X137160000Y-53340000D03*
X137160000Y-55880000D03*
X137160000Y-58420000D03*
%LPD*%
M02*
