G04 #@! TF.GenerationSoftware,KiCad,Pcbnew,7.0.7*
G04 #@! TF.CreationDate,2023-08-28T17:40:55-04:00*
G04 #@! TF.ProjectId,programmer,70726f67-7261-46d6-9d65-722e6b696361,rev?*
G04 #@! TF.SameCoordinates,Original*
G04 #@! TF.FileFunction,Copper,L2,Bot*
G04 #@! TF.FilePolarity,Positive*
%FSLAX46Y46*%
G04 Gerber Fmt 4.6, Leading zero omitted, Abs format (unit mm)*
G04 Created by KiCad (PCBNEW 7.0.7) date 2023-08-28 17:40:55*
%MOMM*%
%LPD*%
G01*
G04 APERTURE LIST*
G04 #@! TA.AperFunction,ComponentPad*
%ADD10C,0.800000*%
G04 #@! TD*
G04 #@! TA.AperFunction,ComponentPad*
%ADD11C,6.000000*%
G04 #@! TD*
G04 #@! TA.AperFunction,ComponentPad*
%ADD12R,1.700000X1.700000*%
G04 #@! TD*
G04 #@! TA.AperFunction,ComponentPad*
%ADD13O,1.700000X1.700000*%
G04 #@! TD*
G04 #@! TA.AperFunction,Conductor*
%ADD14C,0.254000*%
G04 #@! TD*
G04 APERTURE END LIST*
D10*
X134910000Y-72051000D03*
X135569010Y-70460010D03*
X135569010Y-73641990D03*
X137160000Y-69801000D03*
D11*
X137160000Y-72051000D03*
D10*
X137160000Y-74301000D03*
X138750990Y-70460010D03*
X138750990Y-73641990D03*
X139410000Y-72051000D03*
D12*
X142240000Y-50800000D03*
D13*
X144780000Y-50800000D03*
X142240000Y-53340000D03*
X144780000Y-53340000D03*
X142240000Y-55880000D03*
X144780000Y-55880000D03*
D10*
X134910000Y-41571000D03*
X135569010Y-39980010D03*
X135569010Y-43161990D03*
X137160000Y-39321000D03*
D11*
X137160000Y-41571000D03*
D10*
X137160000Y-43821000D03*
X138750990Y-39980010D03*
X138750990Y-43161990D03*
X139410000Y-41571000D03*
D12*
X137160000Y-48260000D03*
D13*
X137160000Y-50800000D03*
X137160000Y-53340000D03*
X137160000Y-55880000D03*
X137160000Y-58420000D03*
D14*
X137160000Y-55880000D02*
X138455400Y-54584600D01*
X138455400Y-54584600D02*
X143535400Y-54584600D01*
X143535400Y-54584600D02*
X144780000Y-53340000D01*
G04 #@! TA.AperFunction,Conductor*
G36*
X138482898Y-73020344D02*
G01*
X138675850Y-73213296D01*
X138709335Y-73274619D01*
X138704351Y-73344311D01*
X138662479Y-73400244D01*
X138657060Y-73404079D01*
X138570750Y-73461750D01*
X138513079Y-73548060D01*
X138459466Y-73592865D01*
X138390141Y-73601572D01*
X138327114Y-73571417D01*
X138322296Y-73566850D01*
X138128861Y-73373415D01*
X138095376Y-73312092D01*
X138100360Y-73242400D01*
X138132556Y-73194507D01*
X138267368Y-73070404D01*
X138297367Y-73031861D01*
X138354071Y-72991051D01*
X138423844Y-72987375D01*
X138482898Y-73020344D01*
G37*
G04 #@! TD.AperFunction*
G04 #@! TA.AperFunction,Conductor*
G36*
X135968115Y-72991843D02*
G01*
X136022633Y-73031861D01*
X136052632Y-73070404D01*
X136187441Y-73194505D01*
X136223430Y-73254390D01*
X136221330Y-73324228D01*
X136191138Y-73373414D01*
X135997703Y-73566849D01*
X135936380Y-73600334D01*
X135866688Y-73595350D01*
X135810755Y-73553478D01*
X135806920Y-73548059D01*
X135749249Y-73461749D01*
X135662939Y-73404079D01*
X135618133Y-73350467D01*
X135609426Y-73281142D01*
X135639580Y-73218115D01*
X135644148Y-73213296D01*
X135837100Y-73020344D01*
X135898423Y-72986859D01*
X135968115Y-72991843D01*
G37*
G04 #@! TD.AperFunction*
G04 #@! TA.AperFunction,Conductor*
G36*
X138453311Y-70506647D02*
G01*
X138509244Y-70548519D01*
X138513079Y-70553939D01*
X138570749Y-70640249D01*
X138657059Y-70697920D01*
X138701864Y-70751532D01*
X138710571Y-70820857D01*
X138680416Y-70883885D01*
X138675849Y-70888703D01*
X138482898Y-71081654D01*
X138421575Y-71115139D01*
X138351883Y-71110155D01*
X138297363Y-71070134D01*
X138267371Y-71031600D01*
X138267370Y-71031599D01*
X138267368Y-71031596D01*
X138132556Y-70907492D01*
X138096567Y-70847608D01*
X138098668Y-70777770D01*
X138128860Y-70728584D01*
X138322296Y-70535148D01*
X138383619Y-70501663D01*
X138453311Y-70506647D01*
G37*
G04 #@! TD.AperFunction*
G04 #@! TA.AperFunction,Conductor*
G36*
X135992884Y-70530581D02*
G01*
X135997703Y-70535149D01*
X136191138Y-70728584D01*
X136224623Y-70789907D01*
X136219639Y-70859599D01*
X136187441Y-70907494D01*
X136052630Y-71031598D01*
X136052628Y-71031599D01*
X136022633Y-71070137D01*
X135965922Y-71110949D01*
X135896149Y-71114622D01*
X135837100Y-71081654D01*
X135644149Y-70888703D01*
X135610664Y-70827380D01*
X135615648Y-70757688D01*
X135657520Y-70701755D01*
X135662940Y-70697919D01*
X135666551Y-70695505D01*
X135666555Y-70695505D01*
X135749250Y-70640250D01*
X135804505Y-70557555D01*
X135804505Y-70557551D01*
X135806919Y-70553940D01*
X135860531Y-70509134D01*
X135929856Y-70500427D01*
X135992884Y-70530581D01*
G37*
G04 #@! TD.AperFunction*
G04 #@! TA.AperFunction,Conductor*
G36*
X138482898Y-42540344D02*
G01*
X138675850Y-42733296D01*
X138709335Y-42794619D01*
X138704351Y-42864311D01*
X138662479Y-42920244D01*
X138657060Y-42924079D01*
X138570750Y-42981750D01*
X138513079Y-43068060D01*
X138459466Y-43112865D01*
X138390141Y-43121572D01*
X138327114Y-43091417D01*
X138322296Y-43086850D01*
X138128861Y-42893415D01*
X138095376Y-42832092D01*
X138100360Y-42762400D01*
X138132556Y-42714507D01*
X138267368Y-42590404D01*
X138297367Y-42551861D01*
X138354071Y-42511051D01*
X138423844Y-42507375D01*
X138482898Y-42540344D01*
G37*
G04 #@! TD.AperFunction*
G04 #@! TA.AperFunction,Conductor*
G36*
X135968115Y-42511843D02*
G01*
X136022633Y-42551861D01*
X136052632Y-42590404D01*
X136187441Y-42714505D01*
X136223430Y-42774390D01*
X136221330Y-42844228D01*
X136191138Y-42893414D01*
X135997703Y-43086849D01*
X135936380Y-43120334D01*
X135866688Y-43115350D01*
X135810755Y-43073478D01*
X135806920Y-43068059D01*
X135749249Y-42981749D01*
X135662939Y-42924079D01*
X135618133Y-42870467D01*
X135609426Y-42801142D01*
X135639580Y-42738115D01*
X135644148Y-42733296D01*
X135837100Y-42540344D01*
X135898423Y-42506859D01*
X135968115Y-42511843D01*
G37*
G04 #@! TD.AperFunction*
G04 #@! TA.AperFunction,Conductor*
G36*
X138453311Y-40026647D02*
G01*
X138509244Y-40068519D01*
X138513079Y-40073939D01*
X138570749Y-40160249D01*
X138657059Y-40217920D01*
X138701864Y-40271532D01*
X138710571Y-40340857D01*
X138680416Y-40403885D01*
X138675849Y-40408703D01*
X138482898Y-40601654D01*
X138421575Y-40635139D01*
X138351883Y-40630155D01*
X138297363Y-40590134D01*
X138267371Y-40551600D01*
X138267370Y-40551599D01*
X138267368Y-40551596D01*
X138132556Y-40427492D01*
X138096567Y-40367608D01*
X138098668Y-40297770D01*
X138128860Y-40248584D01*
X138322296Y-40055148D01*
X138383619Y-40021663D01*
X138453311Y-40026647D01*
G37*
G04 #@! TD.AperFunction*
G04 #@! TA.AperFunction,Conductor*
G36*
X135992884Y-40050581D02*
G01*
X135997703Y-40055149D01*
X136191138Y-40248584D01*
X136224623Y-40309907D01*
X136219639Y-40379599D01*
X136187441Y-40427494D01*
X136052630Y-40551598D01*
X136052628Y-40551599D01*
X136022633Y-40590137D01*
X135965922Y-40630949D01*
X135896149Y-40634622D01*
X135837100Y-40601654D01*
X135644149Y-40408703D01*
X135610664Y-40347380D01*
X135615648Y-40277688D01*
X135657520Y-40221755D01*
X135662940Y-40217919D01*
X135666551Y-40215505D01*
X135666555Y-40215505D01*
X135749250Y-40160250D01*
X135804505Y-40077555D01*
X135804505Y-40077551D01*
X135806919Y-40073940D01*
X135860531Y-40029134D01*
X135929856Y-40020427D01*
X135992884Y-40050581D01*
G37*
G04 #@! TD.AperFunction*
G04 #@! TA.AperFunction,Conductor*
G36*
X140912539Y-37460185D02*
G01*
X140958294Y-37512989D01*
X140969500Y-37564500D01*
X140969500Y-46965467D01*
X140969416Y-46965889D01*
X140969459Y-46990001D01*
X140969500Y-46990099D01*
X140969616Y-46990382D01*
X140969618Y-46990384D01*
X140969808Y-46990462D01*
X140970000Y-46990541D01*
X140970002Y-46990539D01*
X140994616Y-46990524D01*
X140994616Y-46990528D01*
X140994760Y-46990500D01*
X147195500Y-46990500D01*
X147262539Y-47010185D01*
X147308294Y-47062989D01*
X147319500Y-47114500D01*
X147319500Y-59565500D01*
X147299815Y-59632539D01*
X147247011Y-59678294D01*
X147195500Y-59689500D01*
X140994760Y-59689500D01*
X140994554Y-59689459D01*
X140970000Y-59689459D01*
X140969901Y-59689500D01*
X140969617Y-59689616D01*
X140969615Y-59689618D01*
X140969459Y-59689999D01*
X140969476Y-59714616D01*
X140969471Y-59714616D01*
X140969500Y-59714759D01*
X140969500Y-76057500D01*
X140949815Y-76124539D01*
X140897011Y-76170294D01*
X140845500Y-76181500D01*
X133474500Y-76181500D01*
X133407461Y-76161815D01*
X133361706Y-76109011D01*
X133350500Y-76057500D01*
X133350500Y-72051000D01*
X133655197Y-72051000D01*
X133674397Y-72417353D01*
X133731784Y-72779684D01*
X133731784Y-72779686D01*
X133826736Y-73134051D01*
X133958204Y-73476535D01*
X134124754Y-73803406D01*
X134324549Y-74111064D01*
X134513297Y-74344147D01*
X135140316Y-73717128D01*
X135201639Y-73683643D01*
X135271330Y-73688627D01*
X135327264Y-73730498D01*
X135331099Y-73735919D01*
X135388769Y-73822229D01*
X135475079Y-73879900D01*
X135519884Y-73933512D01*
X135528591Y-74002837D01*
X135498436Y-74065865D01*
X135493869Y-74070683D01*
X134866850Y-74697701D01*
X135099935Y-74886450D01*
X135407593Y-75086245D01*
X135734464Y-75252795D01*
X136076948Y-75384263D01*
X136431314Y-75479215D01*
X136793646Y-75536602D01*
X137159999Y-75555803D01*
X137160001Y-75555803D01*
X137526353Y-75536602D01*
X137888684Y-75479215D01*
X137888686Y-75479215D01*
X138243051Y-75384263D01*
X138585535Y-75252795D01*
X138912406Y-75086245D01*
X139220065Y-74886450D01*
X139453148Y-74697702D01*
X138826129Y-74070683D01*
X138792644Y-74009360D01*
X138797628Y-73939668D01*
X138839500Y-73883735D01*
X138844920Y-73879899D01*
X138848531Y-73877485D01*
X138848535Y-73877485D01*
X138931230Y-73822230D01*
X138986485Y-73739535D01*
X138986485Y-73739531D01*
X138988899Y-73735920D01*
X139042511Y-73691114D01*
X139111836Y-73682407D01*
X139174864Y-73712561D01*
X139179683Y-73717129D01*
X139806702Y-74344148D01*
X139995450Y-74111065D01*
X140195245Y-73803406D01*
X140361795Y-73476535D01*
X140493263Y-73134051D01*
X140588215Y-72779686D01*
X140588215Y-72779684D01*
X140645602Y-72417353D01*
X140664803Y-72051000D01*
X140664803Y-72050999D01*
X140645602Y-71684646D01*
X140588215Y-71322315D01*
X140588215Y-71322313D01*
X140493263Y-70967948D01*
X140361795Y-70625464D01*
X140195245Y-70298594D01*
X139995450Y-69990935D01*
X139806701Y-69757851D01*
X139179683Y-70384869D01*
X139118360Y-70418354D01*
X139048668Y-70413370D01*
X138992735Y-70371498D01*
X138988900Y-70366079D01*
X138931229Y-70279769D01*
X138844919Y-70222099D01*
X138800113Y-70168487D01*
X138791406Y-70099162D01*
X138821560Y-70036135D01*
X138826128Y-70031316D01*
X139453147Y-69404297D01*
X139220064Y-69215549D01*
X138912406Y-69015754D01*
X138585535Y-68849204D01*
X138243051Y-68717736D01*
X137888685Y-68622784D01*
X137526353Y-68565397D01*
X137160001Y-68546197D01*
X137159999Y-68546197D01*
X136793646Y-68565397D01*
X136431315Y-68622784D01*
X136431313Y-68622784D01*
X136076948Y-68717736D01*
X135734464Y-68849204D01*
X135407594Y-69015754D01*
X135099929Y-69215553D01*
X134866851Y-69404297D01*
X135493870Y-70031316D01*
X135527355Y-70092639D01*
X135522371Y-70162331D01*
X135480499Y-70218264D01*
X135475080Y-70222099D01*
X135388770Y-70279770D01*
X135331099Y-70366080D01*
X135277486Y-70410885D01*
X135208161Y-70419592D01*
X135145134Y-70389437D01*
X135140316Y-70384870D01*
X134513297Y-69757851D01*
X134324553Y-69990929D01*
X134124754Y-70298594D01*
X133958204Y-70625464D01*
X133826736Y-70967948D01*
X133731784Y-71322313D01*
X133731784Y-71322315D01*
X133674397Y-71684646D01*
X133655197Y-72050999D01*
X133655197Y-72051000D01*
X133350500Y-72051000D01*
X133350500Y-55880000D01*
X135804341Y-55880000D01*
X135824936Y-56115403D01*
X135824938Y-56115413D01*
X135886094Y-56343655D01*
X135886096Y-56343659D01*
X135886097Y-56343663D01*
X135969155Y-56521781D01*
X135985965Y-56557830D01*
X135985967Y-56557834D01*
X136094281Y-56712521D01*
X136121501Y-56751396D01*
X136121506Y-56751402D01*
X136288597Y-56918493D01*
X136288603Y-56918498D01*
X136474594Y-57048730D01*
X136518219Y-57103307D01*
X136525413Y-57172805D01*
X136493890Y-57235160D01*
X136474595Y-57251880D01*
X136288922Y-57381890D01*
X136288920Y-57381891D01*
X136121891Y-57548920D01*
X136121886Y-57548926D01*
X135986400Y-57742420D01*
X135986399Y-57742422D01*
X135886570Y-57956507D01*
X135886567Y-57956513D01*
X135829364Y-58169999D01*
X135829364Y-58170000D01*
X136546653Y-58170000D01*
X136613692Y-58189685D01*
X136659447Y-58242489D01*
X136669391Y-58311647D01*
X136665631Y-58328933D01*
X136660000Y-58348111D01*
X136660000Y-58491888D01*
X136665631Y-58511067D01*
X136665630Y-58580936D01*
X136627855Y-58639714D01*
X136564299Y-58668738D01*
X136546653Y-58670000D01*
X135829364Y-58670000D01*
X135886567Y-58883486D01*
X135886570Y-58883492D01*
X135986399Y-59097578D01*
X136121894Y-59291082D01*
X136288917Y-59458105D01*
X136482421Y-59593600D01*
X136696507Y-59693429D01*
X136696516Y-59693433D01*
X136910000Y-59750634D01*
X136910000Y-59032301D01*
X136929685Y-58965262D01*
X136982489Y-58919507D01*
X137051647Y-58909563D01*
X137124237Y-58920000D01*
X137124238Y-58920000D01*
X137195762Y-58920000D01*
X137195763Y-58920000D01*
X137268353Y-58909563D01*
X137337512Y-58919507D01*
X137390315Y-58965262D01*
X137410000Y-59032301D01*
X137410000Y-59750633D01*
X137623483Y-59693433D01*
X137623492Y-59693429D01*
X137837578Y-59593600D01*
X138031082Y-59458105D01*
X138198105Y-59291082D01*
X138333600Y-59097578D01*
X138433429Y-58883492D01*
X138433432Y-58883486D01*
X138490636Y-58670000D01*
X137773347Y-58670000D01*
X137706308Y-58650315D01*
X137660553Y-58597511D01*
X137650609Y-58528353D01*
X137654369Y-58511067D01*
X137660000Y-58491888D01*
X137660000Y-58348111D01*
X137654369Y-58328933D01*
X137654370Y-58259064D01*
X137692145Y-58200286D01*
X137755701Y-58171262D01*
X137773347Y-58170000D01*
X138490636Y-58170000D01*
X138490635Y-58169999D01*
X138433432Y-57956513D01*
X138433429Y-57956507D01*
X138333600Y-57742422D01*
X138333599Y-57742420D01*
X138198113Y-57548926D01*
X138198108Y-57548920D01*
X138031078Y-57381890D01*
X137845405Y-57251879D01*
X137801780Y-57197302D01*
X137794588Y-57127804D01*
X137826110Y-57065449D01*
X137845406Y-57048730D01*
X138031401Y-56918495D01*
X138198495Y-56751401D01*
X138334035Y-56557830D01*
X138433903Y-56343663D01*
X138495063Y-56115408D01*
X138515659Y-55880000D01*
X138495063Y-55644592D01*
X138468740Y-55546357D01*
X138470404Y-55476508D01*
X138500835Y-55426583D01*
X138679000Y-55248419D01*
X138740323Y-55214934D01*
X138766681Y-55212100D01*
X140866694Y-55212100D01*
X140933733Y-55231785D01*
X140979488Y-55284589D01*
X140989432Y-55353747D01*
X140979075Y-55388506D01*
X140966099Y-55416330D01*
X140966094Y-55416344D01*
X140904938Y-55644586D01*
X140904936Y-55644596D01*
X140884341Y-55879999D01*
X140884341Y-55880000D01*
X140904936Y-56115403D01*
X140904938Y-56115413D01*
X140966094Y-56343655D01*
X140966096Y-56343659D01*
X140966097Y-56343663D01*
X141049155Y-56521781D01*
X141065965Y-56557830D01*
X141065967Y-56557834D01*
X141174281Y-56712521D01*
X141201505Y-56751401D01*
X141368599Y-56918495D01*
X141465384Y-56986265D01*
X141562165Y-57054032D01*
X141562167Y-57054033D01*
X141562170Y-57054035D01*
X141776337Y-57153903D01*
X142004592Y-57215063D01*
X142192918Y-57231539D01*
X142239999Y-57235659D01*
X142240000Y-57235659D01*
X142240001Y-57235659D01*
X142279234Y-57232226D01*
X142475408Y-57215063D01*
X142703663Y-57153903D01*
X142917830Y-57054035D01*
X143111401Y-56918495D01*
X143278495Y-56751401D01*
X143408730Y-56565405D01*
X143463307Y-56521781D01*
X143532805Y-56514587D01*
X143595160Y-56546110D01*
X143611879Y-56565405D01*
X143741890Y-56751078D01*
X143908917Y-56918105D01*
X144102421Y-57053600D01*
X144316507Y-57153429D01*
X144316516Y-57153433D01*
X144530000Y-57210634D01*
X144530000Y-56492301D01*
X144549685Y-56425262D01*
X144602489Y-56379507D01*
X144671647Y-56369563D01*
X144744237Y-56380000D01*
X144744238Y-56380000D01*
X144815762Y-56380000D01*
X144815763Y-56380000D01*
X144888353Y-56369563D01*
X144957512Y-56379507D01*
X145010315Y-56425262D01*
X145030000Y-56492301D01*
X145030000Y-57210633D01*
X145243483Y-57153433D01*
X145243492Y-57153429D01*
X145457578Y-57053600D01*
X145651082Y-56918105D01*
X145818105Y-56751082D01*
X145953600Y-56557578D01*
X146053429Y-56343492D01*
X146053432Y-56343486D01*
X146110636Y-56130000D01*
X145393347Y-56130000D01*
X145326308Y-56110315D01*
X145280553Y-56057511D01*
X145270609Y-55988353D01*
X145274369Y-55971067D01*
X145280000Y-55951888D01*
X145280000Y-55808111D01*
X145274369Y-55788933D01*
X145274370Y-55719064D01*
X145312145Y-55660286D01*
X145375701Y-55631262D01*
X145393347Y-55630000D01*
X146110636Y-55630000D01*
X146110635Y-55629999D01*
X146053432Y-55416513D01*
X146053429Y-55416507D01*
X145953600Y-55202422D01*
X145953599Y-55202420D01*
X145818113Y-55008926D01*
X145818108Y-55008920D01*
X145651078Y-54841890D01*
X145465405Y-54711879D01*
X145421780Y-54657302D01*
X145414588Y-54587804D01*
X145446110Y-54525449D01*
X145465406Y-54508730D01*
X145465842Y-54508425D01*
X145651401Y-54378495D01*
X145818495Y-54211401D01*
X145954035Y-54017830D01*
X146053903Y-53803663D01*
X146115063Y-53575408D01*
X146135659Y-53340000D01*
X146115063Y-53104592D01*
X146053903Y-52876337D01*
X145954035Y-52662171D01*
X145948425Y-52654158D01*
X145818494Y-52468597D01*
X145651402Y-52301506D01*
X145651396Y-52301501D01*
X145465842Y-52171575D01*
X145422217Y-52116998D01*
X145415023Y-52047500D01*
X145446546Y-51985145D01*
X145465842Y-51968425D01*
X145488026Y-51952891D01*
X145651401Y-51838495D01*
X145818495Y-51671401D01*
X145954035Y-51477830D01*
X146053903Y-51263663D01*
X146115063Y-51035408D01*
X146135659Y-50800000D01*
X146115063Y-50564592D01*
X146053903Y-50336337D01*
X145954035Y-50122171D01*
X145818495Y-49928599D01*
X145818494Y-49928597D01*
X145651402Y-49761506D01*
X145651395Y-49761501D01*
X145457834Y-49625967D01*
X145457830Y-49625965D01*
X145408174Y-49602810D01*
X145243663Y-49526097D01*
X145243659Y-49526096D01*
X145243655Y-49526094D01*
X145015413Y-49464938D01*
X145015403Y-49464936D01*
X144780001Y-49444341D01*
X144779999Y-49444341D01*
X144544596Y-49464936D01*
X144544586Y-49464938D01*
X144316344Y-49526094D01*
X144316335Y-49526098D01*
X144102171Y-49625964D01*
X144102169Y-49625965D01*
X143908600Y-49761503D01*
X143786673Y-49883430D01*
X143725350Y-49916914D01*
X143655658Y-49911930D01*
X143599725Y-49870058D01*
X143582810Y-49839081D01*
X143533797Y-49707671D01*
X143533793Y-49707664D01*
X143447547Y-49592455D01*
X143447544Y-49592452D01*
X143332335Y-49506206D01*
X143332328Y-49506202D01*
X143197482Y-49455908D01*
X143197483Y-49455908D01*
X143137883Y-49449501D01*
X143137881Y-49449500D01*
X143137873Y-49449500D01*
X143137864Y-49449500D01*
X141342129Y-49449500D01*
X141342123Y-49449501D01*
X141282516Y-49455908D01*
X141147671Y-49506202D01*
X141147664Y-49506206D01*
X141032455Y-49592452D01*
X141032452Y-49592455D01*
X140946206Y-49707664D01*
X140946202Y-49707671D01*
X140895908Y-49842517D01*
X140889501Y-49902116D01*
X140889500Y-49902135D01*
X140889500Y-51697870D01*
X140889501Y-51697876D01*
X140895908Y-51757483D01*
X140946202Y-51892328D01*
X140946206Y-51892335D01*
X141032452Y-52007544D01*
X141032455Y-52007547D01*
X141147664Y-52093793D01*
X141147671Y-52093797D01*
X141279081Y-52142810D01*
X141335015Y-52184681D01*
X141359432Y-52250145D01*
X141344580Y-52318418D01*
X141323430Y-52346673D01*
X141201503Y-52468600D01*
X141065965Y-52662169D01*
X141065964Y-52662171D01*
X140966098Y-52876335D01*
X140966094Y-52876344D01*
X140904938Y-53104586D01*
X140904936Y-53104596D01*
X140884341Y-53339999D01*
X140884341Y-53340000D01*
X140904936Y-53575403D01*
X140904938Y-53575413D01*
X140965385Y-53801007D01*
X140963722Y-53870857D01*
X140924559Y-53928719D01*
X140860331Y-53956223D01*
X140845610Y-53957100D01*
X138554390Y-53957100D01*
X138487351Y-53937415D01*
X138441596Y-53884611D01*
X138431652Y-53815453D01*
X138434615Y-53801007D01*
X138454984Y-53724985D01*
X138495063Y-53575408D01*
X138515659Y-53340000D01*
X138495063Y-53104592D01*
X138433903Y-52876337D01*
X138334035Y-52662171D01*
X138328425Y-52654158D01*
X138198494Y-52468597D01*
X138031402Y-52301506D01*
X138031401Y-52301505D01*
X137908800Y-52215659D01*
X137845841Y-52171574D01*
X137802216Y-52116997D01*
X137795024Y-52047498D01*
X137826546Y-51985144D01*
X137845836Y-51968428D01*
X138031401Y-51838495D01*
X138198495Y-51671401D01*
X138334035Y-51477830D01*
X138433903Y-51263663D01*
X138495063Y-51035408D01*
X138515659Y-50800000D01*
X138495063Y-50564592D01*
X138433903Y-50336337D01*
X138334035Y-50122171D01*
X138198495Y-49928599D01*
X138076567Y-49806671D01*
X138043084Y-49745351D01*
X138048068Y-49675659D01*
X138089939Y-49619725D01*
X138120915Y-49602810D01*
X138252331Y-49553796D01*
X138367546Y-49467546D01*
X138453796Y-49352331D01*
X138504091Y-49217483D01*
X138510500Y-49157873D01*
X138510499Y-47362128D01*
X138504091Y-47302517D01*
X138453796Y-47167669D01*
X138453795Y-47167668D01*
X138453793Y-47167664D01*
X138367547Y-47052455D01*
X138367544Y-47052452D01*
X138252335Y-46966206D01*
X138252328Y-46966202D01*
X138117482Y-46915908D01*
X138117483Y-46915908D01*
X138057883Y-46909501D01*
X138057881Y-46909500D01*
X138057873Y-46909500D01*
X138057864Y-46909500D01*
X136262129Y-46909500D01*
X136262123Y-46909501D01*
X136202516Y-46915908D01*
X136067671Y-46966202D01*
X136067664Y-46966206D01*
X135952455Y-47052452D01*
X135952452Y-47052455D01*
X135866206Y-47167664D01*
X135866202Y-47167671D01*
X135815908Y-47302517D01*
X135809501Y-47362116D01*
X135809501Y-47362123D01*
X135809500Y-47362135D01*
X135809500Y-49157870D01*
X135809501Y-49157876D01*
X135815908Y-49217483D01*
X135866202Y-49352328D01*
X135866206Y-49352335D01*
X135952452Y-49467544D01*
X135952455Y-49467547D01*
X136067664Y-49553793D01*
X136067671Y-49553797D01*
X136199081Y-49602810D01*
X136255015Y-49644681D01*
X136279432Y-49710145D01*
X136264580Y-49778418D01*
X136243430Y-49806673D01*
X136121503Y-49928600D01*
X135985965Y-50122169D01*
X135985964Y-50122171D01*
X135886098Y-50336335D01*
X135886094Y-50336344D01*
X135824938Y-50564586D01*
X135824936Y-50564596D01*
X135804341Y-50799999D01*
X135804341Y-50800000D01*
X135824936Y-51035403D01*
X135824938Y-51035413D01*
X135886094Y-51263655D01*
X135886096Y-51263659D01*
X135886097Y-51263663D01*
X135970499Y-51444664D01*
X135985965Y-51477830D01*
X135985967Y-51477834D01*
X136121501Y-51671395D01*
X136121506Y-51671402D01*
X136288597Y-51838493D01*
X136288603Y-51838498D01*
X136474158Y-51968425D01*
X136517783Y-52023002D01*
X136524977Y-52092500D01*
X136493454Y-52154855D01*
X136474158Y-52171575D01*
X136288597Y-52301505D01*
X136121505Y-52468597D01*
X135985965Y-52662169D01*
X135985964Y-52662171D01*
X135886098Y-52876335D01*
X135886094Y-52876344D01*
X135824938Y-53104586D01*
X135824936Y-53104596D01*
X135804341Y-53339999D01*
X135804341Y-53340000D01*
X135824936Y-53575403D01*
X135824938Y-53575413D01*
X135886094Y-53803655D01*
X135886096Y-53803659D01*
X135886097Y-53803663D01*
X135923844Y-53884611D01*
X135985965Y-54017830D01*
X135985967Y-54017834D01*
X136121501Y-54211395D01*
X136121506Y-54211402D01*
X136288597Y-54378493D01*
X136288603Y-54378498D01*
X136474158Y-54508425D01*
X136517783Y-54563002D01*
X136524977Y-54632500D01*
X136493454Y-54694855D01*
X136474158Y-54711575D01*
X136288597Y-54841505D01*
X136121505Y-55008597D01*
X135985965Y-55202169D01*
X135985964Y-55202171D01*
X135886098Y-55416335D01*
X135886094Y-55416344D01*
X135824938Y-55644586D01*
X135824936Y-55644596D01*
X135804341Y-55879999D01*
X135804341Y-55880000D01*
X133350500Y-55880000D01*
X133350500Y-41571000D01*
X133655197Y-41571000D01*
X133674397Y-41937353D01*
X133731784Y-42299684D01*
X133731784Y-42299686D01*
X133826736Y-42654051D01*
X133958204Y-42996535D01*
X134124754Y-43323406D01*
X134324549Y-43631064D01*
X134513297Y-43864147D01*
X135140316Y-43237128D01*
X135201639Y-43203643D01*
X135271330Y-43208627D01*
X135327264Y-43250498D01*
X135331099Y-43255919D01*
X135388769Y-43342229D01*
X135475079Y-43399900D01*
X135519884Y-43453512D01*
X135528591Y-43522837D01*
X135498436Y-43585865D01*
X135493869Y-43590683D01*
X134866850Y-44217701D01*
X135099935Y-44406450D01*
X135407593Y-44606245D01*
X135734464Y-44772795D01*
X136076948Y-44904263D01*
X136431314Y-44999215D01*
X136793646Y-45056602D01*
X137159999Y-45075803D01*
X137160001Y-45075803D01*
X137526353Y-45056602D01*
X137888684Y-44999215D01*
X137888686Y-44999215D01*
X138243051Y-44904263D01*
X138585535Y-44772795D01*
X138912406Y-44606245D01*
X139220065Y-44406450D01*
X139453148Y-44217702D01*
X138826129Y-43590683D01*
X138792644Y-43529360D01*
X138797628Y-43459668D01*
X138839500Y-43403735D01*
X138844920Y-43399899D01*
X138848531Y-43397485D01*
X138848535Y-43397485D01*
X138931230Y-43342230D01*
X138986485Y-43259535D01*
X138986485Y-43259531D01*
X138988899Y-43255920D01*
X139042511Y-43211114D01*
X139111836Y-43202407D01*
X139174864Y-43232561D01*
X139179683Y-43237129D01*
X139806702Y-43864148D01*
X139995450Y-43631065D01*
X140195245Y-43323406D01*
X140361795Y-42996535D01*
X140493263Y-42654051D01*
X140588215Y-42299686D01*
X140588215Y-42299684D01*
X140645602Y-41937353D01*
X140664803Y-41571000D01*
X140664803Y-41570999D01*
X140645602Y-41204646D01*
X140588215Y-40842315D01*
X140588215Y-40842313D01*
X140493263Y-40487948D01*
X140361795Y-40145464D01*
X140195245Y-39818594D01*
X139995450Y-39510935D01*
X139806701Y-39277851D01*
X139179683Y-39904869D01*
X139118360Y-39938354D01*
X139048668Y-39933370D01*
X138992735Y-39891498D01*
X138988900Y-39886079D01*
X138931229Y-39799769D01*
X138844919Y-39742099D01*
X138800113Y-39688487D01*
X138791406Y-39619162D01*
X138821560Y-39556135D01*
X138826128Y-39551316D01*
X139453147Y-38924297D01*
X139220064Y-38735549D01*
X138912406Y-38535754D01*
X138585535Y-38369204D01*
X138243051Y-38237736D01*
X137888685Y-38142784D01*
X137526353Y-38085397D01*
X137160001Y-38066197D01*
X137159999Y-38066197D01*
X136793646Y-38085397D01*
X136431315Y-38142784D01*
X136431313Y-38142784D01*
X136076948Y-38237736D01*
X135734464Y-38369204D01*
X135407594Y-38535754D01*
X135099929Y-38735553D01*
X134866851Y-38924297D01*
X135493870Y-39551316D01*
X135527355Y-39612639D01*
X135522371Y-39682331D01*
X135480499Y-39738264D01*
X135475080Y-39742099D01*
X135388770Y-39799770D01*
X135331099Y-39886080D01*
X135277486Y-39930885D01*
X135208161Y-39939592D01*
X135145134Y-39909437D01*
X135140316Y-39904870D01*
X134513297Y-39277851D01*
X134324553Y-39510929D01*
X134124754Y-39818594D01*
X133958204Y-40145464D01*
X133826736Y-40487948D01*
X133731784Y-40842313D01*
X133731784Y-40842315D01*
X133674397Y-41204646D01*
X133655197Y-41570999D01*
X133655197Y-41571000D01*
X133350500Y-41571000D01*
X133350500Y-37564500D01*
X133370185Y-37497461D01*
X133422989Y-37451706D01*
X133474500Y-37440500D01*
X140845500Y-37440500D01*
X140912539Y-37460185D01*
G37*
G04 #@! TD.AperFunction*
M02*
