G04 #@! TF.GenerationSoftware,KiCad,Pcbnew,7.0.5-0*
G04 #@! TF.CreationDate,2023-07-15T01:27:44-04:00*
G04 #@! TF.ProjectId,strato_connect,73747261-746f-45f6-936f-6e6e6563742e,rev?*
G04 #@! TF.SameCoordinates,Original*
G04 #@! TF.FileFunction,Soldermask,Top*
G04 #@! TF.FilePolarity,Negative*
%FSLAX46Y46*%
G04 Gerber Fmt 4.6, Leading zero omitted, Abs format (unit mm)*
G04 Created by KiCad (PCBNEW 7.0.5-0) date 2023-07-15 01:27:44*
%MOMM*%
%LPD*%
G01*
G04 APERTURE LIST*
G04 Aperture macros list*
%AMRoundRect*
0 Rectangle with rounded corners*
0 $1 Rounding radius*
0 $2 $3 $4 $5 $6 $7 $8 $9 X,Y pos of 4 corners*
0 Add a 4 corners polygon primitive as box body*
4,1,4,$2,$3,$4,$5,$6,$7,$8,$9,$2,$3,0*
0 Add four circle primitives for the rounded corners*
1,1,$1+$1,$2,$3*
1,1,$1+$1,$4,$5*
1,1,$1+$1,$6,$7*
1,1,$1+$1,$8,$9*
0 Add four rect primitives between the rounded corners*
20,1,$1+$1,$2,$3,$4,$5,0*
20,1,$1+$1,$4,$5,$6,$7,0*
20,1,$1+$1,$6,$7,$8,$9,0*
20,1,$1+$1,$8,$9,$2,$3,0*%
%AMFreePoly0*
4,1,19,0.500000,-0.750000,0.000000,-0.750000,0.000000,-0.744911,-0.071157,-0.744911,-0.207708,-0.704816,-0.327430,-0.627875,-0.420627,-0.520320,-0.479746,-0.390866,-0.500000,-0.250000,-0.500000,0.250000,-0.479746,0.390866,-0.420627,0.520320,-0.327430,0.627875,-0.207708,0.704816,-0.071157,0.744911,0.000000,0.744911,0.000000,0.750000,0.500000,0.750000,0.500000,-0.750000,0.500000,-0.750000,
$1*%
%AMFreePoly1*
4,1,19,0.000000,0.744911,0.071157,0.744911,0.207708,0.704816,0.327430,0.627875,0.420627,0.520320,0.479746,0.390866,0.500000,0.250000,0.500000,-0.250000,0.479746,-0.390866,0.420627,-0.520320,0.327430,-0.627875,0.207708,-0.704816,0.071157,-0.744911,0.000000,-0.744911,0.000000,-0.750000,-0.500000,-0.750000,-0.500000,0.750000,0.000000,0.750000,0.000000,0.744911,0.000000,0.744911,
$1*%
G04 Aperture macros list end*
%ADD10C,2.050000*%
%ADD11C,2.250000*%
%ADD12RoundRect,0.160000X0.197500X0.160000X-0.197500X0.160000X-0.197500X-0.160000X0.197500X-0.160000X0*%
%ADD13RoundRect,0.218750X0.218750X0.256250X-0.218750X0.256250X-0.218750X-0.256250X0.218750X-0.256250X0*%
%ADD14RoundRect,0.155000X0.155000X-0.212500X0.155000X0.212500X-0.155000X0.212500X-0.155000X-0.212500X0*%
%ADD15R,3.800000X2.000000*%
%ADD16RoundRect,0.160000X0.160000X-0.197500X0.160000X0.197500X-0.160000X0.197500X-0.160000X-0.197500X0*%
%ADD17RoundRect,0.250000X0.250000X1.500000X-0.250000X1.500000X-0.250000X-1.500000X0.250000X-1.500000X0*%
%ADD18RoundRect,0.250001X0.499999X1.449999X-0.499999X1.449999X-0.499999X-1.449999X0.499999X-1.449999X0*%
%ADD19C,1.000000*%
%ADD20RoundRect,0.237500X-0.237500X0.300000X-0.237500X-0.300000X0.237500X-0.300000X0.237500X0.300000X0*%
%ADD21C,0.800000*%
%ADD22C,6.400000*%
%ADD23RoundRect,0.155000X-0.212500X-0.155000X0.212500X-0.155000X0.212500X0.155000X-0.212500X0.155000X0*%
%ADD24R,0.700000X0.340000*%
%ADD25RoundRect,0.160000X-0.160000X0.197500X-0.160000X-0.197500X0.160000X-0.197500X0.160000X0.197500X0*%
%ADD26RoundRect,0.155000X-0.155000X0.212500X-0.155000X-0.212500X0.155000X-0.212500X0.155000X0.212500X0*%
%ADD27RoundRect,0.150000X-0.150000X-0.625000X0.150000X-0.625000X0.150000X0.625000X-0.150000X0.625000X0*%
%ADD28RoundRect,0.250000X-0.350000X-0.650000X0.350000X-0.650000X0.350000X0.650000X-0.350000X0.650000X0*%
%ADD29RoundRect,0.250000X-1.250000X-0.550000X1.250000X-0.550000X1.250000X0.550000X-1.250000X0.550000X0*%
%ADD30RoundRect,0.237500X-0.250000X-0.237500X0.250000X-0.237500X0.250000X0.237500X-0.250000X0.237500X0*%
%ADD31RoundRect,0.160000X-0.197500X-0.160000X0.197500X-0.160000X0.197500X0.160000X-0.197500X0.160000X0*%
%ADD32RoundRect,0.218750X0.256250X-0.218750X0.256250X0.218750X-0.256250X0.218750X-0.256250X-0.218750X0*%
%ADD33R,0.900000X1.000000*%
%ADD34R,1.900000X0.400000*%
%ADD35FreePoly0,90.000000*%
%ADD36FreePoly1,90.000000*%
%ADD37RoundRect,0.250000X0.300000X0.300000X-0.300000X0.300000X-0.300000X-0.300000X0.300000X-0.300000X0*%
%ADD38R,4.400000X1.500000*%
%ADD39RoundRect,0.155000X0.212500X0.155000X-0.212500X0.155000X-0.212500X-0.155000X0.212500X-0.155000X0*%
%ADD40RoundRect,0.062500X0.375000X0.062500X-0.375000X0.062500X-0.375000X-0.062500X0.375000X-0.062500X0*%
%ADD41RoundRect,0.062500X0.062500X0.375000X-0.062500X0.375000X-0.062500X-0.375000X0.062500X-0.375000X0*%
%ADD42R,3.100000X3.100000*%
G04 APERTURE END LIST*
D10*
X175133000Y-63800000D03*
D11*
X172593000Y-61260000D03*
X172593000Y-66340000D03*
X177673000Y-61260000D03*
X177673000Y-66340000D03*
D12*
X152800000Y-86500000D03*
X151605000Y-86500000D03*
D13*
X165900000Y-65500000D03*
X164325000Y-65500000D03*
D14*
X150700000Y-73567500D03*
X150700000Y-72432500D03*
D15*
X152350000Y-96500000D03*
D16*
X160000000Y-89497500D03*
X160000000Y-88302500D03*
D17*
X153500000Y-65250000D03*
X151500000Y-65250000D03*
D18*
X155850000Y-59500000D03*
X149150000Y-59500000D03*
D12*
X161097500Y-73150000D03*
X159902500Y-73150000D03*
D19*
X153615000Y-77680000D03*
D20*
X157500000Y-68937500D03*
X157500000Y-70662500D03*
D21*
X172100000Y-94500000D03*
X172802944Y-92802944D03*
X172802944Y-96197056D03*
X174500000Y-92100000D03*
D22*
X174500000Y-94500000D03*
D21*
X174500000Y-96900000D03*
X176197056Y-92802944D03*
X176197056Y-96197056D03*
X176900000Y-94500000D03*
D23*
X160300000Y-84538000D03*
X161435000Y-84538000D03*
D24*
X157200000Y-72200000D03*
X157200000Y-72700000D03*
X157200000Y-73200000D03*
X158700000Y-73200000D03*
X158700000Y-72700000D03*
X158700000Y-72200000D03*
D25*
X162200000Y-87102500D03*
X162200000Y-88297500D03*
D19*
X151075000Y-77680000D03*
D12*
X161095000Y-71050000D03*
X159900000Y-71050000D03*
D26*
X152850000Y-82032500D03*
X152850000Y-83167500D03*
D12*
X152797500Y-85400000D03*
X151602500Y-85400000D03*
D27*
X157250000Y-93100000D03*
X158250000Y-93100000D03*
X159250000Y-93100000D03*
X160250000Y-93100000D03*
D28*
X155950000Y-96975000D03*
X161550000Y-96975000D03*
D29*
X164400000Y-70800000D03*
X168800000Y-70800000D03*
D21*
X141986000Y-94500000D03*
X142688944Y-92802944D03*
X142688944Y-96197056D03*
X144386000Y-92100000D03*
D22*
X144386000Y-94500000D03*
D21*
X144386000Y-96900000D03*
X146083056Y-92802944D03*
X146083056Y-96197056D03*
X146786000Y-94500000D03*
X142000000Y-61200000D03*
X142702944Y-59502944D03*
X142702944Y-62897056D03*
X144400000Y-58800000D03*
D22*
X144400000Y-61200000D03*
D21*
X144400000Y-63600000D03*
X146097056Y-59502944D03*
X146097056Y-62897056D03*
X146800000Y-61200000D03*
D19*
X158695000Y-77680000D03*
D25*
X161100000Y-87102500D03*
X161100000Y-88297500D03*
D30*
X160898000Y-65500000D03*
X162723000Y-65500000D03*
D31*
X159902500Y-72100000D03*
X161097500Y-72100000D03*
D25*
X149600000Y-72402500D03*
X149600000Y-73597500D03*
D32*
X151765000Y-89475000D03*
X151765000Y-87900000D03*
D29*
X164400000Y-76800000D03*
X168800000Y-76800000D03*
D33*
X158641000Y-88684000D03*
X158641000Y-87084000D03*
X154541000Y-88684000D03*
X154541000Y-87084000D03*
D19*
X161235000Y-77680000D03*
D34*
X161008000Y-79850000D03*
X161008000Y-81050000D03*
X161008000Y-82250000D03*
D26*
X151800000Y-82032500D03*
X151800000Y-83167500D03*
D23*
X160300000Y-83500000D03*
X161435000Y-83500000D03*
D27*
X165150000Y-93100000D03*
X166150000Y-93100000D03*
X167150000Y-93100000D03*
X168150000Y-93100000D03*
D28*
X163850000Y-96975000D03*
X169450000Y-96975000D03*
D32*
X149900000Y-89475000D03*
X149900000Y-87900000D03*
D35*
X158648400Y-66944000D03*
D36*
X158648400Y-65644000D03*
D37*
X155700000Y-69300000D03*
X152900000Y-69300000D03*
D38*
X153600000Y-71550000D03*
X153600000Y-74600000D03*
D16*
X158846500Y-70997500D03*
X158846500Y-69802500D03*
D19*
X156155000Y-77680000D03*
D39*
X161067500Y-70000000D03*
X159932500Y-70000000D03*
D40*
X158986500Y-84337500D03*
X158986500Y-83837500D03*
X158986500Y-83337500D03*
X158986500Y-82837500D03*
X158986500Y-82337500D03*
X158986500Y-81837500D03*
X158986500Y-81337500D03*
X158986500Y-80837500D03*
D41*
X158299000Y-80150000D03*
X157799000Y-80150000D03*
X157299000Y-80150000D03*
X156799000Y-80150000D03*
X156299000Y-80150000D03*
X155799000Y-80150000D03*
X155299000Y-80150000D03*
X154799000Y-80150000D03*
D40*
X154111500Y-80837500D03*
X154111500Y-81337500D03*
X154111500Y-81837500D03*
X154111500Y-82337500D03*
X154111500Y-82837500D03*
X154111500Y-83337500D03*
X154111500Y-83837500D03*
X154111500Y-84337500D03*
D41*
X154799000Y-85025000D03*
X155299000Y-85025000D03*
X155799000Y-85025000D03*
X156299000Y-85025000D03*
X156799000Y-85025000D03*
X157299000Y-85025000D03*
X157799000Y-85025000D03*
X158299000Y-85025000D03*
D42*
X156549000Y-82587500D03*
M02*
