G04 #@! TF.GenerationSoftware,KiCad,Pcbnew,7.0.5-0*
G04 #@! TF.CreationDate,2023-07-15T01:27:44-04:00*
G04 #@! TF.ProjectId,strato_connect,73747261-746f-45f6-936f-6e6e6563742e,rev?*
G04 #@! TF.SameCoordinates,Original*
G04 #@! TF.FileFunction,Legend,Top*
G04 #@! TF.FilePolarity,Positive*
%FSLAX46Y46*%
G04 Gerber Fmt 4.6, Leading zero omitted, Abs format (unit mm)*
G04 Created by KiCad (PCBNEW 7.0.5-0) date 2023-07-15 01:27:44*
%MOMM*%
%LPD*%
G01*
G04 APERTURE LIST*
G04 Aperture macros list*
%AMRoundRect*
0 Rectangle with rounded corners*
0 $1 Rounding radius*
0 $2 $3 $4 $5 $6 $7 $8 $9 X,Y pos of 4 corners*
0 Add a 4 corners polygon primitive as box body*
4,1,4,$2,$3,$4,$5,$6,$7,$8,$9,$2,$3,0*
0 Add four circle primitives for the rounded corners*
1,1,$1+$1,$2,$3*
1,1,$1+$1,$4,$5*
1,1,$1+$1,$6,$7*
1,1,$1+$1,$8,$9*
0 Add four rect primitives between the rounded corners*
20,1,$1+$1,$2,$3,$4,$5,0*
20,1,$1+$1,$4,$5,$6,$7,0*
20,1,$1+$1,$6,$7,$8,$9,0*
20,1,$1+$1,$8,$9,$2,$3,0*%
%AMFreePoly0*
4,1,19,0.500000,-0.750000,0.000000,-0.750000,0.000000,-0.744911,-0.071157,-0.744911,-0.207708,-0.704816,-0.327430,-0.627875,-0.420627,-0.520320,-0.479746,-0.390866,-0.500000,-0.250000,-0.500000,0.250000,-0.479746,0.390866,-0.420627,0.520320,-0.327430,0.627875,-0.207708,0.704816,-0.071157,0.744911,0.000000,0.744911,0.000000,0.750000,0.500000,0.750000,0.500000,-0.750000,0.500000,-0.750000,
$1*%
%AMFreePoly1*
4,1,19,0.000000,0.744911,0.071157,0.744911,0.207708,0.704816,0.327430,0.627875,0.420627,0.520320,0.479746,0.390866,0.500000,0.250000,0.500000,-0.250000,0.479746,-0.390866,0.420627,-0.520320,0.327430,-0.627875,0.207708,-0.704816,0.071157,-0.744911,0.000000,-0.744911,0.000000,-0.750000,-0.500000,-0.750000,-0.500000,0.750000,0.000000,0.750000,0.000000,0.744911,0.000000,0.744911,
$1*%
G04 Aperture macros list end*
%ADD10C,0.000000*%
%ADD11C,0.150000*%
%ADD12C,0.120000*%
%ADD13C,2.050000*%
%ADD14C,2.250000*%
%ADD15RoundRect,0.160000X0.197500X0.160000X-0.197500X0.160000X-0.197500X-0.160000X0.197500X-0.160000X0*%
%ADD16RoundRect,0.218750X0.218750X0.256250X-0.218750X0.256250X-0.218750X-0.256250X0.218750X-0.256250X0*%
%ADD17RoundRect,0.155000X0.155000X-0.212500X0.155000X0.212500X-0.155000X0.212500X-0.155000X-0.212500X0*%
%ADD18R,3.800000X2.000000*%
%ADD19RoundRect,0.160000X0.160000X-0.197500X0.160000X0.197500X-0.160000X0.197500X-0.160000X-0.197500X0*%
%ADD20RoundRect,0.250000X0.250000X1.500000X-0.250000X1.500000X-0.250000X-1.500000X0.250000X-1.500000X0*%
%ADD21RoundRect,0.250001X0.499999X1.449999X-0.499999X1.449999X-0.499999X-1.449999X0.499999X-1.449999X0*%
%ADD22C,1.000000*%
%ADD23RoundRect,0.237500X-0.237500X0.300000X-0.237500X-0.300000X0.237500X-0.300000X0.237500X0.300000X0*%
%ADD24C,0.800000*%
%ADD25C,6.400000*%
%ADD26RoundRect,0.155000X-0.212500X-0.155000X0.212500X-0.155000X0.212500X0.155000X-0.212500X0.155000X0*%
%ADD27R,0.700000X0.340000*%
%ADD28RoundRect,0.160000X-0.160000X0.197500X-0.160000X-0.197500X0.160000X-0.197500X0.160000X0.197500X0*%
%ADD29RoundRect,0.155000X-0.155000X0.212500X-0.155000X-0.212500X0.155000X-0.212500X0.155000X0.212500X0*%
%ADD30RoundRect,0.150000X-0.150000X-0.625000X0.150000X-0.625000X0.150000X0.625000X-0.150000X0.625000X0*%
%ADD31RoundRect,0.250000X-0.350000X-0.650000X0.350000X-0.650000X0.350000X0.650000X-0.350000X0.650000X0*%
%ADD32RoundRect,0.250000X-1.250000X-0.550000X1.250000X-0.550000X1.250000X0.550000X-1.250000X0.550000X0*%
%ADD33RoundRect,0.237500X-0.250000X-0.237500X0.250000X-0.237500X0.250000X0.237500X-0.250000X0.237500X0*%
%ADD34RoundRect,0.160000X-0.197500X-0.160000X0.197500X-0.160000X0.197500X0.160000X-0.197500X0.160000X0*%
%ADD35RoundRect,0.218750X0.256250X-0.218750X0.256250X0.218750X-0.256250X0.218750X-0.256250X-0.218750X0*%
%ADD36R,0.900000X1.000000*%
%ADD37R,1.900000X0.400000*%
%ADD38FreePoly0,90.000000*%
%ADD39FreePoly1,90.000000*%
%ADD40RoundRect,0.250000X0.300000X0.300000X-0.300000X0.300000X-0.300000X-0.300000X0.300000X-0.300000X0*%
%ADD41R,4.400000X1.500000*%
%ADD42RoundRect,0.155000X0.212500X0.155000X-0.212500X0.155000X-0.212500X-0.155000X0.212500X-0.155000X0*%
%ADD43RoundRect,0.062500X0.375000X0.062500X-0.375000X0.062500X-0.375000X-0.062500X0.375000X-0.062500X0*%
%ADD44RoundRect,0.062500X0.062500X0.375000X-0.062500X0.375000X-0.062500X-0.375000X0.062500X-0.375000X0*%
%ADD45R,3.100000X3.100000*%
G04 APERTURE END LIST*
D10*
G36*
X167779406Y-85003581D02*
G01*
X167803061Y-85005131D01*
X167826225Y-85007715D01*
X167848898Y-85011333D01*
X167871080Y-85015984D01*
X167892771Y-85021668D01*
X167913972Y-85028386D01*
X167934681Y-85036137D01*
X167954899Y-85044922D01*
X167974627Y-85054741D01*
X167993863Y-85065593D01*
X168012609Y-85077478D01*
X168030864Y-85090398D01*
X168048627Y-85104350D01*
X168065900Y-85119336D01*
X168082682Y-85135356D01*
X168098702Y-85152138D01*
X168113688Y-85169411D01*
X168127641Y-85187175D01*
X168140560Y-85205429D01*
X168152445Y-85224175D01*
X168163297Y-85243411D01*
X168173116Y-85263139D01*
X168181901Y-85283357D01*
X168189652Y-85304067D01*
X168196370Y-85325267D01*
X168202055Y-85346958D01*
X168206706Y-85369140D01*
X168210323Y-85391813D01*
X168212907Y-85414977D01*
X168214457Y-85438632D01*
X168214974Y-85462778D01*
X168214457Y-85486924D01*
X168212907Y-85510579D01*
X168210323Y-85533743D01*
X168206706Y-85556416D01*
X168202055Y-85578598D01*
X168196370Y-85600289D01*
X168189652Y-85621489D01*
X168181901Y-85642199D01*
X168173116Y-85662417D01*
X168163297Y-85682144D01*
X168152445Y-85701381D01*
X168140560Y-85720127D01*
X168127641Y-85738381D01*
X168113688Y-85756145D01*
X168098702Y-85773418D01*
X168082682Y-85790200D01*
X168065900Y-85806219D01*
X168048627Y-85821205D01*
X168030864Y-85835158D01*
X168012609Y-85848077D01*
X167993863Y-85859963D01*
X167974627Y-85870815D01*
X167954899Y-85880633D01*
X167934681Y-85889418D01*
X167913972Y-85897170D01*
X167892771Y-85903888D01*
X167871080Y-85909572D01*
X167848898Y-85914223D01*
X167826225Y-85917841D01*
X167803061Y-85920424D01*
X167779406Y-85921975D01*
X167755260Y-85922491D01*
X167731115Y-85921975D01*
X167707460Y-85920424D01*
X167684296Y-85917841D01*
X167661623Y-85914223D01*
X167639440Y-85909572D01*
X167617749Y-85903888D01*
X167596549Y-85897170D01*
X167575840Y-85889418D01*
X167555621Y-85880633D01*
X167535894Y-85870815D01*
X167516657Y-85859963D01*
X167497912Y-85848077D01*
X167479657Y-85835158D01*
X167461893Y-85821205D01*
X167444620Y-85806219D01*
X167427838Y-85790200D01*
X167411819Y-85773418D01*
X167396832Y-85756145D01*
X167382880Y-85738381D01*
X167369961Y-85720127D01*
X167358075Y-85701381D01*
X167347223Y-85682144D01*
X167337405Y-85662417D01*
X167328620Y-85642199D01*
X167320868Y-85621489D01*
X167314150Y-85600289D01*
X167308466Y-85578598D01*
X167303815Y-85556416D01*
X167300198Y-85533743D01*
X167297614Y-85510579D01*
X167296064Y-85486924D01*
X167295547Y-85462778D01*
X167296064Y-85438632D01*
X167297614Y-85414977D01*
X167300198Y-85391813D01*
X167303815Y-85369140D01*
X167308466Y-85346958D01*
X167314150Y-85325267D01*
X167320868Y-85304067D01*
X167328620Y-85283357D01*
X167337405Y-85263139D01*
X167347223Y-85243411D01*
X167358075Y-85224175D01*
X167369961Y-85205429D01*
X167382880Y-85187175D01*
X167396832Y-85169411D01*
X167411819Y-85152138D01*
X167427838Y-85135356D01*
X167444620Y-85119336D01*
X167461893Y-85104350D01*
X167479657Y-85090398D01*
X167497912Y-85077478D01*
X167516657Y-85065593D01*
X167535894Y-85054741D01*
X167555621Y-85044922D01*
X167575840Y-85036137D01*
X167596549Y-85028386D01*
X167617749Y-85021668D01*
X167639440Y-85015984D01*
X167661623Y-85011333D01*
X167684296Y-85007715D01*
X167707460Y-85005131D01*
X167731115Y-85003581D01*
X167755260Y-85003064D01*
X167779406Y-85003581D01*
G37*
G36*
X169262558Y-83723608D02*
G01*
X169373146Y-83726979D01*
X169484974Y-83733064D01*
X169491072Y-83844892D01*
X169494482Y-83955480D01*
X169495206Y-84064827D01*
X169493242Y-84172934D01*
X169488591Y-84279801D01*
X169481253Y-84385428D01*
X169471228Y-84489814D01*
X169458515Y-84592960D01*
X169443116Y-84694866D01*
X169425029Y-84795532D01*
X169404255Y-84894957D01*
X169380794Y-84993142D01*
X169354646Y-85090087D01*
X169325810Y-85185792D01*
X169294288Y-85280257D01*
X169260078Y-85373481D01*
X169223078Y-85465749D01*
X169183183Y-85557346D01*
X169140395Y-85648270D01*
X169094713Y-85738523D01*
X169046137Y-85828104D01*
X168994668Y-85917014D01*
X168940304Y-86005251D01*
X168883047Y-86092817D01*
X168822895Y-86179711D01*
X168759850Y-86265933D01*
X168693911Y-86351483D01*
X168625078Y-86436362D01*
X168553351Y-86520569D01*
X168478730Y-86604103D01*
X168401215Y-86686967D01*
X168320807Y-86769158D01*
X168307578Y-86782387D01*
X168294349Y-86795616D01*
X168439869Y-87523221D01*
X168442156Y-87535597D01*
X168444055Y-87547922D01*
X168445567Y-87560195D01*
X168446691Y-87572417D01*
X168447427Y-87584586D01*
X168447776Y-87596704D01*
X168447737Y-87608771D01*
X168447311Y-87620786D01*
X168446497Y-87632749D01*
X168445296Y-87644660D01*
X168443707Y-87656520D01*
X168441730Y-87668328D01*
X168439366Y-87680084D01*
X168436614Y-87691789D01*
X168433475Y-87703442D01*
X168429948Y-87715044D01*
X168426059Y-87726542D01*
X168421835Y-87737885D01*
X168417274Y-87749073D01*
X168412378Y-87760105D01*
X168407145Y-87770983D01*
X168401577Y-87781706D01*
X168395673Y-87792274D01*
X168389433Y-87802687D01*
X168382857Y-87812944D01*
X168375946Y-87823047D01*
X168368698Y-87832995D01*
X168361115Y-87842787D01*
X168353195Y-87852425D01*
X168344940Y-87861908D01*
X168336349Y-87871235D01*
X168327422Y-87880408D01*
X167196328Y-89018116D01*
X166634088Y-87708429D01*
X166548099Y-87622439D01*
X167030963Y-87622439D01*
X167328620Y-88323585D01*
X168049609Y-87602595D01*
X167943776Y-87080043D01*
X167890549Y-87117819D01*
X167836702Y-87155078D01*
X167782235Y-87191820D01*
X167727148Y-87228045D01*
X167671441Y-87263753D01*
X167615114Y-87298945D01*
X167558166Y-87333620D01*
X167500599Y-87367778D01*
X167384430Y-87434544D01*
X167267435Y-87499242D01*
X167149613Y-87561874D01*
X167030963Y-87622439D01*
X166548099Y-87622439D01*
X165509609Y-86583950D01*
X165139815Y-86425200D01*
X165913099Y-86425200D01*
X166792838Y-87304939D01*
X166886373Y-87261221D01*
X166978460Y-87216056D01*
X167069101Y-87169444D01*
X167158294Y-87121384D01*
X167246041Y-87071878D01*
X167332340Y-87020926D01*
X167417193Y-86968526D01*
X167500599Y-86914679D01*
X167581317Y-86860315D01*
X167658108Y-86806365D01*
X167730972Y-86752828D01*
X167799909Y-86699705D01*
X167864918Y-86646995D01*
X167925999Y-86594698D01*
X167983153Y-86542815D01*
X168036380Y-86491346D01*
X168102241Y-86424269D01*
X168165881Y-86356987D01*
X168227299Y-86289497D01*
X168286494Y-86221801D01*
X168343467Y-86153898D01*
X168398218Y-86085789D01*
X168450748Y-86017473D01*
X168501055Y-85948950D01*
X168549140Y-85880220D01*
X168595002Y-85811284D01*
X168638643Y-85742141D01*
X168680062Y-85672791D01*
X168719258Y-85603234D01*
X168756233Y-85533471D01*
X168790985Y-85463501D01*
X168823515Y-85393325D01*
X168854030Y-85322476D01*
X168882737Y-85250491D01*
X168909634Y-85177369D01*
X168934723Y-85103110D01*
X168958003Y-85027714D01*
X168979475Y-84951181D01*
X168999138Y-84873511D01*
X169016992Y-84794705D01*
X169033037Y-84714761D01*
X169047274Y-84633681D01*
X169059703Y-84551464D01*
X169070322Y-84468110D01*
X169079133Y-84383619D01*
X169086135Y-84297991D01*
X169091328Y-84211226D01*
X169094713Y-84123325D01*
X169006812Y-84126710D01*
X168920047Y-84131903D01*
X168834419Y-84138905D01*
X168749928Y-84147716D01*
X168666574Y-84158336D01*
X168584357Y-84170764D01*
X168503277Y-84185001D01*
X168423333Y-84201046D01*
X168344527Y-84218900D01*
X168266857Y-84238563D01*
X168190324Y-84260035D01*
X168114928Y-84283315D01*
X168040669Y-84308404D01*
X167967547Y-84335302D01*
X167895562Y-84364008D01*
X167824713Y-84394523D01*
X167754537Y-84427053D01*
X167684567Y-84461805D01*
X167614804Y-84498780D01*
X167545247Y-84537976D01*
X167475897Y-84579395D01*
X167406754Y-84623036D01*
X167337818Y-84668899D01*
X167269088Y-84716984D01*
X167200565Y-84767291D01*
X167132249Y-84819820D01*
X167064140Y-84874571D01*
X166996237Y-84931544D01*
X166928541Y-84990740D01*
X166861051Y-85052157D01*
X166793769Y-85115797D01*
X166726693Y-85181658D01*
X166675223Y-85234885D01*
X166623340Y-85292039D01*
X166571043Y-85353121D01*
X166518333Y-85418130D01*
X166465210Y-85487066D01*
X166411673Y-85559930D01*
X166357723Y-85636721D01*
X166303359Y-85717439D01*
X166249512Y-85800845D01*
X166197112Y-85885698D01*
X166146160Y-85971997D01*
X166096654Y-86059744D01*
X166048594Y-86148937D01*
X166001982Y-86239578D01*
X165956817Y-86331665D01*
X165913099Y-86425200D01*
X165139815Y-86425200D01*
X164199922Y-86021710D01*
X164332987Y-85889418D01*
X164894453Y-85889418D01*
X165595599Y-86187075D01*
X165656164Y-86068426D01*
X165718795Y-85950603D01*
X165783494Y-85833608D01*
X165850260Y-85717439D01*
X165884418Y-85659872D01*
X165919093Y-85602924D01*
X165954285Y-85546597D01*
X165989993Y-85490890D01*
X166026219Y-85435803D01*
X166062960Y-85381336D01*
X166100219Y-85327489D01*
X166137995Y-85274262D01*
X165615443Y-85168429D01*
X164894453Y-85889418D01*
X164332987Y-85889418D01*
X165337630Y-84890616D01*
X165346803Y-84881689D01*
X165356130Y-84873098D01*
X165365613Y-84864843D01*
X165375251Y-84856923D01*
X165385043Y-84849340D01*
X165394991Y-84842092D01*
X165405094Y-84835181D01*
X165415351Y-84828605D01*
X165425764Y-84822365D01*
X165436332Y-84816461D01*
X165447055Y-84810893D01*
X165457933Y-84805660D01*
X165468966Y-84800764D01*
X165480154Y-84796204D01*
X165491497Y-84791979D01*
X165502995Y-84788090D01*
X165514596Y-84784564D01*
X165526249Y-84781424D01*
X165537954Y-84778672D01*
X165549710Y-84776308D01*
X165561518Y-84774332D01*
X165573378Y-84772743D01*
X165585289Y-84771541D01*
X165597253Y-84770727D01*
X165609267Y-84770301D01*
X165621334Y-84770262D01*
X165633452Y-84770611D01*
X165645622Y-84771347D01*
X165657843Y-84772471D01*
X165670116Y-84773983D01*
X165682441Y-84775882D01*
X165694818Y-84778169D01*
X166422422Y-84923689D01*
X166423249Y-84922875D01*
X166424075Y-84922087D01*
X166424902Y-84921325D01*
X166425729Y-84920589D01*
X166426556Y-84919878D01*
X166427383Y-84919193D01*
X166428210Y-84918535D01*
X166429036Y-84917901D01*
X166429863Y-84917294D01*
X166430690Y-84916713D01*
X166431517Y-84916157D01*
X166432344Y-84915628D01*
X166433170Y-84915124D01*
X166433997Y-84914646D01*
X166434824Y-84914194D01*
X166435651Y-84913767D01*
X166436478Y-84913341D01*
X166437304Y-84912889D01*
X166438131Y-84912411D01*
X166438958Y-84911907D01*
X166439785Y-84911378D01*
X166440612Y-84910822D01*
X166441439Y-84910241D01*
X166442265Y-84909633D01*
X166443092Y-84909000D01*
X166443919Y-84908342D01*
X166444746Y-84907657D01*
X166445573Y-84906946D01*
X166446400Y-84906210D01*
X166447226Y-84905448D01*
X166448053Y-84904660D01*
X166448880Y-84903846D01*
X166531071Y-84823424D01*
X166613934Y-84745871D01*
X166697469Y-84671185D01*
X166781676Y-84599368D01*
X166866555Y-84530419D01*
X166952105Y-84464338D01*
X167038327Y-84401124D01*
X167125221Y-84340779D01*
X167212787Y-84283302D01*
X167301024Y-84228693D01*
X167389934Y-84176952D01*
X167479515Y-84128079D01*
X167569768Y-84082074D01*
X167660692Y-84038937D01*
X167752289Y-83998668D01*
X167844557Y-83961268D01*
X167937782Y-83926657D01*
X168032246Y-83894760D01*
X168127951Y-83865576D01*
X168224896Y-83839104D01*
X168323081Y-83815346D01*
X168422506Y-83794301D01*
X168523172Y-83775969D01*
X168625078Y-83760350D01*
X168728224Y-83747443D01*
X168832611Y-83737250D01*
X168938237Y-83729770D01*
X169045104Y-83725003D01*
X169153211Y-83722949D01*
X169262558Y-83723608D01*
G37*
G36*
X165250000Y-87150000D02*
G01*
X165290553Y-87152339D01*
X165330305Y-87156512D01*
X165369256Y-87162519D01*
X165407406Y-87170361D01*
X165444755Y-87180037D01*
X165481303Y-87191548D01*
X165517051Y-87204894D01*
X165551997Y-87220073D01*
X165586142Y-87237088D01*
X165619486Y-87255937D01*
X165652029Y-87276620D01*
X165683772Y-87299138D01*
X165714713Y-87323491D01*
X165744853Y-87349678D01*
X165774193Y-87377699D01*
X165802214Y-87407039D01*
X165828401Y-87437179D01*
X165852754Y-87468121D01*
X165875272Y-87499863D01*
X165895955Y-87532406D01*
X165914804Y-87565750D01*
X165931819Y-87599896D01*
X165946999Y-87634842D01*
X165960344Y-87670589D01*
X165971855Y-87707137D01*
X165981531Y-87744486D01*
X165989373Y-87782636D01*
X165995381Y-87821587D01*
X165999553Y-87861339D01*
X166001892Y-87901892D01*
X166002396Y-87943246D01*
X166001091Y-87984601D01*
X165998003Y-88025154D01*
X165993133Y-88064906D01*
X165986479Y-88103857D01*
X165978043Y-88142007D01*
X165967824Y-88179356D01*
X165955822Y-88215904D01*
X165942038Y-88251652D01*
X165926470Y-88286598D01*
X165909120Y-88320743D01*
X165889987Y-88354087D01*
X165869071Y-88386630D01*
X165846372Y-88418373D01*
X165821890Y-88449314D01*
X165795625Y-88479454D01*
X165767578Y-88508793D01*
X165745344Y-88530058D01*
X165721638Y-88550858D01*
X165696458Y-88571193D01*
X165669806Y-88591062D01*
X165641681Y-88610467D01*
X165612084Y-88629406D01*
X165581013Y-88647880D01*
X165548470Y-88665890D01*
X165514454Y-88683434D01*
X165478965Y-88700513D01*
X165442004Y-88717127D01*
X165403569Y-88733276D01*
X165363662Y-88748960D01*
X165322282Y-88764178D01*
X165279430Y-88778932D01*
X165235104Y-88793221D01*
X165139348Y-88821126D01*
X165032326Y-88848618D01*
X164914038Y-88875696D01*
X164784486Y-88902361D01*
X164643667Y-88928613D01*
X164491584Y-88954451D01*
X164328234Y-88979876D01*
X164153620Y-89004887D01*
X164178579Y-88830221D01*
X164203849Y-88666717D01*
X164228145Y-88522022D01*
X164629870Y-88522022D01*
X164710692Y-88508483D01*
X164787793Y-88494324D01*
X164861173Y-88479545D01*
X164930833Y-88464145D01*
X164996772Y-88448125D01*
X165058991Y-88431485D01*
X165117489Y-88414225D01*
X165172266Y-88396345D01*
X165223425Y-88377845D01*
X165271071Y-88358725D01*
X165293576Y-88348932D01*
X165315203Y-88338985D01*
X165335951Y-88328882D01*
X165355820Y-88318624D01*
X165374811Y-88308211D01*
X165392924Y-88297644D01*
X165410158Y-88286921D01*
X165426514Y-88276043D01*
X165441991Y-88265010D01*
X165456589Y-88253822D01*
X165470309Y-88242479D01*
X165483151Y-88230981D01*
X165498383Y-88216705D01*
X165512658Y-88201991D01*
X165525978Y-88186836D01*
X165538341Y-88171243D01*
X165549749Y-88155210D01*
X165560200Y-88138739D01*
X165569696Y-88121827D01*
X165578235Y-88104477D01*
X165585819Y-88086687D01*
X165592447Y-88068459D01*
X165598118Y-88049790D01*
X165602833Y-88030683D01*
X165606593Y-88011136D01*
X165609396Y-87991151D01*
X165611244Y-87970725D01*
X165612135Y-87949861D01*
X165612071Y-87928945D01*
X165611050Y-87908365D01*
X165609073Y-87888121D01*
X165606141Y-87868212D01*
X165602252Y-87848640D01*
X165597408Y-87829403D01*
X165591607Y-87810503D01*
X165584850Y-87791938D01*
X165577137Y-87773709D01*
X165568469Y-87755816D01*
X165558844Y-87738259D01*
X165548263Y-87721038D01*
X165536726Y-87704152D01*
X165524234Y-87687603D01*
X165510785Y-87671390D01*
X165496380Y-87655512D01*
X165480503Y-87641107D01*
X165464289Y-87627658D01*
X165447740Y-87615166D01*
X165430854Y-87603629D01*
X165413633Y-87593048D01*
X165396076Y-87583423D01*
X165378183Y-87574755D01*
X165359954Y-87567042D01*
X165341390Y-87560285D01*
X165322489Y-87554485D01*
X165303252Y-87549640D01*
X165283680Y-87545751D01*
X165263772Y-87542819D01*
X165243527Y-87540842D01*
X165222947Y-87539821D01*
X165202031Y-87539757D01*
X165181167Y-87540648D01*
X165160742Y-87542496D01*
X165140756Y-87545299D01*
X165121209Y-87549059D01*
X165102102Y-87553774D01*
X165083434Y-87559446D01*
X165065205Y-87566073D01*
X165047415Y-87573657D01*
X165030065Y-87582196D01*
X165013154Y-87591692D01*
X164996682Y-87602143D01*
X164980649Y-87613551D01*
X164965056Y-87625915D01*
X164949902Y-87639234D01*
X164935187Y-87653510D01*
X164920911Y-87668741D01*
X164909413Y-87681583D01*
X164898070Y-87695303D01*
X164886882Y-87709902D01*
X164875850Y-87725379D01*
X164864972Y-87741734D01*
X164854249Y-87758968D01*
X164843681Y-87777081D01*
X164833268Y-87796072D01*
X164823010Y-87815942D01*
X164812908Y-87836690D01*
X164802960Y-87858316D01*
X164793167Y-87880821D01*
X164783530Y-87904205D01*
X164774047Y-87928467D01*
X164764719Y-87953608D01*
X164755547Y-87979627D01*
X164737667Y-88034404D01*
X164720407Y-88092901D01*
X164703767Y-88155120D01*
X164687747Y-88221059D01*
X164672348Y-88290719D01*
X164657568Y-88364099D01*
X164643409Y-88441200D01*
X164629870Y-88522022D01*
X164228145Y-88522022D01*
X164229429Y-88514374D01*
X164255319Y-88373194D01*
X164281519Y-88243176D01*
X164308029Y-88124321D01*
X164334849Y-88016627D01*
X164361979Y-87920096D01*
X164375867Y-87875370D01*
X164390246Y-87832142D01*
X164405116Y-87790414D01*
X164420477Y-87750183D01*
X164436329Y-87711452D01*
X164452671Y-87674219D01*
X164469505Y-87638485D01*
X164486829Y-87604249D01*
X164504645Y-87571512D01*
X164522951Y-87540274D01*
X164541748Y-87510534D01*
X164561037Y-87482293D01*
X164580816Y-87455550D01*
X164601086Y-87430306D01*
X164621847Y-87406561D01*
X164643099Y-87384314D01*
X164672438Y-87356267D01*
X164702578Y-87330002D01*
X164733520Y-87305521D01*
X164765262Y-87282822D01*
X164797805Y-87261906D01*
X164831149Y-87242773D01*
X164865295Y-87225422D01*
X164900241Y-87209855D01*
X164935988Y-87196070D01*
X164972536Y-87184068D01*
X165009885Y-87173849D01*
X165048035Y-87165413D01*
X165086986Y-87158760D01*
X165126739Y-87153889D01*
X165167292Y-87150802D01*
X165208646Y-87149497D01*
X165250000Y-87150000D01*
G37*
D11*
X173738095Y-90754819D02*
X173738095Y-89754819D01*
X173738095Y-90231009D02*
X174309523Y-90231009D01*
X174309523Y-90754819D02*
X174309523Y-89754819D01*
X174738095Y-89850057D02*
X174785714Y-89802438D01*
X174785714Y-89802438D02*
X174880952Y-89754819D01*
X174880952Y-89754819D02*
X175119047Y-89754819D01*
X175119047Y-89754819D02*
X175214285Y-89802438D01*
X175214285Y-89802438D02*
X175261904Y-89850057D01*
X175261904Y-89850057D02*
X175309523Y-89945295D01*
X175309523Y-89945295D02*
X175309523Y-90040533D01*
X175309523Y-90040533D02*
X175261904Y-90183390D01*
X175261904Y-90183390D02*
X174690476Y-90754819D01*
X174690476Y-90754819D02*
X175309523Y-90754819D01*
X143624095Y-90754819D02*
X143624095Y-89754819D01*
X143624095Y-90231009D02*
X144195523Y-90231009D01*
X144195523Y-90754819D02*
X144195523Y-89754819D01*
X144576476Y-89754819D02*
X145195523Y-89754819D01*
X145195523Y-89754819D02*
X144862190Y-90135771D01*
X144862190Y-90135771D02*
X145005047Y-90135771D01*
X145005047Y-90135771D02*
X145100285Y-90183390D01*
X145100285Y-90183390D02*
X145147904Y-90231009D01*
X145147904Y-90231009D02*
X145195523Y-90326247D01*
X145195523Y-90326247D02*
X145195523Y-90564342D01*
X145195523Y-90564342D02*
X145147904Y-90659580D01*
X145147904Y-90659580D02*
X145100285Y-90707200D01*
X145100285Y-90707200D02*
X145005047Y-90754819D01*
X145005047Y-90754819D02*
X144719333Y-90754819D01*
X144719333Y-90754819D02*
X144624095Y-90707200D01*
X144624095Y-90707200D02*
X144576476Y-90659580D01*
X143638095Y-57454819D02*
X143638095Y-56454819D01*
X143638095Y-56931009D02*
X144209523Y-56931009D01*
X144209523Y-57454819D02*
X144209523Y-56454819D01*
X145209523Y-57454819D02*
X144638095Y-57454819D01*
X144923809Y-57454819D02*
X144923809Y-56454819D01*
X144923809Y-56454819D02*
X144828571Y-56597676D01*
X144828571Y-56597676D02*
X144733333Y-56692914D01*
X144733333Y-56692914D02*
X144638095Y-56740533D01*
D12*
X171453000Y-62000000D02*
X171453000Y-65600000D01*
X173333000Y-60120000D02*
X176933000Y-60120000D01*
X173333000Y-67480000D02*
X176933000Y-67480000D01*
X178813000Y-62000000D02*
X178813000Y-65600000D01*
X152370121Y-86880000D02*
X152034879Y-86880000D01*
X152370121Y-86120000D02*
X152034879Y-86120000D01*
X166597500Y-66235000D02*
X166597500Y-64765000D01*
X166597500Y-64765000D02*
X164312500Y-64765000D01*
X164312500Y-66235000D02*
X166597500Y-66235000D01*
X150340000Y-73115835D02*
X150340000Y-72884165D01*
X151060000Y-73115835D02*
X151060000Y-72884165D01*
D11*
X154450000Y-97700000D02*
X150250000Y-97700000D01*
X154450000Y-95300000D02*
X154450000Y-97700000D01*
X150250000Y-97700000D02*
X150250000Y-95300000D01*
X150250000Y-95300000D02*
X154450000Y-95300000D01*
D12*
X159620000Y-89067621D02*
X159620000Y-88732379D01*
X160380000Y-89067621D02*
X160380000Y-88732379D01*
X156560000Y-65710000D02*
X155540000Y-65710000D01*
X156560000Y-61460000D02*
X156560000Y-65710000D01*
X155540000Y-65710000D02*
X155540000Y-64110000D01*
X155540000Y-64110000D02*
X154260000Y-64110000D01*
X154840000Y-57890000D02*
X150160000Y-57890000D01*
X154260000Y-64110000D02*
X154260000Y-67000000D01*
X149460000Y-65710000D02*
X149460000Y-64110000D01*
X149460000Y-64110000D02*
X150740000Y-64110000D01*
X148440000Y-65710000D02*
X149460000Y-65710000D01*
X148440000Y-61460000D02*
X148440000Y-65710000D01*
X160667621Y-73530000D02*
X160332379Y-73530000D01*
X160667621Y-72770000D02*
X160332379Y-72770000D01*
X154315000Y-77680000D02*
G75*
G03*
X154315000Y-77680000I-700000J0D01*
G01*
X158010000Y-69653733D02*
X158010000Y-69946267D01*
X156990000Y-69653733D02*
X156990000Y-69946267D01*
X160751665Y-84178000D02*
X160983335Y-84178000D01*
X160751665Y-84898000D02*
X160983335Y-84898000D01*
X157050000Y-71800000D02*
X158600000Y-71800000D01*
X158600000Y-73600000D02*
X157300000Y-73600000D01*
X162580000Y-87532379D02*
X162580000Y-87867621D01*
X161820000Y-87532379D02*
X161820000Y-87867621D01*
X151775000Y-77680000D02*
G75*
G03*
X151775000Y-77680000I-700000J0D01*
G01*
G36*
X154240316Y-94785434D02*
G01*
X154041878Y-94785434D01*
X153653734Y-94785434D01*
X152565503Y-94785434D01*
X150658122Y-94785434D01*
X150459684Y-94785434D01*
X150459684Y-93113003D01*
X150658122Y-93113003D01*
X150658122Y-93355891D01*
X150979591Y-93355891D01*
X150979591Y-94344109D01*
X150658122Y-94344109D01*
X150658122Y-94586997D01*
X151593953Y-94586997D01*
X151593953Y-94344109D01*
X151274866Y-94344109D01*
X151274866Y-93355891D01*
X151593953Y-93355891D01*
X151593953Y-93113003D01*
X151829697Y-93113003D01*
X151829697Y-94586997D01*
X152094016Y-94586997D01*
X152094016Y-93608303D01*
X152182519Y-93771683D01*
X152267053Y-93934799D01*
X152347619Y-94097650D01*
X152424216Y-94260501D01*
X152496844Y-94423617D01*
X152565503Y-94586997D01*
X152801247Y-94586997D01*
X152801247Y-93113003D01*
X152970316Y-93113003D01*
X152970316Y-93355891D01*
X153358459Y-93355891D01*
X153358459Y-94586997D01*
X153653734Y-94586997D01*
X153653734Y-93355891D01*
X154041878Y-93355891D01*
X154041878Y-93113003D01*
X152970316Y-93113003D01*
X152801247Y-93113003D01*
X152536928Y-93113003D01*
X152536928Y-94020259D01*
X152494959Y-93927391D01*
X152445250Y-93820234D01*
X152389291Y-93704148D01*
X152328569Y-93584491D01*
X152264573Y-93462749D01*
X152198791Y-93340413D01*
X152132116Y-93222243D01*
X152065441Y-93113003D01*
X151829697Y-93113003D01*
X151593953Y-93113003D01*
X150658122Y-93113003D01*
X150459684Y-93113003D01*
X150459684Y-92914566D01*
X150658122Y-92914566D01*
X154041878Y-92914566D01*
X154240316Y-92914566D01*
X154240316Y-94785434D01*
G37*
X160665121Y-71430000D02*
X160329879Y-71430000D01*
X160665121Y-70670000D02*
X160329879Y-70670000D01*
X153210000Y-82484165D02*
X153210000Y-82715835D01*
X152490000Y-82484165D02*
X152490000Y-82715835D01*
X152367621Y-85780000D02*
X152032379Y-85780000D01*
X152367621Y-85020000D02*
X152032379Y-85020000D01*
X155640000Y-93315000D02*
X156690000Y-93315000D01*
X155640000Y-95815000D02*
X155640000Y-93315000D01*
X156690000Y-93315000D02*
X156690000Y-92325000D01*
X156810000Y-97785000D02*
X160690000Y-97785000D01*
X161860000Y-93315000D02*
X160810000Y-93315000D01*
X161860000Y-95815000D02*
X161860000Y-93315000D01*
X162975000Y-69115000D02*
X163600000Y-69115000D01*
X163287500Y-68802500D02*
X163287500Y-69427500D01*
X163840000Y-69104437D02*
X163840000Y-69740000D01*
X163840000Y-69104437D02*
X164904437Y-68040000D01*
X163840000Y-72495563D02*
X163840000Y-71860000D01*
X163840000Y-72495563D02*
X164904437Y-73560000D01*
X164904437Y-68040000D02*
X169360000Y-68040000D01*
X164904437Y-73560000D02*
X169360000Y-73560000D01*
X169360000Y-68040000D02*
X169360000Y-69740000D01*
X169360000Y-73560000D02*
X169360000Y-71860000D01*
G36*
X165224584Y-81918524D02*
G01*
X165290782Y-81951385D01*
X165333645Y-82007583D01*
X165347932Y-82088545D01*
X165294592Y-82220942D01*
X165224584Y-82255947D01*
X165121238Y-82267615D01*
X165069802Y-82267615D01*
X165069802Y-81913285D01*
X165107902Y-81908522D01*
X165140287Y-81907570D01*
X165224584Y-81918524D01*
G37*
G36*
X168623263Y-83055015D02*
G01*
X168464513Y-83055015D01*
X166991948Y-83055015D01*
X165805133Y-83055015D01*
X165664163Y-83055015D01*
X164835487Y-83055015D01*
X164676737Y-83055015D01*
X164676737Y-82896265D01*
X164835487Y-82896265D01*
X165069802Y-82896265D01*
X165069802Y-82461925D01*
X165191722Y-82461925D01*
X165256254Y-82569796D01*
X165316500Y-82676238D01*
X165371031Y-82784108D01*
X165418418Y-82896265D01*
X165664163Y-82896265D01*
X165609870Y-82771488D01*
X165544147Y-82640042D01*
X165473663Y-82514312D01*
X165405082Y-82404775D01*
X165488426Y-82350959D01*
X165544147Y-82277140D01*
X165575580Y-82188557D01*
X165586058Y-82090450D01*
X165578199Y-81997819D01*
X165554625Y-81918047D01*
X165464138Y-81797080D01*
X165399368Y-81755646D01*
X165323168Y-81726595D01*
X165275014Y-81717070D01*
X165805133Y-81717070D01*
X165805133Y-82896265D01*
X166561418Y-82896265D01*
X166561418Y-82701955D01*
X166039447Y-82701955D01*
X166039447Y-82370485D01*
X166456642Y-82370485D01*
X166456642Y-82176175D01*
X166039447Y-82176175D01*
X166039447Y-81911380D01*
X166519508Y-81911380D01*
X166519508Y-81717070D01*
X166662383Y-81717070D01*
X166684290Y-81823750D01*
X166715723Y-81957100D01*
X166740911Y-82056901D01*
X166768216Y-82160723D01*
X166797637Y-82268567D01*
X166828752Y-82378528D01*
X166861138Y-82488701D01*
X166894793Y-82599085D01*
X166944799Y-82756248D01*
X166991948Y-82896265D01*
X167233883Y-82896265D01*
X167270289Y-82794771D01*
X167305849Y-82690948D01*
X167340563Y-82584798D01*
X167373900Y-82478118D01*
X167405332Y-82372708D01*
X167434860Y-82268567D01*
X167475341Y-82116882D01*
X167511060Y-81972340D01*
X167513239Y-81962815D01*
X167681558Y-81962815D01*
X167757758Y-82157125D01*
X167873963Y-82110452D01*
X167995883Y-82042825D01*
X167995883Y-82701955D01*
X167748233Y-82701955D01*
X167748233Y-82896265D01*
X168464513Y-82896265D01*
X168464513Y-82701955D01*
X168230198Y-82701955D01*
X168230198Y-81717070D01*
X168070178Y-81717070D01*
X167988263Y-81791365D01*
X167887298Y-81859945D01*
X167780618Y-81919000D01*
X167681558Y-81962815D01*
X167513239Y-81962815D01*
X167541778Y-81838037D01*
X167567258Y-81717070D01*
X167321513Y-81717070D01*
X167304368Y-81816130D01*
X167283413Y-81930430D01*
X167259600Y-82054017D01*
X167233883Y-82180937D01*
X167206260Y-82308573D01*
X167176733Y-82434303D01*
X167146253Y-82552174D01*
X167115773Y-82656235D01*
X167085054Y-82550746D01*
X167053860Y-82432397D01*
X167023380Y-82306667D01*
X166994805Y-82179033D01*
X166968373Y-82052350D01*
X166944323Y-81929478D01*
X166924320Y-81815892D01*
X166910033Y-81717070D01*
X166662383Y-81717070D01*
X166519508Y-81717070D01*
X165805133Y-81717070D01*
X165275014Y-81717070D01*
X165236490Y-81709450D01*
X165140287Y-81703735D01*
X165073612Y-81705640D01*
X164993602Y-81710403D01*
X164910735Y-81719927D01*
X164835487Y-81734215D01*
X164835487Y-82896265D01*
X164676737Y-82896265D01*
X164676737Y-81544985D01*
X164835487Y-81544985D01*
X168464513Y-81544985D01*
X168623263Y-81544985D01*
X168623263Y-83055015D01*
G37*
X159395000Y-77680000D02*
G75*
G03*
X159395000Y-77680000I-700000J0D01*
G01*
X161480000Y-87532379D02*
X161480000Y-87867621D01*
X160720000Y-87532379D02*
X160720000Y-87867621D01*
X161555776Y-64977500D02*
X162065224Y-64977500D01*
X161555776Y-66022500D02*
X162065224Y-66022500D01*
X160332379Y-71720000D02*
X160667621Y-71720000D01*
X160332379Y-72480000D02*
X160667621Y-72480000D01*
X149980000Y-72832379D02*
X149980000Y-73167621D01*
X149220000Y-72832379D02*
X149220000Y-73167621D01*
X151030000Y-90172500D02*
X152500000Y-90172500D01*
X152500000Y-90172500D02*
X152500000Y-87887500D01*
X151030000Y-87887500D02*
X151030000Y-90172500D01*
X162975000Y-75115000D02*
X163600000Y-75115000D01*
X163287500Y-74802500D02*
X163287500Y-75427500D01*
X163840000Y-75104437D02*
X163840000Y-75740000D01*
X163840000Y-75104437D02*
X164904437Y-74040000D01*
X163840000Y-78495563D02*
X163840000Y-77860000D01*
X163840000Y-78495563D02*
X164904437Y-79560000D01*
X164904437Y-74040000D02*
X169360000Y-74040000D01*
X164904437Y-79560000D02*
X169360000Y-79560000D01*
X169360000Y-74040000D02*
X169360000Y-75740000D01*
X169360000Y-79560000D02*
X169360000Y-77860000D01*
X158791000Y-87834000D02*
X158791000Y-87934000D01*
X158791000Y-86334000D02*
X154391000Y-86334000D01*
X154391000Y-89434000D02*
X158791000Y-89434000D01*
X154391000Y-87834000D02*
X154391000Y-87934000D01*
X161935000Y-77680000D02*
G75*
G03*
X161935000Y-77680000I-700000J0D01*
G01*
X162208000Y-79050000D02*
X160208000Y-79050000D01*
X160208000Y-79050000D02*
X159808000Y-79050000D01*
X162208000Y-79250000D02*
X162208000Y-80250000D01*
X160208000Y-79250000D02*
X162208000Y-79250000D01*
X160208000Y-79250000D02*
X159808000Y-79250000D01*
X159808000Y-80250000D02*
X159808000Y-79250000D01*
X159808000Y-80250000D02*
X159408000Y-80250000D01*
X162208000Y-82050000D02*
X162208000Y-82850000D01*
X162208000Y-82850000D02*
X160208000Y-82850000D01*
X160208000Y-82850000D02*
X159808000Y-82850000D01*
X159808000Y-82850000D02*
X159808000Y-82050000D01*
G36*
X166029691Y-90849963D02*
G01*
X166067791Y-90997600D01*
X166099938Y-91144047D01*
X166128513Y-91296447D01*
X165840381Y-91296447D01*
X165870147Y-91144047D01*
X165903484Y-90997600D01*
X165941584Y-90849963D01*
X165985637Y-90691609D01*
X166029691Y-90849963D01*
G37*
G36*
X167198289Y-90657677D02*
G01*
X167281038Y-90698753D01*
X167334616Y-90769000D01*
X167352475Y-90870203D01*
X167285800Y-91035700D01*
X167198289Y-91079455D01*
X167069106Y-91094041D01*
X167004813Y-91094041D01*
X167004813Y-90651128D01*
X167052438Y-90645175D01*
X167092919Y-90643984D01*
X167198289Y-90657677D01*
G37*
G36*
X169103488Y-92109247D02*
G01*
X168905050Y-92109247D01*
X168516906Y-92109247D01*
X167747763Y-92109247D01*
X166247575Y-92109247D01*
X164792631Y-92109247D01*
X164294950Y-92109247D01*
X164096512Y-92109247D01*
X164096512Y-90405859D01*
X164294950Y-90405859D01*
X164294950Y-91346453D01*
X164300903Y-91469088D01*
X164318762Y-91579816D01*
X164350909Y-91676852D01*
X164399725Y-91758409D01*
X164553316Y-91871519D01*
X164661365Y-91900987D01*
X164792631Y-91910809D01*
X164925981Y-91900987D01*
X165004540Y-91879853D01*
X165414138Y-91879853D01*
X165718938Y-91879853D01*
X165785613Y-91539334D01*
X166178519Y-91539334D01*
X166247575Y-91879853D01*
X166561900Y-91879853D01*
X166711919Y-91879853D01*
X167004813Y-91879853D01*
X167004813Y-91336928D01*
X167157212Y-91336928D01*
X167237877Y-91471766D01*
X167313184Y-91604819D01*
X167381348Y-91739657D01*
X167440581Y-91879853D01*
X167747763Y-91879853D01*
X167679897Y-91723881D01*
X167597744Y-91559575D01*
X167509637Y-91402413D01*
X167423913Y-91265491D01*
X167528092Y-91198220D01*
X167597744Y-91105947D01*
X167637034Y-90995219D01*
X167650131Y-90872584D01*
X167640309Y-90756796D01*
X167610841Y-90657081D01*
X167497731Y-90505872D01*
X167416769Y-90454080D01*
X167321519Y-90417766D01*
X167261325Y-90405859D01*
X167833488Y-90405859D01*
X167833488Y-90648747D01*
X168221631Y-90648747D01*
X168221631Y-91879853D01*
X168516906Y-91879853D01*
X168516906Y-90648747D01*
X168905050Y-90648747D01*
X168905050Y-90405859D01*
X167833488Y-90405859D01*
X167261325Y-90405859D01*
X167213172Y-90396334D01*
X167092919Y-90389191D01*
X167009575Y-90391572D01*
X166909563Y-90397525D01*
X166805978Y-90409431D01*
X166711919Y-90427291D01*
X166711919Y-91879853D01*
X166561900Y-91879853D01*
X166522609Y-91712737D01*
X166482843Y-91550479D01*
X166442599Y-91393078D01*
X166401880Y-91240535D01*
X166360684Y-91092850D01*
X166308818Y-90913735D01*
X166256802Y-90739532D01*
X166204638Y-90570240D01*
X166152325Y-90405859D01*
X165833238Y-90405859D01*
X165782785Y-90568901D01*
X165731439Y-90736555D01*
X165679200Y-90908824D01*
X165626069Y-91085706D01*
X165583302Y-91232153D01*
X165540725Y-91384791D01*
X165498338Y-91543621D01*
X165456143Y-91708641D01*
X165414138Y-91879853D01*
X165004540Y-91879853D01*
X165035519Y-91871519D01*
X165123625Y-91823596D01*
X165192681Y-91758409D01*
X165243283Y-91676852D01*
X165276025Y-91579816D01*
X165293884Y-91469088D01*
X165299837Y-91346453D01*
X165299837Y-90405859D01*
X165006944Y-90405859D01*
X165006944Y-91325022D01*
X164997419Y-91480994D01*
X164964081Y-91583388D01*
X164899787Y-91639347D01*
X164797394Y-91656016D01*
X164695000Y-91639347D01*
X164631897Y-91584578D01*
X164599750Y-91483375D01*
X164590225Y-91327403D01*
X164590225Y-90405859D01*
X164294950Y-90405859D01*
X164096512Y-90405859D01*
X164096512Y-90190753D01*
X164294950Y-90190753D01*
X168905050Y-90190753D01*
X169103488Y-90190753D01*
X169103488Y-92109247D01*
G37*
X152160000Y-82484165D02*
X152160000Y-82715835D01*
X151440000Y-82484165D02*
X151440000Y-82715835D01*
X160751665Y-83140000D02*
X160983335Y-83140000D01*
X160751665Y-83860000D02*
X160983335Y-83860000D01*
X163540000Y-93315000D02*
X164590000Y-93315000D01*
X163540000Y-95815000D02*
X163540000Y-93315000D01*
X164590000Y-93315000D02*
X164590000Y-92325000D01*
X164710000Y-97785000D02*
X168590000Y-97785000D01*
X169760000Y-93315000D02*
X168710000Y-93315000D01*
X169760000Y-95815000D02*
X169760000Y-93315000D01*
X149165000Y-90172500D02*
X150635000Y-90172500D01*
X150635000Y-90172500D02*
X150635000Y-87887500D01*
X149165000Y-87887500D02*
X149165000Y-90172500D01*
X158948400Y-67694000D02*
X158348400Y-67694000D01*
X157648400Y-66994000D02*
X157648400Y-65594000D01*
X159648400Y-65594000D02*
X159648400Y-66994000D01*
X158348400Y-64894000D02*
X158948400Y-64894000D01*
X157648400Y-66994000D02*
G75*
G03*
X158348400Y-67694000I699999J-1D01*
G01*
X158948400Y-67694000D02*
G75*
G03*
X159648400Y-66994000I1J699999D01*
G01*
X158348400Y-64894000D02*
G75*
G03*
X157648400Y-65594000I0J-700000D01*
G01*
X159648400Y-65594000D02*
G75*
G03*
X158948400Y-64894000I-700000J0D01*
G01*
X156510000Y-70300000D02*
X156510000Y-68300000D01*
X156510000Y-70300000D02*
X152650000Y-70300000D01*
X156510000Y-68300000D02*
X152650000Y-68300000D01*
X151314000Y-71075000D02*
X151314000Y-75075000D01*
X155886000Y-73075000D02*
X155886000Y-75075000D01*
X158466500Y-70567621D02*
X158466500Y-70232379D01*
X159226500Y-70567621D02*
X159226500Y-70232379D01*
G36*
X160633172Y-92117581D02*
G01*
X160434734Y-92117581D01*
X160022778Y-92117581D01*
X159227441Y-92117581D01*
X157065266Y-92117581D01*
X156866828Y-92117581D01*
X156866828Y-90414194D01*
X157065266Y-90414194D01*
X157065266Y-90657081D01*
X157386734Y-90657081D01*
X157386734Y-91645300D01*
X157065266Y-91645300D01*
X157065266Y-91888187D01*
X158001097Y-91888187D01*
X158001097Y-91645300D01*
X157682009Y-91645300D01*
X157682009Y-90657081D01*
X158001097Y-90657081D01*
X158001097Y-90576119D01*
X158229697Y-90576119D01*
X158374953Y-90780906D01*
X158524972Y-90668987D01*
X158670228Y-90635650D01*
X158808341Y-90684466D01*
X158863109Y-90823769D01*
X158819056Y-90949975D01*
X158707138Y-91078562D01*
X158636891Y-91146726D01*
X158561881Y-91217866D01*
X158486872Y-91293470D01*
X158416625Y-91375028D01*
X158354713Y-91463432D01*
X158304706Y-91559575D01*
X158271666Y-91664350D01*
X158260653Y-91778650D01*
X158259463Y-91828656D01*
X158265416Y-91888187D01*
X159227441Y-91888187D01*
X159227441Y-91645300D01*
X158594028Y-91645300D01*
X158619031Y-91566719D01*
X158679753Y-91482184D01*
X158755953Y-91401222D01*
X158827391Y-91333356D01*
X158948834Y-91214294D01*
X159002413Y-91150000D01*
X159382222Y-91150000D01*
X159392491Y-91323980D01*
X159423298Y-91476827D01*
X159474644Y-91608539D01*
X159546528Y-91719119D01*
X159672470Y-91830244D01*
X159831220Y-91896919D01*
X160022778Y-91919144D01*
X160152854Y-91911107D01*
X160266856Y-91886997D01*
X160434734Y-91816750D01*
X160360916Y-91585769D01*
X160240662Y-91638156D01*
X160051353Y-91664350D01*
X159881391Y-91630715D01*
X159766794Y-91529809D01*
X159718507Y-91427019D01*
X159689535Y-91298034D01*
X159679878Y-91142856D01*
X159687915Y-91009506D01*
X159712025Y-90899969D01*
X159795369Y-90743997D01*
X159912050Y-90660653D01*
X160046591Y-90635650D01*
X160223994Y-90660653D01*
X160356153Y-90721375D01*
X160432353Y-90488012D01*
X160383538Y-90459437D01*
X160303766Y-90423719D01*
X160193038Y-90393953D01*
X160051353Y-90380856D01*
X159911752Y-90393655D01*
X159783463Y-90432053D01*
X159669162Y-90495156D01*
X159571531Y-90582072D01*
X159492057Y-90691907D01*
X159432228Y-90823769D01*
X159394723Y-90976764D01*
X159382222Y-91150000D01*
X159002413Y-91150000D01*
X159055991Y-91085706D01*
X159132191Y-90948784D01*
X159160766Y-90802337D01*
X159122666Y-90617791D01*
X159020272Y-90485631D01*
X158872634Y-90407050D01*
X158698803Y-90380856D01*
X158574680Y-90392762D01*
X158449963Y-90428481D01*
X158332388Y-90489203D01*
X158229697Y-90576119D01*
X158001097Y-90576119D01*
X158001097Y-90414194D01*
X157065266Y-90414194D01*
X156866828Y-90414194D01*
X156866828Y-90182419D01*
X157065266Y-90182419D01*
X160434734Y-90182419D01*
X160633172Y-90182419D01*
X160633172Y-92117581D01*
G37*
X156855000Y-77680000D02*
G75*
G03*
X156855000Y-77680000I-700000J0D01*
G01*
G36*
X164484467Y-63007483D02*
G01*
X164550157Y-63060269D01*
X164587694Y-63134170D01*
X164599424Y-63219801D01*
X164158365Y-63219801D01*
X164178307Y-63132997D01*
X164220536Y-63057923D01*
X164288571Y-63006310D01*
X164385933Y-62987541D01*
X164484467Y-63007483D01*
G37*
G36*
X163367532Y-60417932D02*
G01*
X163436588Y-60426266D01*
X163436588Y-60683441D01*
X163358007Y-60689394D01*
X163265138Y-60690585D01*
X163117501Y-60658438D01*
X163060351Y-60550091D01*
X163079401Y-60481035D01*
X163130598Y-60440554D01*
X163205607Y-60420313D01*
X163293713Y-60414360D01*
X163367532Y-60417932D01*
G37*
G36*
X160958634Y-63019506D02*
G01*
X161027549Y-63087249D01*
X161067139Y-63191941D01*
X161080336Y-63325374D01*
X161065966Y-63459099D01*
X161022857Y-63564672D01*
X160951596Y-63633294D01*
X160852768Y-63656168D01*
X160751594Y-63633294D01*
X160682679Y-63564672D01*
X160643089Y-63459099D01*
X160629892Y-63325374D01*
X160644262Y-63191941D01*
X160687371Y-63087249D01*
X160758632Y-63019506D01*
X160857460Y-62996925D01*
X160958634Y-63019506D01*
G37*
G36*
X165749080Y-60030086D02*
G01*
X165819029Y-60098844D01*
X165859213Y-60205108D01*
X165872607Y-60340541D01*
X165858022Y-60476272D01*
X165814266Y-60583429D01*
X165741936Y-60653080D01*
X165641626Y-60676297D01*
X165538934Y-60653080D01*
X165468985Y-60583429D01*
X165428802Y-60476272D01*
X165415407Y-60340541D01*
X165429992Y-60205108D01*
X165473748Y-60098844D01*
X165546078Y-60030086D01*
X165646388Y-60007166D01*
X165749080Y-60030086D01*
G37*
G36*
X167439524Y-64105634D02*
G01*
X167241087Y-64105634D01*
X166889178Y-64105634D01*
X165702072Y-64105634D01*
X164465699Y-64105634D01*
X163649270Y-64105634D01*
X162476241Y-64105634D01*
X160857460Y-64105634D01*
X159790003Y-64105634D01*
X159158913Y-64105634D01*
X158960476Y-64105634D01*
X158960476Y-63149419D01*
X159158913Y-63149419D01*
X159169031Y-63320828D01*
X159199383Y-63471416D01*
X159249970Y-63601182D01*
X159320791Y-63710127D01*
X159444872Y-63819610D01*
X159601276Y-63885300D01*
X159790003Y-63907196D01*
X159918157Y-63899278D01*
X160030474Y-63875524D01*
X160195871Y-63806316D01*
X160123143Y-63578748D01*
X160004667Y-63630361D01*
X159818156Y-63656168D01*
X159650706Y-63623030D01*
X159537802Y-63523616D01*
X159490229Y-63422344D01*
X159467921Y-63323028D01*
X160336635Y-63323028D01*
X160346019Y-63448248D01*
X160374172Y-63561153D01*
X160419627Y-63660567D01*
X160480917Y-63745318D01*
X160556578Y-63813940D01*
X160645142Y-63864967D01*
X160745729Y-63896639D01*
X160857460Y-63907196D01*
X160969191Y-63896639D01*
X161032525Y-63876697D01*
X161589430Y-63876697D01*
X161877996Y-63876697D01*
X161877996Y-63011002D01*
X161944858Y-63003964D01*
X162009375Y-63001617D01*
X162152485Y-63069653D01*
X162178878Y-63159390D01*
X162187675Y-63292529D01*
X162187675Y-63876697D01*
X162476241Y-63876697D01*
X162762460Y-63876697D01*
X163051025Y-63876697D01*
X163051025Y-63011002D01*
X163117888Y-63003964D01*
X163182405Y-63001617D01*
X163325514Y-63069653D01*
X163351907Y-63159390D01*
X163360705Y-63292529D01*
X163360705Y-63876697D01*
X163649270Y-63876697D01*
X163649270Y-63334758D01*
X163860416Y-63334758D01*
X163870973Y-63466724D01*
X163902645Y-63581094D01*
X163953965Y-63678162D01*
X164023467Y-63758222D01*
X164110271Y-63820979D01*
X164213498Y-63866140D01*
X164332267Y-63893413D01*
X164465699Y-63902504D01*
X164655730Y-63884909D01*
X164815262Y-63841507D01*
X164775379Y-63595170D01*
X164642826Y-63632707D01*
X164477429Y-63651476D01*
X164349569Y-63635933D01*
X164247515Y-63589305D01*
X164180653Y-63515698D01*
X164158365Y-63419216D01*
X164873913Y-63419216D01*
X164877432Y-63369949D01*
X164878323Y-63325374D01*
X165063944Y-63325374D01*
X165073035Y-63443263D01*
X165100308Y-63552941D01*
X165146936Y-63651476D01*
X165214092Y-63735934D01*
X165302362Y-63805143D01*
X165412334Y-63857929D01*
X165545179Y-63891360D01*
X165702072Y-63902504D01*
X165811750Y-63898692D01*
X165906179Y-63887255D01*
X166053981Y-63848545D01*
X166011752Y-63611593D01*
X165876853Y-63642092D01*
X165734917Y-63651476D01*
X165558669Y-63629775D01*
X165442833Y-63564672D01*
X165378609Y-63461445D01*
X165357201Y-63325374D01*
X165375970Y-63193994D01*
X165436967Y-63089595D01*
X165548405Y-63021559D01*
X165720841Y-62996925D01*
X165867469Y-63009829D01*
X165971869Y-63039154D01*
X165978907Y-63013348D01*
X166218205Y-63013348D01*
X166469233Y-63013348D01*
X166469233Y-63466137D01*
X166476272Y-63591358D01*
X166497386Y-63690186D01*
X166579498Y-63822738D01*
X166710877Y-63886082D01*
X166889178Y-63902504D01*
X167068651Y-63888428D01*
X167241087Y-63841507D01*
X167201204Y-63592824D01*
X167127303Y-63623323D01*
X167061613Y-63640919D01*
X166995924Y-63649130D01*
X166922023Y-63651476D01*
X166853987Y-63644438D01*
X166802374Y-63616285D01*
X166769529Y-63557633D01*
X166757799Y-63459099D01*
X166757799Y-63013348D01*
X167219972Y-63013348D01*
X167219972Y-62774050D01*
X166757799Y-62774050D01*
X166757799Y-62450294D01*
X166469233Y-62497215D01*
X166469233Y-62774050D01*
X166218205Y-62774050D01*
X166218205Y-63013348D01*
X165978907Y-63013348D01*
X166035212Y-62806895D01*
X165873334Y-62759973D01*
X165695034Y-62745897D01*
X165646388Y-62749538D01*
X165542247Y-62757334D01*
X165412334Y-62791645D01*
X165304122Y-62845605D01*
X165216438Y-62915986D01*
X165148989Y-63001324D01*
X165101481Y-63100152D01*
X165073328Y-63209244D01*
X165063944Y-63325374D01*
X164878323Y-63325374D01*
X164878605Y-63311297D01*
X164864529Y-63141469D01*
X164822300Y-63001096D01*
X164751918Y-62890180D01*
X164654426Y-62810023D01*
X164624832Y-62798503D01*
X164530867Y-62761928D01*
X164381241Y-62745897D01*
X164283879Y-62755281D01*
X164188864Y-62783434D01*
X164100300Y-62830062D01*
X164022294Y-62894872D01*
X163956604Y-62977864D01*
X163904991Y-63079037D01*
X163871559Y-63198100D01*
X163860416Y-63334758D01*
X163649270Y-63334758D01*
X163649270Y-63254992D01*
X163643992Y-63147366D01*
X163628156Y-63049712D01*
X163556601Y-62890180D01*
X163419357Y-62786953D01*
X163321409Y-62759680D01*
X163243707Y-62753805D01*
X163201173Y-62750589D01*
X163072433Y-62755281D01*
X162953664Y-62769358D01*
X162762460Y-62809241D01*
X162762460Y-63876697D01*
X162476241Y-63876697D01*
X162476241Y-63254992D01*
X162470962Y-63147366D01*
X162455126Y-63049712D01*
X162383571Y-62890180D01*
X162246327Y-62786953D01*
X162148379Y-62759680D01*
X162028143Y-62750589D01*
X161984026Y-62752197D01*
X161899403Y-62755281D01*
X161780634Y-62769358D01*
X161589430Y-62809241D01*
X161589430Y-63876697D01*
X161032525Y-63876697D01*
X161069778Y-63864967D01*
X161158049Y-63813940D01*
X161232829Y-63745318D01*
X161293240Y-63660567D01*
X161338402Y-63561153D01*
X161366555Y-63448248D01*
X161375939Y-63323028D01*
X161366555Y-63199566D01*
X161338402Y-63087249D01*
X161292947Y-62988128D01*
X161231656Y-62904256D01*
X161155996Y-62836807D01*
X161067432Y-62786953D01*
X161052957Y-62782496D01*
X160967431Y-62756161D01*
X160857460Y-62745897D01*
X160748955Y-62756161D01*
X160648661Y-62786953D01*
X160559217Y-62836807D01*
X160483264Y-62904256D01*
X160421679Y-62988128D01*
X160375345Y-63087249D01*
X160346312Y-63199566D01*
X160336635Y-63323028D01*
X159467921Y-63323028D01*
X159461685Y-63295266D01*
X159452171Y-63142381D01*
X159460089Y-63011002D01*
X159483842Y-62903083D01*
X159565954Y-62749416D01*
X159680911Y-62667304D01*
X159813464Y-62642670D01*
X159988245Y-62667304D01*
X160118451Y-62727129D01*
X160193525Y-62497215D01*
X160145431Y-62469062D01*
X160066838Y-62433871D01*
X159957746Y-62404545D01*
X159818156Y-62391642D01*
X159680618Y-62404252D01*
X159648020Y-62414009D01*
X159554224Y-62442082D01*
X159441613Y-62504253D01*
X159345425Y-62589884D01*
X159267125Y-62698096D01*
X159208180Y-62828009D01*
X159171230Y-62978743D01*
X159158913Y-63149419D01*
X158960476Y-63149419D01*
X158960476Y-60819172D01*
X159190820Y-60819172D01*
X159355126Y-60891801D01*
X159483118Y-60921269D01*
X159648020Y-60931091D01*
X159815104Y-60918524D01*
X159951232Y-60880820D01*
X160056404Y-60817982D01*
X160157309Y-60681358D01*
X160190945Y-60497704D01*
X160180824Y-60386678D01*
X160150463Y-60296488D01*
X160046879Y-60163138D01*
X159908766Y-60077413D01*
X159776463Y-60023835D01*
X160371920Y-60023835D01*
X160626713Y-60023835D01*
X160626713Y-60483416D01*
X160633857Y-60610515D01*
X160655288Y-60710826D01*
X160738632Y-60845366D01*
X160871982Y-60909660D01*
X161052957Y-60926329D01*
X161235123Y-60912041D01*
X161278878Y-60900135D01*
X161688751Y-60900135D01*
X161984026Y-60900135D01*
X161984026Y-60557235D01*
X162772220Y-60557235D01*
X162805557Y-60729876D01*
X162900807Y-60844176D01*
X163049635Y-60907279D01*
X163243707Y-60926329D01*
X163393131Y-60921566D01*
X163527076Y-60907279D01*
X163717576Y-60873941D01*
X163717576Y-60207191D01*
X163694512Y-60023835D01*
X163943795Y-60023835D01*
X164198588Y-60023835D01*
X164198588Y-60483416D01*
X164205732Y-60610515D01*
X164227163Y-60710826D01*
X164310507Y-60845366D01*
X164443857Y-60909660D01*
X164624832Y-60926329D01*
X164806998Y-60912041D01*
X164982020Y-60864416D01*
X164941538Y-60612004D01*
X164866529Y-60642960D01*
X164799854Y-60660819D01*
X164733179Y-60669154D01*
X164658170Y-60671535D01*
X164589113Y-60664391D01*
X164536726Y-60635816D01*
X164503388Y-60576285D01*
X164491482Y-60476272D01*
X164491482Y-60338160D01*
X165117751Y-60338160D01*
X165127276Y-60465259D01*
X165155851Y-60579857D01*
X165201988Y-60680762D01*
X165264198Y-60766785D01*
X165340993Y-60836437D01*
X165430885Y-60888229D01*
X165532981Y-60920376D01*
X165646388Y-60931091D01*
X165759795Y-60920376D01*
X165861891Y-60888229D01*
X165951486Y-60836437D01*
X166027388Y-60766785D01*
X166088706Y-60680762D01*
X166134545Y-60579857D01*
X166163120Y-60465259D01*
X166172645Y-60338160D01*
X166163120Y-60212847D01*
X166134545Y-60098844D01*
X166088408Y-59998237D01*
X166026198Y-59913107D01*
X165949402Y-59844646D01*
X165859510Y-59794044D01*
X165758009Y-59762790D01*
X165646388Y-59752372D01*
X165536256Y-59762790D01*
X165434457Y-59794044D01*
X165343672Y-59844646D01*
X165266579Y-59913107D01*
X165204071Y-59998237D01*
X165157041Y-60098844D01*
X165127573Y-60212847D01*
X165117751Y-60338160D01*
X164491482Y-60338160D01*
X164491482Y-60023835D01*
X164960588Y-60023835D01*
X164960588Y-59780947D01*
X164491482Y-59780947D01*
X164491482Y-59452335D01*
X164198588Y-59499960D01*
X164198588Y-59780947D01*
X163943795Y-59780947D01*
X163943795Y-60023835D01*
X163694512Y-60023835D01*
X163693763Y-60017882D01*
X163615182Y-59875007D01*
X163468735Y-59784519D01*
X163365448Y-59760409D01*
X163238945Y-59752372D01*
X163133574Y-59756242D01*
X163031776Y-59767851D01*
X162876995Y-59802379D01*
X162917476Y-60038122D01*
X163042491Y-60009547D01*
X163203226Y-59997641D01*
X163312763Y-60011631D01*
X163384201Y-60053601D01*
X163436588Y-60192904D01*
X163436588Y-60228622D01*
X163341934Y-60214335D01*
X163234182Y-60209572D01*
X163060351Y-60227432D01*
X162912713Y-60285772D01*
X162810320Y-60392929D01*
X162772220Y-60557235D01*
X161984026Y-60557235D01*
X161984026Y-60069079D01*
X162105470Y-60046457D01*
X162226913Y-60040504D01*
X162291207Y-60042885D01*
X162369788Y-60051219D01*
X162449560Y-60064316D01*
X162517426Y-60078604D01*
X162569813Y-59807141D01*
X162478135Y-59784519D01*
X162376932Y-59770232D01*
X162282873Y-59761897D01*
X162215007Y-59759516D01*
X162061119Y-59766065D01*
X161928066Y-59785710D01*
X161806920Y-59816071D01*
X161688751Y-59854766D01*
X161688751Y-60900135D01*
X161278878Y-60900135D01*
X161410145Y-60864416D01*
X161369663Y-60612004D01*
X161294654Y-60642960D01*
X161227979Y-60660819D01*
X161161304Y-60669154D01*
X161086295Y-60671535D01*
X161017238Y-60664391D01*
X160964851Y-60635816D01*
X160931513Y-60576285D01*
X160919607Y-60476272D01*
X160919607Y-60023835D01*
X161388713Y-60023835D01*
X161388713Y-59780947D01*
X160919607Y-59780947D01*
X160919607Y-59452335D01*
X160626713Y-59499960D01*
X160626713Y-59780947D01*
X160371920Y-59780947D01*
X160371920Y-60023835D01*
X159776463Y-60023835D01*
X159764701Y-60019072D01*
X159673023Y-59983354D01*
X159589679Y-59939301D01*
X159528957Y-59882151D01*
X159505145Y-59807141D01*
X159531074Y-59713214D01*
X159608861Y-59656858D01*
X159738507Y-59638072D01*
X159906385Y-59661885D01*
X160038545Y-59719035D01*
X160124270Y-59492816D01*
X159954010Y-59423760D01*
X159844175Y-59400543D01*
X159717076Y-59392804D01*
X159571158Y-59405768D01*
X159447730Y-59444662D01*
X159346791Y-59509485D01*
X159245886Y-59648788D01*
X159212251Y-59833335D01*
X159250351Y-60008357D01*
X159346791Y-60126229D01*
X159476570Y-60204810D01*
X159614682Y-60259579D01*
X159714695Y-60301251D01*
X159805182Y-60351257D01*
X159871857Y-60414360D01*
X159898051Y-60495322D01*
X159887335Y-60565569D01*
X159848045Y-60627482D01*
X159770654Y-60670344D01*
X159648020Y-60685822D01*
X159529255Y-60677488D01*
X159430135Y-60652485D01*
X159276545Y-60581047D01*
X159190820Y-60819172D01*
X158960476Y-60819172D01*
X158960476Y-59194366D01*
X159158913Y-59194366D01*
X167241087Y-59194366D01*
X167439524Y-59194366D01*
X167439524Y-64105634D01*
G37*
X160615835Y-70360000D02*
X160384165Y-70360000D01*
X160615835Y-69640000D02*
X160384165Y-69640000D01*
X159159000Y-79977500D02*
X159159000Y-80452500D01*
X158684000Y-85197500D02*
X159159000Y-85197500D01*
X158684000Y-79977500D02*
X159159000Y-79977500D01*
X154414000Y-85197500D02*
X153939000Y-85197500D01*
X154414000Y-79977500D02*
X153939000Y-79977500D01*
X153939000Y-85197500D02*
X153939000Y-84722500D01*
X153939000Y-79977500D02*
X153939000Y-80452500D01*
%LPC*%
D13*
X175133000Y-63800000D03*
D14*
X172593000Y-61260000D03*
X172593000Y-66340000D03*
X177673000Y-61260000D03*
X177673000Y-66340000D03*
D15*
X152800000Y-86500000D03*
X151605000Y-86500000D03*
D16*
X165900000Y-65500000D03*
X164325000Y-65500000D03*
D17*
X150700000Y-73567500D03*
X150700000Y-72432500D03*
D18*
X152350000Y-96500000D03*
D19*
X160000000Y-89497500D03*
X160000000Y-88302500D03*
D20*
X153500000Y-65250000D03*
X151500000Y-65250000D03*
D21*
X155850000Y-59500000D03*
X149150000Y-59500000D03*
D15*
X161097500Y-73150000D03*
X159902500Y-73150000D03*
D22*
X153615000Y-77680000D03*
D23*
X157500000Y-68937500D03*
X157500000Y-70662500D03*
D24*
X172100000Y-94500000D03*
X172802944Y-92802944D03*
X172802944Y-96197056D03*
X174500000Y-92100000D03*
D25*
X174500000Y-94500000D03*
D24*
X174500000Y-96900000D03*
X176197056Y-92802944D03*
X176197056Y-96197056D03*
X176900000Y-94500000D03*
D26*
X160300000Y-84538000D03*
X161435000Y-84538000D03*
D27*
X157200000Y-72200000D03*
X157200000Y-72700000D03*
X157200000Y-73200000D03*
X158700000Y-73200000D03*
X158700000Y-72700000D03*
X158700000Y-72200000D03*
D28*
X162200000Y-87102500D03*
X162200000Y-88297500D03*
D22*
X151075000Y-77680000D03*
D15*
X161095000Y-71050000D03*
X159900000Y-71050000D03*
D29*
X152850000Y-82032500D03*
X152850000Y-83167500D03*
D15*
X152797500Y-85400000D03*
X151602500Y-85400000D03*
D30*
X157250000Y-93100000D03*
X158250000Y-93100000D03*
X159250000Y-93100000D03*
X160250000Y-93100000D03*
D31*
X155950000Y-96975000D03*
X161550000Y-96975000D03*
D32*
X164400000Y-70800000D03*
X168800000Y-70800000D03*
D24*
X141986000Y-94500000D03*
X142688944Y-92802944D03*
X142688944Y-96197056D03*
X144386000Y-92100000D03*
D25*
X144386000Y-94500000D03*
D24*
X144386000Y-96900000D03*
X146083056Y-92802944D03*
X146083056Y-96197056D03*
X146786000Y-94500000D03*
X142000000Y-61200000D03*
X142702944Y-59502944D03*
X142702944Y-62897056D03*
X144400000Y-58800000D03*
D25*
X144400000Y-61200000D03*
D24*
X144400000Y-63600000D03*
X146097056Y-59502944D03*
X146097056Y-62897056D03*
X146800000Y-61200000D03*
D22*
X158695000Y-77680000D03*
D28*
X161100000Y-87102500D03*
X161100000Y-88297500D03*
D33*
X160898000Y-65500000D03*
X162723000Y-65500000D03*
D34*
X159902500Y-72100000D03*
X161097500Y-72100000D03*
D28*
X149600000Y-72402500D03*
X149600000Y-73597500D03*
D35*
X151765000Y-89475000D03*
X151765000Y-87900000D03*
D32*
X164400000Y-76800000D03*
X168800000Y-76800000D03*
D36*
X158641000Y-88684000D03*
X158641000Y-87084000D03*
X154541000Y-88684000D03*
X154541000Y-87084000D03*
D22*
X161235000Y-77680000D03*
D37*
X161008000Y-79850000D03*
X161008000Y-81050000D03*
X161008000Y-82250000D03*
D29*
X151800000Y-82032500D03*
X151800000Y-83167500D03*
D26*
X160300000Y-83500000D03*
X161435000Y-83500000D03*
D30*
X165150000Y-93100000D03*
X166150000Y-93100000D03*
X167150000Y-93100000D03*
X168150000Y-93100000D03*
D31*
X163850000Y-96975000D03*
X169450000Y-96975000D03*
D35*
X149900000Y-89475000D03*
X149900000Y-87900000D03*
D38*
X158648400Y-66944000D03*
D39*
X158648400Y-65644000D03*
D40*
X155700000Y-69300000D03*
X152900000Y-69300000D03*
D41*
X153600000Y-71550000D03*
X153600000Y-74600000D03*
D19*
X158846500Y-70997500D03*
X158846500Y-69802500D03*
D22*
X156155000Y-77680000D03*
D42*
X161067500Y-70000000D03*
X159932500Y-70000000D03*
D43*
X158986500Y-84337500D03*
X158986500Y-83837500D03*
X158986500Y-83337500D03*
X158986500Y-82837500D03*
X158986500Y-82337500D03*
X158986500Y-81837500D03*
X158986500Y-81337500D03*
X158986500Y-80837500D03*
D44*
X158299000Y-80150000D03*
X157799000Y-80150000D03*
X157299000Y-80150000D03*
X156799000Y-80150000D03*
X156299000Y-80150000D03*
X155799000Y-80150000D03*
X155299000Y-80150000D03*
X154799000Y-80150000D03*
D43*
X154111500Y-80837500D03*
X154111500Y-81337500D03*
X154111500Y-81837500D03*
X154111500Y-82337500D03*
X154111500Y-82837500D03*
X154111500Y-83337500D03*
X154111500Y-83837500D03*
X154111500Y-84337500D03*
D44*
X154799000Y-85025000D03*
X155299000Y-85025000D03*
X155799000Y-85025000D03*
X156299000Y-85025000D03*
X156799000Y-85025000D03*
X157299000Y-85025000D03*
X157799000Y-85025000D03*
X158299000Y-85025000D03*
D45*
X156549000Y-82587500D03*
%LPD*%
M02*
