G04 #@! TF.GenerationSoftware,KiCad,Pcbnew,7.0.5-0*
G04 #@! TF.CreationDate,2023-07-15T01:27:44-04:00*
G04 #@! TF.ProjectId,strato_connect,73747261-746f-45f6-936f-6e6e6563742e,rev?*
G04 #@! TF.SameCoordinates,Original*
G04 #@! TF.FileFunction,Copper,L2,Inr*
G04 #@! TF.FilePolarity,Positive*
%FSLAX46Y46*%
G04 Gerber Fmt 4.6, Leading zero omitted, Abs format (unit mm)*
G04 Created by KiCad (PCBNEW 7.0.5-0) date 2023-07-15 01:27:44*
%MOMM*%
%LPD*%
G01*
G04 APERTURE LIST*
G04 #@! TA.AperFunction,ComponentPad*
%ADD10C,2.050000*%
G04 #@! TD*
G04 #@! TA.AperFunction,ComponentPad*
%ADD11C,2.250000*%
G04 #@! TD*
G04 #@! TA.AperFunction,ComponentPad*
%ADD12C,1.000000*%
G04 #@! TD*
G04 #@! TA.AperFunction,ComponentPad*
%ADD13C,0.800000*%
G04 #@! TD*
G04 #@! TA.AperFunction,ComponentPad*
%ADD14C,6.400000*%
G04 #@! TD*
G04 #@! TA.AperFunction,ViaPad*
%ADD15C,0.800000*%
G04 #@! TD*
G04 APERTURE END LIST*
D10*
X175133000Y-63800000D03*
D11*
X172593000Y-61260000D03*
X172593000Y-66340000D03*
X177673000Y-61260000D03*
X177673000Y-66340000D03*
D12*
X153615000Y-77680000D03*
D13*
X172100000Y-94500000D03*
X172802944Y-92802944D03*
X172802944Y-96197056D03*
X174500000Y-92100000D03*
D14*
X174500000Y-94500000D03*
D13*
X174500000Y-96900000D03*
X176197056Y-92802944D03*
X176197056Y-96197056D03*
X176900000Y-94500000D03*
D12*
X151075000Y-77680000D03*
D13*
X141986000Y-94500000D03*
X142688944Y-92802944D03*
X142688944Y-96197056D03*
X144386000Y-92100000D03*
D14*
X144386000Y-94500000D03*
D13*
X144386000Y-96900000D03*
X146083056Y-92802944D03*
X146083056Y-96197056D03*
X146786000Y-94500000D03*
X142000000Y-61200000D03*
X142702944Y-59502944D03*
X142702944Y-62897056D03*
X144400000Y-58800000D03*
D14*
X144400000Y-61200000D03*
D13*
X144400000Y-63600000D03*
X146097056Y-59502944D03*
X146097056Y-62897056D03*
X146800000Y-61200000D03*
D12*
X158695000Y-77680000D03*
X161235000Y-77680000D03*
X156155000Y-77680000D03*
D15*
X162100000Y-70500000D03*
X165100000Y-74700000D03*
X151800000Y-75900000D03*
X160755500Y-85300000D03*
X160825000Y-89500000D03*
X164000000Y-68600000D03*
X162200000Y-68600000D03*
X163300000Y-72800000D03*
X163300000Y-74700000D03*
X160400000Y-67100000D03*
X152900000Y-81000000D03*
X153700000Y-76200000D03*
X162200000Y-67100000D03*
X151900000Y-81000000D03*
X149600000Y-74500000D03*
X165100000Y-72800000D03*
X150500000Y-62450000D03*
X149300000Y-62450000D03*
X150700000Y-74500000D03*
X164000000Y-67100000D03*
X157700000Y-88400000D03*
X166150000Y-94350000D03*
X162000000Y-72100000D03*
X167000000Y-65500000D03*
X162500000Y-83900000D03*
X161036000Y-93091000D03*
X168000000Y-73800000D03*
X149300000Y-93100000D03*
X150500000Y-69150000D03*
X162500000Y-85300000D03*
X158500000Y-74100000D03*
X151700000Y-91750000D03*
X158800000Y-68900000D03*
X162600000Y-81100000D03*
X149300000Y-69150000D03*
X151900000Y-84100000D03*
X157500000Y-83500000D03*
X157400000Y-81600000D03*
X151500000Y-68800000D03*
X152900000Y-84100000D03*
X155600000Y-83500000D03*
X169600000Y-73800000D03*
X157400000Y-74100000D03*
X151700000Y-90400000D03*
X161100000Y-74000000D03*
X156500000Y-71600000D03*
X154500000Y-79200000D03*
X156900000Y-86100000D03*
X157400000Y-78700000D03*
X156000000Y-79200000D03*
X154100000Y-85000000D03*
X153500000Y-87300000D03*
X155800000Y-90275000D03*
X158250000Y-94325000D03*
X159000000Y-85000000D03*
G04 #@! TA.AperFunction,Conductor*
G36*
X179442539Y-59420185D02*
G01*
X179488294Y-59472989D01*
X179499500Y-59524500D01*
X179499500Y-68125500D01*
X179479815Y-68192539D01*
X179427011Y-68238294D01*
X179375500Y-68249500D01*
X171424000Y-68249500D01*
X171356961Y-68229815D01*
X171311206Y-68177011D01*
X171300000Y-68125500D01*
X171300000Y-67289292D01*
X171319685Y-67222253D01*
X171372489Y-67176498D01*
X171441647Y-67166554D01*
X171505203Y-67195579D01*
X171515228Y-67205308D01*
X171530977Y-67222415D01*
X171530979Y-67222415D01*
X171907479Y-66845914D01*
X172005009Y-66960735D01*
X172088443Y-67024160D01*
X171711350Y-67401253D01*
X171836176Y-67498410D01*
X171836179Y-67498412D01*
X172037157Y-67607175D01*
X172037171Y-67607181D01*
X172253312Y-67681383D01*
X172478734Y-67719000D01*
X172707266Y-67719000D01*
X172932687Y-67681383D01*
X173148828Y-67607181D01*
X173148842Y-67607175D01*
X173349822Y-67498411D01*
X173349827Y-67498407D01*
X173474648Y-67401254D01*
X173474648Y-67401253D01*
X173100212Y-67026817D01*
X173110431Y-67020669D01*
X173244658Y-66893523D01*
X173277576Y-66844971D01*
X173655020Y-67222415D01*
X173655021Y-67222415D01*
X173684948Y-67189908D01*
X173684958Y-67189895D01*
X173809950Y-66998582D01*
X173901752Y-66789293D01*
X173957853Y-66567757D01*
X173957855Y-66567746D01*
X173976726Y-66340005D01*
X176289274Y-66340005D01*
X176308144Y-66567746D01*
X176308146Y-66567757D01*
X176364247Y-66789293D01*
X176456049Y-66998582D01*
X176581044Y-67189900D01*
X176581047Y-67189904D01*
X176610977Y-67222415D01*
X176610979Y-67222415D01*
X176987479Y-66845914D01*
X177085009Y-66960735D01*
X177168443Y-67024160D01*
X176791350Y-67401253D01*
X176916176Y-67498410D01*
X176916179Y-67498412D01*
X177117157Y-67607175D01*
X177117171Y-67607181D01*
X177333312Y-67681383D01*
X177558734Y-67719000D01*
X177787266Y-67719000D01*
X178012687Y-67681383D01*
X178228828Y-67607181D01*
X178228842Y-67607175D01*
X178429822Y-67498411D01*
X178429827Y-67498407D01*
X178554648Y-67401254D01*
X178554648Y-67401253D01*
X178180212Y-67026817D01*
X178190431Y-67020669D01*
X178324658Y-66893523D01*
X178357576Y-66844971D01*
X178735020Y-67222415D01*
X178735021Y-67222415D01*
X178764948Y-67189908D01*
X178764958Y-67189895D01*
X178889950Y-66998582D01*
X178981752Y-66789293D01*
X179037853Y-66567757D01*
X179037855Y-66567746D01*
X179056725Y-66340005D01*
X179056725Y-66339994D01*
X179037855Y-66112253D01*
X179037853Y-66112242D01*
X178981752Y-65890706D01*
X178889950Y-65681417D01*
X178764954Y-65490098D01*
X178764952Y-65490096D01*
X178735021Y-65457583D01*
X178735019Y-65457583D01*
X178358519Y-65834083D01*
X178260991Y-65719265D01*
X178177555Y-65655838D01*
X178554648Y-65278745D01*
X178554648Y-65278744D01*
X178429822Y-65181588D01*
X178429820Y-65181587D01*
X178228842Y-65072824D01*
X178228828Y-65072818D01*
X178012687Y-64998616D01*
X177787266Y-64961000D01*
X177558734Y-64961000D01*
X177333312Y-64998616D01*
X177117171Y-65072818D01*
X177117157Y-65072824D01*
X176916176Y-65181589D01*
X176916165Y-65181596D01*
X176791350Y-65278743D01*
X176791350Y-65278745D01*
X177165787Y-65653182D01*
X177155569Y-65659331D01*
X177021342Y-65786477D01*
X176988423Y-65835028D01*
X176610978Y-65457583D01*
X176581043Y-65490101D01*
X176456049Y-65681417D01*
X176364247Y-65890706D01*
X176308146Y-66112242D01*
X176308144Y-66112253D01*
X176289274Y-66339994D01*
X176289274Y-66340005D01*
X173976726Y-66340005D01*
X173976726Y-66339994D01*
X173957855Y-66112253D01*
X173957853Y-66112242D01*
X173901752Y-65890706D01*
X173809950Y-65681417D01*
X173684954Y-65490098D01*
X173684952Y-65490096D01*
X173655021Y-65457583D01*
X173655019Y-65457583D01*
X173278518Y-65834083D01*
X173180991Y-65719265D01*
X173097554Y-65655838D01*
X173474648Y-65278745D01*
X173474648Y-65278744D01*
X173349822Y-65181588D01*
X173349820Y-65181587D01*
X173148842Y-65072824D01*
X173148828Y-65072818D01*
X172932687Y-64998616D01*
X172707266Y-64961000D01*
X172478734Y-64961000D01*
X172253312Y-64998616D01*
X172037171Y-65072818D01*
X172037157Y-65072824D01*
X171836176Y-65181589D01*
X171836165Y-65181596D01*
X171711350Y-65278743D01*
X171711350Y-65278745D01*
X172085787Y-65653182D01*
X172075569Y-65659331D01*
X171941342Y-65786477D01*
X171908423Y-65835027D01*
X171530978Y-65457583D01*
X171530977Y-65457583D01*
X171515230Y-65474690D01*
X171455343Y-65510680D01*
X171385505Y-65508580D01*
X171327889Y-65469056D01*
X171300787Y-65404657D01*
X171300000Y-65390707D01*
X171300000Y-63800000D01*
X173952464Y-63800000D01*
X173972564Y-64016918D01*
X173972564Y-64016920D01*
X173972565Y-64016923D01*
X174032183Y-64226459D01*
X174129288Y-64421472D01*
X174260573Y-64595322D01*
X174421568Y-64742088D01*
X174421575Y-64742092D01*
X174421576Y-64742093D01*
X174606786Y-64856770D01*
X174606792Y-64856773D01*
X174629664Y-64865633D01*
X174809931Y-64935470D01*
X175024074Y-64975500D01*
X175024076Y-64975500D01*
X175241924Y-64975500D01*
X175241926Y-64975500D01*
X175456069Y-64935470D01*
X175659210Y-64856772D01*
X175844432Y-64742088D01*
X176005427Y-64595322D01*
X176136712Y-64421472D01*
X176233817Y-64226459D01*
X176293435Y-64016923D01*
X176313536Y-63800000D01*
X176293435Y-63583077D01*
X176233817Y-63373541D01*
X176136712Y-63178528D01*
X176005427Y-63004678D01*
X175844432Y-62857912D01*
X175844428Y-62857909D01*
X175844423Y-62857906D01*
X175659213Y-62743229D01*
X175659207Y-62743226D01*
X175574113Y-62710260D01*
X175456069Y-62664530D01*
X175241926Y-62624500D01*
X175024074Y-62624500D01*
X174809931Y-62664530D01*
X174761130Y-62683435D01*
X174606792Y-62743226D01*
X174606786Y-62743229D01*
X174421576Y-62857906D01*
X174421566Y-62857913D01*
X174260574Y-63004676D01*
X174129288Y-63178527D01*
X174032184Y-63373537D01*
X173972564Y-63583081D01*
X173952464Y-63799999D01*
X173952464Y-63800000D01*
X171300000Y-63800000D01*
X171300000Y-62209292D01*
X171319685Y-62142253D01*
X171372489Y-62096498D01*
X171441647Y-62086554D01*
X171505203Y-62115579D01*
X171515228Y-62125308D01*
X171530977Y-62142415D01*
X171530979Y-62142415D01*
X171907479Y-61765914D01*
X172005009Y-61880735D01*
X172088443Y-61944160D01*
X171711350Y-62321253D01*
X171836176Y-62418410D01*
X171836179Y-62418412D01*
X172037157Y-62527175D01*
X172037171Y-62527181D01*
X172253312Y-62601383D01*
X172478734Y-62639000D01*
X172707266Y-62639000D01*
X172932687Y-62601383D01*
X173148828Y-62527181D01*
X173148842Y-62527175D01*
X173349822Y-62418411D01*
X173349827Y-62418407D01*
X173474648Y-62321254D01*
X173474648Y-62321253D01*
X173100212Y-61946817D01*
X173110431Y-61940669D01*
X173244658Y-61813523D01*
X173277576Y-61764971D01*
X173655020Y-62142415D01*
X173655021Y-62142415D01*
X173684948Y-62109908D01*
X173684958Y-62109895D01*
X173809950Y-61918582D01*
X173901752Y-61709293D01*
X173957853Y-61487757D01*
X173957855Y-61487746D01*
X173976726Y-61260005D01*
X176289274Y-61260005D01*
X176308144Y-61487746D01*
X176308146Y-61487757D01*
X176364247Y-61709293D01*
X176456049Y-61918582D01*
X176581044Y-62109900D01*
X176581047Y-62109904D01*
X176610977Y-62142415D01*
X176610979Y-62142415D01*
X176987479Y-61765914D01*
X177085009Y-61880735D01*
X177168443Y-61944160D01*
X176791350Y-62321253D01*
X176916176Y-62418410D01*
X176916179Y-62418412D01*
X177117157Y-62527175D01*
X177117171Y-62527181D01*
X177333312Y-62601383D01*
X177558734Y-62639000D01*
X177787266Y-62639000D01*
X178012687Y-62601383D01*
X178228828Y-62527181D01*
X178228842Y-62527175D01*
X178429822Y-62418411D01*
X178429827Y-62418407D01*
X178554648Y-62321254D01*
X178554648Y-62321253D01*
X178180212Y-61946817D01*
X178190431Y-61940669D01*
X178324658Y-61813523D01*
X178357576Y-61764971D01*
X178735020Y-62142415D01*
X178735021Y-62142415D01*
X178764948Y-62109908D01*
X178764958Y-62109895D01*
X178889950Y-61918582D01*
X178981752Y-61709293D01*
X179037853Y-61487757D01*
X179037855Y-61487746D01*
X179056725Y-61260005D01*
X179056725Y-61259994D01*
X179037855Y-61032253D01*
X179037853Y-61032242D01*
X178981752Y-60810706D01*
X178889950Y-60601417D01*
X178764954Y-60410098D01*
X178764952Y-60410096D01*
X178735021Y-60377583D01*
X178735019Y-60377583D01*
X178358518Y-60754083D01*
X178260991Y-60639265D01*
X178177554Y-60575838D01*
X178554648Y-60198745D01*
X178554648Y-60198744D01*
X178429822Y-60101588D01*
X178429820Y-60101587D01*
X178228842Y-59992824D01*
X178228828Y-59992818D01*
X178012687Y-59918616D01*
X177787266Y-59881000D01*
X177558734Y-59881000D01*
X177333312Y-59918616D01*
X177117171Y-59992818D01*
X177117157Y-59992824D01*
X176916176Y-60101589D01*
X176916165Y-60101596D01*
X176791350Y-60198743D01*
X176791350Y-60198745D01*
X177165787Y-60573182D01*
X177155569Y-60579331D01*
X177021342Y-60706477D01*
X176988423Y-60755027D01*
X176610978Y-60377583D01*
X176581043Y-60410101D01*
X176456049Y-60601417D01*
X176364247Y-60810706D01*
X176308146Y-61032242D01*
X176308144Y-61032253D01*
X176289274Y-61259994D01*
X176289274Y-61260005D01*
X173976726Y-61260005D01*
X173976726Y-61259994D01*
X173957855Y-61032253D01*
X173957853Y-61032242D01*
X173901752Y-60810706D01*
X173809950Y-60601417D01*
X173684954Y-60410098D01*
X173684952Y-60410096D01*
X173655021Y-60377583D01*
X173655019Y-60377583D01*
X173278519Y-60754083D01*
X173180991Y-60639265D01*
X173097555Y-60575838D01*
X173474648Y-60198745D01*
X173474648Y-60198744D01*
X173349822Y-60101588D01*
X173349820Y-60101587D01*
X173148842Y-59992824D01*
X173148828Y-59992818D01*
X172932687Y-59918616D01*
X172707266Y-59881000D01*
X172478734Y-59881000D01*
X172253312Y-59918616D01*
X172037171Y-59992818D01*
X172037157Y-59992824D01*
X171836176Y-60101589D01*
X171836165Y-60101596D01*
X171711350Y-60198743D01*
X171711350Y-60198745D01*
X172085787Y-60573182D01*
X172075569Y-60579331D01*
X171941342Y-60706477D01*
X171908423Y-60755028D01*
X171530978Y-60377583D01*
X171530977Y-60377583D01*
X171515230Y-60394690D01*
X171455343Y-60430680D01*
X171385505Y-60428580D01*
X171327889Y-60389056D01*
X171300787Y-60324657D01*
X171300000Y-60310707D01*
X171300000Y-59524500D01*
X171319685Y-59457461D01*
X171372489Y-59411706D01*
X171424000Y-59400500D01*
X177699901Y-59400500D01*
X179375500Y-59400500D01*
X179442539Y-59420185D01*
G37*
G04 #@! TD.AperFunction*
G04 #@! TA.AperFunction,Conductor*
G36*
X170942539Y-57720185D02*
G01*
X170988294Y-57772989D01*
X170999500Y-57824500D01*
X170999500Y-59375467D01*
X170999416Y-59375889D01*
X170999501Y-59423458D01*
X171000000Y-59425967D01*
X171000000Y-68224115D01*
X170999443Y-68226926D01*
X170999476Y-68274616D01*
X170999471Y-68274616D01*
X170999500Y-68274759D01*
X170999500Y-90975467D01*
X170999416Y-90975889D01*
X170999501Y-91023458D01*
X171000000Y-91025967D01*
X171000000Y-97875500D01*
X170980315Y-97942539D01*
X170927511Y-97988294D01*
X170876000Y-97999500D01*
X144401623Y-97999500D01*
X144398379Y-97999415D01*
X144377676Y-97998330D01*
X144311759Y-97975164D01*
X144268830Y-97920037D01*
X144262520Y-97850453D01*
X144294832Y-97788504D01*
X144355506Y-97753857D01*
X144384166Y-97750500D01*
X144562231Y-97750500D01*
X144562237Y-97750500D01*
X144912645Y-97712391D01*
X145256878Y-97636619D01*
X145590901Y-97524074D01*
X145590908Y-97524070D01*
X145590911Y-97524070D01*
X145910789Y-97376078D01*
X145910798Y-97376074D01*
X146212818Y-97194354D01*
X146493420Y-96981046D01*
X146749314Y-96738650D01*
X146977501Y-96470008D01*
X147175305Y-96178269D01*
X147340407Y-95866854D01*
X147470871Y-95539414D01*
X147565168Y-95199788D01*
X147622191Y-94851957D01*
X147633640Y-94640782D01*
X147641274Y-94500002D01*
X147641274Y-94499997D01*
X147631786Y-94325000D01*
X157794867Y-94325000D01*
X157813302Y-94453225D01*
X157834664Y-94500000D01*
X157867118Y-94571063D01*
X157951951Y-94668967D01*
X158060931Y-94739004D01*
X158146079Y-94764005D01*
X158185225Y-94775499D01*
X158185227Y-94775500D01*
X158185228Y-94775500D01*
X158314773Y-94775500D01*
X158314773Y-94775499D01*
X158439069Y-94739004D01*
X158548049Y-94668967D01*
X158632882Y-94571063D01*
X158686697Y-94453226D01*
X158701539Y-94350000D01*
X165694867Y-94350000D01*
X165713302Y-94478225D01*
X165755700Y-94571061D01*
X165767118Y-94596063D01*
X165851951Y-94693967D01*
X165960931Y-94764004D01*
X166000084Y-94775500D01*
X166085225Y-94800499D01*
X166085227Y-94800500D01*
X166085228Y-94800500D01*
X166214773Y-94800500D01*
X166214773Y-94800499D01*
X166339069Y-94764004D01*
X166448049Y-94693967D01*
X166532882Y-94596063D01*
X166586697Y-94478226D01*
X166605133Y-94350000D01*
X166586697Y-94221774D01*
X166532882Y-94103937D01*
X166448049Y-94006033D01*
X166339069Y-93935996D01*
X166339065Y-93935994D01*
X166339064Y-93935994D01*
X166214774Y-93899500D01*
X166214772Y-93899500D01*
X166085228Y-93899500D01*
X166085226Y-93899500D01*
X165960935Y-93935994D01*
X165960932Y-93935995D01*
X165960931Y-93935996D01*
X165936573Y-93951650D01*
X165851950Y-94006033D01*
X165767118Y-94103937D01*
X165767117Y-94103938D01*
X165713302Y-94221774D01*
X165694867Y-94350000D01*
X158701539Y-94350000D01*
X158705133Y-94325000D01*
X158686697Y-94196774D01*
X158632882Y-94078937D01*
X158548049Y-93981033D01*
X158439069Y-93910996D01*
X158439065Y-93910994D01*
X158439064Y-93910994D01*
X158314774Y-93874500D01*
X158314772Y-93874500D01*
X158185228Y-93874500D01*
X158185226Y-93874500D01*
X158060935Y-93910994D01*
X158060932Y-93910995D01*
X158060931Y-93910996D01*
X158022033Y-93935994D01*
X157951950Y-93981033D01*
X157867118Y-94078937D01*
X157867117Y-94078938D01*
X157813302Y-94196774D01*
X157794867Y-94325000D01*
X147631786Y-94325000D01*
X147622191Y-94148045D01*
X147610862Y-94078938D01*
X147565168Y-93800212D01*
X147522704Y-93647271D01*
X147470873Y-93460591D01*
X147470872Y-93460589D01*
X147340411Y-93133155D01*
X147340402Y-93133137D01*
X147322834Y-93100000D01*
X148844867Y-93100000D01*
X148863302Y-93228225D01*
X148913007Y-93337061D01*
X148917118Y-93346063D01*
X149001951Y-93443967D01*
X149110931Y-93514004D01*
X149235225Y-93550499D01*
X149235227Y-93550500D01*
X149235228Y-93550500D01*
X149364773Y-93550500D01*
X149364773Y-93550499D01*
X149489069Y-93514004D01*
X149598049Y-93443967D01*
X149682882Y-93346063D01*
X149736697Y-93228226D01*
X149755133Y-93100000D01*
X149753839Y-93091000D01*
X160580867Y-93091000D01*
X160599302Y-93219225D01*
X160653117Y-93337061D01*
X160653118Y-93337063D01*
X160737951Y-93434967D01*
X160846931Y-93505004D01*
X160971225Y-93541499D01*
X160971227Y-93541500D01*
X160971228Y-93541500D01*
X161100773Y-93541500D01*
X161100773Y-93541499D01*
X161225069Y-93505004D01*
X161334049Y-93434967D01*
X161418882Y-93337063D01*
X161472697Y-93219226D01*
X161491133Y-93091000D01*
X161472697Y-92962774D01*
X161418882Y-92844937D01*
X161334049Y-92747033D01*
X161225069Y-92676996D01*
X161225065Y-92676994D01*
X161225064Y-92676994D01*
X161100774Y-92640500D01*
X161100772Y-92640500D01*
X160971228Y-92640500D01*
X160971226Y-92640500D01*
X160846935Y-92676994D01*
X160846932Y-92676995D01*
X160846931Y-92676996D01*
X160832930Y-92685994D01*
X160737950Y-92747033D01*
X160653118Y-92844937D01*
X160653117Y-92844938D01*
X160599302Y-92962774D01*
X160580867Y-93091000D01*
X149753839Y-93091000D01*
X149736697Y-92971774D01*
X149682882Y-92853937D01*
X149598049Y-92756033D01*
X149489069Y-92685996D01*
X149489065Y-92685994D01*
X149489064Y-92685994D01*
X149364774Y-92649500D01*
X149364772Y-92649500D01*
X149235228Y-92649500D01*
X149235226Y-92649500D01*
X149110935Y-92685994D01*
X149110932Y-92685995D01*
X149110931Y-92685996D01*
X149059677Y-92718934D01*
X149001950Y-92756033D01*
X148917118Y-92853937D01*
X148917117Y-92853938D01*
X148863302Y-92971774D01*
X148844867Y-93100000D01*
X147322834Y-93100000D01*
X147175305Y-92821731D01*
X146977501Y-92529992D01*
X146977497Y-92529987D01*
X146977494Y-92529983D01*
X146749314Y-92261350D01*
X146493420Y-92018954D01*
X146493413Y-92018948D01*
X146493410Y-92018946D01*
X146212815Y-91805644D01*
X146120334Y-91750000D01*
X151244867Y-91750000D01*
X151263302Y-91878225D01*
X151272957Y-91899365D01*
X151317118Y-91996063D01*
X151401951Y-92093967D01*
X151510931Y-92164004D01*
X151635225Y-92200499D01*
X151635227Y-92200500D01*
X151635228Y-92200500D01*
X151764773Y-92200500D01*
X151764773Y-92200499D01*
X151889069Y-92164004D01*
X151998049Y-92093967D01*
X152082882Y-91996063D01*
X152136697Y-91878226D01*
X152155133Y-91750000D01*
X152136697Y-91621774D01*
X152082882Y-91503937D01*
X151998049Y-91406033D01*
X151889069Y-91335996D01*
X151889065Y-91335994D01*
X151889064Y-91335994D01*
X151764774Y-91299500D01*
X151764772Y-91299500D01*
X151635228Y-91299500D01*
X151635226Y-91299500D01*
X151510935Y-91335994D01*
X151510932Y-91335995D01*
X151510931Y-91335996D01*
X151468319Y-91363381D01*
X151401950Y-91406033D01*
X151317118Y-91503937D01*
X151317117Y-91503938D01*
X151263302Y-91621774D01*
X151244867Y-91750000D01*
X146120334Y-91750000D01*
X145910802Y-91623928D01*
X145910789Y-91623921D01*
X145590911Y-91475929D01*
X145590906Y-91475928D01*
X145590903Y-91475927D01*
X145590901Y-91475926D01*
X145484432Y-91440052D01*
X145256880Y-91363381D01*
X144912643Y-91287608D01*
X144562238Y-91249500D01*
X144562237Y-91249500D01*
X144384163Y-91249500D01*
X144317124Y-91229815D01*
X144271369Y-91177011D01*
X144261425Y-91107853D01*
X144290450Y-91044297D01*
X144349228Y-91006523D01*
X144377673Y-91001670D01*
X144398379Y-91000584D01*
X144401622Y-91000500D01*
X147875240Y-91000500D01*
X147875383Y-91000528D01*
X147875384Y-91000524D01*
X147899997Y-91000539D01*
X147900000Y-91000541D01*
X147900383Y-91000383D01*
X147900500Y-91000099D01*
X147900541Y-91000000D01*
X147900540Y-90999997D01*
X147900583Y-90975889D01*
X147900500Y-90975467D01*
X147900500Y-90400000D01*
X151244867Y-90400000D01*
X151263302Y-90528225D01*
X151317117Y-90646061D01*
X151317118Y-90646063D01*
X151401951Y-90743967D01*
X151510931Y-90814004D01*
X151635225Y-90850499D01*
X151635227Y-90850500D01*
X151635228Y-90850500D01*
X151764773Y-90850500D01*
X151764773Y-90850499D01*
X151889069Y-90814004D01*
X151998049Y-90743967D01*
X152082882Y-90646063D01*
X152136697Y-90528226D01*
X152155133Y-90400000D01*
X152137161Y-90275000D01*
X155344867Y-90275000D01*
X155363302Y-90403225D01*
X155417117Y-90521061D01*
X155417118Y-90521063D01*
X155501951Y-90618967D01*
X155610931Y-90689004D01*
X155735225Y-90725499D01*
X155735227Y-90725500D01*
X155735228Y-90725500D01*
X155864773Y-90725500D01*
X155864773Y-90725499D01*
X155989069Y-90689004D01*
X156098049Y-90618967D01*
X156182882Y-90521063D01*
X156236697Y-90403226D01*
X156255133Y-90275000D01*
X156236697Y-90146774D01*
X156182882Y-90028937D01*
X156098049Y-89931033D01*
X155989069Y-89860996D01*
X155989065Y-89860994D01*
X155989064Y-89860994D01*
X155864774Y-89824500D01*
X155864772Y-89824500D01*
X155735228Y-89824500D01*
X155735226Y-89824500D01*
X155610935Y-89860994D01*
X155610932Y-89860995D01*
X155610931Y-89860996D01*
X155559677Y-89893934D01*
X155501950Y-89931033D01*
X155417118Y-90028937D01*
X155417117Y-90028938D01*
X155363302Y-90146774D01*
X155344867Y-90275000D01*
X152137161Y-90275000D01*
X152136697Y-90271774D01*
X152082882Y-90153937D01*
X151998049Y-90056033D01*
X151889069Y-89985996D01*
X151889065Y-89985994D01*
X151889064Y-89985994D01*
X151764774Y-89949500D01*
X151764772Y-89949500D01*
X151635228Y-89949500D01*
X151635226Y-89949500D01*
X151510935Y-89985994D01*
X151510932Y-89985995D01*
X151510931Y-89985996D01*
X151459677Y-90018934D01*
X151401950Y-90056033D01*
X151317118Y-90153937D01*
X151317117Y-90153938D01*
X151263302Y-90271774D01*
X151244867Y-90400000D01*
X147900500Y-90400000D01*
X147900500Y-88400000D01*
X157244867Y-88400000D01*
X157263302Y-88528225D01*
X157317117Y-88646061D01*
X157317118Y-88646063D01*
X157401951Y-88743967D01*
X157510931Y-88814004D01*
X157635225Y-88850499D01*
X157635227Y-88850500D01*
X157635228Y-88850500D01*
X157764773Y-88850500D01*
X157764773Y-88850499D01*
X157889069Y-88814004D01*
X157998049Y-88743967D01*
X158082882Y-88646063D01*
X158136697Y-88528226D01*
X158155133Y-88400000D01*
X158136697Y-88271774D01*
X158082882Y-88153937D01*
X157998049Y-88056033D01*
X157889069Y-87985996D01*
X157889065Y-87985994D01*
X157889064Y-87985994D01*
X157764774Y-87949500D01*
X157764772Y-87949500D01*
X157635228Y-87949500D01*
X157635226Y-87949500D01*
X157510935Y-87985994D01*
X157510932Y-87985995D01*
X157510931Y-87985996D01*
X157459677Y-88018934D01*
X157401950Y-88056033D01*
X157317118Y-88153937D01*
X157317117Y-88153938D01*
X157263302Y-88271774D01*
X157244867Y-88400000D01*
X147900500Y-88400000D01*
X147900500Y-87300000D01*
X153044867Y-87300000D01*
X153063302Y-87428225D01*
X153117117Y-87546061D01*
X153117118Y-87546063D01*
X153201951Y-87643967D01*
X153310931Y-87714004D01*
X153435225Y-87750499D01*
X153435227Y-87750500D01*
X153435228Y-87750500D01*
X153564773Y-87750500D01*
X153564773Y-87750499D01*
X153689069Y-87714004D01*
X153798049Y-87643967D01*
X153882882Y-87546063D01*
X153936697Y-87428226D01*
X153955133Y-87300000D01*
X153936697Y-87171774D01*
X153882882Y-87053937D01*
X153798049Y-86956033D01*
X153689069Y-86885996D01*
X153689065Y-86885994D01*
X153689064Y-86885994D01*
X153564774Y-86849500D01*
X153564772Y-86849500D01*
X153435228Y-86849500D01*
X153435226Y-86849500D01*
X153310935Y-86885994D01*
X153310932Y-86885995D01*
X153310931Y-86885996D01*
X153259677Y-86918934D01*
X153201950Y-86956033D01*
X153117118Y-87053937D01*
X153117117Y-87053938D01*
X153063302Y-87171774D01*
X153044867Y-87300000D01*
X147900500Y-87300000D01*
X147900500Y-86100000D01*
X156444867Y-86100000D01*
X156463302Y-86228225D01*
X156517117Y-86346061D01*
X156517118Y-86346063D01*
X156601951Y-86443967D01*
X156710931Y-86514004D01*
X156835225Y-86550499D01*
X156835227Y-86550500D01*
X156835228Y-86550500D01*
X156964773Y-86550500D01*
X156964773Y-86550499D01*
X157089069Y-86514004D01*
X157198049Y-86443967D01*
X157282882Y-86346063D01*
X157336697Y-86228226D01*
X157355133Y-86100000D01*
X157336697Y-85971774D01*
X157282882Y-85853937D01*
X157198049Y-85756033D01*
X157089069Y-85685996D01*
X157089065Y-85685994D01*
X157089064Y-85685994D01*
X156964774Y-85649500D01*
X156964772Y-85649500D01*
X156835228Y-85649500D01*
X156835226Y-85649500D01*
X156710935Y-85685994D01*
X156710932Y-85685995D01*
X156710931Y-85685996D01*
X156667350Y-85714004D01*
X156601950Y-85756033D01*
X156517118Y-85853937D01*
X156517117Y-85853938D01*
X156463302Y-85971774D01*
X156444867Y-86100000D01*
X147900500Y-86100000D01*
X147900500Y-85000000D01*
X153644867Y-85000000D01*
X153663302Y-85128225D01*
X153683191Y-85171774D01*
X153717118Y-85246063D01*
X153801951Y-85343967D01*
X153910931Y-85414004D01*
X153959368Y-85428226D01*
X154035225Y-85450499D01*
X154035227Y-85450500D01*
X154035228Y-85450500D01*
X154164773Y-85450500D01*
X154164773Y-85450499D01*
X154289069Y-85414004D01*
X154398049Y-85343967D01*
X154482882Y-85246063D01*
X154536697Y-85128226D01*
X154555133Y-85000000D01*
X158544867Y-85000000D01*
X158563302Y-85128225D01*
X158583191Y-85171774D01*
X158617118Y-85246063D01*
X158701951Y-85343967D01*
X158810931Y-85414004D01*
X158859368Y-85428226D01*
X158935225Y-85450499D01*
X158935227Y-85450500D01*
X158935228Y-85450500D01*
X159064773Y-85450500D01*
X159064773Y-85450499D01*
X159189069Y-85414004D01*
X159298049Y-85343967D01*
X159336146Y-85300000D01*
X162044867Y-85300000D01*
X162063302Y-85428225D01*
X162073475Y-85450500D01*
X162117118Y-85546063D01*
X162201951Y-85643967D01*
X162310931Y-85714004D01*
X162435225Y-85750499D01*
X162435227Y-85750500D01*
X162435228Y-85750500D01*
X162564773Y-85750500D01*
X162564773Y-85750499D01*
X162689069Y-85714004D01*
X162798049Y-85643967D01*
X162882882Y-85546063D01*
X162936697Y-85428226D01*
X162955133Y-85300000D01*
X162936697Y-85171774D01*
X162882882Y-85053937D01*
X162798049Y-84956033D01*
X162689069Y-84885996D01*
X162689065Y-84885994D01*
X162689064Y-84885994D01*
X162564774Y-84849500D01*
X162564772Y-84849500D01*
X162435228Y-84849500D01*
X162435226Y-84849500D01*
X162310935Y-84885994D01*
X162310932Y-84885995D01*
X162310931Y-84885996D01*
X162259677Y-84918934D01*
X162201950Y-84956033D01*
X162117118Y-85053937D01*
X162117117Y-85053938D01*
X162063302Y-85171774D01*
X162044867Y-85300000D01*
X159336146Y-85300000D01*
X159382882Y-85246063D01*
X159436697Y-85128226D01*
X159455133Y-85000000D01*
X159436697Y-84871774D01*
X159382882Y-84753937D01*
X159298049Y-84656033D01*
X159189069Y-84585996D01*
X159189065Y-84585994D01*
X159189064Y-84585994D01*
X159064774Y-84549500D01*
X159064772Y-84549500D01*
X158935228Y-84549500D01*
X158935226Y-84549500D01*
X158810935Y-84585994D01*
X158810932Y-84585995D01*
X158810931Y-84585996D01*
X158759677Y-84618934D01*
X158701950Y-84656033D01*
X158617118Y-84753937D01*
X158617117Y-84753938D01*
X158563302Y-84871774D01*
X158544867Y-85000000D01*
X154555133Y-85000000D01*
X154536697Y-84871774D01*
X154482882Y-84753937D01*
X154398049Y-84656033D01*
X154289069Y-84585996D01*
X154289065Y-84585994D01*
X154289064Y-84585994D01*
X154164774Y-84549500D01*
X154164772Y-84549500D01*
X154035228Y-84549500D01*
X154035226Y-84549500D01*
X153910935Y-84585994D01*
X153910932Y-84585995D01*
X153910931Y-84585996D01*
X153859677Y-84618934D01*
X153801950Y-84656033D01*
X153717118Y-84753937D01*
X153717117Y-84753938D01*
X153663302Y-84871774D01*
X153644867Y-85000000D01*
X147900500Y-85000000D01*
X147900500Y-84100000D01*
X151444867Y-84100000D01*
X151463302Y-84228225D01*
X151502477Y-84314004D01*
X151517118Y-84346063D01*
X151601951Y-84443967D01*
X151710931Y-84514004D01*
X151835225Y-84550499D01*
X151835227Y-84550500D01*
X151835228Y-84550500D01*
X151964773Y-84550500D01*
X151964773Y-84550499D01*
X152089069Y-84514004D01*
X152198049Y-84443967D01*
X152282882Y-84346063D01*
X152287204Y-84336598D01*
X152332955Y-84283795D01*
X152399993Y-84264107D01*
X152467034Y-84283789D01*
X152512791Y-84336590D01*
X152517116Y-84346060D01*
X152517117Y-84346061D01*
X152517118Y-84346063D01*
X152601951Y-84443967D01*
X152710931Y-84514004D01*
X152835225Y-84550499D01*
X152835227Y-84550500D01*
X152835228Y-84550500D01*
X152964773Y-84550500D01*
X152964773Y-84550499D01*
X153089069Y-84514004D01*
X153198049Y-84443967D01*
X153282882Y-84346063D01*
X153336697Y-84228226D01*
X153355133Y-84100000D01*
X153336697Y-83971774D01*
X153282882Y-83853937D01*
X153198049Y-83756033D01*
X153089069Y-83685996D01*
X153089065Y-83685994D01*
X153089064Y-83685994D01*
X152964774Y-83649500D01*
X152964772Y-83649500D01*
X152835228Y-83649500D01*
X152835226Y-83649500D01*
X152710935Y-83685994D01*
X152710932Y-83685995D01*
X152710931Y-83685996D01*
X152659677Y-83718934D01*
X152601950Y-83756033D01*
X152517118Y-83853937D01*
X152517115Y-83853940D01*
X152512790Y-83863411D01*
X152467031Y-83916212D01*
X152399990Y-83935892D01*
X152332952Y-83916203D01*
X152287205Y-83863403D01*
X152282882Y-83853937D01*
X152198049Y-83756033D01*
X152089069Y-83685996D01*
X152089065Y-83685994D01*
X152089064Y-83685994D01*
X151964774Y-83649500D01*
X151964772Y-83649500D01*
X151835228Y-83649500D01*
X151835226Y-83649500D01*
X151710935Y-83685994D01*
X151710932Y-83685995D01*
X151710931Y-83685996D01*
X151659677Y-83718934D01*
X151601950Y-83756033D01*
X151517118Y-83853937D01*
X151517117Y-83853938D01*
X151463302Y-83971774D01*
X151444867Y-84100000D01*
X147900500Y-84100000D01*
X147900500Y-83500000D01*
X155144867Y-83500000D01*
X155163302Y-83628225D01*
X155175045Y-83653937D01*
X155217118Y-83746063D01*
X155301951Y-83843967D01*
X155410931Y-83914004D01*
X155485477Y-83935892D01*
X155535225Y-83950499D01*
X155535227Y-83950500D01*
X155535228Y-83950500D01*
X155664773Y-83950500D01*
X155664773Y-83950499D01*
X155789069Y-83914004D01*
X155898049Y-83843967D01*
X155982882Y-83746063D01*
X156036697Y-83628226D01*
X156055133Y-83500000D01*
X157044867Y-83500000D01*
X157063302Y-83628225D01*
X157075045Y-83653937D01*
X157117118Y-83746063D01*
X157201951Y-83843967D01*
X157310931Y-83914004D01*
X157385477Y-83935892D01*
X157435225Y-83950499D01*
X157435227Y-83950500D01*
X157435228Y-83950500D01*
X157564773Y-83950500D01*
X157564773Y-83950499D01*
X157689069Y-83914004D01*
X157710860Y-83900000D01*
X162044867Y-83900000D01*
X162063302Y-84028225D01*
X162096081Y-84100000D01*
X162117118Y-84146063D01*
X162201951Y-84243967D01*
X162310931Y-84314004D01*
X162420117Y-84346063D01*
X162435225Y-84350499D01*
X162435227Y-84350500D01*
X162435228Y-84350500D01*
X162564773Y-84350500D01*
X162564773Y-84350499D01*
X162689069Y-84314004D01*
X162798049Y-84243967D01*
X162882882Y-84146063D01*
X162936697Y-84028226D01*
X162955133Y-83900000D01*
X162936697Y-83771774D01*
X162882882Y-83653937D01*
X162798049Y-83556033D01*
X162689069Y-83485996D01*
X162689065Y-83485994D01*
X162689064Y-83485994D01*
X162564774Y-83449500D01*
X162564772Y-83449500D01*
X162435228Y-83449500D01*
X162435226Y-83449500D01*
X162310935Y-83485994D01*
X162310932Y-83485995D01*
X162310931Y-83485996D01*
X162259677Y-83518934D01*
X162201950Y-83556033D01*
X162117118Y-83653937D01*
X162117117Y-83653938D01*
X162063302Y-83771774D01*
X162044867Y-83900000D01*
X157710860Y-83900000D01*
X157798049Y-83843967D01*
X157882882Y-83746063D01*
X157936697Y-83628226D01*
X157955133Y-83500000D01*
X157936697Y-83371774D01*
X157882882Y-83253937D01*
X157798049Y-83156033D01*
X157689069Y-83085996D01*
X157689065Y-83085994D01*
X157689064Y-83085994D01*
X157564774Y-83049500D01*
X157564772Y-83049500D01*
X157435228Y-83049500D01*
X157435226Y-83049500D01*
X157310935Y-83085994D01*
X157310932Y-83085995D01*
X157310931Y-83085996D01*
X157259677Y-83118934D01*
X157201950Y-83156033D01*
X157117118Y-83253937D01*
X157117117Y-83253938D01*
X157063302Y-83371774D01*
X157044867Y-83500000D01*
X156055133Y-83500000D01*
X156036697Y-83371774D01*
X155982882Y-83253937D01*
X155898049Y-83156033D01*
X155789069Y-83085996D01*
X155789065Y-83085994D01*
X155789064Y-83085994D01*
X155664774Y-83049500D01*
X155664772Y-83049500D01*
X155535228Y-83049500D01*
X155535226Y-83049500D01*
X155410935Y-83085994D01*
X155410932Y-83085995D01*
X155410931Y-83085996D01*
X155359677Y-83118934D01*
X155301950Y-83156033D01*
X155217118Y-83253937D01*
X155217117Y-83253938D01*
X155163302Y-83371774D01*
X155144867Y-83500000D01*
X147900500Y-83500000D01*
X147900500Y-81600000D01*
X156944867Y-81600000D01*
X156963302Y-81728225D01*
X157017117Y-81846061D01*
X157017118Y-81846063D01*
X157101951Y-81943967D01*
X157210931Y-82014004D01*
X157335225Y-82050499D01*
X157335227Y-82050500D01*
X157335228Y-82050500D01*
X157464773Y-82050500D01*
X157464773Y-82050499D01*
X157589069Y-82014004D01*
X157698049Y-81943967D01*
X157782882Y-81846063D01*
X157836697Y-81728226D01*
X157855133Y-81600000D01*
X157836697Y-81471774D01*
X157782882Y-81353937D01*
X157698049Y-81256033D01*
X157589069Y-81185996D01*
X157589065Y-81185994D01*
X157589064Y-81185994D01*
X157464774Y-81149500D01*
X157464772Y-81149500D01*
X157335228Y-81149500D01*
X157335226Y-81149500D01*
X157210935Y-81185994D01*
X157210932Y-81185995D01*
X157210931Y-81185996D01*
X157159677Y-81218934D01*
X157101950Y-81256033D01*
X157017118Y-81353937D01*
X157017117Y-81353938D01*
X156963302Y-81471774D01*
X156944867Y-81600000D01*
X147900500Y-81600000D01*
X147900500Y-81100000D01*
X162144867Y-81100000D01*
X162163302Y-81228225D01*
X162176002Y-81256033D01*
X162217118Y-81346063D01*
X162301951Y-81443967D01*
X162410931Y-81514004D01*
X162535225Y-81550499D01*
X162535227Y-81550500D01*
X162535228Y-81550500D01*
X162664773Y-81550500D01*
X162664773Y-81550499D01*
X162789069Y-81514004D01*
X162898049Y-81443967D01*
X162982882Y-81346063D01*
X163036697Y-81228226D01*
X163055133Y-81100000D01*
X163036697Y-80971774D01*
X162982882Y-80853937D01*
X162898049Y-80756033D01*
X162789069Y-80685996D01*
X162789065Y-80685994D01*
X162789064Y-80685994D01*
X162664774Y-80649500D01*
X162664772Y-80649500D01*
X162535228Y-80649500D01*
X162535226Y-80649500D01*
X162410935Y-80685994D01*
X162410932Y-80685995D01*
X162410931Y-80685996D01*
X162359677Y-80718934D01*
X162301950Y-80756033D01*
X162217118Y-80853937D01*
X162217117Y-80853938D01*
X162163302Y-80971774D01*
X162144867Y-81100000D01*
X147900500Y-81100000D01*
X147900500Y-79200000D01*
X154044867Y-79200000D01*
X154063302Y-79328225D01*
X154117117Y-79446061D01*
X154117118Y-79446063D01*
X154201951Y-79543967D01*
X154310931Y-79614004D01*
X154435225Y-79650499D01*
X154435227Y-79650500D01*
X154435228Y-79650500D01*
X154564773Y-79650500D01*
X154564773Y-79650499D01*
X154689069Y-79614004D01*
X154798049Y-79543967D01*
X154882882Y-79446063D01*
X154936697Y-79328226D01*
X154955133Y-79200000D01*
X155544867Y-79200000D01*
X155563302Y-79328225D01*
X155617117Y-79446061D01*
X155617118Y-79446063D01*
X155701951Y-79543967D01*
X155810931Y-79614004D01*
X155935225Y-79650499D01*
X155935227Y-79650500D01*
X155935228Y-79650500D01*
X156064773Y-79650500D01*
X156064773Y-79650499D01*
X156189069Y-79614004D01*
X156298049Y-79543967D01*
X156382882Y-79446063D01*
X156436697Y-79328226D01*
X156455133Y-79200000D01*
X156436697Y-79071774D01*
X156382882Y-78953937D01*
X156298049Y-78856033D01*
X156189069Y-78785996D01*
X156189065Y-78785994D01*
X156189064Y-78785994D01*
X156064774Y-78749500D01*
X156064772Y-78749500D01*
X155935228Y-78749500D01*
X155935226Y-78749500D01*
X155810935Y-78785994D01*
X155810932Y-78785995D01*
X155810931Y-78785996D01*
X155759677Y-78818934D01*
X155701950Y-78856033D01*
X155617118Y-78953937D01*
X155617117Y-78953938D01*
X155563302Y-79071774D01*
X155544867Y-79200000D01*
X154955133Y-79200000D01*
X154936697Y-79071774D01*
X154882882Y-78953937D01*
X154798049Y-78856033D01*
X154689069Y-78785996D01*
X154689065Y-78785994D01*
X154689064Y-78785994D01*
X154564774Y-78749500D01*
X154564772Y-78749500D01*
X154435228Y-78749500D01*
X154435226Y-78749500D01*
X154310935Y-78785994D01*
X154310932Y-78785995D01*
X154310931Y-78785996D01*
X154259677Y-78818934D01*
X154201950Y-78856033D01*
X154117118Y-78953937D01*
X154117117Y-78953938D01*
X154063302Y-79071774D01*
X154044867Y-79200000D01*
X147900500Y-79200000D01*
X147900500Y-78700000D01*
X156944867Y-78700000D01*
X156963302Y-78828225D01*
X156976002Y-78856033D01*
X157017118Y-78946063D01*
X157101951Y-79043967D01*
X157210931Y-79114004D01*
X157335225Y-79150499D01*
X157335227Y-79150500D01*
X157335228Y-79150500D01*
X157464773Y-79150500D01*
X157464773Y-79150499D01*
X157589069Y-79114004D01*
X157698049Y-79043967D01*
X157782882Y-78946063D01*
X157836697Y-78828226D01*
X157855133Y-78700000D01*
X157836697Y-78571774D01*
X157782882Y-78453937D01*
X157698049Y-78356033D01*
X157589069Y-78285996D01*
X157589065Y-78285994D01*
X157589064Y-78285994D01*
X157464774Y-78249500D01*
X157464772Y-78249500D01*
X157335228Y-78249500D01*
X157335226Y-78249500D01*
X157210935Y-78285994D01*
X157210932Y-78285995D01*
X157210931Y-78285996D01*
X157159677Y-78318934D01*
X157101950Y-78356033D01*
X157017118Y-78453937D01*
X157017117Y-78453938D01*
X156963302Y-78571774D01*
X156944867Y-78700000D01*
X147900500Y-78700000D01*
X147900500Y-77680000D01*
X150519750Y-77680000D01*
X150538670Y-77823708D01*
X150538671Y-77823712D01*
X150594137Y-77957622D01*
X150594138Y-77957624D01*
X150594139Y-77957625D01*
X150682379Y-78072621D01*
X150797375Y-78160861D01*
X150931291Y-78216330D01*
X151058280Y-78233048D01*
X151074999Y-78235250D01*
X151075000Y-78235250D01*
X151075001Y-78235250D01*
X151089977Y-78233278D01*
X151218709Y-78216330D01*
X151352625Y-78160861D01*
X151467621Y-78072621D01*
X151555861Y-77957625D01*
X151611330Y-77823709D01*
X151630250Y-77680000D01*
X153059750Y-77680000D01*
X153078670Y-77823708D01*
X153078671Y-77823712D01*
X153134137Y-77957622D01*
X153134138Y-77957624D01*
X153134139Y-77957625D01*
X153222379Y-78072621D01*
X153337375Y-78160861D01*
X153471291Y-78216330D01*
X153598280Y-78233048D01*
X153614999Y-78235250D01*
X153615000Y-78235250D01*
X153615001Y-78235250D01*
X153629977Y-78233278D01*
X153758709Y-78216330D01*
X153892625Y-78160861D01*
X154007621Y-78072621D01*
X154095861Y-77957625D01*
X154151330Y-77823709D01*
X154170250Y-77680000D01*
X155599750Y-77680000D01*
X155618670Y-77823708D01*
X155618671Y-77823712D01*
X155674137Y-77957622D01*
X155674138Y-77957624D01*
X155674139Y-77957625D01*
X155762379Y-78072621D01*
X155877375Y-78160861D01*
X156011291Y-78216330D01*
X156138280Y-78233048D01*
X156154999Y-78235250D01*
X156155000Y-78235250D01*
X156155001Y-78235250D01*
X156169977Y-78233278D01*
X156298709Y-78216330D01*
X156432625Y-78160861D01*
X156547621Y-78072621D01*
X156635861Y-77957625D01*
X156691330Y-77823709D01*
X156710250Y-77680000D01*
X158139750Y-77680000D01*
X158158670Y-77823708D01*
X158158671Y-77823712D01*
X158214137Y-77957622D01*
X158214138Y-77957624D01*
X158214139Y-77957625D01*
X158302379Y-78072621D01*
X158417375Y-78160861D01*
X158551291Y-78216330D01*
X158678280Y-78233048D01*
X158694999Y-78235250D01*
X158695000Y-78235250D01*
X158695001Y-78235250D01*
X158709977Y-78233278D01*
X158838709Y-78216330D01*
X158972625Y-78160861D01*
X159087621Y-78072621D01*
X159175861Y-77957625D01*
X159231330Y-77823709D01*
X159250250Y-77680000D01*
X160679750Y-77680000D01*
X160698670Y-77823708D01*
X160698671Y-77823712D01*
X160754137Y-77957622D01*
X160754138Y-77957624D01*
X160754139Y-77957625D01*
X160842379Y-78072621D01*
X160957375Y-78160861D01*
X161091291Y-78216330D01*
X161218280Y-78233048D01*
X161234999Y-78235250D01*
X161235000Y-78235250D01*
X161235001Y-78235250D01*
X161249977Y-78233278D01*
X161378709Y-78216330D01*
X161512625Y-78160861D01*
X161627621Y-78072621D01*
X161715861Y-77957625D01*
X161771330Y-77823709D01*
X161790250Y-77680000D01*
X161771330Y-77536291D01*
X161715861Y-77402375D01*
X161627621Y-77287379D01*
X161512625Y-77199139D01*
X161512624Y-77199138D01*
X161512622Y-77199137D01*
X161378712Y-77143671D01*
X161378710Y-77143670D01*
X161378709Y-77143670D01*
X161306854Y-77134210D01*
X161235001Y-77124750D01*
X161234999Y-77124750D01*
X161091291Y-77143670D01*
X161091287Y-77143671D01*
X160957377Y-77199137D01*
X160842379Y-77287379D01*
X160754137Y-77402377D01*
X160698671Y-77536287D01*
X160698670Y-77536291D01*
X160679750Y-77679999D01*
X160679750Y-77680000D01*
X159250250Y-77680000D01*
X159231330Y-77536291D01*
X159175861Y-77402375D01*
X159087621Y-77287379D01*
X158972625Y-77199139D01*
X158972624Y-77199138D01*
X158972622Y-77199137D01*
X158838712Y-77143671D01*
X158838710Y-77143670D01*
X158838709Y-77143670D01*
X158766854Y-77134210D01*
X158695001Y-77124750D01*
X158694999Y-77124750D01*
X158551291Y-77143670D01*
X158551287Y-77143671D01*
X158417377Y-77199137D01*
X158302379Y-77287379D01*
X158214137Y-77402377D01*
X158158671Y-77536287D01*
X158158670Y-77536291D01*
X158139750Y-77679999D01*
X158139750Y-77680000D01*
X156710250Y-77680000D01*
X156691330Y-77536291D01*
X156635861Y-77402375D01*
X156547621Y-77287379D01*
X156432625Y-77199139D01*
X156432624Y-77199138D01*
X156432622Y-77199137D01*
X156298712Y-77143671D01*
X156298710Y-77143670D01*
X156298709Y-77143670D01*
X156226854Y-77134210D01*
X156155001Y-77124750D01*
X156154999Y-77124750D01*
X156011291Y-77143670D01*
X156011287Y-77143671D01*
X155877377Y-77199137D01*
X155762379Y-77287379D01*
X155674137Y-77402377D01*
X155618671Y-77536287D01*
X155618670Y-77536291D01*
X155599750Y-77679999D01*
X155599750Y-77680000D01*
X154170250Y-77680000D01*
X154151330Y-77536291D01*
X154095861Y-77402375D01*
X154007621Y-77287379D01*
X153892625Y-77199139D01*
X153892624Y-77199138D01*
X153892622Y-77199137D01*
X153758712Y-77143671D01*
X153758710Y-77143670D01*
X153758709Y-77143670D01*
X153686854Y-77134210D01*
X153615001Y-77124750D01*
X153614999Y-77124750D01*
X153471291Y-77143670D01*
X153471287Y-77143671D01*
X153337377Y-77199137D01*
X153222379Y-77287379D01*
X153134137Y-77402377D01*
X153078671Y-77536287D01*
X153078670Y-77536291D01*
X153059750Y-77679999D01*
X153059750Y-77680000D01*
X151630250Y-77680000D01*
X151611330Y-77536291D01*
X151555861Y-77402375D01*
X151467621Y-77287379D01*
X151352625Y-77199139D01*
X151352624Y-77199138D01*
X151352622Y-77199137D01*
X151218712Y-77143671D01*
X151218710Y-77143670D01*
X151218709Y-77143670D01*
X151146854Y-77134210D01*
X151075001Y-77124750D01*
X151074999Y-77124750D01*
X150931291Y-77143670D01*
X150931287Y-77143671D01*
X150797377Y-77199137D01*
X150682379Y-77287379D01*
X150594137Y-77402377D01*
X150538671Y-77536287D01*
X150538670Y-77536291D01*
X150519750Y-77679999D01*
X150519750Y-77680000D01*
X147900500Y-77680000D01*
X147900500Y-74100000D01*
X156944867Y-74100000D01*
X156963302Y-74228225D01*
X156973475Y-74250500D01*
X157017118Y-74346063D01*
X157101951Y-74443967D01*
X157210931Y-74514004D01*
X157335225Y-74550499D01*
X157335227Y-74550500D01*
X157335228Y-74550500D01*
X157464773Y-74550500D01*
X157464773Y-74550499D01*
X157589069Y-74514004D01*
X157698049Y-74443967D01*
X157782882Y-74346063D01*
X157836697Y-74228226D01*
X157836697Y-74228225D01*
X157837206Y-74227111D01*
X157882961Y-74174307D01*
X157950000Y-74154623D01*
X158017040Y-74174308D01*
X158062794Y-74227111D01*
X158063302Y-74228225D01*
X158063303Y-74228226D01*
X158117118Y-74346063D01*
X158201951Y-74443967D01*
X158310931Y-74514004D01*
X158435225Y-74550499D01*
X158435227Y-74550500D01*
X158435228Y-74550500D01*
X158564773Y-74550500D01*
X158564773Y-74550499D01*
X158689069Y-74514004D01*
X158798049Y-74443967D01*
X158882882Y-74346063D01*
X158936697Y-74228226D01*
X158955133Y-74100000D01*
X158940755Y-74000000D01*
X160644867Y-74000000D01*
X160663302Y-74128225D01*
X160708972Y-74228226D01*
X160717118Y-74246063D01*
X160801951Y-74343967D01*
X160910931Y-74414004D01*
X161035225Y-74450499D01*
X161035227Y-74450500D01*
X161035228Y-74450500D01*
X161164773Y-74450500D01*
X161164773Y-74450499D01*
X161289069Y-74414004D01*
X161398049Y-74343967D01*
X161482882Y-74246063D01*
X161536697Y-74128226D01*
X161555133Y-74000000D01*
X161536697Y-73871774D01*
X161503919Y-73800000D01*
X167544867Y-73800000D01*
X167563302Y-73928225D01*
X167596081Y-74000000D01*
X167617118Y-74046063D01*
X167701951Y-74143967D01*
X167810931Y-74214004D01*
X167920117Y-74246063D01*
X167935225Y-74250499D01*
X167935227Y-74250500D01*
X167935228Y-74250500D01*
X168064773Y-74250500D01*
X168064773Y-74250499D01*
X168189069Y-74214004D01*
X168298049Y-74143967D01*
X168382882Y-74046063D01*
X168436697Y-73928226D01*
X168455133Y-73800000D01*
X169144867Y-73800000D01*
X169163302Y-73928225D01*
X169196081Y-74000000D01*
X169217118Y-74046063D01*
X169301951Y-74143967D01*
X169410931Y-74214004D01*
X169520117Y-74246063D01*
X169535225Y-74250499D01*
X169535227Y-74250500D01*
X169535228Y-74250500D01*
X169664773Y-74250500D01*
X169664773Y-74250499D01*
X169789069Y-74214004D01*
X169898049Y-74143967D01*
X169982882Y-74046063D01*
X170036697Y-73928226D01*
X170055133Y-73800000D01*
X170036697Y-73671774D01*
X169982882Y-73553937D01*
X169898049Y-73456033D01*
X169789069Y-73385996D01*
X169789065Y-73385994D01*
X169789064Y-73385994D01*
X169664774Y-73349500D01*
X169664772Y-73349500D01*
X169535228Y-73349500D01*
X169535226Y-73349500D01*
X169410935Y-73385994D01*
X169410932Y-73385995D01*
X169410931Y-73385996D01*
X169359677Y-73418934D01*
X169301950Y-73456033D01*
X169217118Y-73553937D01*
X169217117Y-73553938D01*
X169163302Y-73671774D01*
X169144867Y-73800000D01*
X168455133Y-73800000D01*
X168436697Y-73671774D01*
X168382882Y-73553937D01*
X168298049Y-73456033D01*
X168189069Y-73385996D01*
X168189065Y-73385994D01*
X168189064Y-73385994D01*
X168064774Y-73349500D01*
X168064772Y-73349500D01*
X167935228Y-73349500D01*
X167935226Y-73349500D01*
X167810935Y-73385994D01*
X167810932Y-73385995D01*
X167810931Y-73385996D01*
X167759677Y-73418934D01*
X167701950Y-73456033D01*
X167617118Y-73553937D01*
X167617117Y-73553938D01*
X167563302Y-73671774D01*
X167544867Y-73800000D01*
X161503919Y-73800000D01*
X161482882Y-73753937D01*
X161398049Y-73656033D01*
X161289069Y-73585996D01*
X161289065Y-73585994D01*
X161289064Y-73585994D01*
X161164774Y-73549500D01*
X161164772Y-73549500D01*
X161035228Y-73549500D01*
X161035226Y-73549500D01*
X160910935Y-73585994D01*
X160910932Y-73585995D01*
X160910931Y-73585996D01*
X160859677Y-73618934D01*
X160801950Y-73656033D01*
X160717118Y-73753937D01*
X160717117Y-73753938D01*
X160663302Y-73871774D01*
X160644867Y-74000000D01*
X158940755Y-74000000D01*
X158936697Y-73971774D01*
X158882882Y-73853937D01*
X158798049Y-73756033D01*
X158689069Y-73685996D01*
X158689065Y-73685994D01*
X158689064Y-73685994D01*
X158564774Y-73649500D01*
X158564772Y-73649500D01*
X158435228Y-73649500D01*
X158435226Y-73649500D01*
X158310935Y-73685994D01*
X158310932Y-73685995D01*
X158310931Y-73685996D01*
X158259677Y-73718934D01*
X158201950Y-73756033D01*
X158117118Y-73853937D01*
X158117117Y-73853938D01*
X158062794Y-73972888D01*
X158017039Y-74025692D01*
X157949999Y-74045376D01*
X157882960Y-74025691D01*
X157837206Y-73972888D01*
X157782882Y-73853938D01*
X157782882Y-73853937D01*
X157698049Y-73756033D01*
X157589069Y-73685996D01*
X157589065Y-73685994D01*
X157589064Y-73685994D01*
X157464774Y-73649500D01*
X157464772Y-73649500D01*
X157335228Y-73649500D01*
X157335226Y-73649500D01*
X157210935Y-73685994D01*
X157210932Y-73685995D01*
X157210931Y-73685996D01*
X157159677Y-73718934D01*
X157101950Y-73756033D01*
X157017118Y-73853937D01*
X157017117Y-73853938D01*
X156963302Y-73971774D01*
X156944867Y-74100000D01*
X147900500Y-74100000D01*
X147900500Y-72100000D01*
X161544867Y-72100000D01*
X161563302Y-72228225D01*
X161617117Y-72346061D01*
X161617118Y-72346063D01*
X161701951Y-72443967D01*
X161810931Y-72514004D01*
X161935225Y-72550499D01*
X161935227Y-72550500D01*
X161935228Y-72550500D01*
X162064773Y-72550500D01*
X162064773Y-72550499D01*
X162189069Y-72514004D01*
X162298049Y-72443967D01*
X162382882Y-72346063D01*
X162436697Y-72228226D01*
X162455133Y-72100000D01*
X162436697Y-71971774D01*
X162382882Y-71853937D01*
X162298049Y-71756033D01*
X162189069Y-71685996D01*
X162189065Y-71685994D01*
X162189064Y-71685994D01*
X162064774Y-71649500D01*
X162064772Y-71649500D01*
X161935228Y-71649500D01*
X161935226Y-71649500D01*
X161810935Y-71685994D01*
X161810932Y-71685995D01*
X161810931Y-71685996D01*
X161759677Y-71718934D01*
X161701950Y-71756033D01*
X161617118Y-71853937D01*
X161617117Y-71853938D01*
X161563302Y-71971774D01*
X161544867Y-72100000D01*
X147900500Y-72100000D01*
X147900500Y-71600000D01*
X156044867Y-71600000D01*
X156063302Y-71728225D01*
X156076002Y-71756033D01*
X156117118Y-71846063D01*
X156201951Y-71943967D01*
X156310931Y-72014004D01*
X156435225Y-72050499D01*
X156435227Y-72050500D01*
X156435228Y-72050500D01*
X156564773Y-72050500D01*
X156564773Y-72050499D01*
X156689069Y-72014004D01*
X156798049Y-71943967D01*
X156882882Y-71846063D01*
X156936697Y-71728226D01*
X156955133Y-71600000D01*
X156936697Y-71471774D01*
X156882882Y-71353937D01*
X156798049Y-71256033D01*
X156689069Y-71185996D01*
X156689065Y-71185994D01*
X156689064Y-71185994D01*
X156564774Y-71149500D01*
X156564772Y-71149500D01*
X156435228Y-71149500D01*
X156435226Y-71149500D01*
X156310935Y-71185994D01*
X156310932Y-71185995D01*
X156310931Y-71185996D01*
X156259677Y-71218934D01*
X156201950Y-71256033D01*
X156117118Y-71353937D01*
X156117117Y-71353938D01*
X156063302Y-71471774D01*
X156044867Y-71600000D01*
X147900500Y-71600000D01*
X147900500Y-69150000D01*
X148844867Y-69150000D01*
X148863302Y-69278225D01*
X148879642Y-69314004D01*
X148917118Y-69396063D01*
X149001951Y-69493967D01*
X149110931Y-69564004D01*
X149235225Y-69600499D01*
X149235227Y-69600500D01*
X149235228Y-69600500D01*
X149364773Y-69600500D01*
X149364773Y-69600499D01*
X149489069Y-69564004D01*
X149598049Y-69493967D01*
X149682882Y-69396063D01*
X149736697Y-69278226D01*
X149755133Y-69150000D01*
X150044867Y-69150000D01*
X150063302Y-69278225D01*
X150079642Y-69314004D01*
X150117118Y-69396063D01*
X150201951Y-69493967D01*
X150310931Y-69564004D01*
X150435225Y-69600499D01*
X150435227Y-69600500D01*
X150435228Y-69600500D01*
X150564773Y-69600500D01*
X150564773Y-69600499D01*
X150689069Y-69564004D01*
X150798049Y-69493967D01*
X150882882Y-69396063D01*
X150936697Y-69278226D01*
X150952361Y-69169277D01*
X150981386Y-69105723D01*
X151040164Y-69067948D01*
X151110033Y-69067948D01*
X151168812Y-69105722D01*
X151201951Y-69143967D01*
X151310931Y-69214004D01*
X151435225Y-69250499D01*
X151435227Y-69250500D01*
X151435228Y-69250500D01*
X151564773Y-69250500D01*
X151564773Y-69250499D01*
X151689069Y-69214004D01*
X151798049Y-69143967D01*
X151882882Y-69046063D01*
X151936697Y-68928226D01*
X151940755Y-68900000D01*
X158344867Y-68900000D01*
X158363302Y-69028225D01*
X158398695Y-69105723D01*
X158417118Y-69146063D01*
X158501951Y-69243967D01*
X158610931Y-69314004D01*
X158735225Y-69350499D01*
X158735227Y-69350500D01*
X158735228Y-69350500D01*
X158864773Y-69350500D01*
X158864773Y-69350499D01*
X158989069Y-69314004D01*
X159098049Y-69243967D01*
X159182882Y-69146063D01*
X159236697Y-69028226D01*
X159255133Y-68900000D01*
X159236697Y-68771774D01*
X159182882Y-68653937D01*
X159098049Y-68556033D01*
X158989069Y-68485996D01*
X158989065Y-68485994D01*
X158989064Y-68485994D01*
X158864774Y-68449500D01*
X158864772Y-68449500D01*
X158735228Y-68449500D01*
X158735226Y-68449500D01*
X158610935Y-68485994D01*
X158610932Y-68485995D01*
X158610931Y-68485996D01*
X158559677Y-68518934D01*
X158501950Y-68556033D01*
X158417118Y-68653937D01*
X158417117Y-68653938D01*
X158363302Y-68771774D01*
X158344867Y-68900000D01*
X151940755Y-68900000D01*
X151955133Y-68800000D01*
X151936697Y-68671774D01*
X151882882Y-68553937D01*
X151798049Y-68456033D01*
X151689069Y-68385996D01*
X151689065Y-68385994D01*
X151689064Y-68385994D01*
X151564774Y-68349500D01*
X151564772Y-68349500D01*
X151435228Y-68349500D01*
X151435226Y-68349500D01*
X151310935Y-68385994D01*
X151310932Y-68385995D01*
X151310931Y-68385996D01*
X151259677Y-68418934D01*
X151201950Y-68456033D01*
X151117118Y-68553937D01*
X151117117Y-68553938D01*
X151063302Y-68671774D01*
X151047638Y-68780722D01*
X151018612Y-68844277D01*
X150959834Y-68882051D01*
X150889964Y-68882051D01*
X150831187Y-68844276D01*
X150831186Y-68844276D01*
X150798049Y-68806033D01*
X150758664Y-68780722D01*
X150689069Y-68735996D01*
X150689065Y-68735994D01*
X150689064Y-68735994D01*
X150564774Y-68699500D01*
X150564772Y-68699500D01*
X150435228Y-68699500D01*
X150435226Y-68699500D01*
X150310935Y-68735994D01*
X150310932Y-68735995D01*
X150310931Y-68735996D01*
X150259677Y-68768934D01*
X150201950Y-68806033D01*
X150117118Y-68903937D01*
X150117117Y-68903938D01*
X150063302Y-69021774D01*
X150044867Y-69150000D01*
X149755133Y-69150000D01*
X149736697Y-69021774D01*
X149682882Y-68903937D01*
X149598049Y-68806033D01*
X149489069Y-68735996D01*
X149489065Y-68735994D01*
X149489064Y-68735994D01*
X149364774Y-68699500D01*
X149364772Y-68699500D01*
X149235228Y-68699500D01*
X149235226Y-68699500D01*
X149110935Y-68735994D01*
X149110932Y-68735995D01*
X149110931Y-68735996D01*
X149059677Y-68768934D01*
X149001950Y-68806033D01*
X148917118Y-68903937D01*
X148917117Y-68903938D01*
X148863302Y-69021774D01*
X148844867Y-69150000D01*
X147900500Y-69150000D01*
X147900500Y-65500000D01*
X166544867Y-65500000D01*
X166563302Y-65628225D01*
X166617117Y-65746061D01*
X166617118Y-65746063D01*
X166701951Y-65843967D01*
X166810931Y-65914004D01*
X166935225Y-65950499D01*
X166935227Y-65950500D01*
X166935228Y-65950500D01*
X167064773Y-65950500D01*
X167064773Y-65950499D01*
X167189069Y-65914004D01*
X167298049Y-65843967D01*
X167382882Y-65746063D01*
X167436697Y-65628226D01*
X167455133Y-65500000D01*
X167436697Y-65371774D01*
X167382882Y-65253937D01*
X167298049Y-65156033D01*
X167189069Y-65085996D01*
X167189065Y-65085994D01*
X167189064Y-65085994D01*
X167064774Y-65049500D01*
X167064772Y-65049500D01*
X166935228Y-65049500D01*
X166935226Y-65049500D01*
X166810935Y-65085994D01*
X166810932Y-65085995D01*
X166810931Y-65085996D01*
X166759677Y-65118934D01*
X166701950Y-65156033D01*
X166617118Y-65253937D01*
X166617117Y-65253938D01*
X166563302Y-65371774D01*
X166544867Y-65500000D01*
X147900500Y-65500000D01*
X147900500Y-64724759D01*
X147900528Y-64724616D01*
X147900524Y-64724616D01*
X147900539Y-64700002D01*
X147900541Y-64700000D01*
X147900462Y-64699808D01*
X147900384Y-64699618D01*
X147900383Y-64699617D01*
X147900381Y-64699616D01*
X147900090Y-64699496D01*
X147900001Y-64699459D01*
X147875446Y-64699459D01*
X147875240Y-64699500D01*
X144401623Y-64699500D01*
X144398379Y-64699415D01*
X144377676Y-64698330D01*
X144311759Y-64675164D01*
X144268830Y-64620037D01*
X144262520Y-64550453D01*
X144294832Y-64488504D01*
X144355506Y-64453857D01*
X144384166Y-64450500D01*
X144576231Y-64450500D01*
X144576237Y-64450500D01*
X144926645Y-64412391D01*
X145270878Y-64336619D01*
X145604901Y-64224074D01*
X145604908Y-64224070D01*
X145604911Y-64224070D01*
X145924789Y-64076078D01*
X145924798Y-64076074D01*
X146226818Y-63894354D01*
X146507420Y-63681046D01*
X146763314Y-63438650D01*
X146991501Y-63170008D01*
X147189305Y-62878269D01*
X147354407Y-62566854D01*
X147484871Y-62239414D01*
X147579168Y-61899788D01*
X147636191Y-61551957D01*
X147655274Y-61200000D01*
X147636191Y-60848043D01*
X147579168Y-60500212D01*
X147536704Y-60347271D01*
X147484873Y-60160591D01*
X147484872Y-60160589D01*
X147354411Y-59833155D01*
X147354402Y-59833137D01*
X147189304Y-59521730D01*
X146991501Y-59229992D01*
X146991497Y-59229987D01*
X146991494Y-59229983D01*
X146763314Y-58961350D01*
X146763313Y-58961349D01*
X146507420Y-58718954D01*
X146507413Y-58718948D01*
X146507410Y-58718946D01*
X146226815Y-58505644D01*
X145924802Y-58323928D01*
X145924789Y-58323921D01*
X145604911Y-58175929D01*
X145604906Y-58175928D01*
X145604903Y-58175927D01*
X145604901Y-58175926D01*
X145498432Y-58140052D01*
X145270880Y-58063381D01*
X144926643Y-57987608D01*
X144576238Y-57949500D01*
X144576237Y-57949500D01*
X144384163Y-57949500D01*
X144317124Y-57929815D01*
X144271369Y-57877011D01*
X144261425Y-57807853D01*
X144290450Y-57744297D01*
X144349228Y-57706523D01*
X144377673Y-57701670D01*
X144398379Y-57700584D01*
X144401622Y-57700500D01*
X170799901Y-57700500D01*
X170875500Y-57700500D01*
X170942539Y-57720185D01*
G37*
G04 #@! TD.AperFunction*
M02*
