G04 #@! TF.GenerationSoftware,KiCad,Pcbnew,7.0.5-0*
G04 #@! TF.CreationDate,2023-07-15T01:27:44-04:00*
G04 #@! TF.ProjectId,strato_connect,73747261-746f-45f6-936f-6e6e6563742e,rev?*
G04 #@! TF.SameCoordinates,Original*
G04 #@! TF.FileFunction,Soldermask,Bot*
G04 #@! TF.FilePolarity,Negative*
%FSLAX46Y46*%
G04 Gerber Fmt 4.6, Leading zero omitted, Abs format (unit mm)*
G04 Created by KiCad (PCBNEW 7.0.5-0) date 2023-07-15 01:27:44*
%MOMM*%
%LPD*%
G01*
G04 APERTURE LIST*
%ADD10C,2.050000*%
%ADD11C,2.250000*%
%ADD12C,1.000000*%
%ADD13C,0.800000*%
%ADD14C,6.400000*%
%ADD15R,2.400000X1.500000*%
G04 APERTURE END LIST*
D10*
X175133000Y-63800000D03*
D11*
X172593000Y-61260000D03*
X172593000Y-66340000D03*
X177673000Y-61260000D03*
X177673000Y-66340000D03*
D12*
X153615000Y-77680000D03*
D13*
X172100000Y-94500000D03*
X172802944Y-92802944D03*
X172802944Y-96197056D03*
X174500000Y-92100000D03*
D14*
X174500000Y-94500000D03*
D13*
X174500000Y-96900000D03*
X176197056Y-92802944D03*
X176197056Y-96197056D03*
X176900000Y-94500000D03*
D12*
X151075000Y-77680000D03*
D13*
X141986000Y-94500000D03*
X142688944Y-92802944D03*
X142688944Y-96197056D03*
X144386000Y-92100000D03*
D14*
X144386000Y-94500000D03*
D13*
X144386000Y-96900000D03*
X146083056Y-92802944D03*
X146083056Y-96197056D03*
X146786000Y-94500000D03*
X142000000Y-61200000D03*
X142702944Y-59502944D03*
X142702944Y-62897056D03*
X144400000Y-58800000D03*
D14*
X144400000Y-61200000D03*
D13*
X144400000Y-63600000D03*
X146097056Y-59502944D03*
X146097056Y-62897056D03*
X146800000Y-61200000D03*
D12*
X158695000Y-77680000D03*
X161235000Y-77680000D03*
X156155000Y-77680000D03*
D15*
X168760000Y-63800000D03*
X168760000Y-67800000D03*
X168760000Y-71800000D03*
X168760000Y-75800000D03*
X168760000Y-79800000D03*
X168760000Y-83800000D03*
X168760000Y-87800000D03*
X168760000Y-91800000D03*
X149910000Y-91800000D03*
X149910000Y-87800000D03*
X149910000Y-83800000D03*
X149910000Y-79800000D03*
X149910000Y-75800000D03*
X149910000Y-71800000D03*
X149910000Y-67800000D03*
X149910000Y-63800000D03*
M02*
