G04 #@! TF.GenerationSoftware,KiCad,Pcbnew,7.0.5-0*
G04 #@! TF.CreationDate,2023-07-15T01:27:44-04:00*
G04 #@! TF.ProjectId,strato_connect,73747261-746f-45f6-936f-6e6e6563742e,rev?*
G04 #@! TF.SameCoordinates,Original*
G04 #@! TF.FileFunction,Profile,NP*
%FSLAX46Y46*%
G04 Gerber Fmt 4.6, Leading zero omitted, Abs format (unit mm)*
G04 Created by KiCad (PCBNEW 7.0.5-0) date 2023-07-15 01:27:44*
%MOMM*%
%LPD*%
G01*
G04 APERTURE LIST*
G04 #@! TA.AperFunction,Profile*
%ADD10C,0.100000*%
G04 #@! TD*
G04 APERTURE END LIST*
D10*
X171000000Y-68250000D02*
X177700000Y-68250000D01*
X144400000Y-91000000D02*
G75*
G03*
X144400000Y-98000000I0J-3500000D01*
G01*
X179500000Y-68250000D02*
X179500000Y-68100000D01*
X144400000Y-57700000D02*
X170800000Y-57700000D01*
X171000000Y-57700000D02*
X171000000Y-59400000D01*
X179500000Y-59400000D02*
X179500000Y-61200000D01*
X147900000Y-64700000D02*
X144400000Y-64700000D01*
X177700000Y-68250000D02*
X179500000Y-68250000D01*
X171000000Y-68250000D02*
X171000000Y-91000000D01*
X171000000Y-91000000D02*
X174500000Y-91000000D01*
X144400000Y-57700000D02*
G75*
G03*
X144400000Y-64700000I0J-3500000D01*
G01*
X179500000Y-68100000D02*
X179500000Y-66300000D01*
X174500000Y-98000000D02*
G75*
G03*
X174500000Y-91000000I0J3500000D01*
G01*
X177700000Y-59400000D02*
X179500000Y-59400000D01*
X171000000Y-59400000D02*
X177700000Y-59400000D01*
X179500000Y-66300000D02*
X179500000Y-61200000D01*
X147900000Y-91000000D02*
X144400000Y-91000000D01*
X147900000Y-91000000D02*
X147900000Y-64700000D01*
X174500000Y-98000000D02*
X144400000Y-98000000D01*
X170800000Y-57700000D02*
X171000000Y-57700000D01*
M02*
