G04 #@! TF.GenerationSoftware,KiCad,Pcbnew,7.0.5-0*
G04 #@! TF.CreationDate,2023-07-15T01:27:44-04:00*
G04 #@! TF.ProjectId,strato_connect,73747261-746f-45f6-936f-6e6e6563742e,rev?*
G04 #@! TF.SameCoordinates,Original*
G04 #@! TF.FileFunction,Copper,L3,Inr*
G04 #@! TF.FilePolarity,Positive*
%FSLAX46Y46*%
G04 Gerber Fmt 4.6, Leading zero omitted, Abs format (unit mm)*
G04 Created by KiCad (PCBNEW 7.0.5-0) date 2023-07-15 01:27:44*
%MOMM*%
%LPD*%
G01*
G04 APERTURE LIST*
G04 #@! TA.AperFunction,ComponentPad*
%ADD10C,2.050000*%
G04 #@! TD*
G04 #@! TA.AperFunction,ComponentPad*
%ADD11C,2.250000*%
G04 #@! TD*
G04 #@! TA.AperFunction,ComponentPad*
%ADD12C,1.000000*%
G04 #@! TD*
G04 #@! TA.AperFunction,ComponentPad*
%ADD13C,0.800000*%
G04 #@! TD*
G04 #@! TA.AperFunction,ComponentPad*
%ADD14C,6.400000*%
G04 #@! TD*
G04 #@! TA.AperFunction,ViaPad*
%ADD15C,0.800000*%
G04 #@! TD*
G04 APERTURE END LIST*
D10*
X175133000Y-63800000D03*
D11*
X172593000Y-61260000D03*
X172593000Y-66340000D03*
X177673000Y-61260000D03*
X177673000Y-66340000D03*
D12*
X153615000Y-77680000D03*
D13*
X172100000Y-94500000D03*
X172802944Y-92802944D03*
X172802944Y-96197056D03*
X174500000Y-92100000D03*
D14*
X174500000Y-94500000D03*
D13*
X174500000Y-96900000D03*
X176197056Y-92802944D03*
X176197056Y-96197056D03*
X176900000Y-94500000D03*
D12*
X151075000Y-77680000D03*
D13*
X141986000Y-94500000D03*
X142688944Y-92802944D03*
X142688944Y-96197056D03*
X144386000Y-92100000D03*
D14*
X144386000Y-94500000D03*
D13*
X144386000Y-96900000D03*
X146083056Y-92802944D03*
X146083056Y-96197056D03*
X146786000Y-94500000D03*
X142000000Y-61200000D03*
X142702944Y-59502944D03*
X142702944Y-62897056D03*
X144400000Y-58800000D03*
D14*
X144400000Y-61200000D03*
D13*
X144400000Y-63600000D03*
X146097056Y-59502944D03*
X146097056Y-62897056D03*
X146800000Y-61200000D03*
D12*
X158695000Y-77680000D03*
X161235000Y-77680000D03*
X156155000Y-77680000D03*
D15*
X162100000Y-70500000D03*
X165100000Y-74700000D03*
X151800000Y-75900000D03*
X160755500Y-85300000D03*
X160825000Y-89500000D03*
X164000000Y-68600000D03*
X162200000Y-68600000D03*
X163300000Y-72800000D03*
X163300000Y-74700000D03*
X160400000Y-67100000D03*
X152900000Y-81000000D03*
X153700000Y-76200000D03*
X162200000Y-67100000D03*
X151900000Y-81000000D03*
X149600000Y-74500000D03*
X165100000Y-72800000D03*
X150500000Y-62450000D03*
X149300000Y-62450000D03*
X150700000Y-74500000D03*
X164000000Y-67100000D03*
X157700000Y-88400000D03*
X166150000Y-94350000D03*
X162000000Y-72100000D03*
X167000000Y-65500000D03*
X162500000Y-83900000D03*
X161036000Y-93091000D03*
X168000000Y-73800000D03*
X149300000Y-93100000D03*
X150500000Y-69150000D03*
X162500000Y-85300000D03*
X158500000Y-74100000D03*
X151700000Y-91750000D03*
X158800000Y-68900000D03*
X162600000Y-81100000D03*
X149300000Y-69150000D03*
X151900000Y-84100000D03*
X157500000Y-83500000D03*
X157400000Y-81600000D03*
X151500000Y-68800000D03*
X152900000Y-84100000D03*
X155600000Y-83500000D03*
X169600000Y-73800000D03*
X157400000Y-74100000D03*
X151700000Y-90400000D03*
X161100000Y-74000000D03*
X156500000Y-71600000D03*
X154500000Y-79200000D03*
X156900000Y-86100000D03*
X157400000Y-78700000D03*
X156000000Y-79200000D03*
X154100000Y-85000000D03*
X153500000Y-87300000D03*
X155800000Y-90275000D03*
X158250000Y-94325000D03*
X159000000Y-85000000D03*
G04 #@! TA.AperFunction,Conductor*
G36*
X179442539Y-59420185D02*
G01*
X179488294Y-59472989D01*
X179499500Y-59524500D01*
X179499500Y-68125500D01*
X179479815Y-68192539D01*
X179427011Y-68238294D01*
X179375500Y-68249500D01*
X171424000Y-68249500D01*
X171356961Y-68229815D01*
X171311206Y-68177011D01*
X171300000Y-68125500D01*
X171300000Y-67289292D01*
X171319685Y-67222253D01*
X171372489Y-67176498D01*
X171441647Y-67166554D01*
X171505203Y-67195579D01*
X171515228Y-67205308D01*
X171530977Y-67222415D01*
X171530979Y-67222415D01*
X171907479Y-66845914D01*
X172005009Y-66960735D01*
X172088443Y-67024160D01*
X171711350Y-67401253D01*
X171836176Y-67498410D01*
X171836179Y-67498412D01*
X172037157Y-67607175D01*
X172037171Y-67607181D01*
X172253312Y-67681383D01*
X172478734Y-67719000D01*
X172707266Y-67719000D01*
X172932687Y-67681383D01*
X173148828Y-67607181D01*
X173148842Y-67607175D01*
X173349822Y-67498411D01*
X173349827Y-67498407D01*
X173474648Y-67401254D01*
X173474648Y-67401253D01*
X173100212Y-67026817D01*
X173110431Y-67020669D01*
X173244658Y-66893523D01*
X173277576Y-66844971D01*
X173655020Y-67222415D01*
X173655021Y-67222415D01*
X173684948Y-67189908D01*
X173684958Y-67189895D01*
X173809950Y-66998582D01*
X173901752Y-66789293D01*
X173957853Y-66567757D01*
X173957855Y-66567746D01*
X173976726Y-66340005D01*
X176289274Y-66340005D01*
X176308144Y-66567746D01*
X176308146Y-66567757D01*
X176364247Y-66789293D01*
X176456049Y-66998582D01*
X176581044Y-67189900D01*
X176581047Y-67189904D01*
X176610977Y-67222415D01*
X176610979Y-67222415D01*
X176987479Y-66845914D01*
X177085009Y-66960735D01*
X177168443Y-67024160D01*
X176791350Y-67401253D01*
X176916176Y-67498410D01*
X176916179Y-67498412D01*
X177117157Y-67607175D01*
X177117171Y-67607181D01*
X177333312Y-67681383D01*
X177558734Y-67719000D01*
X177787266Y-67719000D01*
X178012687Y-67681383D01*
X178228828Y-67607181D01*
X178228842Y-67607175D01*
X178429822Y-67498411D01*
X178429827Y-67498407D01*
X178554648Y-67401254D01*
X178554648Y-67401253D01*
X178180212Y-67026817D01*
X178190431Y-67020669D01*
X178324658Y-66893523D01*
X178357576Y-66844971D01*
X178735020Y-67222415D01*
X178735021Y-67222415D01*
X178764948Y-67189908D01*
X178764958Y-67189895D01*
X178889950Y-66998582D01*
X178981752Y-66789293D01*
X179037853Y-66567757D01*
X179037855Y-66567746D01*
X179056725Y-66340005D01*
X179056725Y-66339994D01*
X179037855Y-66112253D01*
X179037853Y-66112242D01*
X178981752Y-65890706D01*
X178889950Y-65681417D01*
X178764954Y-65490098D01*
X178764952Y-65490096D01*
X178735021Y-65457583D01*
X178735019Y-65457583D01*
X178358519Y-65834083D01*
X178260991Y-65719265D01*
X178177555Y-65655838D01*
X178554648Y-65278745D01*
X178554648Y-65278744D01*
X178429822Y-65181588D01*
X178429820Y-65181587D01*
X178228842Y-65072824D01*
X178228828Y-65072818D01*
X178012687Y-64998616D01*
X177787266Y-64961000D01*
X177558734Y-64961000D01*
X177333312Y-64998616D01*
X177117171Y-65072818D01*
X177117157Y-65072824D01*
X176916176Y-65181589D01*
X176916165Y-65181596D01*
X176791350Y-65278743D01*
X176791350Y-65278745D01*
X177165787Y-65653182D01*
X177155569Y-65659331D01*
X177021342Y-65786477D01*
X176988423Y-65835028D01*
X176610978Y-65457583D01*
X176581043Y-65490101D01*
X176456049Y-65681417D01*
X176364247Y-65890706D01*
X176308146Y-66112242D01*
X176308144Y-66112253D01*
X176289274Y-66339994D01*
X176289274Y-66340005D01*
X173976726Y-66340005D01*
X173976726Y-66339994D01*
X173957855Y-66112253D01*
X173957853Y-66112242D01*
X173901752Y-65890706D01*
X173809950Y-65681417D01*
X173684954Y-65490098D01*
X173684952Y-65490096D01*
X173655021Y-65457583D01*
X173655019Y-65457583D01*
X173278518Y-65834083D01*
X173180991Y-65719265D01*
X173097554Y-65655838D01*
X173474648Y-65278745D01*
X173474648Y-65278744D01*
X173349822Y-65181588D01*
X173349820Y-65181587D01*
X173148842Y-65072824D01*
X173148828Y-65072818D01*
X172932687Y-64998616D01*
X172707266Y-64961000D01*
X172478734Y-64961000D01*
X172253312Y-64998616D01*
X172037171Y-65072818D01*
X172037157Y-65072824D01*
X171836176Y-65181589D01*
X171836165Y-65181596D01*
X171711350Y-65278743D01*
X171711350Y-65278745D01*
X172085787Y-65653182D01*
X172075569Y-65659331D01*
X171941342Y-65786477D01*
X171908423Y-65835027D01*
X171530978Y-65457583D01*
X171530977Y-65457583D01*
X171515230Y-65474690D01*
X171455343Y-65510680D01*
X171385505Y-65508580D01*
X171327889Y-65469056D01*
X171300787Y-65404657D01*
X171300000Y-65390707D01*
X171300000Y-63800000D01*
X173952464Y-63800000D01*
X173972564Y-64016918D01*
X173972564Y-64016920D01*
X173972565Y-64016923D01*
X174032183Y-64226459D01*
X174129288Y-64421472D01*
X174260573Y-64595322D01*
X174421568Y-64742088D01*
X174421575Y-64742092D01*
X174421576Y-64742093D01*
X174606786Y-64856770D01*
X174606792Y-64856773D01*
X174629664Y-64865633D01*
X174809931Y-64935470D01*
X175024074Y-64975500D01*
X175024076Y-64975500D01*
X175241924Y-64975500D01*
X175241926Y-64975500D01*
X175456069Y-64935470D01*
X175659210Y-64856772D01*
X175844432Y-64742088D01*
X176005427Y-64595322D01*
X176136712Y-64421472D01*
X176233817Y-64226459D01*
X176293435Y-64016923D01*
X176313536Y-63800000D01*
X176293435Y-63583077D01*
X176233817Y-63373541D01*
X176136712Y-63178528D01*
X176005427Y-63004678D01*
X175844432Y-62857912D01*
X175844428Y-62857909D01*
X175844423Y-62857906D01*
X175659213Y-62743229D01*
X175659207Y-62743226D01*
X175574113Y-62710260D01*
X175456069Y-62664530D01*
X175241926Y-62624500D01*
X175024074Y-62624500D01*
X174809931Y-62664530D01*
X174761130Y-62683435D01*
X174606792Y-62743226D01*
X174606786Y-62743229D01*
X174421576Y-62857906D01*
X174421566Y-62857913D01*
X174260574Y-63004676D01*
X174129288Y-63178527D01*
X174032184Y-63373537D01*
X173972564Y-63583081D01*
X173952464Y-63799999D01*
X173952464Y-63800000D01*
X171300000Y-63800000D01*
X171300000Y-62209292D01*
X171319685Y-62142253D01*
X171372489Y-62096498D01*
X171441647Y-62086554D01*
X171505203Y-62115579D01*
X171515228Y-62125308D01*
X171530977Y-62142415D01*
X171530979Y-62142415D01*
X171907479Y-61765914D01*
X172005009Y-61880735D01*
X172088443Y-61944160D01*
X171711350Y-62321253D01*
X171836176Y-62418410D01*
X171836179Y-62418412D01*
X172037157Y-62527175D01*
X172037171Y-62527181D01*
X172253312Y-62601383D01*
X172478734Y-62639000D01*
X172707266Y-62639000D01*
X172932687Y-62601383D01*
X173148828Y-62527181D01*
X173148842Y-62527175D01*
X173349822Y-62418411D01*
X173349827Y-62418407D01*
X173474648Y-62321254D01*
X173474648Y-62321253D01*
X173100212Y-61946817D01*
X173110431Y-61940669D01*
X173244658Y-61813523D01*
X173277576Y-61764971D01*
X173655020Y-62142415D01*
X173655021Y-62142415D01*
X173684948Y-62109908D01*
X173684958Y-62109895D01*
X173809950Y-61918582D01*
X173901752Y-61709293D01*
X173957853Y-61487757D01*
X173957855Y-61487746D01*
X173976726Y-61260005D01*
X176289274Y-61260005D01*
X176308144Y-61487746D01*
X176308146Y-61487757D01*
X176364247Y-61709293D01*
X176456049Y-61918582D01*
X176581044Y-62109900D01*
X176581047Y-62109904D01*
X176610977Y-62142415D01*
X176610979Y-62142415D01*
X176987479Y-61765914D01*
X177085009Y-61880735D01*
X177168443Y-61944160D01*
X176791350Y-62321253D01*
X176916176Y-62418410D01*
X176916179Y-62418412D01*
X177117157Y-62527175D01*
X177117171Y-62527181D01*
X177333312Y-62601383D01*
X177558734Y-62639000D01*
X177787266Y-62639000D01*
X178012687Y-62601383D01*
X178228828Y-62527181D01*
X178228842Y-62527175D01*
X178429822Y-62418411D01*
X178429827Y-62418407D01*
X178554648Y-62321254D01*
X178554648Y-62321253D01*
X178180212Y-61946817D01*
X178190431Y-61940669D01*
X178324658Y-61813523D01*
X178357576Y-61764971D01*
X178735020Y-62142415D01*
X178735021Y-62142415D01*
X178764948Y-62109908D01*
X178764958Y-62109895D01*
X178889950Y-61918582D01*
X178981752Y-61709293D01*
X179037853Y-61487757D01*
X179037855Y-61487746D01*
X179056725Y-61260005D01*
X179056725Y-61259994D01*
X179037855Y-61032253D01*
X179037853Y-61032242D01*
X178981752Y-60810706D01*
X178889950Y-60601417D01*
X178764954Y-60410098D01*
X178764952Y-60410096D01*
X178735021Y-60377583D01*
X178735019Y-60377583D01*
X178358518Y-60754083D01*
X178260991Y-60639265D01*
X178177554Y-60575838D01*
X178554648Y-60198745D01*
X178554648Y-60198744D01*
X178429822Y-60101588D01*
X178429820Y-60101587D01*
X178228842Y-59992824D01*
X178228828Y-59992818D01*
X178012687Y-59918616D01*
X177787266Y-59881000D01*
X177558734Y-59881000D01*
X177333312Y-59918616D01*
X177117171Y-59992818D01*
X177117157Y-59992824D01*
X176916176Y-60101589D01*
X176916165Y-60101596D01*
X176791350Y-60198743D01*
X176791350Y-60198745D01*
X177165787Y-60573182D01*
X177155569Y-60579331D01*
X177021342Y-60706477D01*
X176988423Y-60755027D01*
X176610978Y-60377583D01*
X176581043Y-60410101D01*
X176456049Y-60601417D01*
X176364247Y-60810706D01*
X176308146Y-61032242D01*
X176308144Y-61032253D01*
X176289274Y-61259994D01*
X176289274Y-61260005D01*
X173976726Y-61260005D01*
X173976726Y-61259994D01*
X173957855Y-61032253D01*
X173957853Y-61032242D01*
X173901752Y-60810706D01*
X173809950Y-60601417D01*
X173684954Y-60410098D01*
X173684952Y-60410096D01*
X173655021Y-60377583D01*
X173655019Y-60377583D01*
X173278519Y-60754083D01*
X173180991Y-60639265D01*
X173097555Y-60575838D01*
X173474648Y-60198745D01*
X173474648Y-60198744D01*
X173349822Y-60101588D01*
X173349820Y-60101587D01*
X173148842Y-59992824D01*
X173148828Y-59992818D01*
X172932687Y-59918616D01*
X172707266Y-59881000D01*
X172478734Y-59881000D01*
X172253312Y-59918616D01*
X172037171Y-59992818D01*
X172037157Y-59992824D01*
X171836176Y-60101589D01*
X171836165Y-60101596D01*
X171711350Y-60198743D01*
X171711350Y-60198745D01*
X172085787Y-60573182D01*
X172075569Y-60579331D01*
X171941342Y-60706477D01*
X171908423Y-60755028D01*
X171530978Y-60377583D01*
X171530977Y-60377583D01*
X171515230Y-60394690D01*
X171455343Y-60430680D01*
X171385505Y-60428580D01*
X171327889Y-60389056D01*
X171300787Y-60324657D01*
X171300000Y-60310707D01*
X171300000Y-59524500D01*
X171319685Y-59457461D01*
X171372489Y-59411706D01*
X171424000Y-59400500D01*
X177699901Y-59400500D01*
X179375500Y-59400500D01*
X179442539Y-59420185D01*
G37*
G04 #@! TD.AperFunction*
G04 #@! TA.AperFunction,Conductor*
G36*
X173379458Y-91020185D02*
G01*
X173425213Y-91072989D01*
X173435157Y-91142147D01*
X173406132Y-91205703D01*
X173352013Y-91242009D01*
X173219654Y-91286606D01*
X172879749Y-91443862D01*
X172879745Y-91443864D01*
X172558808Y-91636965D01*
X172260646Y-91863623D01*
X172260642Y-91863626D01*
X172148992Y-91969386D01*
X172148991Y-91969387D01*
X172740142Y-92560538D01*
X172705399Y-92567449D01*
X172622704Y-92622704D01*
X172567449Y-92705399D01*
X172560538Y-92740142D01*
X171967079Y-92146683D01*
X171967078Y-92146684D01*
X171746262Y-92406649D01*
X171746255Y-92406659D01*
X171536068Y-92716661D01*
X171360634Y-93047564D01*
X171360628Y-93047576D01*
X171221996Y-93395520D01*
X171221995Y-93395522D01*
X171121800Y-93756393D01*
X171121795Y-93756414D01*
X171061205Y-94125993D01*
X171061204Y-94126010D01*
X171040927Y-94499997D01*
X171040927Y-94500002D01*
X171061204Y-94873989D01*
X171061205Y-94874006D01*
X171121795Y-95243585D01*
X171121800Y-95243606D01*
X171221995Y-95604477D01*
X171221996Y-95604479D01*
X171360628Y-95952423D01*
X171360634Y-95952435D01*
X171536068Y-96283338D01*
X171746255Y-96593340D01*
X171746262Y-96593350D01*
X171967078Y-96853314D01*
X171967079Y-96853315D01*
X172560537Y-96259856D01*
X172567449Y-96294601D01*
X172622704Y-96377296D01*
X172705399Y-96432551D01*
X172740140Y-96439461D01*
X172148991Y-97030611D01*
X172148992Y-97030612D01*
X172260642Y-97136373D01*
X172260646Y-97136376D01*
X172558808Y-97363034D01*
X172879745Y-97556135D01*
X172879749Y-97556137D01*
X173219654Y-97713393D01*
X173352013Y-97757991D01*
X173409257Y-97798051D01*
X173435757Y-97862701D01*
X173423097Y-97931414D01*
X173375298Y-97982375D01*
X173312419Y-97999500D01*
X171000000Y-97999500D01*
X171000000Y-91000541D01*
X171000004Y-91000538D01*
X171024616Y-91000524D01*
X171024616Y-91000528D01*
X171024760Y-91000500D01*
X173312419Y-91000500D01*
X173379458Y-91020185D01*
G37*
G04 #@! TD.AperFunction*
G04 #@! TA.AperFunction,Conductor*
G36*
X173365130Y-95634870D02*
G01*
X173461998Y-95717603D01*
X173045349Y-96134252D01*
X173038439Y-96099511D01*
X172983184Y-96016816D01*
X172900489Y-95961561D01*
X172865744Y-95954649D01*
X173282395Y-95537999D01*
X173365130Y-95634870D01*
G37*
G04 #@! TD.AperFunction*
G04 #@! TA.AperFunction,Conductor*
G36*
X173462000Y-93282395D02*
G01*
X173365130Y-93365130D01*
X173282395Y-93461999D01*
X172865745Y-93045349D01*
X172900489Y-93038439D01*
X172983184Y-92983184D01*
X173038439Y-92900489D01*
X173045349Y-92865745D01*
X173462000Y-93282395D01*
G37*
G04 #@! TD.AperFunction*
G04 #@! TA.AperFunction,Conductor*
G36*
X170942539Y-57720185D02*
G01*
X170988294Y-57772989D01*
X170999500Y-57824500D01*
X170999500Y-59375467D01*
X170999416Y-59375889D01*
X170999501Y-59423458D01*
X171000000Y-59425967D01*
X171000000Y-68224115D01*
X170999443Y-68226926D01*
X170999476Y-68274616D01*
X170999471Y-68274616D01*
X170999500Y-68274759D01*
X170999500Y-90975467D01*
X170999416Y-90975889D01*
X170999459Y-91000001D01*
X170999544Y-91000206D01*
X170999616Y-91000382D01*
X170999618Y-91000384D01*
X170999808Y-91000462D01*
X171000000Y-91000541D01*
X171000000Y-97999500D01*
X145573581Y-97999500D01*
X145506542Y-97979815D01*
X145460787Y-97927011D01*
X145450843Y-97857853D01*
X145479868Y-97794297D01*
X145533987Y-97757991D01*
X145666345Y-97713393D01*
X146006250Y-97556137D01*
X146006254Y-97556135D01*
X146327191Y-97363034D01*
X146625344Y-97136383D01*
X146625356Y-97136373D01*
X146737006Y-97030612D01*
X146737006Y-97030611D01*
X146145857Y-96439462D01*
X146180601Y-96432551D01*
X146263296Y-96377296D01*
X146318551Y-96294601D01*
X146325462Y-96259857D01*
X146918919Y-96853314D01*
X146918920Y-96853314D01*
X147139744Y-96593341D01*
X147349931Y-96283338D01*
X147525365Y-95952435D01*
X147525371Y-95952423D01*
X147664003Y-95604479D01*
X147664004Y-95604477D01*
X147764199Y-95243606D01*
X147764204Y-95243585D01*
X147824794Y-94874006D01*
X147824795Y-94873989D01*
X147845073Y-94500002D01*
X147845073Y-94499997D01*
X147835584Y-94325000D01*
X157794867Y-94325000D01*
X157813302Y-94453225D01*
X157867117Y-94571061D01*
X157867118Y-94571063D01*
X157951951Y-94668967D01*
X158060931Y-94739004D01*
X158098381Y-94750000D01*
X158185225Y-94775499D01*
X158185227Y-94775500D01*
X158185228Y-94775500D01*
X158314773Y-94775500D01*
X158314773Y-94775499D01*
X158439069Y-94739004D01*
X158548049Y-94668967D01*
X158632882Y-94571063D01*
X158686697Y-94453226D01*
X158705133Y-94325000D01*
X158686697Y-94196774D01*
X158632882Y-94078937D01*
X158548049Y-93981033D01*
X158439069Y-93910996D01*
X158439065Y-93910994D01*
X158439064Y-93910994D01*
X158314774Y-93874500D01*
X158314772Y-93874500D01*
X158185228Y-93874500D01*
X158185226Y-93874500D01*
X158060935Y-93910994D01*
X158060932Y-93910995D01*
X158060931Y-93910996D01*
X158009677Y-93943934D01*
X157951950Y-93981033D01*
X157867118Y-94078937D01*
X157867117Y-94078938D01*
X157813302Y-94196774D01*
X157794867Y-94325000D01*
X147835584Y-94325000D01*
X147824795Y-94126010D01*
X147824794Y-94125993D01*
X147764204Y-93756414D01*
X147764199Y-93756393D01*
X147664004Y-93395522D01*
X147664003Y-93395520D01*
X147525371Y-93047576D01*
X147525365Y-93047564D01*
X147349931Y-92716661D01*
X147139744Y-92406659D01*
X147139737Y-92406649D01*
X146918920Y-92146684D01*
X146918919Y-92146683D01*
X146325461Y-92740140D01*
X146318551Y-92705399D01*
X146263296Y-92622704D01*
X146180601Y-92567449D01*
X146145856Y-92560537D01*
X146737007Y-91969387D01*
X146737006Y-91969386D01*
X146625357Y-91863626D01*
X146625353Y-91863623D01*
X146327191Y-91636965D01*
X146006254Y-91443864D01*
X146006250Y-91443862D01*
X145666345Y-91286606D01*
X145533987Y-91242009D01*
X145476743Y-91201949D01*
X145450243Y-91137299D01*
X145462903Y-91068586D01*
X145510702Y-91017625D01*
X145573581Y-91000500D01*
X147875240Y-91000500D01*
X147875383Y-91000528D01*
X147875384Y-91000524D01*
X147899997Y-91000539D01*
X147900000Y-91000541D01*
X147900383Y-91000383D01*
X147900500Y-91000099D01*
X147900541Y-91000000D01*
X147900540Y-90999997D01*
X147900583Y-90975889D01*
X147900500Y-90975467D01*
X147900500Y-90275000D01*
X155344867Y-90275000D01*
X155363302Y-90403225D01*
X155417117Y-90521061D01*
X155417118Y-90521063D01*
X155501951Y-90618967D01*
X155610931Y-90689004D01*
X155735225Y-90725499D01*
X155735227Y-90725500D01*
X155735228Y-90725500D01*
X155864773Y-90725500D01*
X155864773Y-90725499D01*
X155989069Y-90689004D01*
X156098049Y-90618967D01*
X156182882Y-90521063D01*
X156236697Y-90403226D01*
X156255133Y-90275000D01*
X156236697Y-90146774D01*
X156182882Y-90028937D01*
X156098049Y-89931033D01*
X155989069Y-89860996D01*
X155989065Y-89860994D01*
X155989064Y-89860994D01*
X155864774Y-89824500D01*
X155864772Y-89824500D01*
X155735228Y-89824500D01*
X155735226Y-89824500D01*
X155610935Y-89860994D01*
X155610932Y-89860995D01*
X155610931Y-89860996D01*
X155559677Y-89893934D01*
X155501950Y-89931033D01*
X155417118Y-90028937D01*
X155417117Y-90028938D01*
X155363302Y-90146774D01*
X155344867Y-90275000D01*
X147900500Y-90275000D01*
X147900500Y-89500000D01*
X160369867Y-89500000D01*
X160388302Y-89628225D01*
X160442117Y-89746061D01*
X160442118Y-89746063D01*
X160526951Y-89843967D01*
X160635931Y-89914004D01*
X160693928Y-89931033D01*
X160760225Y-89950499D01*
X160760227Y-89950500D01*
X160760228Y-89950500D01*
X160889773Y-89950500D01*
X160889773Y-89950499D01*
X161014069Y-89914004D01*
X161123049Y-89843967D01*
X161207882Y-89746063D01*
X161261697Y-89628226D01*
X161280133Y-89500000D01*
X161261697Y-89371774D01*
X161207882Y-89253937D01*
X161123049Y-89156033D01*
X161014069Y-89085996D01*
X161014065Y-89085994D01*
X161014064Y-89085994D01*
X160889774Y-89049500D01*
X160889772Y-89049500D01*
X160760228Y-89049500D01*
X160760226Y-89049500D01*
X160635935Y-89085994D01*
X160635932Y-89085995D01*
X160635931Y-89085996D01*
X160584677Y-89118934D01*
X160526950Y-89156033D01*
X160442118Y-89253937D01*
X160442117Y-89253938D01*
X160388302Y-89371774D01*
X160369867Y-89500000D01*
X147900500Y-89500000D01*
X147900500Y-87300000D01*
X153044867Y-87300000D01*
X153063302Y-87428225D01*
X153117117Y-87546061D01*
X153117118Y-87546063D01*
X153201951Y-87643967D01*
X153310931Y-87714004D01*
X153435225Y-87750499D01*
X153435227Y-87750500D01*
X153435228Y-87750500D01*
X153564773Y-87750500D01*
X153564773Y-87750499D01*
X153689069Y-87714004D01*
X153798049Y-87643967D01*
X153882882Y-87546063D01*
X153936697Y-87428226D01*
X153955133Y-87300000D01*
X153936697Y-87171774D01*
X153882882Y-87053937D01*
X153798049Y-86956033D01*
X153689069Y-86885996D01*
X153689065Y-86885994D01*
X153689064Y-86885994D01*
X153564774Y-86849500D01*
X153564772Y-86849500D01*
X153435228Y-86849500D01*
X153435226Y-86849500D01*
X153310935Y-86885994D01*
X153310932Y-86885995D01*
X153310931Y-86885996D01*
X153259677Y-86918934D01*
X153201950Y-86956033D01*
X153117118Y-87053937D01*
X153117117Y-87053938D01*
X153063302Y-87171774D01*
X153044867Y-87300000D01*
X147900500Y-87300000D01*
X147900500Y-86100000D01*
X156444867Y-86100000D01*
X156463302Y-86228225D01*
X156517117Y-86346061D01*
X156517118Y-86346063D01*
X156601951Y-86443967D01*
X156710931Y-86514004D01*
X156835225Y-86550499D01*
X156835227Y-86550500D01*
X156835228Y-86550500D01*
X156964773Y-86550500D01*
X156964773Y-86550499D01*
X157089069Y-86514004D01*
X157198049Y-86443967D01*
X157282882Y-86346063D01*
X157336697Y-86228226D01*
X157355133Y-86100000D01*
X157336697Y-85971774D01*
X157282882Y-85853937D01*
X157198049Y-85756033D01*
X157089069Y-85685996D01*
X157089065Y-85685994D01*
X157089064Y-85685994D01*
X156964774Y-85649500D01*
X156964772Y-85649500D01*
X156835228Y-85649500D01*
X156835226Y-85649500D01*
X156710935Y-85685994D01*
X156710932Y-85685995D01*
X156710931Y-85685996D01*
X156667350Y-85714004D01*
X156601950Y-85756033D01*
X156517118Y-85853937D01*
X156517117Y-85853938D01*
X156463302Y-85971774D01*
X156444867Y-86100000D01*
X147900500Y-86100000D01*
X147900500Y-85000000D01*
X153644867Y-85000000D01*
X153663302Y-85128225D01*
X153683191Y-85171774D01*
X153717118Y-85246063D01*
X153801951Y-85343967D01*
X153910931Y-85414004D01*
X153959368Y-85428226D01*
X154035225Y-85450499D01*
X154035227Y-85450500D01*
X154035228Y-85450500D01*
X154164773Y-85450500D01*
X154164773Y-85450499D01*
X154289069Y-85414004D01*
X154398049Y-85343967D01*
X154482882Y-85246063D01*
X154536697Y-85128226D01*
X154555133Y-85000000D01*
X158544867Y-85000000D01*
X158563302Y-85128225D01*
X158583191Y-85171774D01*
X158617118Y-85246063D01*
X158701951Y-85343967D01*
X158810931Y-85414004D01*
X158859368Y-85428226D01*
X158935225Y-85450499D01*
X158935227Y-85450500D01*
X158935228Y-85450500D01*
X159064773Y-85450500D01*
X159064773Y-85450499D01*
X159189069Y-85414004D01*
X159298049Y-85343967D01*
X159336146Y-85300000D01*
X160300367Y-85300000D01*
X160318802Y-85428225D01*
X160328975Y-85450500D01*
X160372618Y-85546063D01*
X160457451Y-85643967D01*
X160566431Y-85714004D01*
X160690725Y-85750499D01*
X160690727Y-85750500D01*
X160690728Y-85750500D01*
X160820273Y-85750500D01*
X160820273Y-85750499D01*
X160944569Y-85714004D01*
X161053549Y-85643967D01*
X161138382Y-85546063D01*
X161192197Y-85428226D01*
X161210633Y-85300000D01*
X161192197Y-85171774D01*
X161138382Y-85053937D01*
X161053549Y-84956033D01*
X160944569Y-84885996D01*
X160944565Y-84885994D01*
X160944564Y-84885994D01*
X160820274Y-84849500D01*
X160820272Y-84849500D01*
X160690728Y-84849500D01*
X160690726Y-84849500D01*
X160566435Y-84885994D01*
X160566432Y-84885995D01*
X160566431Y-84885996D01*
X160515177Y-84918934D01*
X160457450Y-84956033D01*
X160372618Y-85053937D01*
X160372617Y-85053938D01*
X160318802Y-85171774D01*
X160300367Y-85300000D01*
X159336146Y-85300000D01*
X159382882Y-85246063D01*
X159436697Y-85128226D01*
X159455133Y-85000000D01*
X159436697Y-84871774D01*
X159382882Y-84753937D01*
X159298049Y-84656033D01*
X159189069Y-84585996D01*
X159189065Y-84585994D01*
X159189064Y-84585994D01*
X159064774Y-84549500D01*
X159064772Y-84549500D01*
X158935228Y-84549500D01*
X158935226Y-84549500D01*
X158810935Y-84585994D01*
X158810932Y-84585995D01*
X158810931Y-84585996D01*
X158759677Y-84618934D01*
X158701950Y-84656033D01*
X158617118Y-84753937D01*
X158617117Y-84753938D01*
X158563302Y-84871774D01*
X158544867Y-85000000D01*
X154555133Y-85000000D01*
X154536697Y-84871774D01*
X154482882Y-84753937D01*
X154398049Y-84656033D01*
X154289069Y-84585996D01*
X154289065Y-84585994D01*
X154289064Y-84585994D01*
X154164774Y-84549500D01*
X154164772Y-84549500D01*
X154035228Y-84549500D01*
X154035226Y-84549500D01*
X153910935Y-84585994D01*
X153910932Y-84585995D01*
X153910931Y-84585996D01*
X153859677Y-84618934D01*
X153801950Y-84656033D01*
X153717118Y-84753937D01*
X153717117Y-84753938D01*
X153663302Y-84871774D01*
X153644867Y-85000000D01*
X147900500Y-85000000D01*
X147900500Y-81000000D01*
X151444867Y-81000000D01*
X151463302Y-81128225D01*
X151512792Y-81236590D01*
X151517118Y-81246063D01*
X151601951Y-81343967D01*
X151710931Y-81414004D01*
X151835225Y-81450499D01*
X151835227Y-81450500D01*
X151835228Y-81450500D01*
X151964773Y-81450500D01*
X151964773Y-81450499D01*
X152089069Y-81414004D01*
X152198049Y-81343967D01*
X152282882Y-81246063D01*
X152287204Y-81236598D01*
X152332955Y-81183795D01*
X152399993Y-81164107D01*
X152467034Y-81183789D01*
X152512791Y-81236590D01*
X152517116Y-81246060D01*
X152517117Y-81246061D01*
X152517118Y-81246063D01*
X152601951Y-81343967D01*
X152710931Y-81414004D01*
X152835225Y-81450499D01*
X152835227Y-81450500D01*
X152835228Y-81450500D01*
X152964773Y-81450500D01*
X152964773Y-81450499D01*
X153089069Y-81414004D01*
X153198049Y-81343967D01*
X153282882Y-81246063D01*
X153336697Y-81128226D01*
X153355133Y-81000000D01*
X153336697Y-80871774D01*
X153282882Y-80753937D01*
X153198049Y-80656033D01*
X153089069Y-80585996D01*
X153089065Y-80585994D01*
X153089064Y-80585994D01*
X152964774Y-80549500D01*
X152964772Y-80549500D01*
X152835228Y-80549500D01*
X152835226Y-80549500D01*
X152710935Y-80585994D01*
X152710932Y-80585995D01*
X152710931Y-80585996D01*
X152659677Y-80618934D01*
X152601950Y-80656033D01*
X152517118Y-80753937D01*
X152517115Y-80753940D01*
X152512790Y-80763411D01*
X152467031Y-80816212D01*
X152399990Y-80835892D01*
X152332952Y-80816203D01*
X152287205Y-80763403D01*
X152282882Y-80753937D01*
X152198049Y-80656033D01*
X152089069Y-80585996D01*
X152089065Y-80585994D01*
X152089064Y-80585994D01*
X151964774Y-80549500D01*
X151964772Y-80549500D01*
X151835228Y-80549500D01*
X151835226Y-80549500D01*
X151710935Y-80585994D01*
X151710932Y-80585995D01*
X151710931Y-80585996D01*
X151659677Y-80618934D01*
X151601950Y-80656033D01*
X151517118Y-80753937D01*
X151517117Y-80753938D01*
X151463302Y-80871774D01*
X151444867Y-81000000D01*
X147900500Y-81000000D01*
X147900500Y-79200000D01*
X154044867Y-79200000D01*
X154063302Y-79328225D01*
X154117117Y-79446061D01*
X154117118Y-79446063D01*
X154201951Y-79543967D01*
X154310931Y-79614004D01*
X154435225Y-79650499D01*
X154435227Y-79650500D01*
X154435228Y-79650500D01*
X154564773Y-79650500D01*
X154564773Y-79650499D01*
X154689069Y-79614004D01*
X154798049Y-79543967D01*
X154882882Y-79446063D01*
X154936697Y-79328226D01*
X154955133Y-79200000D01*
X155544867Y-79200000D01*
X155563302Y-79328225D01*
X155617117Y-79446061D01*
X155617118Y-79446063D01*
X155701951Y-79543967D01*
X155810931Y-79614004D01*
X155935225Y-79650499D01*
X155935227Y-79650500D01*
X155935228Y-79650500D01*
X156064773Y-79650500D01*
X156064773Y-79650499D01*
X156189069Y-79614004D01*
X156298049Y-79543967D01*
X156382882Y-79446063D01*
X156436697Y-79328226D01*
X156455133Y-79200000D01*
X156436697Y-79071774D01*
X156382882Y-78953937D01*
X156298049Y-78856033D01*
X156189069Y-78785996D01*
X156189065Y-78785994D01*
X156189064Y-78785994D01*
X156064774Y-78749500D01*
X156064772Y-78749500D01*
X155935228Y-78749500D01*
X155935226Y-78749500D01*
X155810935Y-78785994D01*
X155810932Y-78785995D01*
X155810931Y-78785996D01*
X155759677Y-78818934D01*
X155701950Y-78856033D01*
X155617118Y-78953937D01*
X155617117Y-78953938D01*
X155563302Y-79071774D01*
X155544867Y-79200000D01*
X154955133Y-79200000D01*
X154936697Y-79071774D01*
X154882882Y-78953937D01*
X154798049Y-78856033D01*
X154689069Y-78785996D01*
X154689065Y-78785994D01*
X154689064Y-78785994D01*
X154564774Y-78749500D01*
X154564772Y-78749500D01*
X154435228Y-78749500D01*
X154435226Y-78749500D01*
X154310935Y-78785994D01*
X154310932Y-78785995D01*
X154310931Y-78785996D01*
X154259677Y-78818934D01*
X154201950Y-78856033D01*
X154117118Y-78953937D01*
X154117117Y-78953938D01*
X154063302Y-79071774D01*
X154044867Y-79200000D01*
X147900500Y-79200000D01*
X147900500Y-78700000D01*
X156944867Y-78700000D01*
X156963302Y-78828225D01*
X156976002Y-78856033D01*
X157017118Y-78946063D01*
X157101951Y-79043967D01*
X157210931Y-79114004D01*
X157335225Y-79150499D01*
X157335227Y-79150500D01*
X157335228Y-79150500D01*
X157464773Y-79150500D01*
X157464773Y-79150499D01*
X157589069Y-79114004D01*
X157698049Y-79043967D01*
X157782882Y-78946063D01*
X157836697Y-78828226D01*
X157855133Y-78700000D01*
X157836697Y-78571774D01*
X157782882Y-78453937D01*
X157698049Y-78356033D01*
X157589069Y-78285996D01*
X157589065Y-78285994D01*
X157589064Y-78285994D01*
X157464774Y-78249500D01*
X157464772Y-78249500D01*
X157335228Y-78249500D01*
X157335226Y-78249500D01*
X157210935Y-78285994D01*
X157210932Y-78285995D01*
X157210931Y-78285996D01*
X157159677Y-78318934D01*
X157101950Y-78356033D01*
X157017118Y-78453937D01*
X157017117Y-78453938D01*
X156963302Y-78571774D01*
X156944867Y-78700000D01*
X147900500Y-78700000D01*
X147900500Y-77680000D01*
X150519750Y-77680000D01*
X150538670Y-77823708D01*
X150538671Y-77823712D01*
X150594137Y-77957622D01*
X150594138Y-77957624D01*
X150594139Y-77957625D01*
X150682379Y-78072621D01*
X150797375Y-78160861D01*
X150931291Y-78216330D01*
X151058280Y-78233048D01*
X151074999Y-78235250D01*
X151075000Y-78235250D01*
X151075001Y-78235250D01*
X151089977Y-78233278D01*
X151218709Y-78216330D01*
X151352625Y-78160861D01*
X151467621Y-78072621D01*
X151555861Y-77957625D01*
X151611330Y-77823709D01*
X151630250Y-77680000D01*
X153059750Y-77680000D01*
X153078670Y-77823708D01*
X153078671Y-77823712D01*
X153134137Y-77957622D01*
X153134138Y-77957624D01*
X153134139Y-77957625D01*
X153222379Y-78072621D01*
X153337375Y-78160861D01*
X153471291Y-78216330D01*
X153598280Y-78233048D01*
X153614999Y-78235250D01*
X153615000Y-78235250D01*
X153615001Y-78235250D01*
X153629977Y-78233278D01*
X153758709Y-78216330D01*
X153892625Y-78160861D01*
X154007621Y-78072621D01*
X154095861Y-77957625D01*
X154151330Y-77823709D01*
X154170250Y-77680000D01*
X155599750Y-77680000D01*
X155618670Y-77823708D01*
X155618671Y-77823712D01*
X155674137Y-77957622D01*
X155674138Y-77957624D01*
X155674139Y-77957625D01*
X155762379Y-78072621D01*
X155877375Y-78160861D01*
X156011291Y-78216330D01*
X156138280Y-78233048D01*
X156154999Y-78235250D01*
X156155000Y-78235250D01*
X156155001Y-78235250D01*
X156169977Y-78233278D01*
X156298709Y-78216330D01*
X156432625Y-78160861D01*
X156547621Y-78072621D01*
X156635861Y-77957625D01*
X156691330Y-77823709D01*
X156710250Y-77680000D01*
X158139750Y-77680000D01*
X158158670Y-77823708D01*
X158158671Y-77823712D01*
X158214137Y-77957622D01*
X158214138Y-77957624D01*
X158214139Y-77957625D01*
X158302379Y-78072621D01*
X158417375Y-78160861D01*
X158551291Y-78216330D01*
X158678280Y-78233048D01*
X158694999Y-78235250D01*
X158695000Y-78235250D01*
X158695001Y-78235250D01*
X158709977Y-78233278D01*
X158838709Y-78216330D01*
X158972625Y-78160861D01*
X159087621Y-78072621D01*
X159175861Y-77957625D01*
X159231330Y-77823709D01*
X159250250Y-77680003D01*
X160476229Y-77680003D01*
X160495251Y-77848836D01*
X160551371Y-78009219D01*
X160618823Y-78116569D01*
X160618824Y-78116570D01*
X160992593Y-77742800D01*
X160999505Y-77777545D01*
X161054760Y-77860240D01*
X161137455Y-77915495D01*
X161172198Y-77922406D01*
X160798429Y-78296174D01*
X160905782Y-78363629D01*
X161066163Y-78419748D01*
X161234996Y-78438771D01*
X161235004Y-78438771D01*
X161403836Y-78419748D01*
X161564219Y-78363628D01*
X161671569Y-78296175D01*
X161671569Y-78296174D01*
X161297801Y-77922405D01*
X161332545Y-77915495D01*
X161415240Y-77860240D01*
X161470495Y-77777545D01*
X161477406Y-77742801D01*
X161851174Y-78116569D01*
X161851175Y-78116569D01*
X161918628Y-78009219D01*
X161974748Y-77848836D01*
X161993771Y-77680003D01*
X161993771Y-77679996D01*
X161974748Y-77511163D01*
X161918629Y-77350782D01*
X161851174Y-77243429D01*
X161477405Y-77617197D01*
X161470495Y-77582455D01*
X161415240Y-77499760D01*
X161332545Y-77444505D01*
X161297801Y-77437594D01*
X161671570Y-77063824D01*
X161671569Y-77063823D01*
X161564219Y-76996371D01*
X161403836Y-76940251D01*
X161235004Y-76921229D01*
X161234996Y-76921229D01*
X161066163Y-76940251D01*
X160905780Y-76996371D01*
X160798428Y-77063823D01*
X160798428Y-77063824D01*
X161172198Y-77437593D01*
X161137455Y-77444505D01*
X161054760Y-77499760D01*
X160999505Y-77582455D01*
X160992594Y-77617198D01*
X160618824Y-77243428D01*
X160618823Y-77243428D01*
X160551371Y-77350780D01*
X160495251Y-77511163D01*
X160476229Y-77679996D01*
X160476229Y-77680003D01*
X159250250Y-77680003D01*
X159250250Y-77680000D01*
X159250249Y-77679996D01*
X159248048Y-77663280D01*
X159231330Y-77536291D01*
X159193312Y-77444505D01*
X159175862Y-77402377D01*
X159175861Y-77402376D01*
X159175861Y-77402375D01*
X159087621Y-77287379D01*
X158972625Y-77199139D01*
X158972624Y-77199138D01*
X158972622Y-77199137D01*
X158838712Y-77143671D01*
X158838710Y-77143670D01*
X158838709Y-77143670D01*
X158766854Y-77134210D01*
X158695001Y-77124750D01*
X158694999Y-77124750D01*
X158551291Y-77143670D01*
X158551287Y-77143671D01*
X158417377Y-77199137D01*
X158302379Y-77287379D01*
X158214137Y-77402377D01*
X158158671Y-77536287D01*
X158158670Y-77536291D01*
X158139750Y-77679999D01*
X158139750Y-77680000D01*
X156710250Y-77680000D01*
X156710249Y-77679996D01*
X156708048Y-77663280D01*
X156691330Y-77536291D01*
X156653312Y-77444505D01*
X156635862Y-77402377D01*
X156635861Y-77402376D01*
X156635861Y-77402375D01*
X156547621Y-77287379D01*
X156432625Y-77199139D01*
X156432624Y-77199138D01*
X156432622Y-77199137D01*
X156298712Y-77143671D01*
X156298710Y-77143670D01*
X156298709Y-77143670D01*
X156226854Y-77134210D01*
X156155001Y-77124750D01*
X156154999Y-77124750D01*
X156011291Y-77143670D01*
X156011287Y-77143671D01*
X155877377Y-77199137D01*
X155762379Y-77287379D01*
X155674137Y-77402377D01*
X155618671Y-77536287D01*
X155618670Y-77536291D01*
X155599750Y-77679999D01*
X155599750Y-77680000D01*
X154170250Y-77680000D01*
X154170249Y-77679996D01*
X154168048Y-77663280D01*
X154151330Y-77536291D01*
X154113312Y-77444505D01*
X154095862Y-77402377D01*
X154095861Y-77402376D01*
X154095861Y-77402375D01*
X154007621Y-77287379D01*
X153892625Y-77199139D01*
X153892624Y-77199138D01*
X153892622Y-77199137D01*
X153758712Y-77143671D01*
X153758710Y-77143670D01*
X153758709Y-77143670D01*
X153686854Y-77134210D01*
X153615001Y-77124750D01*
X153614999Y-77124750D01*
X153471291Y-77143670D01*
X153471287Y-77143671D01*
X153337377Y-77199137D01*
X153222379Y-77287379D01*
X153134137Y-77402377D01*
X153078671Y-77536287D01*
X153078670Y-77536291D01*
X153059750Y-77679999D01*
X153059750Y-77680000D01*
X151630250Y-77680000D01*
X151630249Y-77679996D01*
X151628048Y-77663280D01*
X151611330Y-77536291D01*
X151573312Y-77444505D01*
X151555862Y-77402377D01*
X151555861Y-77402376D01*
X151555861Y-77402375D01*
X151467621Y-77287379D01*
X151352625Y-77199139D01*
X151352624Y-77199138D01*
X151352622Y-77199137D01*
X151218712Y-77143671D01*
X151218710Y-77143670D01*
X151218709Y-77143670D01*
X151146854Y-77134210D01*
X151075001Y-77124750D01*
X151074999Y-77124750D01*
X150931291Y-77143670D01*
X150931287Y-77143671D01*
X150797377Y-77199137D01*
X150682379Y-77287379D01*
X150594137Y-77402377D01*
X150538671Y-77536287D01*
X150538670Y-77536291D01*
X150519750Y-77679999D01*
X150519750Y-77680000D01*
X147900500Y-77680000D01*
X147900500Y-75900000D01*
X151344867Y-75900000D01*
X151363302Y-76028225D01*
X151383191Y-76071774D01*
X151417118Y-76146063D01*
X151501951Y-76243967D01*
X151610931Y-76314004D01*
X151659368Y-76328226D01*
X151735225Y-76350499D01*
X151735227Y-76350500D01*
X151735228Y-76350500D01*
X151864773Y-76350500D01*
X151864773Y-76350499D01*
X151989069Y-76314004D01*
X152098049Y-76243967D01*
X152136146Y-76200000D01*
X153244867Y-76200000D01*
X153263302Y-76328225D01*
X153273475Y-76350500D01*
X153317118Y-76446063D01*
X153401951Y-76543967D01*
X153510931Y-76614004D01*
X153635225Y-76650499D01*
X153635227Y-76650500D01*
X153635228Y-76650500D01*
X153764773Y-76650500D01*
X153764773Y-76650499D01*
X153889069Y-76614004D01*
X153998049Y-76543967D01*
X154082882Y-76446063D01*
X154136697Y-76328226D01*
X154155133Y-76200000D01*
X154136697Y-76071774D01*
X154082882Y-75953937D01*
X153998049Y-75856033D01*
X153889069Y-75785996D01*
X153889065Y-75785994D01*
X153889064Y-75785994D01*
X153764774Y-75749500D01*
X153764772Y-75749500D01*
X153635228Y-75749500D01*
X153635226Y-75749500D01*
X153510935Y-75785994D01*
X153510932Y-75785995D01*
X153510931Y-75785996D01*
X153459677Y-75818934D01*
X153401950Y-75856033D01*
X153317118Y-75953937D01*
X153317117Y-75953938D01*
X153263302Y-76071774D01*
X153244867Y-76200000D01*
X152136146Y-76200000D01*
X152182882Y-76146063D01*
X152236697Y-76028226D01*
X152255133Y-75900000D01*
X152236697Y-75771774D01*
X152182882Y-75653937D01*
X152098049Y-75556033D01*
X151989069Y-75485996D01*
X151989065Y-75485994D01*
X151989064Y-75485994D01*
X151864774Y-75449500D01*
X151864772Y-75449500D01*
X151735228Y-75449500D01*
X151735226Y-75449500D01*
X151610935Y-75485994D01*
X151610932Y-75485995D01*
X151610931Y-75485996D01*
X151559677Y-75518934D01*
X151501950Y-75556033D01*
X151417118Y-75653937D01*
X151417117Y-75653938D01*
X151363302Y-75771774D01*
X151344867Y-75900000D01*
X147900500Y-75900000D01*
X147900500Y-74500000D01*
X149144867Y-74500000D01*
X149163302Y-74628225D01*
X149196081Y-74700000D01*
X149217118Y-74746063D01*
X149301951Y-74843967D01*
X149410931Y-74914004D01*
X149520117Y-74946063D01*
X149535225Y-74950499D01*
X149535227Y-74950500D01*
X149535228Y-74950500D01*
X149664773Y-74950500D01*
X149664773Y-74950499D01*
X149789069Y-74914004D01*
X149898049Y-74843967D01*
X149982882Y-74746063D01*
X150036697Y-74628226D01*
X150036697Y-74628225D01*
X150037206Y-74627111D01*
X150082961Y-74574307D01*
X150150000Y-74554623D01*
X150217040Y-74574308D01*
X150262794Y-74627111D01*
X150263302Y-74628225D01*
X150263303Y-74628226D01*
X150317118Y-74746063D01*
X150401951Y-74843967D01*
X150510931Y-74914004D01*
X150620117Y-74946063D01*
X150635225Y-74950499D01*
X150635227Y-74950500D01*
X150635228Y-74950500D01*
X150764773Y-74950500D01*
X150764773Y-74950499D01*
X150889069Y-74914004D01*
X150998049Y-74843967D01*
X151082882Y-74746063D01*
X151103919Y-74700000D01*
X162844867Y-74700000D01*
X162863302Y-74828225D01*
X162902477Y-74914004D01*
X162917118Y-74946063D01*
X163001951Y-75043967D01*
X163110931Y-75114004D01*
X163235225Y-75150499D01*
X163235227Y-75150500D01*
X163235228Y-75150500D01*
X163364773Y-75150500D01*
X163364773Y-75150499D01*
X163489069Y-75114004D01*
X163598049Y-75043967D01*
X163682882Y-74946063D01*
X163736697Y-74828226D01*
X163755133Y-74700000D01*
X164644867Y-74700000D01*
X164663302Y-74828225D01*
X164702477Y-74914004D01*
X164717118Y-74946063D01*
X164801951Y-75043967D01*
X164910931Y-75114004D01*
X165035225Y-75150499D01*
X165035227Y-75150500D01*
X165035228Y-75150500D01*
X165164773Y-75150500D01*
X165164773Y-75150499D01*
X165289069Y-75114004D01*
X165398049Y-75043967D01*
X165482882Y-74946063D01*
X165536697Y-74828226D01*
X165555133Y-74700000D01*
X165536697Y-74571774D01*
X165482882Y-74453937D01*
X165398049Y-74356033D01*
X165289069Y-74285996D01*
X165289065Y-74285994D01*
X165289064Y-74285994D01*
X165164774Y-74249500D01*
X165164772Y-74249500D01*
X165035228Y-74249500D01*
X165035226Y-74249500D01*
X164910935Y-74285994D01*
X164910932Y-74285995D01*
X164910931Y-74285996D01*
X164859677Y-74318934D01*
X164801950Y-74356033D01*
X164717118Y-74453937D01*
X164717117Y-74453938D01*
X164663302Y-74571774D01*
X164644867Y-74700000D01*
X163755133Y-74700000D01*
X163736697Y-74571774D01*
X163682882Y-74453937D01*
X163598049Y-74356033D01*
X163489069Y-74285996D01*
X163489065Y-74285994D01*
X163489064Y-74285994D01*
X163364774Y-74249500D01*
X163364772Y-74249500D01*
X163235228Y-74249500D01*
X163235226Y-74249500D01*
X163110935Y-74285994D01*
X163110932Y-74285995D01*
X163110931Y-74285996D01*
X163059677Y-74318934D01*
X163001950Y-74356033D01*
X162917118Y-74453937D01*
X162917117Y-74453938D01*
X162863302Y-74571774D01*
X162844867Y-74700000D01*
X151103919Y-74700000D01*
X151136697Y-74628226D01*
X151155133Y-74500000D01*
X151136697Y-74371774D01*
X151082882Y-74253937D01*
X150998049Y-74156033D01*
X150889069Y-74085996D01*
X150889065Y-74085994D01*
X150889064Y-74085994D01*
X150764774Y-74049500D01*
X150764772Y-74049500D01*
X150635228Y-74049500D01*
X150635226Y-74049500D01*
X150510935Y-74085994D01*
X150510932Y-74085995D01*
X150510931Y-74085996D01*
X150459677Y-74118934D01*
X150401950Y-74156033D01*
X150317118Y-74253937D01*
X150317117Y-74253938D01*
X150262794Y-74372888D01*
X150217039Y-74425692D01*
X150149999Y-74445376D01*
X150082960Y-74425691D01*
X150037206Y-74372888D01*
X149982882Y-74253938D01*
X149982882Y-74253937D01*
X149898049Y-74156033D01*
X149789069Y-74085996D01*
X149789065Y-74085994D01*
X149789064Y-74085994D01*
X149664774Y-74049500D01*
X149664772Y-74049500D01*
X149535228Y-74049500D01*
X149535226Y-74049500D01*
X149410935Y-74085994D01*
X149410932Y-74085995D01*
X149410931Y-74085996D01*
X149359677Y-74118934D01*
X149301950Y-74156033D01*
X149217118Y-74253937D01*
X149217117Y-74253938D01*
X149163302Y-74371774D01*
X149144867Y-74500000D01*
X147900500Y-74500000D01*
X147900500Y-74000000D01*
X160644867Y-74000000D01*
X160663302Y-74128225D01*
X160676002Y-74156033D01*
X160717118Y-74246063D01*
X160801951Y-74343967D01*
X160910931Y-74414004D01*
X160950738Y-74425692D01*
X161035225Y-74450499D01*
X161035227Y-74450500D01*
X161035228Y-74450500D01*
X161164773Y-74450500D01*
X161164773Y-74450499D01*
X161289069Y-74414004D01*
X161398049Y-74343967D01*
X161482882Y-74246063D01*
X161536697Y-74128226D01*
X161555133Y-74000000D01*
X161536697Y-73871774D01*
X161482882Y-73753937D01*
X161398049Y-73656033D01*
X161289069Y-73585996D01*
X161289065Y-73585994D01*
X161289064Y-73585994D01*
X161164774Y-73549500D01*
X161164772Y-73549500D01*
X161035228Y-73549500D01*
X161035226Y-73549500D01*
X160910935Y-73585994D01*
X160910932Y-73585995D01*
X160910931Y-73585996D01*
X160859677Y-73618934D01*
X160801950Y-73656033D01*
X160717118Y-73753937D01*
X160717117Y-73753938D01*
X160663302Y-73871774D01*
X160644867Y-74000000D01*
X147900500Y-74000000D01*
X147900500Y-72800000D01*
X162844867Y-72800000D01*
X162863302Y-72928225D01*
X162917117Y-73046061D01*
X162917118Y-73046063D01*
X163001951Y-73143967D01*
X163110931Y-73214004D01*
X163235225Y-73250499D01*
X163235227Y-73250500D01*
X163235228Y-73250500D01*
X163364773Y-73250500D01*
X163364773Y-73250499D01*
X163489069Y-73214004D01*
X163598049Y-73143967D01*
X163682882Y-73046063D01*
X163736697Y-72928226D01*
X163755133Y-72800000D01*
X164644867Y-72800000D01*
X164663302Y-72928225D01*
X164717117Y-73046061D01*
X164717118Y-73046063D01*
X164801951Y-73143967D01*
X164910931Y-73214004D01*
X165035225Y-73250499D01*
X165035227Y-73250500D01*
X165035228Y-73250500D01*
X165164773Y-73250500D01*
X165164773Y-73250499D01*
X165289069Y-73214004D01*
X165398049Y-73143967D01*
X165482882Y-73046063D01*
X165536697Y-72928226D01*
X165555133Y-72800000D01*
X165536697Y-72671774D01*
X165482882Y-72553937D01*
X165398049Y-72456033D01*
X165289069Y-72385996D01*
X165289065Y-72385994D01*
X165289064Y-72385994D01*
X165164774Y-72349500D01*
X165164772Y-72349500D01*
X165035228Y-72349500D01*
X165035226Y-72349500D01*
X164910935Y-72385994D01*
X164910932Y-72385995D01*
X164910931Y-72385996D01*
X164859677Y-72418934D01*
X164801950Y-72456033D01*
X164717118Y-72553937D01*
X164717117Y-72553938D01*
X164663302Y-72671774D01*
X164644867Y-72800000D01*
X163755133Y-72800000D01*
X163736697Y-72671774D01*
X163682882Y-72553937D01*
X163598049Y-72456033D01*
X163489069Y-72385996D01*
X163489065Y-72385994D01*
X163489064Y-72385994D01*
X163364774Y-72349500D01*
X163364772Y-72349500D01*
X163235228Y-72349500D01*
X163235226Y-72349500D01*
X163110935Y-72385994D01*
X163110932Y-72385995D01*
X163110931Y-72385996D01*
X163059677Y-72418934D01*
X163001950Y-72456033D01*
X162917118Y-72553937D01*
X162917117Y-72553938D01*
X162863302Y-72671774D01*
X162844867Y-72800000D01*
X147900500Y-72800000D01*
X147900500Y-71600000D01*
X156044867Y-71600000D01*
X156063302Y-71728225D01*
X156117117Y-71846061D01*
X156117118Y-71846063D01*
X156201951Y-71943967D01*
X156310931Y-72014004D01*
X156435225Y-72050499D01*
X156435227Y-72050500D01*
X156435228Y-72050500D01*
X156564773Y-72050500D01*
X156564773Y-72050499D01*
X156689069Y-72014004D01*
X156798049Y-71943967D01*
X156882882Y-71846063D01*
X156936697Y-71728226D01*
X156955133Y-71600000D01*
X156936697Y-71471774D01*
X156882882Y-71353937D01*
X156798049Y-71256033D01*
X156689069Y-71185996D01*
X156689065Y-71185994D01*
X156689064Y-71185994D01*
X156564774Y-71149500D01*
X156564772Y-71149500D01*
X156435228Y-71149500D01*
X156435226Y-71149500D01*
X156310935Y-71185994D01*
X156310932Y-71185995D01*
X156310931Y-71185996D01*
X156259677Y-71218934D01*
X156201950Y-71256033D01*
X156117118Y-71353937D01*
X156117117Y-71353938D01*
X156063302Y-71471774D01*
X156044867Y-71600000D01*
X147900500Y-71600000D01*
X147900500Y-70500000D01*
X161644867Y-70500000D01*
X161663302Y-70628225D01*
X161717117Y-70746061D01*
X161717118Y-70746063D01*
X161801951Y-70843967D01*
X161910931Y-70914004D01*
X162035225Y-70950499D01*
X162035227Y-70950500D01*
X162035228Y-70950500D01*
X162164773Y-70950500D01*
X162164773Y-70950499D01*
X162289069Y-70914004D01*
X162398049Y-70843967D01*
X162482882Y-70746063D01*
X162536697Y-70628226D01*
X162555133Y-70500000D01*
X162536697Y-70371774D01*
X162482882Y-70253937D01*
X162398049Y-70156033D01*
X162289069Y-70085996D01*
X162289065Y-70085994D01*
X162289064Y-70085994D01*
X162164774Y-70049500D01*
X162164772Y-70049500D01*
X162035228Y-70049500D01*
X162035226Y-70049500D01*
X161910935Y-70085994D01*
X161910932Y-70085995D01*
X161910931Y-70085996D01*
X161859677Y-70118934D01*
X161801950Y-70156033D01*
X161717118Y-70253937D01*
X161717117Y-70253938D01*
X161663302Y-70371774D01*
X161644867Y-70500000D01*
X147900500Y-70500000D01*
X147900500Y-68600000D01*
X161744867Y-68600000D01*
X161763302Y-68728225D01*
X161817117Y-68846061D01*
X161817118Y-68846063D01*
X161901951Y-68943967D01*
X162010931Y-69014004D01*
X162135225Y-69050499D01*
X162135227Y-69050500D01*
X162135228Y-69050500D01*
X162264773Y-69050500D01*
X162264773Y-69050499D01*
X162389069Y-69014004D01*
X162498049Y-68943967D01*
X162582882Y-68846063D01*
X162636697Y-68728226D01*
X162655133Y-68600000D01*
X163544867Y-68600000D01*
X163563302Y-68728225D01*
X163617117Y-68846061D01*
X163617118Y-68846063D01*
X163701951Y-68943967D01*
X163810931Y-69014004D01*
X163935225Y-69050499D01*
X163935227Y-69050500D01*
X163935228Y-69050500D01*
X164064773Y-69050500D01*
X164064773Y-69050499D01*
X164189069Y-69014004D01*
X164298049Y-68943967D01*
X164382882Y-68846063D01*
X164436697Y-68728226D01*
X164455133Y-68600000D01*
X164436697Y-68471774D01*
X164382882Y-68353937D01*
X164298049Y-68256033D01*
X164189069Y-68185996D01*
X164189065Y-68185994D01*
X164189064Y-68185994D01*
X164064774Y-68149500D01*
X164064772Y-68149500D01*
X163935228Y-68149500D01*
X163935226Y-68149500D01*
X163810935Y-68185994D01*
X163810932Y-68185995D01*
X163810931Y-68185996D01*
X163759677Y-68218934D01*
X163701950Y-68256033D01*
X163617118Y-68353937D01*
X163617117Y-68353938D01*
X163563302Y-68471774D01*
X163544867Y-68600000D01*
X162655133Y-68600000D01*
X162636697Y-68471774D01*
X162582882Y-68353937D01*
X162498049Y-68256033D01*
X162389069Y-68185996D01*
X162389065Y-68185994D01*
X162389064Y-68185994D01*
X162264774Y-68149500D01*
X162264772Y-68149500D01*
X162135228Y-68149500D01*
X162135226Y-68149500D01*
X162010935Y-68185994D01*
X162010932Y-68185995D01*
X162010931Y-68185996D01*
X161959677Y-68218934D01*
X161901950Y-68256033D01*
X161817118Y-68353937D01*
X161817117Y-68353938D01*
X161763302Y-68471774D01*
X161744867Y-68600000D01*
X147900500Y-68600000D01*
X147900500Y-67100000D01*
X159944867Y-67100000D01*
X159963302Y-67228225D01*
X160017117Y-67346061D01*
X160017118Y-67346063D01*
X160101951Y-67443967D01*
X160210931Y-67514004D01*
X160335225Y-67550499D01*
X160335227Y-67550500D01*
X160335228Y-67550500D01*
X160464773Y-67550500D01*
X160464773Y-67550499D01*
X160589069Y-67514004D01*
X160698049Y-67443967D01*
X160782882Y-67346063D01*
X160836697Y-67228226D01*
X160855133Y-67100000D01*
X161744867Y-67100000D01*
X161763302Y-67228225D01*
X161817117Y-67346061D01*
X161817118Y-67346063D01*
X161901951Y-67443967D01*
X162010931Y-67514004D01*
X162135225Y-67550499D01*
X162135227Y-67550500D01*
X162135228Y-67550500D01*
X162264773Y-67550500D01*
X162264773Y-67550499D01*
X162389069Y-67514004D01*
X162498049Y-67443967D01*
X162582882Y-67346063D01*
X162636697Y-67228226D01*
X162655133Y-67100000D01*
X163544867Y-67100000D01*
X163563302Y-67228225D01*
X163617117Y-67346061D01*
X163617118Y-67346063D01*
X163701951Y-67443967D01*
X163810931Y-67514004D01*
X163935225Y-67550499D01*
X163935227Y-67550500D01*
X163935228Y-67550500D01*
X164064773Y-67550500D01*
X164064773Y-67550499D01*
X164189069Y-67514004D01*
X164298049Y-67443967D01*
X164382882Y-67346063D01*
X164436697Y-67228226D01*
X164455133Y-67100000D01*
X164436697Y-66971774D01*
X164382882Y-66853937D01*
X164298049Y-66756033D01*
X164189069Y-66685996D01*
X164189065Y-66685994D01*
X164189064Y-66685994D01*
X164064774Y-66649500D01*
X164064772Y-66649500D01*
X163935228Y-66649500D01*
X163935226Y-66649500D01*
X163810935Y-66685994D01*
X163810932Y-66685995D01*
X163810931Y-66685996D01*
X163759677Y-66718934D01*
X163701950Y-66756033D01*
X163617118Y-66853937D01*
X163617117Y-66853938D01*
X163563302Y-66971774D01*
X163544867Y-67100000D01*
X162655133Y-67100000D01*
X162636697Y-66971774D01*
X162582882Y-66853937D01*
X162498049Y-66756033D01*
X162389069Y-66685996D01*
X162389065Y-66685994D01*
X162389064Y-66685994D01*
X162264774Y-66649500D01*
X162264772Y-66649500D01*
X162135228Y-66649500D01*
X162135226Y-66649500D01*
X162010935Y-66685994D01*
X162010932Y-66685995D01*
X162010931Y-66685996D01*
X161959677Y-66718934D01*
X161901950Y-66756033D01*
X161817118Y-66853937D01*
X161817117Y-66853938D01*
X161763302Y-66971774D01*
X161744867Y-67100000D01*
X160855133Y-67100000D01*
X160836697Y-66971774D01*
X160782882Y-66853937D01*
X160698049Y-66756033D01*
X160589069Y-66685996D01*
X160589065Y-66685994D01*
X160589064Y-66685994D01*
X160464774Y-66649500D01*
X160464772Y-66649500D01*
X160335228Y-66649500D01*
X160335226Y-66649500D01*
X160210935Y-66685994D01*
X160210932Y-66685995D01*
X160210931Y-66685996D01*
X160159677Y-66718934D01*
X160101950Y-66756033D01*
X160017118Y-66853937D01*
X160017117Y-66853938D01*
X159963302Y-66971774D01*
X159944867Y-67100000D01*
X147900500Y-67100000D01*
X147900500Y-64724759D01*
X147900528Y-64724616D01*
X147900524Y-64724616D01*
X147900539Y-64700002D01*
X147900541Y-64700000D01*
X147900462Y-64699808D01*
X147900384Y-64699618D01*
X147900383Y-64699617D01*
X147900381Y-64699616D01*
X147900090Y-64699496D01*
X147900001Y-64699459D01*
X147875446Y-64699459D01*
X147875240Y-64699500D01*
X145587581Y-64699500D01*
X145520542Y-64679815D01*
X145474787Y-64627011D01*
X145464843Y-64557853D01*
X145493868Y-64494297D01*
X145547987Y-64457991D01*
X145680345Y-64413393D01*
X146020250Y-64256137D01*
X146020254Y-64256135D01*
X146341191Y-64063034D01*
X146639344Y-63836383D01*
X146639356Y-63836373D01*
X146751006Y-63730612D01*
X146751006Y-63730611D01*
X146159857Y-63139462D01*
X146194601Y-63132551D01*
X146277296Y-63077296D01*
X146332551Y-62994601D01*
X146339462Y-62959856D01*
X146932919Y-63553314D01*
X146932920Y-63553314D01*
X147153744Y-63293341D01*
X147363931Y-62983338D01*
X147539365Y-62652435D01*
X147539371Y-62652423D01*
X147620023Y-62450000D01*
X148844867Y-62450000D01*
X148863302Y-62578225D01*
X148901361Y-62661561D01*
X148917118Y-62696063D01*
X149001951Y-62793967D01*
X149110931Y-62864004D01*
X149223499Y-62897056D01*
X149235225Y-62900499D01*
X149235227Y-62900500D01*
X149235228Y-62900500D01*
X149364773Y-62900500D01*
X149364773Y-62900499D01*
X149489069Y-62864004D01*
X149598049Y-62793967D01*
X149682882Y-62696063D01*
X149736697Y-62578226D01*
X149755133Y-62450000D01*
X150044867Y-62450000D01*
X150063302Y-62578225D01*
X150101361Y-62661561D01*
X150117118Y-62696063D01*
X150201951Y-62793967D01*
X150310931Y-62864004D01*
X150423499Y-62897056D01*
X150435225Y-62900499D01*
X150435227Y-62900500D01*
X150435228Y-62900500D01*
X150564773Y-62900500D01*
X150564773Y-62900499D01*
X150689069Y-62864004D01*
X150798049Y-62793967D01*
X150882882Y-62696063D01*
X150936697Y-62578226D01*
X150955133Y-62450000D01*
X150936697Y-62321774D01*
X150882882Y-62203937D01*
X150798049Y-62106033D01*
X150689069Y-62035996D01*
X150689065Y-62035994D01*
X150689064Y-62035994D01*
X150564774Y-61999500D01*
X150564772Y-61999500D01*
X150435228Y-61999500D01*
X150435226Y-61999500D01*
X150310935Y-62035994D01*
X150310932Y-62035995D01*
X150310931Y-62035996D01*
X150259677Y-62068934D01*
X150201950Y-62106033D01*
X150117118Y-62203937D01*
X150117117Y-62203938D01*
X150063302Y-62321774D01*
X150044867Y-62450000D01*
X149755133Y-62450000D01*
X149736697Y-62321774D01*
X149682882Y-62203937D01*
X149598049Y-62106033D01*
X149489069Y-62035996D01*
X149489065Y-62035994D01*
X149489064Y-62035994D01*
X149364774Y-61999500D01*
X149364772Y-61999500D01*
X149235228Y-61999500D01*
X149235226Y-61999500D01*
X149110935Y-62035994D01*
X149110932Y-62035995D01*
X149110931Y-62035996D01*
X149059677Y-62068934D01*
X149001950Y-62106033D01*
X148917118Y-62203937D01*
X148917117Y-62203938D01*
X148863302Y-62321774D01*
X148844867Y-62450000D01*
X147620023Y-62450000D01*
X147678003Y-62304479D01*
X147678004Y-62304477D01*
X147778199Y-61943606D01*
X147778204Y-61943585D01*
X147838794Y-61574006D01*
X147838795Y-61573989D01*
X147859073Y-61200002D01*
X147859073Y-61199997D01*
X147838795Y-60826010D01*
X147838794Y-60825993D01*
X147778204Y-60456414D01*
X147778199Y-60456393D01*
X147678004Y-60095522D01*
X147678003Y-60095520D01*
X147539371Y-59747576D01*
X147539365Y-59747564D01*
X147363931Y-59416661D01*
X147153744Y-59106659D01*
X147153737Y-59106649D01*
X146932920Y-58846684D01*
X146932919Y-58846683D01*
X146339461Y-59440140D01*
X146332551Y-59405399D01*
X146277296Y-59322704D01*
X146194601Y-59267449D01*
X146159856Y-59260537D01*
X146751007Y-58669387D01*
X146751006Y-58669386D01*
X146639357Y-58563626D01*
X146639353Y-58563623D01*
X146341191Y-58336965D01*
X146020254Y-58143864D01*
X146020250Y-58143862D01*
X145680345Y-57986606D01*
X145547987Y-57942009D01*
X145490743Y-57901949D01*
X145464243Y-57837299D01*
X145476903Y-57768586D01*
X145524702Y-57717625D01*
X145587581Y-57700500D01*
X170799901Y-57700500D01*
X170875500Y-57700500D01*
X170942539Y-57720185D01*
G37*
G04 #@! TD.AperFunction*
G04 #@! TA.AperFunction,Conductor*
G36*
X146020254Y-95954649D02*
G01*
X145985511Y-95961561D01*
X145902816Y-96016816D01*
X145847561Y-96099511D01*
X145840649Y-96134254D01*
X145423999Y-95717604D01*
X145520870Y-95634870D01*
X145603604Y-95537999D01*
X146020254Y-95954649D01*
G37*
G04 #@! TD.AperFunction*
G04 #@! TA.AperFunction,Conductor*
G36*
X145847561Y-92900489D02*
G01*
X145902816Y-92983184D01*
X145985511Y-93038439D01*
X146020253Y-93045349D01*
X145603603Y-93461999D01*
X145520870Y-93365130D01*
X145423999Y-93282395D01*
X145840649Y-92865744D01*
X145847561Y-92900489D01*
G37*
G04 #@! TD.AperFunction*
G04 #@! TA.AperFunction,Conductor*
G36*
X146034255Y-62654649D02*
G01*
X145999511Y-62661561D01*
X145916816Y-62716816D01*
X145861561Y-62799511D01*
X145854649Y-62834254D01*
X145437999Y-62417604D01*
X145534870Y-62334870D01*
X145617604Y-62237999D01*
X146034255Y-62654649D01*
G37*
G04 #@! TD.AperFunction*
G04 #@! TA.AperFunction,Conductor*
G36*
X145861561Y-59600489D02*
G01*
X145916816Y-59683184D01*
X145999511Y-59738439D01*
X146034253Y-59745349D01*
X145617603Y-60161999D01*
X145534870Y-60065130D01*
X145437999Y-59982395D01*
X145854649Y-59565744D01*
X145861561Y-59600489D01*
G37*
G04 #@! TD.AperFunction*
M02*
