M48
; DRILL file {KiCad 7.0.5-0} date 2023 July 15, Saturday 01:27:45
; FORMAT={-:-/ absolute / inch / decimal}
; #@! TF.CreationDate,2023-07-15T01:27:45-04:00
; #@! TF.GenerationSoftware,Kicad,Pcbnew,7.0.5-0
; #@! TF.FileFunction,Plated,1,4,PTH
FMAT,2
INCH
; #@! TA.AperFunction,Plated,PTH,ViaDrill
T1C0.0157
; #@! TA.AperFunction,Plated,PTH,ComponentDrill
T2C0.0197
; #@! TA.AperFunction,Plated,PTH,ComponentDrill
T3C0.0591
; #@! TA.AperFunction,Plated,PTH,ComponentDrill
T4C0.0669
; #@! TA.AperFunction,Plated,PTH,ComponentDrill
T5C0.1260
%
G90
G05
T1
X5.878Y-2.4587
X5.878Y-2.7224
X5.878Y-3.6654
X5.8898Y-2.9331
X5.9252Y-2.4587
X5.9252Y-2.7224
X5.9331Y-2.9331
X5.9646Y-2.7087
X5.9724Y-3.5591
X5.9724Y-3.6122
X5.9764Y-2.9882
X5.9803Y-3.189
X5.9803Y-3.311
X6.0197Y-3.189
X6.0197Y-3.311
X6.0433Y-3.437
X6.0512Y-3.0
X6.0669Y-3.3465
X6.0827Y-3.1181
X6.126Y-3.2874
X6.1339Y-3.5541
X6.1417Y-3.1181
X6.1614Y-2.8189
X6.1772Y-3.3898
X6.1969Y-2.9173
X6.1969Y-3.0984
X6.1969Y-3.2126
X6.2008Y-3.2874
X6.2087Y-3.4803
X6.2303Y-3.7136
X6.2402Y-2.9173
X6.252Y-2.7126
X6.2598Y-3.3465
X6.315Y-2.6417
X6.329Y-3.3583
X6.3317Y-3.5236
X6.34Y-3.665
X6.3425Y-2.9134
X6.378Y-2.8386
X6.3819Y-2.7756
X6.3858Y-2.6417
X6.3858Y-2.7008
X6.3976Y-3.3031
X6.3976Y-3.3583
X6.4016Y-3.1929
X6.4291Y-2.8661
X6.4291Y-2.9409
X6.4567Y-2.6417
X6.4567Y-2.7008
X6.5Y-2.8661
X6.5Y-2.9409
X6.5413Y-3.7146
X6.5748Y-2.5787
X6.6142Y-2.9055
X6.6772Y-2.9055
T2
X5.59Y-3.7205
X5.5906Y-2.4094
X5.6177Y-3.6537
X5.6177Y-3.7873
X5.6182Y-2.3426
X5.6182Y-2.4763
X5.6845Y-3.626
X5.6845Y-3.815
X5.685Y-2.315
X5.685Y-2.5039
X5.7513Y-3.6537
X5.7513Y-3.7873
X5.7519Y-2.3426
X5.7519Y-2.4763
X5.779Y-3.7205
X5.7795Y-2.4094
X5.9478Y-3.0583
X6.0478Y-3.0583
X6.1478Y-3.0583
X6.2478Y-3.0583
X6.3478Y-3.0583
X6.7756Y-3.7205
X6.8033Y-3.6537
X6.8033Y-3.7873
X6.8701Y-3.626
X6.8701Y-3.815
X6.9369Y-3.6537
X6.9369Y-3.7873
X6.9646Y-3.7205
T3
X6.895Y-2.5118
T4
X6.795Y-2.4118
X6.795Y-2.6118
X6.995Y-2.4118
X6.995Y-2.6118
T5
X5.6845Y-3.7205
X5.685Y-2.4094
X6.8701Y-3.7205
T0
M30
