G04 #@! TF.GenerationSoftware,KiCad,Pcbnew,7.0.5-0*
G04 #@! TF.CreationDate,2023-07-15T01:27:44-04:00*
G04 #@! TF.ProjectId,strato_connect,73747261-746f-45f6-936f-6e6e6563742e,rev?*
G04 #@! TF.SameCoordinates,Original*
G04 #@! TF.FileFunction,Copper,L4,Bot*
G04 #@! TF.FilePolarity,Positive*
%FSLAX46Y46*%
G04 Gerber Fmt 4.6, Leading zero omitted, Abs format (unit mm)*
G04 Created by KiCad (PCBNEW 7.0.5-0) date 2023-07-15 01:27:44*
%MOMM*%
%LPD*%
G01*
G04 APERTURE LIST*
G04 #@! TA.AperFunction,ComponentPad*
%ADD10C,2.050000*%
G04 #@! TD*
G04 #@! TA.AperFunction,ComponentPad*
%ADD11C,2.250000*%
G04 #@! TD*
G04 #@! TA.AperFunction,ComponentPad*
%ADD12C,1.000000*%
G04 #@! TD*
G04 #@! TA.AperFunction,ComponentPad*
%ADD13C,0.800000*%
G04 #@! TD*
G04 #@! TA.AperFunction,ComponentPad*
%ADD14C,6.400000*%
G04 #@! TD*
G04 #@! TA.AperFunction,SMDPad,CuDef*
%ADD15R,2.400000X1.500000*%
G04 #@! TD*
G04 #@! TA.AperFunction,ViaPad*
%ADD16C,0.800000*%
G04 #@! TD*
G04 #@! TA.AperFunction,Conductor*
%ADD17C,0.300000*%
G04 #@! TD*
G04 #@! TA.AperFunction,Conductor*
%ADD18C,0.250000*%
G04 #@! TD*
G04 #@! TA.AperFunction,Conductor*
%ADD19C,0.777368*%
G04 #@! TD*
G04 APERTURE END LIST*
D10*
X175133000Y-63800000D03*
D11*
X172593000Y-61260000D03*
X172593000Y-66340000D03*
X177673000Y-61260000D03*
X177673000Y-66340000D03*
D12*
X153615000Y-77680000D03*
D13*
X172100000Y-94500000D03*
X172802944Y-92802944D03*
X172802944Y-96197056D03*
X174500000Y-92100000D03*
D14*
X174500000Y-94500000D03*
D13*
X174500000Y-96900000D03*
X176197056Y-92802944D03*
X176197056Y-96197056D03*
X176900000Y-94500000D03*
D12*
X151075000Y-77680000D03*
D13*
X141986000Y-94500000D03*
X142688944Y-92802944D03*
X142688944Y-96197056D03*
X144386000Y-92100000D03*
D14*
X144386000Y-94500000D03*
D13*
X144386000Y-96900000D03*
X146083056Y-92802944D03*
X146083056Y-96197056D03*
X146786000Y-94500000D03*
X142000000Y-61200000D03*
X142702944Y-59502944D03*
X142702944Y-62897056D03*
X144400000Y-58800000D03*
D14*
X144400000Y-61200000D03*
D13*
X144400000Y-63600000D03*
X146097056Y-59502944D03*
X146097056Y-62897056D03*
X146800000Y-61200000D03*
D12*
X158695000Y-77680000D03*
X161235000Y-77680000D03*
X156155000Y-77680000D03*
D15*
X168760000Y-63800000D03*
X168760000Y-67800000D03*
X168760000Y-71800000D03*
X168760000Y-75800000D03*
X168760000Y-79800000D03*
X168760000Y-83800000D03*
X168760000Y-87800000D03*
X168760000Y-91800000D03*
X149910000Y-91800000D03*
X149910000Y-87800000D03*
X149910000Y-83800000D03*
X149910000Y-79800000D03*
X149910000Y-75800000D03*
X149910000Y-71800000D03*
X149910000Y-67800000D03*
X149910000Y-63800000D03*
D16*
X162100000Y-70500000D03*
X165100000Y-74700000D03*
X151800000Y-75900000D03*
X160755500Y-85300000D03*
X160825000Y-89500000D03*
X164000000Y-68600000D03*
X162200000Y-68600000D03*
X163300000Y-72800000D03*
X163300000Y-74700000D03*
X160400000Y-67100000D03*
X152900000Y-81000000D03*
X153700000Y-76200000D03*
X162200000Y-67100000D03*
X151900000Y-81000000D03*
X149600000Y-74500000D03*
X165100000Y-72800000D03*
X150500000Y-62450000D03*
X149300000Y-62450000D03*
X150700000Y-74500000D03*
X164000000Y-67100000D03*
X157700000Y-88400000D03*
X166150000Y-94350000D03*
X162000000Y-72100000D03*
X167000000Y-65500000D03*
X162500000Y-83900000D03*
X161036000Y-93091000D03*
X168000000Y-73800000D03*
X149300000Y-93100000D03*
X150500000Y-69150000D03*
X162500000Y-85300000D03*
X158500000Y-74100000D03*
X151700000Y-91750000D03*
X158800000Y-68900000D03*
X162600000Y-81100000D03*
X149300000Y-69150000D03*
X151900000Y-84100000D03*
X157500000Y-83500000D03*
X157400000Y-81600000D03*
X151500000Y-68800000D03*
X152900000Y-84100000D03*
X155600000Y-83500000D03*
X169600000Y-73800000D03*
X157400000Y-74100000D03*
X151700000Y-90400000D03*
X161100000Y-74000000D03*
X156500000Y-71600000D03*
X154500000Y-79200000D03*
X156900000Y-86100000D03*
X157400000Y-78700000D03*
X156000000Y-79200000D03*
X154100000Y-85000000D03*
X153500000Y-87300000D03*
X155800000Y-90275000D03*
X158250000Y-94325000D03*
X159000000Y-85000000D03*
D17*
X149300000Y-63190000D02*
X149910000Y-63800000D01*
X149300000Y-62450000D02*
X149300000Y-63190000D01*
X150500000Y-62450000D02*
X150500000Y-63210000D01*
X149300000Y-68410000D02*
X149910000Y-67800000D01*
X149300000Y-92410000D02*
X149910000Y-91800000D01*
X149300000Y-93100000D02*
X149300000Y-92410000D01*
X150500000Y-69150000D02*
X150500000Y-68390000D01*
X149910000Y-91800000D02*
X151650000Y-91800000D01*
X149300000Y-69150000D02*
X149300000Y-68410000D01*
X151650000Y-91800000D02*
X151700000Y-91750000D01*
D18*
X161100000Y-74000000D02*
X158700000Y-71600000D01*
X158700000Y-71600000D02*
X156500000Y-71600000D01*
D19*
X168760000Y-63800000D02*
X175133000Y-63800000D01*
D18*
X168760000Y-83800000D02*
X168760000Y-82610000D01*
X153175000Y-75580000D02*
X151075000Y-77680000D01*
X152595000Y-79200000D02*
X151075000Y-77680000D01*
X154500000Y-79200000D02*
X152595000Y-79200000D01*
X161730000Y-75580000D02*
X153175000Y-75580000D01*
X168760000Y-82610000D02*
X161730000Y-75580000D01*
X158100000Y-80700000D02*
X161545000Y-84145000D01*
X167090000Y-91800000D02*
X168760000Y-91800000D01*
X153615000Y-77680000D02*
X154815000Y-76480000D01*
X157900000Y-77400000D02*
X157900000Y-78100000D01*
X161545000Y-84145000D02*
X161545000Y-86255000D01*
X161545000Y-86255000D02*
X167090000Y-91800000D01*
X157900000Y-78100000D02*
X158100000Y-78300000D01*
X154815000Y-76480000D02*
X156980000Y-76480000D01*
X156980000Y-76480000D02*
X157900000Y-77400000D01*
X158100000Y-78300000D02*
X158100000Y-80700000D01*
X158695000Y-77680000D02*
X159865000Y-78850000D01*
X165250000Y-85450000D02*
X167600000Y-87800000D01*
X159865000Y-78850000D02*
X162150000Y-78850000D01*
X167600000Y-87800000D02*
X168760000Y-87800000D01*
X165250000Y-81950000D02*
X165250000Y-85450000D01*
X162150000Y-78850000D02*
X165250000Y-81950000D01*
X156900000Y-86100000D02*
X156700000Y-85900000D01*
X156700000Y-78225000D02*
X156155000Y-77680000D01*
X156700000Y-85900000D02*
X156700000Y-78225000D01*
X155200000Y-79600000D02*
X155200000Y-77300000D01*
X155200000Y-77300000D02*
X155700000Y-76800000D01*
X154900000Y-79900000D02*
X155200000Y-79600000D01*
X149910000Y-79800000D02*
X152000000Y-79800000D01*
X156800000Y-76800000D02*
X157400000Y-77400000D01*
X155700000Y-76800000D02*
X156800000Y-76800000D01*
X152100000Y-79900000D02*
X154900000Y-79900000D01*
X152000000Y-79800000D02*
X152100000Y-79900000D01*
X157400000Y-77400000D02*
X157400000Y-78700000D01*
X155800000Y-79200000D02*
X155800000Y-82360000D01*
X148380000Y-86270000D02*
X148380000Y-82360000D01*
X148380000Y-82360000D02*
X155800000Y-82360000D01*
X149910000Y-87800000D02*
X148380000Y-86270000D01*
X154100000Y-85000000D02*
X153500000Y-85600000D01*
X153500000Y-85600000D02*
X153500000Y-87300000D01*
X156358264Y-90275000D02*
X158250000Y-92166736D01*
X158250000Y-92166736D02*
X158250000Y-94325000D01*
X155800000Y-90275000D02*
X156358264Y-90275000D01*
X149910000Y-84596827D02*
X149910000Y-83800000D01*
X159000000Y-85400000D02*
X156300000Y-88100000D01*
X152600000Y-88100000D02*
X152600000Y-87286827D01*
X156300000Y-88100000D02*
X152600000Y-88100000D01*
X159000000Y-85000000D02*
X159000000Y-85400000D01*
X152600000Y-87286827D02*
X149910000Y-84596827D01*
G04 #@! TA.AperFunction,Conductor*
G36*
X179442539Y-59420185D02*
G01*
X179488294Y-59472989D01*
X179499500Y-59524500D01*
X179499500Y-68125500D01*
X179479815Y-68192539D01*
X179427011Y-68238294D01*
X179375500Y-68249500D01*
X171300000Y-68249500D01*
X171300000Y-66825204D01*
X171376049Y-66998582D01*
X171501044Y-67189900D01*
X171501047Y-67189904D01*
X171530977Y-67222415D01*
X171530979Y-67222415D01*
X171907479Y-66845914D01*
X172005009Y-66960735D01*
X172088443Y-67024160D01*
X171711350Y-67401253D01*
X171836176Y-67498410D01*
X171836179Y-67498412D01*
X172037157Y-67607175D01*
X172037171Y-67607181D01*
X172253312Y-67681383D01*
X172478734Y-67719000D01*
X172707266Y-67719000D01*
X172932687Y-67681383D01*
X173148828Y-67607181D01*
X173148842Y-67607175D01*
X173349822Y-67498411D01*
X173349827Y-67498407D01*
X173474648Y-67401254D01*
X173474648Y-67401253D01*
X173100212Y-67026817D01*
X173110431Y-67020669D01*
X173244658Y-66893523D01*
X173277576Y-66844971D01*
X173655020Y-67222415D01*
X173655021Y-67222415D01*
X173684948Y-67189908D01*
X173684958Y-67189895D01*
X173809950Y-66998582D01*
X173901752Y-66789293D01*
X173957853Y-66567757D01*
X173957855Y-66567746D01*
X173976726Y-66340005D01*
X176289274Y-66340005D01*
X176308144Y-66567746D01*
X176308146Y-66567757D01*
X176364247Y-66789293D01*
X176456049Y-66998582D01*
X176581044Y-67189900D01*
X176581047Y-67189904D01*
X176610977Y-67222415D01*
X176610979Y-67222415D01*
X176987479Y-66845914D01*
X177085009Y-66960735D01*
X177168443Y-67024160D01*
X176791350Y-67401253D01*
X176916176Y-67498410D01*
X176916179Y-67498412D01*
X177117157Y-67607175D01*
X177117171Y-67607181D01*
X177333312Y-67681383D01*
X177558734Y-67719000D01*
X177787266Y-67719000D01*
X178012687Y-67681383D01*
X178228828Y-67607181D01*
X178228842Y-67607175D01*
X178429822Y-67498411D01*
X178429827Y-67498407D01*
X178554648Y-67401254D01*
X178554648Y-67401253D01*
X178180212Y-67026817D01*
X178190431Y-67020669D01*
X178324658Y-66893523D01*
X178357576Y-66844971D01*
X178735020Y-67222415D01*
X178735021Y-67222415D01*
X178764948Y-67189908D01*
X178764958Y-67189895D01*
X178889950Y-66998582D01*
X178981752Y-66789293D01*
X179037853Y-66567757D01*
X179037855Y-66567746D01*
X179056725Y-66340005D01*
X179056725Y-66339994D01*
X179037855Y-66112253D01*
X179037853Y-66112242D01*
X178981752Y-65890706D01*
X178889950Y-65681417D01*
X178764954Y-65490098D01*
X178764952Y-65490096D01*
X178735021Y-65457583D01*
X178735019Y-65457583D01*
X178358519Y-65834083D01*
X178260991Y-65719265D01*
X178177555Y-65655838D01*
X178554648Y-65278745D01*
X178554648Y-65278744D01*
X178429822Y-65181588D01*
X178429820Y-65181587D01*
X178228842Y-65072824D01*
X178228828Y-65072818D01*
X178012687Y-64998616D01*
X177787266Y-64961000D01*
X177558734Y-64961000D01*
X177333312Y-64998616D01*
X177117171Y-65072818D01*
X177117157Y-65072824D01*
X176916176Y-65181589D01*
X176916165Y-65181596D01*
X176791350Y-65278743D01*
X176791350Y-65278745D01*
X177165787Y-65653182D01*
X177155569Y-65659331D01*
X177021342Y-65786477D01*
X176988423Y-65835028D01*
X176610978Y-65457583D01*
X176581043Y-65490101D01*
X176456049Y-65681417D01*
X176364247Y-65890706D01*
X176308146Y-66112242D01*
X176308144Y-66112253D01*
X176289274Y-66339994D01*
X176289274Y-66340005D01*
X173976726Y-66340005D01*
X173976726Y-66339994D01*
X173957855Y-66112253D01*
X173957853Y-66112242D01*
X173901752Y-65890706D01*
X173809950Y-65681417D01*
X173684954Y-65490098D01*
X173684952Y-65490096D01*
X173655021Y-65457583D01*
X173655019Y-65457583D01*
X173278518Y-65834083D01*
X173180991Y-65719265D01*
X173097554Y-65655838D01*
X173474648Y-65278745D01*
X173474648Y-65278744D01*
X173349822Y-65181588D01*
X173349820Y-65181587D01*
X173148842Y-65072824D01*
X173148828Y-65072818D01*
X172932687Y-64998616D01*
X172707266Y-64961000D01*
X172478734Y-64961000D01*
X172253312Y-64998616D01*
X172037171Y-65072818D01*
X172037157Y-65072824D01*
X171836176Y-65181589D01*
X171836165Y-65181596D01*
X171711350Y-65278743D01*
X171711350Y-65278745D01*
X172085787Y-65653182D01*
X172075569Y-65659331D01*
X171941342Y-65786477D01*
X171908423Y-65835027D01*
X171530978Y-65457583D01*
X171501043Y-65490101D01*
X171376049Y-65681417D01*
X171300000Y-65854794D01*
X171300000Y-64339184D01*
X174011535Y-64339184D01*
X174078574Y-64358869D01*
X174122534Y-64407910D01*
X174129284Y-64421465D01*
X174129289Y-64421474D01*
X174218009Y-64538957D01*
X174260573Y-64595322D01*
X174421568Y-64742088D01*
X174421575Y-64742092D01*
X174421576Y-64742093D01*
X174606786Y-64856770D01*
X174606792Y-64856773D01*
X174629664Y-64865633D01*
X174809931Y-64935470D01*
X175024074Y-64975500D01*
X175024076Y-64975500D01*
X175241924Y-64975500D01*
X175241926Y-64975500D01*
X175456069Y-64935470D01*
X175659210Y-64856772D01*
X175844432Y-64742088D01*
X176005427Y-64595322D01*
X176136712Y-64421472D01*
X176233817Y-64226459D01*
X176293435Y-64016923D01*
X176313536Y-63800000D01*
X176293435Y-63583077D01*
X176233817Y-63373541D01*
X176136712Y-63178528D01*
X176005427Y-63004678D01*
X175844432Y-62857912D01*
X175844428Y-62857909D01*
X175844423Y-62857906D01*
X175659213Y-62743229D01*
X175659207Y-62743226D01*
X175574113Y-62710260D01*
X175456069Y-62664530D01*
X175241926Y-62624500D01*
X175024074Y-62624500D01*
X174809931Y-62664530D01*
X174761130Y-62683435D01*
X174606792Y-62743226D01*
X174606786Y-62743229D01*
X174421576Y-62857906D01*
X174421566Y-62857913D01*
X174260574Y-63004676D01*
X174129289Y-63178525D01*
X174129284Y-63178534D01*
X174122534Y-63192090D01*
X174075030Y-63243326D01*
X174011535Y-63260816D01*
X171300000Y-63260816D01*
X171300000Y-61745204D01*
X171376049Y-61918582D01*
X171501044Y-62109900D01*
X171501047Y-62109904D01*
X171530977Y-62142415D01*
X171530979Y-62142415D01*
X171907479Y-61765914D01*
X172005009Y-61880735D01*
X172088443Y-61944160D01*
X171711350Y-62321253D01*
X171836176Y-62418410D01*
X171836179Y-62418412D01*
X172037157Y-62527175D01*
X172037171Y-62527181D01*
X172253312Y-62601383D01*
X172478734Y-62639000D01*
X172707266Y-62639000D01*
X172932687Y-62601383D01*
X173148828Y-62527181D01*
X173148842Y-62527175D01*
X173349822Y-62418411D01*
X173349827Y-62418407D01*
X173474648Y-62321254D01*
X173474648Y-62321253D01*
X173100212Y-61946817D01*
X173110431Y-61940669D01*
X173244658Y-61813523D01*
X173277576Y-61764971D01*
X173655020Y-62142415D01*
X173655021Y-62142415D01*
X173684948Y-62109908D01*
X173684958Y-62109895D01*
X173809950Y-61918582D01*
X173901752Y-61709293D01*
X173957853Y-61487757D01*
X173957855Y-61487746D01*
X173976726Y-61260005D01*
X176289274Y-61260005D01*
X176308144Y-61487746D01*
X176308146Y-61487757D01*
X176364247Y-61709293D01*
X176456049Y-61918582D01*
X176581044Y-62109900D01*
X176581047Y-62109904D01*
X176610977Y-62142415D01*
X176610979Y-62142415D01*
X176987479Y-61765914D01*
X177085009Y-61880735D01*
X177168443Y-61944160D01*
X176791350Y-62321253D01*
X176916176Y-62418410D01*
X176916179Y-62418412D01*
X177117157Y-62527175D01*
X177117171Y-62527181D01*
X177333312Y-62601383D01*
X177558734Y-62639000D01*
X177787266Y-62639000D01*
X178012687Y-62601383D01*
X178228828Y-62527181D01*
X178228842Y-62527175D01*
X178429822Y-62418411D01*
X178429827Y-62418407D01*
X178554648Y-62321254D01*
X178554648Y-62321253D01*
X178180212Y-61946817D01*
X178190431Y-61940669D01*
X178324658Y-61813523D01*
X178357576Y-61764971D01*
X178735020Y-62142415D01*
X178735021Y-62142415D01*
X178764948Y-62109908D01*
X178764958Y-62109895D01*
X178889950Y-61918582D01*
X178981752Y-61709293D01*
X179037853Y-61487757D01*
X179037855Y-61487746D01*
X179056725Y-61260005D01*
X179056725Y-61259994D01*
X179037855Y-61032253D01*
X179037853Y-61032242D01*
X178981752Y-60810706D01*
X178889950Y-60601417D01*
X178764954Y-60410098D01*
X178764952Y-60410096D01*
X178735021Y-60377583D01*
X178735019Y-60377583D01*
X178358518Y-60754083D01*
X178260991Y-60639265D01*
X178177554Y-60575838D01*
X178554648Y-60198745D01*
X178554648Y-60198744D01*
X178429822Y-60101588D01*
X178429820Y-60101587D01*
X178228842Y-59992824D01*
X178228828Y-59992818D01*
X178012687Y-59918616D01*
X177787266Y-59881000D01*
X177558734Y-59881000D01*
X177333312Y-59918616D01*
X177117171Y-59992818D01*
X177117157Y-59992824D01*
X176916176Y-60101589D01*
X176916165Y-60101596D01*
X176791350Y-60198743D01*
X176791350Y-60198745D01*
X177165787Y-60573182D01*
X177155569Y-60579331D01*
X177021342Y-60706477D01*
X176988423Y-60755027D01*
X176610978Y-60377583D01*
X176581043Y-60410101D01*
X176456049Y-60601417D01*
X176364247Y-60810706D01*
X176308146Y-61032242D01*
X176308144Y-61032253D01*
X176289274Y-61259994D01*
X176289274Y-61260005D01*
X173976726Y-61260005D01*
X173976726Y-61259994D01*
X173957855Y-61032253D01*
X173957853Y-61032242D01*
X173901752Y-60810706D01*
X173809950Y-60601417D01*
X173684954Y-60410098D01*
X173684952Y-60410096D01*
X173655021Y-60377583D01*
X173655019Y-60377583D01*
X173278519Y-60754083D01*
X173180991Y-60639265D01*
X173097555Y-60575838D01*
X173474648Y-60198745D01*
X173474648Y-60198744D01*
X173349822Y-60101588D01*
X173349820Y-60101587D01*
X173148842Y-59992824D01*
X173148828Y-59992818D01*
X172932687Y-59918616D01*
X172707266Y-59881000D01*
X172478734Y-59881000D01*
X172253312Y-59918616D01*
X172037171Y-59992818D01*
X172037157Y-59992824D01*
X171836176Y-60101589D01*
X171836165Y-60101596D01*
X171711350Y-60198743D01*
X171711350Y-60198745D01*
X172085787Y-60573182D01*
X172075569Y-60579331D01*
X171941342Y-60706477D01*
X171908423Y-60755028D01*
X171530978Y-60377583D01*
X171501043Y-60410101D01*
X171376049Y-60601417D01*
X171300000Y-60774794D01*
X171300000Y-59400500D01*
X177699901Y-59400500D01*
X179375500Y-59400500D01*
X179442539Y-59420185D01*
G37*
G04 #@! TD.AperFunction*
G04 #@! TA.AperFunction,Conductor*
G36*
X171300000Y-65854792D02*
G01*
X171284247Y-65890706D01*
X171228146Y-66112242D01*
X171228144Y-66112253D01*
X171209274Y-66339994D01*
X171209274Y-66340005D01*
X171228144Y-66567746D01*
X171228146Y-66567757D01*
X171284247Y-66789293D01*
X171300000Y-66825206D01*
X171300000Y-68249500D01*
X171024760Y-68249500D01*
X171024554Y-68249459D01*
X170999998Y-68249459D01*
X170999909Y-68249496D01*
X170999619Y-68249615D01*
X170999615Y-68249618D01*
X170999459Y-68249999D01*
X170999476Y-68274616D01*
X170999471Y-68274616D01*
X170999500Y-68274759D01*
X170999500Y-68426000D01*
X170979815Y-68493039D01*
X170927011Y-68538794D01*
X170875500Y-68550000D01*
X170338000Y-68550000D01*
X170270961Y-68530315D01*
X170225206Y-68477511D01*
X170214000Y-68426000D01*
X170214000Y-67927000D01*
X168757000Y-67927000D01*
X168689961Y-67907315D01*
X168644206Y-67854511D01*
X168633000Y-67803000D01*
X168633000Y-66796000D01*
X168887000Y-66796000D01*
X168887000Y-67673000D01*
X170213999Y-67673000D01*
X170213999Y-67024985D01*
X170199262Y-66950893D01*
X170199261Y-66950890D01*
X170143123Y-66866876D01*
X170059104Y-66810736D01*
X170059103Y-66810735D01*
X169985021Y-66796000D01*
X168887000Y-66796000D01*
X168633000Y-66796000D01*
X167724000Y-66796000D01*
X167656961Y-66776315D01*
X167611206Y-66723511D01*
X167600000Y-66672000D01*
X167600000Y-64824500D01*
X167619685Y-64757461D01*
X167672489Y-64711706D01*
X167724000Y-64700500D01*
X169974822Y-64700500D01*
X170018717Y-64691768D01*
X170018717Y-64691767D01*
X170018722Y-64691767D01*
X170068504Y-64658504D01*
X170101767Y-64608722D01*
X170110500Y-64564820D01*
X170110500Y-64463183D01*
X170130185Y-64396145D01*
X170182989Y-64350390D01*
X170234500Y-64339184D01*
X171300000Y-64339184D01*
X171300000Y-65854792D01*
G37*
G04 #@! TD.AperFunction*
G04 #@! TA.AperFunction,Conductor*
G36*
X170976926Y-59400556D02*
G01*
X170999998Y-59400540D01*
X171000000Y-59400541D01*
X171000001Y-59400540D01*
X171024616Y-59400524D01*
X171024616Y-59400528D01*
X171024760Y-59400500D01*
X171300000Y-59400500D01*
X171300000Y-60774792D01*
X171284247Y-60810706D01*
X171228146Y-61032242D01*
X171228144Y-61032253D01*
X171209274Y-61259994D01*
X171209274Y-61260005D01*
X171228144Y-61487746D01*
X171228146Y-61487757D01*
X171284247Y-61709293D01*
X171300000Y-61745206D01*
X171300000Y-63260816D01*
X170234500Y-63260816D01*
X170167461Y-63241131D01*
X170121706Y-63188327D01*
X170110500Y-63136816D01*
X170110500Y-63035177D01*
X170101768Y-62991282D01*
X170101767Y-62991281D01*
X170101767Y-62991278D01*
X170068504Y-62941496D01*
X170068503Y-62941495D01*
X170018724Y-62908234D01*
X170018717Y-62908231D01*
X169974822Y-62899500D01*
X169974820Y-62899500D01*
X167724000Y-62899500D01*
X167656961Y-62879815D01*
X167611206Y-62827011D01*
X167600000Y-62775500D01*
X167600000Y-59524000D01*
X167619685Y-59456961D01*
X167672489Y-59411206D01*
X167724000Y-59400000D01*
X170974115Y-59400000D01*
X170976926Y-59400556D01*
G37*
G04 #@! TD.AperFunction*
M02*
