G04 #@! TF.GenerationSoftware,KiCad,Pcbnew,(6.0.5-0)*
G04 #@! TF.CreationDate,2023-06-15T15:10:14-04:00*
G04 #@! TF.ProjectId,stratoconnect,73747261-746f-4636-9f6e-6e6563742e6b,rev?*
G04 #@! TF.SameCoordinates,Original*
G04 #@! TF.FileFunction,Copper,L4,Bot*
G04 #@! TF.FilePolarity,Positive*
%FSLAX46Y46*%
G04 Gerber Fmt 4.6, Leading zero omitted, Abs format (unit mm)*
G04 Created by KiCad (PCBNEW (6.0.5-0)) date 2023-06-15 15:10:14*
%MOMM*%
%LPD*%
G01*
G04 APERTURE LIST*
G04 Aperture macros list*
%AMRoundRect*
0 Rectangle with rounded corners*
0 $1 Rounding radius*
0 $2 $3 $4 $5 $6 $7 $8 $9 X,Y pos of 4 corners*
0 Add a 4 corners polygon primitive as box body*
4,1,4,$2,$3,$4,$5,$6,$7,$8,$9,$2,$3,0*
0 Add four circle primitives for the rounded corners*
1,1,$1+$1,$2,$3*
1,1,$1+$1,$4,$5*
1,1,$1+$1,$6,$7*
1,1,$1+$1,$8,$9*
0 Add four rect primitives between the rounded corners*
20,1,$1+$1,$2,$3,$4,$5,0*
20,1,$1+$1,$4,$5,$6,$7,0*
20,1,$1+$1,$6,$7,$8,$9,0*
20,1,$1+$1,$8,$9,$2,$3,0*%
%AMFreePoly0*
4,1,22,0.500000,-0.750000,0.000000,-0.750000,0.000000,-0.745033,-0.079941,-0.743568,-0.215256,-0.701293,-0.333266,-0.622738,-0.424486,-0.514219,-0.481581,-0.384460,-0.499164,-0.250000,-0.500000,-0.250000,-0.500000,0.250000,-0.499164,0.250000,-0.499963,0.256109,-0.478152,0.396186,-0.417904,0.524511,-0.324060,0.630769,-0.204165,0.706417,-0.067858,0.745374,0.000000,0.744959,0.000000,0.750000,
0.500000,0.750000,0.500000,-0.750000,0.500000,-0.750000,$1*%
%AMFreePoly1*
4,1,20,0.000000,0.744959,0.073905,0.744508,0.209726,0.703889,0.328688,0.626782,0.421226,0.519385,0.479903,0.390333,0.500000,0.250000,0.500000,-0.250000,0.499851,-0.262216,0.476331,-0.402017,0.414519,-0.529596,0.319384,-0.634700,0.198574,-0.708877,0.061801,-0.746166,0.000000,-0.745033,0.000000,-0.750000,-0.500000,-0.750000,-0.500000,0.750000,0.000000,0.750000,0.000000,0.744959,
0.000000,0.744959,$1*%
G04 Aperture macros list end*
G04 #@! TA.AperFunction,ComponentPad*
%ADD10C,0.800000*%
G04 #@! TD*
G04 #@! TA.AperFunction,ComponentPad*
%ADD11C,6.400000*%
G04 #@! TD*
G04 #@! TA.AperFunction,ComponentPad*
%ADD12RoundRect,0.250000X-0.750000X0.600000X-0.750000X-0.600000X0.750000X-0.600000X0.750000X0.600000X0*%
G04 #@! TD*
G04 #@! TA.AperFunction,ComponentPad*
%ADD13O,2.000000X1.700000*%
G04 #@! TD*
G04 #@! TA.AperFunction,ComponentPad*
%ADD14C,0.970000*%
G04 #@! TD*
G04 #@! TA.AperFunction,SMDPad,CuDef*
%ADD15R,4.190000X2.665000*%
G04 #@! TD*
G04 #@! TA.AperFunction,ComponentPad*
%ADD16R,1.700000X1.700000*%
G04 #@! TD*
G04 #@! TA.AperFunction,ComponentPad*
%ADD17O,1.700000X1.700000*%
G04 #@! TD*
G04 #@! TA.AperFunction,SMDPad,CuDef*
%ADD18FreePoly0,180.000000*%
G04 #@! TD*
G04 #@! TA.AperFunction,SMDPad,CuDef*
%ADD19FreePoly1,180.000000*%
G04 #@! TD*
G04 #@! TA.AperFunction,SMDPad,CuDef*
%ADD20FreePoly0,0.000000*%
G04 #@! TD*
G04 #@! TA.AperFunction,SMDPad,CuDef*
%ADD21FreePoly1,0.000000*%
G04 #@! TD*
G04 #@! TA.AperFunction,SMDPad,CuDef*
%ADD22FreePoly0,270.000000*%
G04 #@! TD*
G04 #@! TA.AperFunction,SMDPad,CuDef*
%ADD23FreePoly1,270.000000*%
G04 #@! TD*
G04 #@! TA.AperFunction,ViaPad*
%ADD24C,0.800000*%
G04 #@! TD*
G04 #@! TA.AperFunction,ViaPad*
%ADD25C,1.200000*%
G04 #@! TD*
G04 #@! TA.AperFunction,Conductor*
%ADD26C,0.550000*%
G04 #@! TD*
G04 #@! TA.AperFunction,Conductor*
%ADD27C,0.250000*%
G04 #@! TD*
G04 #@! TA.AperFunction,Conductor*
%ADD28C,0.300000*%
G04 #@! TD*
G04 APERTURE END LIST*
G36*
X164100000Y-79650000D02*
G01*
X163500000Y-79650000D01*
X163500000Y-79150000D01*
X164100000Y-79150000D01*
X164100000Y-79650000D01*
G37*
D10*
X138302944Y-90947056D03*
X141697056Y-90947056D03*
X142400000Y-89250000D03*
X137600000Y-89250000D03*
X140000000Y-91650000D03*
X141697056Y-87552944D03*
X140000000Y-86850000D03*
X138302944Y-87552944D03*
D11*
X140000000Y-89250000D03*
D12*
X201217500Y-58500000D03*
D13*
X201217500Y-61000000D03*
D14*
X142672500Y-52697500D03*
D15*
X142672500Y-59682500D03*
D14*
X141372500Y-59682500D03*
D15*
X142672500Y-52697500D03*
D14*
X142672500Y-59682500D03*
X143972500Y-52697500D03*
X143972500Y-59682500D03*
X141372500Y-52697500D03*
D16*
X171225000Y-78475000D03*
D17*
X173765000Y-78475000D03*
X171225000Y-81015000D03*
X173765000Y-81015000D03*
X171225000Y-83555000D03*
X173765000Y-83555000D03*
D10*
X204250000Y-86850000D03*
X205947056Y-90947056D03*
D11*
X204250000Y-89250000D03*
D10*
X201850000Y-89250000D03*
X204250000Y-91650000D03*
X205947056Y-87552944D03*
X202552944Y-87552944D03*
X202552944Y-90947056D03*
X206650000Y-89250000D03*
X205947056Y-52947056D03*
X205947056Y-49552944D03*
X204250000Y-48850000D03*
X202552944Y-52947056D03*
X206650000Y-51250000D03*
X201850000Y-51250000D03*
X202552944Y-49552944D03*
X204250000Y-53650000D03*
D11*
X204250000Y-51250000D03*
D18*
X193150000Y-73500000D03*
D19*
X191850000Y-73500000D03*
D20*
X187850000Y-63000000D03*
D21*
X189150000Y-63000000D03*
D22*
X163800000Y-78750000D03*
D23*
X163800000Y-80050000D03*
D18*
X193150000Y-76000000D03*
D19*
X191850000Y-76000000D03*
D24*
X183500000Y-61700000D03*
X190025000Y-71975000D03*
D25*
X186000000Y-63000000D03*
D24*
X185750000Y-61750000D03*
X189750000Y-76250000D03*
X181700000Y-76900000D03*
X189000000Y-79250000D03*
X183500000Y-63500000D03*
X183200000Y-50000000D03*
X178900000Y-65250000D03*
X197000000Y-50800000D03*
X181100000Y-65000000D03*
X194050000Y-77500000D03*
X178900000Y-68250000D03*
X200000000Y-56200000D03*
X172250000Y-48250000D03*
X204500000Y-69000000D03*
X200000000Y-48200000D03*
X170750000Y-50000000D03*
X170700000Y-59800000D03*
X168900000Y-84150000D03*
X172700000Y-89300000D03*
X184600000Y-85766250D03*
X194000000Y-65000000D03*
X194500000Y-78400000D03*
X169250000Y-48250000D03*
X166600000Y-86100000D03*
X181100000Y-66750000D03*
X178800000Y-48200000D03*
X200000000Y-50800000D03*
X189250000Y-57000000D03*
X184000000Y-80750000D03*
X181800000Y-48200000D03*
X168900000Y-86100000D03*
X188600000Y-85766250D03*
X197000000Y-56200000D03*
X203000000Y-75800000D03*
X200000000Y-53400000D03*
X205200000Y-56200000D03*
X175600000Y-48200000D03*
X202600000Y-56200000D03*
X197000000Y-48200000D03*
X168700000Y-59800000D03*
X197000000Y-53400000D03*
X184000000Y-82750000D03*
X189250000Y-58000000D03*
X177250000Y-50000000D03*
X189400000Y-61000000D03*
D25*
X192000000Y-63000000D03*
D24*
X180500000Y-73750000D03*
X178000000Y-87500000D03*
X147750000Y-77500000D03*
X147750000Y-85500000D03*
X179250000Y-79750000D03*
X147750000Y-81500000D03*
X176500000Y-76000000D03*
X168750000Y-78750000D03*
X165000000Y-80000000D03*
X191500000Y-68500000D03*
X201750000Y-70250000D03*
X187750000Y-75250000D03*
X190950000Y-74600000D03*
X191850000Y-73500000D03*
X191850000Y-76000000D03*
X185500000Y-79500000D03*
X201750000Y-81750000D03*
X193150000Y-76000000D03*
X195000000Y-74250000D03*
X195193278Y-77306722D03*
X201750000Y-78000000D03*
D26*
X187850000Y-63000000D02*
X186000000Y-63000000D01*
X189150000Y-63000000D02*
X192000000Y-63000000D01*
X180500000Y-85000000D02*
X180500000Y-73750000D01*
X178000000Y-87500000D02*
X180500000Y-85000000D01*
D27*
X147750000Y-77500000D02*
X170250000Y-77500000D01*
X170250000Y-77500000D02*
X171225000Y-78475000D01*
X171225000Y-81015000D02*
X172460000Y-82250000D01*
X176750000Y-82250000D02*
X179250000Y-79750000D01*
X147750000Y-85500000D02*
X173500000Y-85500000D01*
X173500000Y-85500000D02*
X179250000Y-79750000D01*
X172460000Y-82250000D02*
X176750000Y-82250000D01*
X147750000Y-81500000D02*
X148750000Y-82500000D01*
X148750000Y-82500000D02*
X167250000Y-82500000D01*
X176500000Y-76000000D02*
X176500000Y-78280000D01*
X167250000Y-82500000D02*
X170000000Y-79750000D01*
X172500000Y-79750000D02*
X173765000Y-81015000D01*
X170000000Y-79750000D02*
X172500000Y-79750000D01*
X176500000Y-78280000D02*
X173765000Y-81015000D01*
X163800000Y-78750000D02*
X168750000Y-78750000D01*
X163800000Y-80050000D02*
X164950000Y-80050000D01*
X164950000Y-80050000D02*
X165000000Y-80000000D01*
X201750000Y-70250000D02*
X201250000Y-70250000D01*
D28*
X191500000Y-68500000D02*
X199500000Y-68500000D01*
X199500000Y-68500000D02*
X201250000Y-70250000D01*
D27*
X190950000Y-74600000D02*
X190400000Y-74600000D01*
X189750000Y-75250000D02*
X187750000Y-75250000D01*
X190400000Y-74600000D02*
X189750000Y-75250000D01*
X186000000Y-79500000D02*
X188250000Y-81750000D01*
X188250000Y-81750000D02*
X201750000Y-81750000D01*
X185500000Y-79500000D02*
X186000000Y-79500000D01*
X195000000Y-74250000D02*
X193900000Y-74250000D01*
X193900000Y-74250000D02*
X193150000Y-73500000D01*
X195193278Y-77306722D02*
X201056722Y-77306722D01*
X201056722Y-77306722D02*
X201750000Y-78000000D01*
G04 #@! TA.AperFunction,Conductor*
G36*
X149192121Y-47770502D02*
G01*
X149238614Y-47824158D01*
X149250000Y-47876500D01*
X149250000Y-62124000D01*
X149229998Y-62192121D01*
X149176342Y-62238614D01*
X149124000Y-62250000D01*
X140443326Y-62250000D01*
X140375205Y-62229998D01*
X140342458Y-62199509D01*
X140336928Y-62192121D01*
X140243942Y-62067907D01*
X140234222Y-62052783D01*
X140140327Y-61880826D01*
X140132860Y-61864474D01*
X140064390Y-61680902D01*
X140059324Y-61663652D01*
X140017678Y-61472204D01*
X140015120Y-61454410D01*
X140003685Y-61294537D01*
X140004758Y-61272044D01*
X140004253Y-61271999D01*
X140004688Y-61267159D01*
X140005496Y-61262354D01*
X140005647Y-61250000D01*
X140001773Y-61222949D01*
X140000500Y-61205087D01*
X140000500Y-51302576D01*
X140002246Y-51281671D01*
X140004689Y-51267148D01*
X140005496Y-51262354D01*
X140005647Y-51250000D01*
X140004763Y-51243823D01*
X140003529Y-51235208D01*
X140002408Y-51211162D01*
X140017047Y-50913172D01*
X140018259Y-50900866D01*
X140066835Y-50573397D01*
X140069242Y-50561291D01*
X140149686Y-50240142D01*
X140153274Y-50228316D01*
X140264796Y-49916636D01*
X140269527Y-49905212D01*
X140411071Y-49605941D01*
X140416900Y-49595036D01*
X140587092Y-49311088D01*
X140593962Y-49300807D01*
X140791163Y-49034913D01*
X140799007Y-49025355D01*
X141021323Y-48780067D01*
X141030067Y-48771323D01*
X141275355Y-48549007D01*
X141284913Y-48541163D01*
X141550807Y-48343962D01*
X141561088Y-48337092D01*
X141845036Y-48166900D01*
X141855941Y-48161071D01*
X142155212Y-48019527D01*
X142166636Y-48014796D01*
X142478316Y-47903274D01*
X142490142Y-47899686D01*
X142811291Y-47819242D01*
X142823397Y-47816835D01*
X143150871Y-47768258D01*
X143163165Y-47767048D01*
X143457512Y-47752587D01*
X143483077Y-47753936D01*
X143483693Y-47754032D01*
X143484951Y-47754228D01*
X143484953Y-47754228D01*
X143493823Y-47755609D01*
X143502725Y-47754445D01*
X143502728Y-47754445D01*
X143524756Y-47751564D01*
X143541093Y-47750500D01*
X149124000Y-47750500D01*
X149192121Y-47770502D01*
G37*
G04 #@! TD.AperFunction*
G04 #@! TA.AperFunction,Conductor*
G36*
X188241148Y-61020002D02*
G01*
X188287641Y-61073658D01*
X188299023Y-61126969D01*
X188252095Y-67227693D01*
X188250000Y-67500000D01*
X188250000Y-71500000D01*
X191624000Y-71500000D01*
X191692121Y-71520002D01*
X191738614Y-71573658D01*
X191750000Y-71626000D01*
X191750000Y-72526927D01*
X191729998Y-72595048D01*
X191676342Y-72641541D01*
X191657143Y-72648490D01*
X191614922Y-72660001D01*
X191580830Y-72674753D01*
X191458778Y-72749693D01*
X191455336Y-72752551D01*
X191433647Y-72770557D01*
X191433643Y-72770561D01*
X191430198Y-72773421D01*
X191334084Y-72879605D01*
X191313311Y-72910403D01*
X191250864Y-73039295D01*
X191239570Y-73074683D01*
X191215808Y-73215921D01*
X191214002Y-73236055D01*
X191213851Y-73248397D01*
X191215164Y-73268574D01*
X191215510Y-73270989D01*
X191215511Y-73271000D01*
X191217710Y-73286352D01*
X191218983Y-73304214D01*
X191218983Y-73686523D01*
X191217237Y-73707427D01*
X191215808Y-73715921D01*
X191214002Y-73736055D01*
X191213851Y-73748397D01*
X191215164Y-73768574D01*
X191235468Y-73910351D01*
X191236727Y-73914657D01*
X191236728Y-73914661D01*
X191240918Y-73928987D01*
X191240842Y-73999983D01*
X191202393Y-74059668D01*
X191137781Y-74089091D01*
X191090769Y-74086265D01*
X191087966Y-74085104D01*
X191079786Y-74084027D01*
X191079782Y-74084026D01*
X190958188Y-74068018D01*
X190950000Y-74066940D01*
X190941812Y-74068018D01*
X190820218Y-74084026D01*
X190820214Y-74084027D01*
X190812034Y-74085104D01*
X190804410Y-74088262D01*
X190804406Y-74088263D01*
X190691099Y-74135196D01*
X190683470Y-74138356D01*
X190573070Y-74223070D01*
X190568047Y-74229616D01*
X190518136Y-74294660D01*
X190460797Y-74336527D01*
X190418174Y-74343955D01*
X190412171Y-74343955D01*
X190400000Y-74341534D01*
X190387829Y-74343955D01*
X190313260Y-74358787D01*
X190313259Y-74358788D01*
X190301090Y-74361208D01*
X190270746Y-74381483D01*
X190238401Y-74403095D01*
X190238397Y-74403098D01*
X190229021Y-74409363D01*
X190217237Y-74417237D01*
X190210344Y-74427553D01*
X190210342Y-74427555D01*
X190209992Y-74428079D01*
X190194323Y-74447173D01*
X189924557Y-74716940D01*
X189681902Y-74959595D01*
X189619589Y-74993620D01*
X189592806Y-74996500D01*
X188283779Y-74996500D01*
X188215658Y-74976498D01*
X188183817Y-74947205D01*
X188131953Y-74879616D01*
X188126930Y-74873070D01*
X188016530Y-74788356D01*
X188008901Y-74785196D01*
X187895594Y-74738263D01*
X187895590Y-74738262D01*
X187887966Y-74735104D01*
X187879786Y-74734027D01*
X187879782Y-74734026D01*
X187758188Y-74718018D01*
X187750000Y-74716940D01*
X187741812Y-74718018D01*
X187620218Y-74734026D01*
X187620214Y-74734027D01*
X187612034Y-74735104D01*
X187604410Y-74738262D01*
X187604406Y-74738263D01*
X187491099Y-74785196D01*
X187483470Y-74788356D01*
X187373070Y-74873070D01*
X187288356Y-74983470D01*
X187285196Y-74991099D01*
X187238263Y-75104406D01*
X187238262Y-75104410D01*
X187235104Y-75112034D01*
X187234027Y-75120214D01*
X187234026Y-75120218D01*
X187226537Y-75177105D01*
X187216940Y-75250000D01*
X187218018Y-75258188D01*
X187234026Y-75379782D01*
X187234027Y-75379786D01*
X187235104Y-75387966D01*
X187238262Y-75395590D01*
X187238263Y-75395594D01*
X187246069Y-75414439D01*
X187288356Y-75516530D01*
X187373070Y-75626930D01*
X187483470Y-75711644D01*
X187491099Y-75714804D01*
X187604406Y-75761737D01*
X187604410Y-75761738D01*
X187612034Y-75764896D01*
X187620214Y-75765973D01*
X187620218Y-75765974D01*
X187741812Y-75781982D01*
X187750000Y-75783060D01*
X187758188Y-75781982D01*
X187879782Y-75765974D01*
X187879786Y-75765973D01*
X187887966Y-75764896D01*
X187895590Y-75761738D01*
X187895594Y-75761737D01*
X188008901Y-75714804D01*
X188016530Y-75711644D01*
X188126930Y-75626930D01*
X188167021Y-75574683D01*
X188183817Y-75552795D01*
X188241156Y-75510928D01*
X188283779Y-75503500D01*
X189712624Y-75503500D01*
X189737206Y-75505921D01*
X189750000Y-75508466D01*
X189774965Y-75503500D01*
X189836742Y-75491212D01*
X189836744Y-75491211D01*
X189848911Y-75488791D01*
X189859226Y-75481899D01*
X189859228Y-75481898D01*
X189922447Y-75439656D01*
X189932763Y-75432763D01*
X189939656Y-75422447D01*
X189939658Y-75422445D01*
X189940010Y-75421918D01*
X189955680Y-75402823D01*
X190388989Y-74969515D01*
X190451301Y-74935490D01*
X190522117Y-74940555D01*
X190567179Y-74969516D01*
X190568047Y-74970384D01*
X190573070Y-74976930D01*
X190579616Y-74981953D01*
X190638227Y-75026927D01*
X190683470Y-75061644D01*
X190691099Y-75064804D01*
X190804406Y-75111737D01*
X190804410Y-75111738D01*
X190812034Y-75114896D01*
X190820214Y-75115973D01*
X190820218Y-75115974D01*
X190941812Y-75131982D01*
X190950000Y-75133060D01*
X190958188Y-75131982D01*
X191079782Y-75115974D01*
X191079786Y-75115973D01*
X191087966Y-75114896D01*
X191095590Y-75111738D01*
X191095594Y-75111737D01*
X191208901Y-75064804D01*
X191216530Y-75061644D01*
X191261774Y-75026927D01*
X191320384Y-74981953D01*
X191326930Y-74976930D01*
X191411644Y-74866530D01*
X191414804Y-74858901D01*
X191461737Y-74745594D01*
X191461738Y-74745590D01*
X191464896Y-74737966D01*
X191465973Y-74729786D01*
X191465974Y-74729782D01*
X191481982Y-74608188D01*
X191483060Y-74600000D01*
X191467197Y-74479512D01*
X191478136Y-74409363D01*
X191525264Y-74356264D01*
X191593618Y-74337074D01*
X191628216Y-74342346D01*
X191660103Y-74351882D01*
X191719635Y-74390562D01*
X191748805Y-74455289D01*
X191750000Y-74472599D01*
X191750000Y-75026927D01*
X191729998Y-75095048D01*
X191676342Y-75141541D01*
X191657143Y-75148490D01*
X191614922Y-75160001D01*
X191580830Y-75174753D01*
X191458778Y-75249693D01*
X191455336Y-75252551D01*
X191433647Y-75270557D01*
X191433643Y-75270561D01*
X191430198Y-75273421D01*
X191334084Y-75379605D01*
X191313311Y-75410403D01*
X191311356Y-75414439D01*
X191264608Y-75510928D01*
X191250864Y-75539295D01*
X191249501Y-75543564D01*
X191249500Y-75543568D01*
X191244454Y-75559381D01*
X191239570Y-75574683D01*
X191215808Y-75715921D01*
X191214002Y-75736055D01*
X191213851Y-75748397D01*
X191214009Y-75750822D01*
X191214925Y-75764896D01*
X191215164Y-75768574D01*
X191215510Y-75770989D01*
X191215511Y-75771000D01*
X191217710Y-75786352D01*
X191218983Y-75804214D01*
X191218983Y-76186523D01*
X191217237Y-76207427D01*
X191215808Y-76215921D01*
X191214002Y-76236055D01*
X191213851Y-76248397D01*
X191215164Y-76268574D01*
X191235468Y-76410351D01*
X191245894Y-76446005D01*
X191305174Y-76576384D01*
X191325188Y-76607678D01*
X191418678Y-76716179D01*
X191422047Y-76719118D01*
X191422051Y-76719122D01*
X191433866Y-76729429D01*
X191446671Y-76740599D01*
X191450439Y-76743042D01*
X191450440Y-76743042D01*
X191563092Y-76816060D01*
X191563099Y-76816064D01*
X191566856Y-76818499D01*
X191600578Y-76834081D01*
X191604876Y-76835366D01*
X191604875Y-76835366D01*
X191660102Y-76851882D01*
X191719635Y-76890563D01*
X191748806Y-76955291D01*
X191750000Y-76972599D01*
X191750000Y-80374000D01*
X191729998Y-80442121D01*
X191676342Y-80488614D01*
X191624000Y-80500000D01*
X187410693Y-80500000D01*
X187342572Y-80479998D01*
X187321598Y-80463095D01*
X186205682Y-79347179D01*
X186190012Y-79328085D01*
X186189658Y-79327555D01*
X186189656Y-79327553D01*
X186182763Y-79317237D01*
X186172447Y-79310344D01*
X186109228Y-79268102D01*
X186109226Y-79268101D01*
X186098911Y-79261209D01*
X186086744Y-79258789D01*
X186086742Y-79258788D01*
X186024965Y-79246500D01*
X186024962Y-79246499D01*
X186008545Y-79243233D01*
X185945637Y-79210324D01*
X185933168Y-79196359D01*
X185881956Y-79129619D01*
X185881953Y-79129616D01*
X185876930Y-79123070D01*
X185766530Y-79038356D01*
X185758901Y-79035196D01*
X185645594Y-78988263D01*
X185645590Y-78988262D01*
X185637966Y-78985104D01*
X185629786Y-78984027D01*
X185629782Y-78984026D01*
X185508188Y-78968018D01*
X185500000Y-78966940D01*
X185491812Y-78968018D01*
X185370218Y-78984026D01*
X185370214Y-78984027D01*
X185362034Y-78985104D01*
X185354410Y-78988262D01*
X185354406Y-78988263D01*
X185241099Y-79035196D01*
X185233470Y-79038356D01*
X185123070Y-79123070D01*
X185038356Y-79233470D01*
X185035196Y-79241099D01*
X184988263Y-79354406D01*
X184988262Y-79354410D01*
X184985104Y-79362034D01*
X184984027Y-79370214D01*
X184984026Y-79370218D01*
X184968130Y-79490961D01*
X184966940Y-79500000D01*
X184968018Y-79508188D01*
X184984026Y-79629782D01*
X184984027Y-79629786D01*
X184985104Y-79637966D01*
X184988262Y-79645590D01*
X184988263Y-79645594D01*
X185035196Y-79758901D01*
X185038356Y-79766530D01*
X185123070Y-79876930D01*
X185233470Y-79961644D01*
X185241099Y-79964804D01*
X185354406Y-80011737D01*
X185354410Y-80011738D01*
X185362034Y-80014896D01*
X185370214Y-80015973D01*
X185370218Y-80015974D01*
X185491812Y-80031982D01*
X185500000Y-80033060D01*
X185508188Y-80031982D01*
X185629782Y-80015974D01*
X185629786Y-80015973D01*
X185637966Y-80014896D01*
X185645590Y-80011738D01*
X185645594Y-80011737D01*
X185758901Y-79964804D01*
X185766530Y-79961644D01*
X185773078Y-79956619D01*
X185773084Y-79956616D01*
X185869329Y-79882764D01*
X185935549Y-79857163D01*
X186005098Y-79871428D01*
X186035128Y-79893631D01*
X186426402Y-80284905D01*
X186460428Y-80347217D01*
X186455363Y-80418032D01*
X186412816Y-80474868D01*
X186346296Y-80499679D01*
X186337307Y-80500000D01*
X184536464Y-80500000D01*
X184468343Y-80479998D01*
X184436502Y-80450704D01*
X184381956Y-80379619D01*
X184381953Y-80379616D01*
X184376930Y-80373070D01*
X184266530Y-80288356D01*
X184258198Y-80284905D01*
X184145594Y-80238263D01*
X184145590Y-80238262D01*
X184137966Y-80235104D01*
X184129786Y-80234027D01*
X184129782Y-80234026D01*
X184008188Y-80218018D01*
X184000000Y-80216940D01*
X183991812Y-80218018D01*
X183870218Y-80234026D01*
X183870214Y-80234027D01*
X183862034Y-80235104D01*
X183854410Y-80238262D01*
X183854406Y-80238263D01*
X183741802Y-80284905D01*
X183733470Y-80288356D01*
X183623070Y-80373070D01*
X183618047Y-80379616D01*
X183618044Y-80379619D01*
X183563498Y-80450704D01*
X183506160Y-80492571D01*
X183463536Y-80500000D01*
X181376000Y-80500000D01*
X181307879Y-80479998D01*
X181261386Y-80426342D01*
X181250000Y-80374000D01*
X181250000Y-67344102D01*
X181270002Y-67275981D01*
X181327782Y-67227693D01*
X181366530Y-67211644D01*
X181476930Y-67126930D01*
X181561644Y-67016530D01*
X181564804Y-67008901D01*
X181611737Y-66895594D01*
X181611738Y-66895590D01*
X181614896Y-66887966D01*
X181615973Y-66879786D01*
X181615974Y-66879782D01*
X181631982Y-66758188D01*
X181633060Y-66750000D01*
X181631870Y-66740961D01*
X181615974Y-66620218D01*
X181615973Y-66620214D01*
X181614896Y-66612034D01*
X181611738Y-66604410D01*
X181611737Y-66604406D01*
X181564804Y-66491099D01*
X181561644Y-66483470D01*
X181476930Y-66373070D01*
X181366530Y-66288356D01*
X181327782Y-66272306D01*
X181272502Y-66227760D01*
X181250000Y-66155898D01*
X181250000Y-65594102D01*
X181270002Y-65525981D01*
X181327782Y-65477693D01*
X181366530Y-65461644D01*
X181476930Y-65376930D01*
X181561644Y-65266530D01*
X181564804Y-65258901D01*
X181611737Y-65145594D01*
X181611738Y-65145590D01*
X181614896Y-65137966D01*
X181615973Y-65129786D01*
X181615974Y-65129782D01*
X181631982Y-65008188D01*
X181633060Y-65000000D01*
X181631870Y-64990961D01*
X181615974Y-64870218D01*
X181615973Y-64870214D01*
X181614896Y-64862034D01*
X181611738Y-64854410D01*
X181611737Y-64854406D01*
X181564804Y-64741099D01*
X181561644Y-64733470D01*
X181476930Y-64623070D01*
X181366530Y-64538356D01*
X181327782Y-64522306D01*
X181272502Y-64477760D01*
X181250000Y-64405898D01*
X181250000Y-61126000D01*
X181270002Y-61057879D01*
X181323658Y-61011386D01*
X181376000Y-61000000D01*
X188173027Y-61000000D01*
X188241148Y-61020002D01*
G37*
G04 #@! TD.AperFunction*
M02*
