M48
; DRILL file {KiCad (6.0.5-0)} date Thursday, June 15, 2023 at 03:10:16 pm
; FORMAT={-:-/ absolute / metric / decimal}
; #@! TF.CreationDate,2023-06-15T15:10:16-04:00
; #@! TF.GenerationSoftware,Kicad,Pcbnew,(6.0.5-0)
; #@! TF.FileFunction,Plated,1,4,PTH
FMAT,2
METRIC
; #@! TA.AperFunction,Plated,PTH,ViaDrill
T1C0.400
; #@! TA.AperFunction,Plated,PTH,ComponentDrill
T2C0.460
; #@! TA.AperFunction,Plated,PTH,ComponentDrill
T3C0.500
; #@! TA.AperFunction,Plated,PTH,ViaDrill
T4C0.600
; #@! TA.AperFunction,Plated,PTH,ComponentDrill
T5C1.000
; #@! TA.AperFunction,Plated,PTH,ComponentDrill
T6C3.200
%
G90
G05
T1
X147.75Y-77.5
X147.75Y-81.5
X147.75Y-85.5
X165.0Y-80.0
X166.6Y-86.1
X168.7Y-59.8
X168.75Y-78.75
X168.9Y-84.15
X168.9Y-86.1
X169.25Y-48.25
X170.7Y-59.8
X170.75Y-50.0
X172.25Y-48.25
X172.7Y-89.3
X175.6Y-48.2
X176.5Y-76.0
X177.25Y-50.0
X178.0Y-87.5
X178.8Y-48.2
X178.9Y-65.25
X178.9Y-68.25
X179.25Y-79.75
X180.5Y-73.75
X181.1Y-65.0
X181.1Y-66.75
X181.7Y-76.9
X181.8Y-48.2
X183.2Y-50.0
X183.5Y-61.7
X183.5Y-63.5
X184.0Y-80.75
X184.0Y-82.75
X184.6Y-85.766
X185.5Y-79.5
X185.75Y-61.75
X187.75Y-75.25
X188.6Y-85.766
X189.0Y-79.25
X189.25Y-57.0
X189.25Y-58.0
X189.4Y-61.0
X189.75Y-76.25
X190.025Y-71.975
X190.95Y-74.6
X191.5Y-68.5
X191.85Y-73.5
X191.85Y-76.0
X193.15Y-76.0
X194.0Y-65.0
X194.05Y-77.5
X194.5Y-78.4
X195.0Y-74.25
X195.193Y-77.307
X197.0Y-48.2
X197.0Y-50.8
X197.0Y-53.4
X197.0Y-56.2
X200.0Y-48.2
X200.0Y-50.8
X200.0Y-53.4
X200.0Y-56.2
X201.75Y-70.25
X201.75Y-78.0
X201.75Y-81.75
X202.6Y-56.2
X203.0Y-75.8
X204.5Y-69.0
X205.2Y-56.2
T2
X141.373Y-52.697
X141.373Y-59.682
X142.672Y-52.697
X142.672Y-59.682
X143.972Y-52.697
X143.972Y-59.682
T3
X137.6Y-89.25
X138.303Y-87.553
X138.303Y-90.947
X140.0Y-86.85
X140.0Y-91.65
X141.697Y-87.553
X141.697Y-90.947
X142.4Y-89.25
X201.85Y-51.25
X201.85Y-89.25
X202.553Y-49.553
X202.553Y-52.947
X202.553Y-87.553
X202.553Y-90.947
X204.25Y-48.85
X204.25Y-53.65
X204.25Y-86.85
X204.25Y-91.65
X205.947Y-49.553
X205.947Y-52.947
X205.947Y-87.553
X205.947Y-90.947
X206.65Y-51.25
X206.65Y-89.25
T4
X186.0Y-63.0
X192.0Y-63.0
T5
X171.225Y-78.475
X171.225Y-81.015
X171.225Y-83.555
X173.765Y-78.475
X173.765Y-81.015
X173.765Y-83.555
X201.218Y-58.5
X201.218Y-61.0
T6
X140.0Y-89.25
X204.25Y-51.25
X204.25Y-89.25
T0
M30
