G04 #@! TF.GenerationSoftware,KiCad,Pcbnew,(6.0.5-0)*
G04 #@! TF.CreationDate,2023-06-15T15:10:14-04:00*
G04 #@! TF.ProjectId,stratoconnect,73747261-746f-4636-9f6e-6e6563742e6b,rev?*
G04 #@! TF.SameCoordinates,Original*
G04 #@! TF.FileFunction,Soldermask,Top*
G04 #@! TF.FilePolarity,Negative*
%FSLAX46Y46*%
G04 Gerber Fmt 4.6, Leading zero omitted, Abs format (unit mm)*
G04 Created by KiCad (PCBNEW (6.0.5-0)) date 2023-06-15 15:10:14*
%MOMM*%
%LPD*%
G01*
G04 APERTURE LIST*
G04 Aperture macros list*
%AMRoundRect*
0 Rectangle with rounded corners*
0 $1 Rounding radius*
0 $2 $3 $4 $5 $6 $7 $8 $9 X,Y pos of 4 corners*
0 Add a 4 corners polygon primitive as box body*
4,1,4,$2,$3,$4,$5,$6,$7,$8,$9,$2,$3,0*
0 Add four circle primitives for the rounded corners*
1,1,$1+$1,$2,$3*
1,1,$1+$1,$4,$5*
1,1,$1+$1,$6,$7*
1,1,$1+$1,$8,$9*
0 Add four rect primitives between the rounded corners*
20,1,$1+$1,$2,$3,$4,$5,0*
20,1,$1+$1,$4,$5,$6,$7,0*
20,1,$1+$1,$6,$7,$8,$9,0*
20,1,$1+$1,$8,$9,$2,$3,0*%
G04 Aperture macros list end*
%ADD10R,0.900000X1.000000*%
%ADD11RoundRect,0.200000X-0.275000X0.200000X-0.275000X-0.200000X0.275000X-0.200000X0.275000X0.200000X0*%
%ADD12RoundRect,0.150000X0.700000X-0.150000X0.700000X0.150000X-0.700000X0.150000X-0.700000X-0.150000X0*%
%ADD13RoundRect,0.250000X1.100000X-0.250000X1.100000X0.250000X-1.100000X0.250000X-1.100000X-0.250000X0*%
%ADD14RoundRect,0.250000X0.550000X-1.250000X0.550000X1.250000X-0.550000X1.250000X-0.550000X-1.250000X0*%
%ADD15RoundRect,0.200000X-0.200000X-0.275000X0.200000X-0.275000X0.200000X0.275000X-0.200000X0.275000X0*%
%ADD16RoundRect,0.250000X-0.475000X0.250000X-0.475000X-0.250000X0.475000X-0.250000X0.475000X0.250000X0*%
%ADD17RoundRect,0.200000X0.200000X0.275000X-0.200000X0.275000X-0.200000X-0.275000X0.200000X-0.275000X0*%
%ADD18RoundRect,0.225000X-0.225000X-0.250000X0.225000X-0.250000X0.225000X0.250000X-0.225000X0.250000X0*%
%ADD19R,0.400000X1.900000*%
%ADD20RoundRect,0.225000X0.225000X0.250000X-0.225000X0.250000X-0.225000X-0.250000X0.225000X-0.250000X0*%
%ADD21C,0.800000*%
%ADD22C,6.400000*%
%ADD23RoundRect,0.250000X-0.750000X0.600000X-0.750000X-0.600000X0.750000X-0.600000X0.750000X0.600000X0*%
%ADD24O,2.000000X1.700000*%
%ADD25R,4.190000X1.780000*%
%ADD26R,4.190000X2.665000*%
%ADD27R,1.700000X1.700000*%
%ADD28O,1.700000X1.700000*%
%ADD29R,2.400000X1.500000*%
%ADD30R,1.400000X0.450000*%
%ADD31R,1.700000X0.300000*%
%ADD32R,0.650000X0.350000*%
%ADD33RoundRect,0.250000X-0.262500X-0.450000X0.262500X-0.450000X0.262500X0.450000X-0.262500X0.450000X0*%
%ADD34R,0.800000X0.300000*%
%ADD35R,0.550000X1.600000*%
%ADD36R,1.600000X0.550000*%
%ADD37RoundRect,0.225000X-0.250000X0.225000X-0.250000X-0.225000X0.250000X-0.225000X0.250000X0.225000X0*%
%ADD38RoundRect,0.218750X0.256250X-0.218750X0.256250X0.218750X-0.256250X0.218750X-0.256250X-0.218750X0*%
%ADD39RoundRect,0.351852X0.598148X2.698148X-0.598148X2.698148X-0.598148X-2.698148X0.598148X-2.698148X0*%
%ADD40RoundRect,0.218750X-0.218750X-0.256250X0.218750X-0.256250X0.218750X0.256250X-0.218750X0.256250X0*%
%ADD41R,3.200000X4.900000*%
%ADD42R,0.950000X1.000000*%
%ADD43RoundRect,0.200000X0.275000X-0.200000X0.275000X0.200000X-0.275000X0.200000X-0.275000X-0.200000X0*%
%ADD44RoundRect,0.250000X-0.450000X0.262500X-0.450000X-0.262500X0.450000X-0.262500X0.450000X0.262500X0*%
G04 APERTURE END LIST*
D10*
X174800000Y-89300000D03*
X170700000Y-89300000D03*
X174800000Y-87700000D03*
X170700000Y-87700000D03*
D11*
X185350000Y-65925000D03*
X185350000Y-67575000D03*
D12*
X203150000Y-81750000D03*
X203150000Y-80500000D03*
X203150000Y-79250000D03*
X203150000Y-78000000D03*
X203150000Y-76750000D03*
D13*
X206350000Y-74900000D03*
X206350000Y-83600000D03*
D14*
X174250000Y-54950000D03*
X174250000Y-50550000D03*
D15*
X188925000Y-70250000D03*
X190575000Y-70250000D03*
D16*
X188000000Y-56050000D03*
X188000000Y-57950000D03*
D17*
X177293750Y-60200000D03*
X175643750Y-60200000D03*
D18*
X181325000Y-80750000D03*
X182875000Y-80750000D03*
D11*
X194000000Y-71950000D03*
X194000000Y-73600000D03*
D19*
X177700000Y-66750000D03*
X178900000Y-66750000D03*
X180100000Y-66750000D03*
D10*
X196050000Y-64950000D03*
X191950000Y-64950000D03*
X196050000Y-66550000D03*
X191950000Y-66550000D03*
D20*
X183375000Y-67550000D03*
X181825000Y-67550000D03*
D21*
X138302944Y-90947056D03*
X141697056Y-90947056D03*
X142400000Y-89250000D03*
X137600000Y-89250000D03*
X140000000Y-91650000D03*
X141697056Y-87552944D03*
X140000000Y-86850000D03*
X138302944Y-87552944D03*
D22*
X140000000Y-89250000D03*
D23*
X201217500Y-58500000D03*
D24*
X201217500Y-61000000D03*
D11*
X185600000Y-80691250D03*
X185600000Y-82341250D03*
D14*
X180500000Y-54950000D03*
X180500000Y-50550000D03*
D25*
X142672500Y-56190000D03*
D26*
X142672500Y-59682500D03*
X142672500Y-52697500D03*
D27*
X171225000Y-78475000D03*
D28*
X173765000Y-78475000D03*
X171225000Y-81015000D03*
X173765000Y-81015000D03*
X171225000Y-83555000D03*
X173765000Y-83555000D03*
D29*
X147760000Y-56190000D03*
X147760000Y-60190000D03*
X147760000Y-64190000D03*
X147760000Y-68190000D03*
X147760000Y-72190000D03*
X147760000Y-76190000D03*
X147760000Y-80190000D03*
X147760000Y-84190000D03*
X166610000Y-84190000D03*
X166610000Y-80190000D03*
X166610000Y-76190000D03*
X166610000Y-72190000D03*
X166610000Y-68190000D03*
X166610000Y-64190000D03*
X166610000Y-60190000D03*
X166610000Y-56190000D03*
D30*
X184075000Y-57300000D03*
D31*
X184225000Y-56750000D03*
D30*
X184075000Y-56200000D03*
D32*
X185800000Y-56000000D03*
X185800000Y-56500000D03*
X185800000Y-57000000D03*
X185800000Y-57500000D03*
D33*
X183837500Y-59750000D03*
X185662500Y-59750000D03*
D18*
X181325000Y-82750000D03*
X182875000Y-82750000D03*
D11*
X188950002Y-71975000D03*
X188950002Y-73625000D03*
D34*
X194050000Y-76750000D03*
X194050000Y-76250000D03*
X194050000Y-75750000D03*
X194050000Y-75250000D03*
X190950000Y-75250000D03*
X190950000Y-75750000D03*
X190950000Y-76250000D03*
X190950000Y-76750000D03*
D35*
X184900000Y-69750000D03*
X184100000Y-69750000D03*
X183300000Y-69750000D03*
X182500000Y-69750000D03*
X181700000Y-69750000D03*
X180900000Y-69750000D03*
X180100000Y-69750000D03*
X179300000Y-69750000D03*
D36*
X177850000Y-71200000D03*
X177850000Y-72000000D03*
X177850000Y-72800000D03*
X177850000Y-73600000D03*
X177850000Y-74400000D03*
X177850000Y-75200000D03*
X177850000Y-76000000D03*
X177850000Y-76800000D03*
D35*
X179300000Y-78250000D03*
X180100000Y-78250000D03*
X180900000Y-78250000D03*
X181700000Y-78250000D03*
X182500000Y-78250000D03*
X183300000Y-78250000D03*
X184100000Y-78250000D03*
X184900000Y-78250000D03*
D36*
X186350000Y-76800000D03*
X186350000Y-76000000D03*
X186350000Y-75200000D03*
X186350000Y-74400000D03*
X186350000Y-73600000D03*
X186350000Y-72800000D03*
X186350000Y-72000000D03*
X186350000Y-71200000D03*
D37*
X171500000Y-56325000D03*
X171500000Y-57875000D03*
D12*
X203150000Y-70250000D03*
X203150000Y-69000000D03*
X203150000Y-67750000D03*
D13*
X206350000Y-72100000D03*
X206350000Y-65900000D03*
D38*
X187600000Y-85803750D03*
X187600000Y-84228750D03*
D39*
X191750000Y-51500000D03*
X185750000Y-51500000D03*
D11*
X187600000Y-80691250D03*
X187600000Y-82341250D03*
X190950002Y-71975000D03*
X190950002Y-73625000D03*
D21*
X204250000Y-86850000D03*
X205947056Y-90947056D03*
D22*
X204250000Y-89250000D03*
D21*
X201850000Y-89250000D03*
X204250000Y-91650000D03*
X205947056Y-87552944D03*
X202552944Y-87552944D03*
X202552944Y-90947056D03*
X206650000Y-89250000D03*
D40*
X172181250Y-60200000D03*
X173756250Y-60200000D03*
D41*
X192000000Y-58550000D03*
D42*
X192970000Y-62900000D03*
X191030000Y-62900000D03*
D37*
X169500000Y-56325000D03*
X169500000Y-57875000D03*
D43*
X189800000Y-80025000D03*
X189800000Y-78375000D03*
D20*
X183375000Y-65750000D03*
X181825000Y-65750000D03*
D38*
X185600000Y-85803750D03*
X185600000Y-84228750D03*
D15*
X188925000Y-68500000D03*
X190575000Y-68500000D03*
D44*
X188000000Y-60087500D03*
X188000000Y-61912500D03*
D21*
X205947056Y-52947056D03*
X205947056Y-49552944D03*
X204250000Y-48850000D03*
X202552944Y-52947056D03*
X206650000Y-51250000D03*
X201850000Y-51250000D03*
X202552944Y-49552944D03*
X204250000Y-53650000D03*
D22*
X204250000Y-51250000D03*
D11*
X196250000Y-71975000D03*
X196250000Y-73625000D03*
X177000000Y-85925000D03*
X177000000Y-87575000D03*
D18*
X191825000Y-78400000D03*
X193375000Y-78400000D03*
M02*
